<?xml version="1.0" encoding="UTF-8" standalone="no"?>
<!-- Created with Inkscape (http://www.inkscape.org/) -->

<svg
   width="210mm"
   height="297mm"
   viewBox="0 0 210 297"
   version="1.1"
   id="svg5"
   sodipodi:docname="area_em_termos_da_corda.svg"
   inkscape:version="1.2 (dc2aedaf03, 2022-05-15)"
   inkscape:export-filename="/home/marcosgil/Desktop/Tese de Mestrado/Tese/Imagens/area_em_termos_da_corda.png"
   inkscape:export-xdpi="96"
   inkscape:export-ydpi="96"
   xmlns:inkscape="http://www.inkscape.org/namespaces/inkscape"
   xmlns:sodipodi="http://sodipodi.sourceforge.net/DTD/sodipodi-0.dtd"
   xmlns="http://www.w3.org/2000/svg"
   xmlns:svg="http://www.w3.org/2000/svg"
   xmlns:ns2="http://www.iki.fi/pav/software/textext/">
  <sodipodi:namedview
     id="namedview7"
     pagecolor="#ffffff"
     bordercolor="#666666"
     borderopacity="1.0"
     inkscape:pageshadow="2"
     inkscape:pageopacity="0.0"
     inkscape:pagecheckerboard="0"
     inkscape:document-units="mm"
     showgrid="false"
     inkscape:zoom="1.4948513"
     inkscape:cx="250.52659"
     inkscape:cy="438.17067"
     inkscape:window-width="2560"
     inkscape:window-height="1057"
     inkscape:window-x="-8"
     inkscape:window-y="-8"
     inkscape:window-maximized="1"
     inkscape:current-layer="layer1"
     inkscape:showpageshadow="2"
     inkscape:deskcolor="#d1d1d1" />
  <defs
     id="defs2">
    <marker
       style="overflow:visible"
       id="Arrow1Mend"
       refX="0"
       refY="0"
       orient="auto"
       inkscape:stockid="Arrow1Mend"
       inkscape:isstock="true">
      <path
         transform="matrix(-0.4,0,0,-0.4,-4,0)"
         style="fill:context-stroke;fill-rule:evenodd;stroke:context-stroke;stroke-width:1pt"
         d="M 0,0 5,-5 -12.5,0 5,5 Z"
         id="path868" />
    </marker>
    <marker
       style="overflow:visible"
       id="Arrow1Lstart"
       refX="0.0"
       refY="0.0"
       orient="auto"
       inkscape:stockid="Arrow1Lstart"
       inkscape:isstock="true">
      <path
         transform="scale(0.8) translate(12.5,0)"
         style="fill-rule:evenodd;fill:context-stroke;stroke:context-stroke;stroke-width:1.0pt"
         d="M 0.0,0.0 L 5.0,-5.0 L -12.5,0.0 L 5.0,5.0 L 0.0,0.0 z "
         id="path859" />
    </marker>
  </defs>
  <g
     inkscape:label="Layer 1"
     inkscape:groupmode="layer"
     id="layer1">
    <path
       style="fill:none;stroke:#000000;stroke-width:0.376614px;stroke-linecap:butt;stroke-linejoin:miter;stroke-opacity:1;marker-end:url(#Arrow1Mend)"
       d="M 101.54102,158.70074 58.534841,138.03905"
       id="path857"
       inkscape:export-filename="PNGs\area_em_termos_da_corda.png"
       inkscape:export-xdpi="200"
       inkscape:export-ydpi="200" />
    <path
       style="fill:none;stroke:#000000;stroke-width:0.376614px;stroke-linecap:butt;stroke-linejoin:miter;stroke-opacity:1;marker-end:url(#Arrow1Mend)"
       d="m 58.534841,138.03905 8.802955,-27.57927"
       id="path1168" />
    <path
       style="fill:none;stroke:#000000;stroke-width:0.376614px;stroke-linecap:butt;stroke-linejoin:miter;stroke-opacity:1;marker-end:url(#Arrow1Mend)"
       d="M 67.337796,110.45978 97.138725,96.275132"
       id="path1203" />
    <path
       style="fill:none;stroke:#000000;stroke-width:0.376614px;stroke-linecap:butt;stroke-linejoin:miter;stroke-opacity:1;marker-end:url(#Arrow1Mend)"
       d="m 101.54102,158.70074 44.39817,-22.8325"
       id="path1205" />
    <path
       style="fill:none;stroke:#000000;stroke-width:0.376614px;stroke-linecap:butt;stroke-linejoin:miter;stroke-opacity:1;marker-end:url(#Arrow1Mend)"
       d="m 153.48459,102.15085 -7.5454,33.71739"
       id="path1240" />
    <path
       style="fill:none;stroke:#000000;stroke-width:0.376614;stroke-linecap:butt;stroke-linejoin:miter;stroke-miterlimit:4;stroke-dasharray:3.01292, 3.01292;stroke-dashoffset:0;stroke-opacity:1"
       d="m 97.138725,96.275132 c 5.934945,-7.920711 18.733035,-13.81317 31.953155,-10.025782 4.57968,1.312015 1.3493,9.294838 5.89213,13.009867 3.30239,2.700643 14.09721,1.140233 18.50058,2.891633"
       id="path1437"
       sodipodi:nodetypes="cssc" />
    <path
       style="fill:none;stroke:#000000;stroke-width:0.376614;stroke-linecap:butt;stroke-linejoin:miter;stroke-miterlimit:4;stroke-dasharray:3.01292, 3.01292;stroke-dashoffset:0;stroke-opacity:1"
       d="M 101.54102,158.70074 67.337796,110.45978"
       id="path1947" />
    <path
       style="fill:none;stroke:#000000;stroke-width:0.376614;stroke-linecap:butt;stroke-linejoin:miter;stroke-miterlimit:4;stroke-dasharray:3.01292, 3.01292;stroke-dashoffset:0;stroke-opacity:1"
       d="M 101.54102,158.70074 97.138725,96.275132"
       id="path1949" />
    <path
       style="fill:none;stroke:#000000;stroke-width:0.376614;stroke-linecap:butt;stroke-linejoin:miter;stroke-miterlimit:4;stroke-dasharray:3.01292, 3.01292;stroke-dashoffset:0;stroke-opacity:1"
       d="m 101.54102,158.70074 51.94357,-56.54989"
       id="path1951" />
    <g
       transform="matrix(0.635,0,0,0.635,58.154505,142.65492)"
       ns2:version="1.8.1"
       ns2:texconverter="pdflatex"
       ns2:pdfconverter="inkscape"
       ns2:text="$\\boldsymbol{\\xi}_1$"
       ns2:preamble="/home/marcosgil/.config/inkscape/extensions/textext/default_packages.tex"
       ns2:scale="1.8"
       ns2:alignment="middle center"
       ns2:stroke-to-path="0"
       ns2:jacobian_sqrt="0.635"
       id="g2597">
      <defs
         id="id-4b2f46b6-2dcd-4f08-8709-46669190c33e">
        <g
           id="id-08d5be37-98d2-460f-899c-99bacbc5f03f">
          <symbol
             overflow="visible"
             id="id-2ddfe42c-144a-46a9-92e3-da856cee32d6">
            <path
               style="stroke:none;stroke-width:0"
               d=""
               id="id-7e9bad2c-dc90-442a-af75-e4db8840788e" />
          </symbol>
          <symbol
             overflow="visible"
             id="id-255c5881-4336-408f-bd6b-7ea23b427880">
            <path
               style="stroke:none;stroke-width:0"
               d="m 2.328125,-3.328125 c -0.0625,-0.15625 -0.09375,-0.34375 -0.09375,-0.515625 0,-0.515625 0.296875,-1.28125 0.84375,-1.65625 0.21875,0.296875 0.5,0.296875 0.734375,0.296875 0.28125,0 1.078125,0 1.078125,-0.53125 0,-0.421875 -0.53125,-0.421875 -0.953125,-0.421875 -0.09375,0 -0.34375,0 -0.625,0.03125 0,-0.3125 0.0625,-0.53125 0.0625,-0.546875 0.03125,-0.09375 0.03125,-0.09375 0.03125,-0.125 0,-0.203125 -0.203125,-0.21875 -0.21875,-0.21875 -0.328125,0 -0.328125,0.59375 -0.328125,0.78125 0,0.0625 0,0.15625 0.015625,0.21875 C 1.625,-5.640625 1,-4.75 1,-3.984375 c 0,0.46875 0.265625,0.84375 0.53125,1.03125 C 0.484375,-2.25 0.234375,-1.3125 0.234375,-0.9375 c 0,0.8125 0.734375,1.21875 1.328125,1.421875 L 2.703125,0.875 c 0.25,0.078125 0.671875,0.234375 0.75,0.265625 0.078125,0.046875 0.125,0.140625 0.125,0.21875 0,0.03125 -0.015625,0.296875 -0.3125,0.296875 -0.0625,0 -0.546875,-0.015625 -1,-0.25 C 2.203125,1.359375 2.1875,1.359375 2.140625,1.359375 2,1.359375 1.9375,1.46875 1.9375,1.53125 c 0,0.25 0.84375,0.484375 1.34375,0.484375 0.78125,0 1.1875,-0.71875 1.1875,-1.1875 0,-0.421875 -0.296875,-0.671875 -0.484375,-0.75 C 3.84375,0.03125 2.90625,-0.296875 2.65625,-0.375 L 2,-0.59375 c -0.34375,-0.125 -0.921875,-0.328125 -0.921875,-0.796875 0,-0.59375 0.75,-1.296875 0.875,-1.296875 0.015625,0 0.015625,0 0.078125,0.015625 C 2.515625,-2.5 2.828125,-2.5 3.09375,-2.5 c 0.3125,0 1.140625,0 1.140625,-0.546875 0,-0.40625 -0.625,-0.40625 -0.953125,-0.40625 -0.1875,0 -0.5,0 -0.953125,0.125 z M 3.40625,-5.71875 c 0.203125,-0.078125 0.375,-0.078125 0.515625,-0.078125 0.3125,0 0.34375,0 0.5,0.0625 0,0.015625 0,0.015625 -0.03125,0.0625 C 4.296875,-5.5625 3.921875,-5.5625 3.8125,-5.5625 c -0.15625,0 -0.3125,0 -0.40625,-0.15625 z M 2.578125,-3 c 0.265625,-0.09375 0.5,-0.09375 0.65625,-0.09375 0.328125,0 0.359375,0 0.515625,0.0625 -0.015625,0.015625 -0.015625,0.046875 -0.03125,0.0625 C 3.625,-2.859375 3.25,-2.859375 3.125,-2.859375 c -0.15625,0 -0.375,0 -0.546875,-0.140625 z m 0,0"
               id="id-0c18a515-3a6d-4473-a0b4-54dcf418a885" />
          </symbol>
          <symbol
             overflow="visible"
             id="id-fd148fda-e533-4d3a-bae4-0ead6a0bca51">
            <path
               style="stroke:none;stroke-width:0"
               d=""
               id="id-c3018f6d-7b15-407a-83d7-1feaaeb4709b" />
          </symbol>
          <symbol
             overflow="visible"
             id="id-85b400f6-73a4-429f-ac7e-ff6fc301ee20">
            <path
               style="stroke:none;stroke-width:0"
               d="m 2.328125,-4.4375 c 0,-0.1875 0,-0.1875 -0.203125,-0.1875 -0.453125,0.4375 -1.078125,0.4375 -1.359375,0.4375 v 0.25 c 0.15625,0 0.625,0 1,-0.1875 v 3.546875 c 0,0.234375 0,0.328125 -0.6875,0.328125 H 0.8125 V 0 c 0.125,0 0.984375,-0.03125 1.234375,-0.03125 0.21875,0 1.09375,0.03125 1.25,0.03125 V -0.25 H 3.03125 c -0.703125,0 -0.703125,-0.09375 -0.703125,-0.328125 z m 0,0"
               id="id-30ce3b27-a1dc-4774-880b-2b5260c1c2f9" />
          </symbol>
        </g>
      </defs>
      <g
         id="id-5c61deb6-9930-4999-89aa-d1047002aa0a"
         transform="translate(-148.946,-127.749)">
        <g
           style="fill:#000000;fill-opacity:1"
           id="id-e72c343e-4ac7-42cc-b2e1-144f9b7c7057">
          <g
             transform="translate(148.712,134.765)"
             id="g2589">
            <path
               style="stroke:none;stroke-width:0"
               d="m 2.328125,-3.328125 c -0.0625,-0.15625 -0.09375,-0.34375 -0.09375,-0.515625 0,-0.515625 0.296875,-1.28125 0.84375,-1.65625 0.21875,0.296875 0.5,0.296875 0.734375,0.296875 0.28125,0 1.078125,0 1.078125,-0.53125 0,-0.421875 -0.53125,-0.421875 -0.953125,-0.421875 -0.09375,0 -0.34375,0 -0.625,0.03125 0,-0.3125 0.0625,-0.53125 0.0625,-0.546875 0.03125,-0.09375 0.03125,-0.09375 0.03125,-0.125 0,-0.203125 -0.203125,-0.21875 -0.21875,-0.21875 -0.328125,0 -0.328125,0.59375 -0.328125,0.78125 0,0.0625 0,0.15625 0.015625,0.21875 C 1.625,-5.640625 1,-4.75 1,-3.984375 c 0,0.46875 0.265625,0.84375 0.53125,1.03125 C 0.484375,-2.25 0.234375,-1.3125 0.234375,-0.9375 c 0,0.8125 0.734375,1.21875 1.328125,1.421875 L 2.703125,0.875 c 0.25,0.078125 0.671875,0.234375 0.75,0.265625 0.078125,0.046875 0.125,0.140625 0.125,0.21875 0,0.03125 -0.015625,0.296875 -0.3125,0.296875 -0.0625,0 -0.546875,-0.015625 -1,-0.25 C 2.203125,1.359375 2.1875,1.359375 2.140625,1.359375 2,1.359375 1.9375,1.46875 1.9375,1.53125 c 0,0.25 0.84375,0.484375 1.34375,0.484375 0.78125,0 1.1875,-0.71875 1.1875,-1.1875 0,-0.421875 -0.296875,-0.671875 -0.484375,-0.75 C 3.84375,0.03125 2.90625,-0.296875 2.65625,-0.375 L 2,-0.59375 c -0.34375,-0.125 -0.921875,-0.328125 -0.921875,-0.796875 0,-0.59375 0.75,-1.296875 0.875,-1.296875 0.015625,0 0.015625,0 0.078125,0.015625 C 2.515625,-2.5 2.828125,-2.5 3.09375,-2.5 c 0.3125,0 1.140625,0 1.140625,-0.546875 0,-0.40625 -0.625,-0.40625 -0.953125,-0.40625 -0.1875,0 -0.5,0 -0.953125,0.125 z M 3.40625,-5.71875 c 0.203125,-0.078125 0.375,-0.078125 0.515625,-0.078125 0.3125,0 0.34375,0 0.5,0.0625 0,0.015625 0,0.015625 -0.03125,0.0625 C 4.296875,-5.5625 3.921875,-5.5625 3.8125,-5.5625 c -0.15625,0 -0.3125,0 -0.40625,-0.15625 z M 2.578125,-3 c 0.265625,-0.09375 0.5,-0.09375 0.65625,-0.09375 0.328125,0 0.359375,0 0.515625,0.0625 -0.015625,0.015625 -0.015625,0.046875 -0.03125,0.0625 C 3.625,-2.859375 3.25,-2.859375 3.125,-2.859375 c -0.15625,0 -0.375,0 -0.546875,-0.140625 z m 0,0"
               id="id-85421575-3b60-411d-a5c9-086078ab0a57" />
          </g>
        </g>
        <g
           style="fill:#000000;fill-opacity:1"
           id="id-457c2c68-dadd-403a-bad1-fee4ecd55599">
          <g
             transform="translate(154.078,137.2)"
             id="g2593">
            <path
               style="stroke:none;stroke-width:0"
               d="m 2.328125,-4.4375 c 0,-0.1875 0,-0.1875 -0.203125,-0.1875 -0.453125,0.4375 -1.078125,0.4375 -1.359375,0.4375 v 0.25 c 0.15625,0 0.625,0 1,-0.1875 v 3.546875 c 0,0.234375 0,0.328125 -0.6875,0.328125 H 0.8125 V 0 c 0.125,0 0.984375,-0.03125 1.234375,-0.03125 0.21875,0 1.09375,0.03125 1.25,0.03125 V -0.25 H 3.03125 c -0.703125,0 -0.703125,-0.09375 -0.703125,-0.328125 z m 0,0"
               id="id-04dfb4e0-20ff-4f6c-a4ca-8b292d687efd" />
          </g>
        </g>
      </g>
    </g>
    <g
       transform="matrix(0.635,0,0,0.635,57.88314,110.67597)"
       ns2:version="1.8.1"
       ns2:texconverter="pdflatex"
       ns2:pdfconverter="inkscape"
       ns2:text="$\\boldsymbol{\\xi}_2$"
       ns2:preamble="/home/marcosgil/.config/inkscape/extensions/textext/default_packages.tex"
       ns2:scale="1.8"
       ns2:alignment="middle center"
       ns2:stroke-to-path="0"
       ns2:jacobian_sqrt="0.635"
       id="g2724">
      <defs
         id="id-a7d7b604-0154-48d4-a064-7e324a13afa0">
        <g
           id="id-9410b5ca-efcd-4a33-bcf2-c0e87e852338">
          <symbol
             overflow="visible"
             id="id-6023d23b-c643-408b-a616-eee35a95681c">
            <path
               style="stroke:none;stroke-width:0"
               d=""
               id="id-77393e87-853b-4081-b6ef-f929adbe685b" />
          </symbol>
          <symbol
             overflow="visible"
             id="id-96e61be3-cb51-42e7-9560-5a63ab64c216">
            <path
               style="stroke:none;stroke-width:0"
               d="m 2.328125,-3.328125 c -0.0625,-0.15625 -0.09375,-0.34375 -0.09375,-0.515625 0,-0.515625 0.296875,-1.28125 0.84375,-1.65625 0.21875,0.296875 0.5,0.296875 0.734375,0.296875 0.28125,0 1.078125,0 1.078125,-0.53125 0,-0.421875 -0.53125,-0.421875 -0.953125,-0.421875 -0.09375,0 -0.34375,0 -0.625,0.03125 0,-0.3125 0.0625,-0.53125 0.0625,-0.546875 0.03125,-0.09375 0.03125,-0.09375 0.03125,-0.125 0,-0.203125 -0.203125,-0.21875 -0.21875,-0.21875 -0.328125,0 -0.328125,0.59375 -0.328125,0.78125 0,0.0625 0,0.15625 0.015625,0.21875 C 1.625,-5.640625 1,-4.75 1,-3.984375 c 0,0.46875 0.265625,0.84375 0.53125,1.03125 C 0.484375,-2.25 0.234375,-1.3125 0.234375,-0.9375 c 0,0.8125 0.734375,1.21875 1.328125,1.421875 L 2.703125,0.875 c 0.25,0.078125 0.671875,0.234375 0.75,0.265625 0.078125,0.046875 0.125,0.140625 0.125,0.21875 0,0.03125 -0.015625,0.296875 -0.3125,0.296875 -0.0625,0 -0.546875,-0.015625 -1,-0.25 C 2.203125,1.359375 2.1875,1.359375 2.140625,1.359375 2,1.359375 1.9375,1.46875 1.9375,1.53125 c 0,0.25 0.84375,0.484375 1.34375,0.484375 0.78125,0 1.1875,-0.71875 1.1875,-1.1875 0,-0.421875 -0.296875,-0.671875 -0.484375,-0.75 C 3.84375,0.03125 2.90625,-0.296875 2.65625,-0.375 L 2,-0.59375 c -0.34375,-0.125 -0.921875,-0.328125 -0.921875,-0.796875 0,-0.59375 0.75,-1.296875 0.875,-1.296875 0.015625,0 0.015625,0 0.078125,0.015625 C 2.515625,-2.5 2.828125,-2.5 3.09375,-2.5 c 0.3125,0 1.140625,0 1.140625,-0.546875 0,-0.40625 -0.625,-0.40625 -0.953125,-0.40625 -0.1875,0 -0.5,0 -0.953125,0.125 z M 3.40625,-5.71875 c 0.203125,-0.078125 0.375,-0.078125 0.515625,-0.078125 0.3125,0 0.34375,0 0.5,0.0625 0,0.015625 0,0.015625 -0.03125,0.0625 C 4.296875,-5.5625 3.921875,-5.5625 3.8125,-5.5625 c -0.15625,0 -0.3125,0 -0.40625,-0.15625 z M 2.578125,-3 c 0.265625,-0.09375 0.5,-0.09375 0.65625,-0.09375 0.328125,0 0.359375,0 0.515625,0.0625 -0.015625,0.015625 -0.015625,0.046875 -0.03125,0.0625 C 3.625,-2.859375 3.25,-2.859375 3.125,-2.859375 c -0.15625,0 -0.375,0 -0.546875,-0.140625 z m 0,0"
               id="id-3fe39319-7605-4694-987d-ae5a54693f52" />
          </symbol>
          <symbol
             overflow="visible"
             id="id-c39a1375-51f1-401a-9be5-713d316a1f73">
            <path
               style="stroke:none;stroke-width:0"
               d=""
               id="id-4b0f5361-302a-4ab4-aa11-f8f32660e90b" />
          </symbol>
          <symbol
             overflow="visible"
             id="id-266cafa3-113d-49b7-b20f-04d3cc023bea">
            <path
               style="stroke:none;stroke-width:0"
               d="M 3.515625,-1.265625 H 3.28125 c -0.015625,0.15625 -0.09375,0.5625 -0.1875,0.625 C 3.046875,-0.59375 2.515625,-0.59375 2.40625,-0.59375 H 1.125 c 0.734375,-0.640625 0.984375,-0.84375 1.390625,-1.171875 0.515625,-0.40625 1,-0.84375 1,-1.5 0,-0.84375 -0.734375,-1.359375 -1.625,-1.359375 -0.859375,0 -1.453125,0.609375 -1.453125,1.25 0,0.34375 0.296875,0.390625 0.375,0.390625 0.15625,0 0.359375,-0.125 0.359375,-0.375 0,-0.125 -0.046875,-0.375 -0.40625,-0.375 C 0.984375,-4.21875 1.453125,-4.375 1.78125,-4.375 c 0.703125,0 1.0625,0.546875 1.0625,1.109375 0,0.609375 -0.4375,1.078125 -0.65625,1.328125 L 0.515625,-0.265625 C 0.4375,-0.203125 0.4375,-0.1875 0.4375,0 h 2.875 z m 0,0"
               id="id-4e4a5153-5902-4d2b-b70f-f9e42a1d8217" />
          </symbol>
        </g>
      </defs>
      <g
         id="id-34c0d83f-136b-4714-894d-900139ce53c8"
         transform="translate(-148.946,-127.749)">
        <g
           style="fill:#000000;fill-opacity:1"
           id="id-c039c416-45f0-4da7-ad3c-44bb45d207a8">
          <g
             transform="translate(148.712,134.765)"
             id="g2716">
            <path
               style="stroke:none;stroke-width:0"
               d="m 2.328125,-3.328125 c -0.0625,-0.15625 -0.09375,-0.34375 -0.09375,-0.515625 0,-0.515625 0.296875,-1.28125 0.84375,-1.65625 0.21875,0.296875 0.5,0.296875 0.734375,0.296875 0.28125,0 1.078125,0 1.078125,-0.53125 0,-0.421875 -0.53125,-0.421875 -0.953125,-0.421875 -0.09375,0 -0.34375,0 -0.625,0.03125 0,-0.3125 0.0625,-0.53125 0.0625,-0.546875 0.03125,-0.09375 0.03125,-0.09375 0.03125,-0.125 0,-0.203125 -0.203125,-0.21875 -0.21875,-0.21875 -0.328125,0 -0.328125,0.59375 -0.328125,0.78125 0,0.0625 0,0.15625 0.015625,0.21875 C 1.625,-5.640625 1,-4.75 1,-3.984375 c 0,0.46875 0.265625,0.84375 0.53125,1.03125 C 0.484375,-2.25 0.234375,-1.3125 0.234375,-0.9375 c 0,0.8125 0.734375,1.21875 1.328125,1.421875 L 2.703125,0.875 c 0.25,0.078125 0.671875,0.234375 0.75,0.265625 0.078125,0.046875 0.125,0.140625 0.125,0.21875 0,0.03125 -0.015625,0.296875 -0.3125,0.296875 -0.0625,0 -0.546875,-0.015625 -1,-0.25 C 2.203125,1.359375 2.1875,1.359375 2.140625,1.359375 2,1.359375 1.9375,1.46875 1.9375,1.53125 c 0,0.25 0.84375,0.484375 1.34375,0.484375 0.78125,0 1.1875,-0.71875 1.1875,-1.1875 0,-0.421875 -0.296875,-0.671875 -0.484375,-0.75 C 3.84375,0.03125 2.90625,-0.296875 2.65625,-0.375 L 2,-0.59375 c -0.34375,-0.125 -0.921875,-0.328125 -0.921875,-0.796875 0,-0.59375 0.75,-1.296875 0.875,-1.296875 0.015625,0 0.015625,0 0.078125,0.015625 C 2.515625,-2.5 2.828125,-2.5 3.09375,-2.5 c 0.3125,0 1.140625,0 1.140625,-0.546875 0,-0.40625 -0.625,-0.40625 -0.953125,-0.40625 -0.1875,0 -0.5,0 -0.953125,0.125 z M 3.40625,-5.71875 c 0.203125,-0.078125 0.375,-0.078125 0.515625,-0.078125 0.3125,0 0.34375,0 0.5,0.0625 0,0.015625 0,0.015625 -0.03125,0.0625 C 4.296875,-5.5625 3.921875,-5.5625 3.8125,-5.5625 c -0.15625,0 -0.3125,0 -0.40625,-0.15625 z M 2.578125,-3 c 0.265625,-0.09375 0.5,-0.09375 0.65625,-0.09375 0.328125,0 0.359375,0 0.515625,0.0625 -0.015625,0.015625 -0.015625,0.046875 -0.03125,0.0625 C 3.625,-2.859375 3.25,-2.859375 3.125,-2.859375 c -0.15625,0 -0.375,0 -0.546875,-0.140625 z m 0,0"
               id="id-095a2d56-672d-4478-944b-109a614f5f31" />
          </g>
        </g>
        <g
           style="fill:#000000;fill-opacity:1"
           id="id-f51e2b66-152d-4c3b-b689-d33e94b773cd">
          <g
             transform="translate(154.078,137.2)"
             id="g2720">
            <path
               style="stroke:none;stroke-width:0"
               d="M 3.515625,-1.265625 H 3.28125 c -0.015625,0.15625 -0.09375,0.5625 -0.1875,0.625 C 3.046875,-0.59375 2.515625,-0.59375 2.40625,-0.59375 H 1.125 c 0.734375,-0.640625 0.984375,-0.84375 1.390625,-1.171875 0.515625,-0.40625 1,-0.84375 1,-1.5 0,-0.84375 -0.734375,-1.359375 -1.625,-1.359375 -0.859375,0 -1.453125,0.609375 -1.453125,1.25 0,0.34375 0.296875,0.390625 0.375,0.390625 0.15625,0 0.359375,-0.125 0.359375,-0.375 0,-0.125 -0.046875,-0.375 -0.40625,-0.375 C 0.984375,-4.21875 1.453125,-4.375 1.78125,-4.375 c 0.703125,0 1.0625,0.546875 1.0625,1.109375 0,0.609375 -0.4375,1.078125 -0.65625,1.328125 L 0.515625,-0.265625 C 0.4375,-0.203125 0.4375,-0.1875 0.4375,0 h 2.875 z m 0,0"
               id="id-efa4583b-a1b0-46e6-a40c-755d39fe895e" />
          </g>
        </g>
      </g>
    </g>
    <g
       transform="matrix(0.635,0,0,0.635,86.92689,90.439434)"
       ns2:version="1.8.1"
       ns2:texconverter="pdflatex"
       ns2:pdfconverter="inkscape"
       ns2:text="$\\boldsymbol{\\xi}_3$"
       ns2:preamble="/home/marcosgil/.config/inkscape/extensions/textext/default_packages.tex"
       ns2:scale="1.8"
       ns2:alignment="middle center"
       ns2:stroke-to-path="0"
       ns2:jacobian_sqrt="0.635"
       id="g2887">
      <defs
         id="id-2b1258ca-9eb9-4555-80c7-8c797ef7f790">
        <g
           id="id-5ce3ec70-8835-4e7b-98e5-68716e869991">
          <symbol
             overflow="visible"
             id="id-1bbe5f58-9ad0-417f-a9e3-62a2378843ea">
            <path
               style="stroke:none;stroke-width:0"
               d=""
               id="id-b7bdd3ce-9a7a-4701-90a0-b245753d3167" />
          </symbol>
          <symbol
             overflow="visible"
             id="id-3bca2eb3-a6fa-46d6-ac99-c38ba43548bb">
            <path
               style="stroke:none;stroke-width:0"
               d="m 2.328125,-3.328125 c -0.0625,-0.15625 -0.09375,-0.34375 -0.09375,-0.515625 0,-0.515625 0.296875,-1.28125 0.84375,-1.65625 0.21875,0.296875 0.5,0.296875 0.734375,0.296875 0.28125,0 1.078125,0 1.078125,-0.53125 0,-0.421875 -0.53125,-0.421875 -0.953125,-0.421875 -0.09375,0 -0.34375,0 -0.625,0.03125 0,-0.3125 0.0625,-0.53125 0.0625,-0.546875 0.03125,-0.09375 0.03125,-0.09375 0.03125,-0.125 0,-0.203125 -0.203125,-0.21875 -0.21875,-0.21875 -0.328125,0 -0.328125,0.59375 -0.328125,0.78125 0,0.0625 0,0.15625 0.015625,0.21875 C 1.625,-5.640625 1,-4.75 1,-3.984375 c 0,0.46875 0.265625,0.84375 0.53125,1.03125 C 0.484375,-2.25 0.234375,-1.3125 0.234375,-0.9375 c 0,0.8125 0.734375,1.21875 1.328125,1.421875 L 2.703125,0.875 c 0.25,0.078125 0.671875,0.234375 0.75,0.265625 0.078125,0.046875 0.125,0.140625 0.125,0.21875 0,0.03125 -0.015625,0.296875 -0.3125,0.296875 -0.0625,0 -0.546875,-0.015625 -1,-0.25 C 2.203125,1.359375 2.1875,1.359375 2.140625,1.359375 2,1.359375 1.9375,1.46875 1.9375,1.53125 c 0,0.25 0.84375,0.484375 1.34375,0.484375 0.78125,0 1.1875,-0.71875 1.1875,-1.1875 0,-0.421875 -0.296875,-0.671875 -0.484375,-0.75 C 3.84375,0.03125 2.90625,-0.296875 2.65625,-0.375 L 2,-0.59375 c -0.34375,-0.125 -0.921875,-0.328125 -0.921875,-0.796875 0,-0.59375 0.75,-1.296875 0.875,-1.296875 0.015625,0 0.015625,0 0.078125,0.015625 C 2.515625,-2.5 2.828125,-2.5 3.09375,-2.5 c 0.3125,0 1.140625,0 1.140625,-0.546875 0,-0.40625 -0.625,-0.40625 -0.953125,-0.40625 -0.1875,0 -0.5,0 -0.953125,0.125 z M 3.40625,-5.71875 c 0.203125,-0.078125 0.375,-0.078125 0.515625,-0.078125 0.3125,0 0.34375,0 0.5,0.0625 0,0.015625 0,0.015625 -0.03125,0.0625 C 4.296875,-5.5625 3.921875,-5.5625 3.8125,-5.5625 c -0.15625,0 -0.3125,0 -0.40625,-0.15625 z M 2.578125,-3 c 0.265625,-0.09375 0.5,-0.09375 0.65625,-0.09375 0.328125,0 0.359375,0 0.515625,0.0625 -0.015625,0.015625 -0.015625,0.046875 -0.03125,0.0625 C 3.625,-2.859375 3.25,-2.859375 3.125,-2.859375 c -0.15625,0 -0.375,0 -0.546875,-0.140625 z m 0,0"
               id="id-fc8183bd-f3e7-4ee7-aaad-259364725ade" />
          </symbol>
          <symbol
             overflow="visible"
             id="id-a27fb218-3957-4fd3-aec8-75836bf3f3ed">
            <path
               style="stroke:none;stroke-width:0"
               d=""
               id="id-12b27cf0-afef-45ca-9627-a924b543b7de" />
          </symbol>
          <symbol
             overflow="visible"
             id="id-986ea8ac-2ae5-4361-bc23-ed004c5e727d">
            <path
               style="stroke:none;stroke-width:0"
               d="m 1.90625,-2.328125 c 0.546875,0 0.9375,0.375 0.9375,1.125 0,0.859375 -0.515625,1.125 -0.90625,1.125 -0.28125,0 -0.90625,-0.078125 -1.1875,-0.5 0.328125,0 0.40625,-0.234375 0.40625,-0.390625 0,-0.21875 -0.171875,-0.375 -0.390625,-0.375 -0.1875,0 -0.390625,0.125 -0.390625,0.40625 0,0.65625 0.71875,1.078125 1.5625,1.078125 0.96875,0 1.640625,-0.65625 1.640625,-1.34375 0,-0.546875 -0.4375,-1.09375 -1.203125,-1.25 0.71875,-0.265625 0.984375,-0.78125 0.984375,-1.21875 0,-0.546875 -0.625,-0.953125 -1.40625,-0.953125 -0.765625,0 -1.359375,0.375 -1.359375,0.9375 0,0.234375 0.15625,0.359375 0.359375,0.359375 0.21875,0 0.359375,-0.15625 0.359375,-0.34375 0,-0.203125 -0.140625,-0.359375 -0.359375,-0.375 0.25,-0.296875 0.71875,-0.375 0.984375,-0.375 0.3125,0 0.75,0.15625 0.75,0.75 0,0.296875 -0.09375,0.625 -0.28125,0.828125 -0.21875,0.265625 -0.421875,0.28125 -0.765625,0.3125 -0.171875,0.015625 -0.1875,0.015625 -0.21875,0.015625 -0.015625,0 -0.078125,0.015625 -0.078125,0.09375 0,0.09375 0.0625,0.09375 0.1875,0.09375 z m 0,0"
               id="id-3720f810-3b95-43da-bd3e-7f0dfdadfe6e" />
          </symbol>
        </g>
      </defs>
      <g
         id="id-51ddeecb-25d7-48bb-b172-1782a7aee10e"
         transform="translate(-148.946,-127.749)">
        <g
           style="fill:#000000;fill-opacity:1"
           id="id-7ff9cfc7-ab84-489a-8f59-b5ba871444d2">
          <g
             transform="translate(148.712,134.765)"
             id="g2879">
            <path
               style="stroke:none;stroke-width:0"
               d="m 2.328125,-3.328125 c -0.0625,-0.15625 -0.09375,-0.34375 -0.09375,-0.515625 0,-0.515625 0.296875,-1.28125 0.84375,-1.65625 0.21875,0.296875 0.5,0.296875 0.734375,0.296875 0.28125,0 1.078125,0 1.078125,-0.53125 0,-0.421875 -0.53125,-0.421875 -0.953125,-0.421875 -0.09375,0 -0.34375,0 -0.625,0.03125 0,-0.3125 0.0625,-0.53125 0.0625,-0.546875 0.03125,-0.09375 0.03125,-0.09375 0.03125,-0.125 0,-0.203125 -0.203125,-0.21875 -0.21875,-0.21875 -0.328125,0 -0.328125,0.59375 -0.328125,0.78125 0,0.0625 0,0.15625 0.015625,0.21875 C 1.625,-5.640625 1,-4.75 1,-3.984375 c 0,0.46875 0.265625,0.84375 0.53125,1.03125 C 0.484375,-2.25 0.234375,-1.3125 0.234375,-0.9375 c 0,0.8125 0.734375,1.21875 1.328125,1.421875 L 2.703125,0.875 c 0.25,0.078125 0.671875,0.234375 0.75,0.265625 0.078125,0.046875 0.125,0.140625 0.125,0.21875 0,0.03125 -0.015625,0.296875 -0.3125,0.296875 -0.0625,0 -0.546875,-0.015625 -1,-0.25 C 2.203125,1.359375 2.1875,1.359375 2.140625,1.359375 2,1.359375 1.9375,1.46875 1.9375,1.53125 c 0,0.25 0.84375,0.484375 1.34375,0.484375 0.78125,0 1.1875,-0.71875 1.1875,-1.1875 0,-0.421875 -0.296875,-0.671875 -0.484375,-0.75 C 3.84375,0.03125 2.90625,-0.296875 2.65625,-0.375 L 2,-0.59375 c -0.34375,-0.125 -0.921875,-0.328125 -0.921875,-0.796875 0,-0.59375 0.75,-1.296875 0.875,-1.296875 0.015625,0 0.015625,0 0.078125,0.015625 C 2.515625,-2.5 2.828125,-2.5 3.09375,-2.5 c 0.3125,0 1.140625,0 1.140625,-0.546875 0,-0.40625 -0.625,-0.40625 -0.953125,-0.40625 -0.1875,0 -0.5,0 -0.953125,0.125 z M 3.40625,-5.71875 c 0.203125,-0.078125 0.375,-0.078125 0.515625,-0.078125 0.3125,0 0.34375,0 0.5,0.0625 0,0.015625 0,0.015625 -0.03125,0.0625 C 4.296875,-5.5625 3.921875,-5.5625 3.8125,-5.5625 c -0.15625,0 -0.3125,0 -0.40625,-0.15625 z M 2.578125,-3 c 0.265625,-0.09375 0.5,-0.09375 0.65625,-0.09375 0.328125,0 0.359375,0 0.515625,0.0625 -0.015625,0.015625 -0.015625,0.046875 -0.03125,0.0625 C 3.625,-2.859375 3.25,-2.859375 3.125,-2.859375 c -0.15625,0 -0.375,0 -0.546875,-0.140625 z m 0,0"
               id="id-1d8ba62c-7cfb-46e4-840f-da8038eb0bde" />
          </g>
        </g>
        <g
           style="fill:#000000;fill-opacity:1"
           id="id-29ed1fe6-1a18-4565-a167-ba1398c32590">
          <g
             transform="translate(154.078,137.2)"
             id="g2883">
            <path
               style="stroke:none;stroke-width:0"
               d="m 1.90625,-2.328125 c 0.546875,0 0.9375,0.375 0.9375,1.125 0,0.859375 -0.515625,1.125 -0.90625,1.125 -0.28125,0 -0.90625,-0.078125 -1.1875,-0.5 0.328125,0 0.40625,-0.234375 0.40625,-0.390625 0,-0.21875 -0.171875,-0.375 -0.390625,-0.375 -0.1875,0 -0.390625,0.125 -0.390625,0.40625 0,0.65625 0.71875,1.078125 1.5625,1.078125 0.96875,0 1.640625,-0.65625 1.640625,-1.34375 0,-0.546875 -0.4375,-1.09375 -1.203125,-1.25 0.71875,-0.265625 0.984375,-0.78125 0.984375,-1.21875 0,-0.546875 -0.625,-0.953125 -1.40625,-0.953125 -0.765625,0 -1.359375,0.375 -1.359375,0.9375 0,0.234375 0.15625,0.359375 0.359375,0.359375 0.21875,0 0.359375,-0.15625 0.359375,-0.34375 0,-0.203125 -0.140625,-0.359375 -0.359375,-0.375 0.25,-0.296875 0.71875,-0.375 0.984375,-0.375 0.3125,0 0.75,0.15625 0.75,0.75 0,0.296875 -0.09375,0.625 -0.28125,0.828125 -0.21875,0.265625 -0.421875,0.28125 -0.765625,0.3125 -0.171875,0.015625 -0.1875,0.015625 -0.21875,0.015625 -0.015625,0 -0.078125,0.015625 -0.078125,0.09375 0,0.09375 0.0625,0.09375 0.1875,0.09375 z m 0,0"
               id="id-0dbc072d-915f-4e5e-977d-306be5ada8dc" />
          </g>
        </g>
      </g>
    </g>
    <g
       transform="matrix(0.635,0,0,0.635,142.02817,140.66836)"
       ns2:version="1.8.1"
       ns2:texconverter="pdflatex"
       ns2:pdfconverter="inkscape"
       ns2:text="$\\boldsymbol{\\xi}$"
       ns2:preamble="/home/marcosgil/.config/inkscape/extensions/textext/default_packages.tex"
       ns2:scale="1.8"
       ns2:alignment="middle center"
       ns2:stroke-to-path="0"
       ns2:jacobian_sqrt="0.635"
       id="g3313">
      <defs
         id="id-1b9e95d7-db91-40cc-8f3d-aa4059d68026">
        <g
           id="id-1259ea6a-268e-449d-a026-c489b497ef09">
          <symbol
             overflow="visible"
             id="id-ba65ed77-f3cd-4f32-811b-c22539c54a82">
            <path
               style="stroke:none;stroke-width:0"
               d=""
               id="id-ccbfec4b-a5c7-456d-81f4-c4aaefd8cf3a" />
          </symbol>
          <symbol
             overflow="visible"
             id="id-0b3f36cf-1215-4fa3-a846-94fad232e75c">
            <path
               style="stroke:none;stroke-width:0"
               d="m 2.328125,-3.328125 c -0.0625,-0.15625 -0.09375,-0.34375 -0.09375,-0.515625 0,-0.515625 0.296875,-1.28125 0.84375,-1.65625 0.21875,0.296875 0.5,0.296875 0.734375,0.296875 0.28125,0 1.078125,0 1.078125,-0.53125 0,-0.421875 -0.53125,-0.421875 -0.953125,-0.421875 -0.09375,0 -0.34375,0 -0.625,0.03125 0,-0.3125 0.0625,-0.53125 0.0625,-0.546875 0.03125,-0.09375 0.03125,-0.09375 0.03125,-0.125 0,-0.203125 -0.203125,-0.21875 -0.21875,-0.21875 -0.328125,0 -0.328125,0.59375 -0.328125,0.78125 0,0.0625 0,0.15625 0.015625,0.21875 C 1.625,-5.640625 1,-4.75 1,-3.984375 c 0,0.46875 0.265625,0.84375 0.53125,1.03125 C 0.484375,-2.25 0.234375,-1.3125 0.234375,-0.9375 c 0,0.8125 0.734375,1.21875 1.328125,1.421875 L 2.703125,0.875 c 0.25,0.078125 0.671875,0.234375 0.75,0.265625 0.078125,0.046875 0.125,0.140625 0.125,0.21875 0,0.03125 -0.015625,0.296875 -0.3125,0.296875 -0.0625,0 -0.546875,-0.015625 -1,-0.25 C 2.203125,1.359375 2.1875,1.359375 2.140625,1.359375 2,1.359375 1.9375,1.46875 1.9375,1.53125 c 0,0.25 0.84375,0.484375 1.34375,0.484375 0.78125,0 1.1875,-0.71875 1.1875,-1.1875 0,-0.421875 -0.296875,-0.671875 -0.484375,-0.75 C 3.84375,0.03125 2.90625,-0.296875 2.65625,-0.375 L 2,-0.59375 c -0.34375,-0.125 -0.921875,-0.328125 -0.921875,-0.796875 0,-0.59375 0.75,-1.296875 0.875,-1.296875 0.015625,0 0.015625,0 0.078125,0.015625 C 2.515625,-2.5 2.828125,-2.5 3.09375,-2.5 c 0.3125,0 1.140625,0 1.140625,-0.546875 0,-0.40625 -0.625,-0.40625 -0.953125,-0.40625 -0.1875,0 -0.5,0 -0.953125,0.125 z M 3.40625,-5.71875 c 0.203125,-0.078125 0.375,-0.078125 0.515625,-0.078125 0.3125,0 0.34375,0 0.5,0.0625 0,0.015625 0,0.015625 -0.03125,0.0625 C 4.296875,-5.5625 3.921875,-5.5625 3.8125,-5.5625 c -0.15625,0 -0.3125,0 -0.40625,-0.15625 z M 2.578125,-3 c 0.265625,-0.09375 0.5,-0.09375 0.65625,-0.09375 0.328125,0 0.359375,0 0.515625,0.0625 -0.015625,0.015625 -0.015625,0.046875 -0.03125,0.0625 C 3.625,-2.859375 3.25,-2.859375 3.125,-2.859375 c -0.15625,0 -0.375,0 -0.546875,-0.140625 z m 0,0"
               id="id-40de2b0f-3dff-4b6c-87ca-c69a7f1e1a3d" />
          </symbol>
        </g>
      </defs>
      <g
         id="id-2b196c95-5cdb-46a9-aa07-c0ce316d8a1f"
         transform="translate(-148.946,-127.749)">
        <g
           style="fill:#000000;fill-opacity:1"
           id="id-4f72b98b-f8c7-4a38-b8cd-0ac09bfd96b7">
          <g
             transform="translate(148.712,134.765)"
             id="g3309">
            <path
               style="stroke:none;stroke-width:0"
               d="m 2.328125,-3.328125 c -0.0625,-0.15625 -0.09375,-0.34375 -0.09375,-0.515625 0,-0.515625 0.296875,-1.28125 0.84375,-1.65625 0.21875,0.296875 0.5,0.296875 0.734375,0.296875 0.28125,0 1.078125,0 1.078125,-0.53125 0,-0.421875 -0.53125,-0.421875 -0.953125,-0.421875 -0.09375,0 -0.34375,0 -0.625,0.03125 0,-0.3125 0.0625,-0.53125 0.0625,-0.546875 0.03125,-0.09375 0.03125,-0.09375 0.03125,-0.125 0,-0.203125 -0.203125,-0.21875 -0.21875,-0.21875 -0.328125,0 -0.328125,0.59375 -0.328125,0.78125 0,0.0625 0,0.15625 0.015625,0.21875 C 1.625,-5.640625 1,-4.75 1,-3.984375 c 0,0.46875 0.265625,0.84375 0.53125,1.03125 C 0.484375,-2.25 0.234375,-1.3125 0.234375,-0.9375 c 0,0.8125 0.734375,1.21875 1.328125,1.421875 L 2.703125,0.875 c 0.25,0.078125 0.671875,0.234375 0.75,0.265625 0.078125,0.046875 0.125,0.140625 0.125,0.21875 0,0.03125 -0.015625,0.296875 -0.3125,0.296875 -0.0625,0 -0.546875,-0.015625 -1,-0.25 C 2.203125,1.359375 2.1875,1.359375 2.140625,1.359375 2,1.359375 1.9375,1.46875 1.9375,1.53125 c 0,0.25 0.84375,0.484375 1.34375,0.484375 0.78125,0 1.1875,-0.71875 1.1875,-1.1875 0,-0.421875 -0.296875,-0.671875 -0.484375,-0.75 C 3.84375,0.03125 2.90625,-0.296875 2.65625,-0.375 L 2,-0.59375 c -0.34375,-0.125 -0.921875,-0.328125 -0.921875,-0.796875 0,-0.59375 0.75,-1.296875 0.875,-1.296875 0.015625,0 0.015625,0 0.078125,0.015625 C 2.515625,-2.5 2.828125,-2.5 3.09375,-2.5 c 0.3125,0 1.140625,0 1.140625,-0.546875 0,-0.40625 -0.625,-0.40625 -0.953125,-0.40625 -0.1875,0 -0.5,0 -0.953125,0.125 z M 3.40625,-5.71875 c 0.203125,-0.078125 0.375,-0.078125 0.515625,-0.078125 0.3125,0 0.34375,0 0.5,0.0625 0,0.015625 0,0.015625 -0.03125,0.0625 C 4.296875,-5.5625 3.921875,-5.5625 3.8125,-5.5625 c -0.15625,0 -0.3125,0 -0.40625,-0.15625 z M 2.578125,-3 c 0.265625,-0.09375 0.5,-0.09375 0.65625,-0.09375 0.328125,0 0.359375,0 0.515625,0.0625 -0.015625,0.015625 -0.015625,0.046875 -0.03125,0.0625 C 3.625,-2.859375 3.25,-2.859375 3.125,-2.859375 c -0.15625,0 -0.375,0 -0.546875,-0.140625 z m 0,0"
               id="id-072ac4b5-a27f-4dd6-849a-463c582e8600" />
          </g>
        </g>
      </g>
    </g>
    <g
       transform="matrix(0.635 0 0 0.635 148.754 127.404)"
       ns2:version="1.8.1"
       ns2:texconverter="pdflatex"
       ns2:pdfconverter="inkscape"
       ns2:text="$\\boldsymbol{\\xi}_N$"
       ns2:preamble="C:\Users\marco\AppData\Roaming\inkscape\extensions\textext\default_packages.tex"
       ns2:scale="1.8"
       ns2:alignment="middle center"
       ns2:stroke-to-path="0"
       ns2:inkscapeversion="1.1.2"
       ns2:jacobian_sqrt="0.635"
       id="g3086">
      <defs
         id="id-a72467be-b714-4357-926c-90f6e14b2e89">
        <g
           id="id-0d6a68ef-9870-4583-ba29-7ebf0d47f601">
          <g
             id="id-e7190850-d08b-4b03-9afc-f2031e2d2276" />
          <g
             id="id-01f3d0e5-19e3-4302-906c-87c091d3b121">
            <path
               d="m 2.328125,-3.328125 c -0.0625,-0.15625 -0.09375,-0.34375 -0.09375,-0.515625 0,-0.515625 0.296875,-1.28125 0.84375,-1.65625 0.21875,0.296875 0.5,0.296875 0.734375,0.296875 0.28125,0 1.078125,0 1.078125,-0.53125 0,-0.421875 -0.53125,-0.421875 -0.953125,-0.421875 -0.09375,0 -0.34375,0 -0.625,0.03125 0,-0.3125 0.0625,-0.53125 0.0625,-0.546875 0.03125,-0.09375 0.03125,-0.09375 0.03125,-0.125 0,-0.203125 -0.203125,-0.21875 -0.21875,-0.21875 -0.328125,0 -0.328125,0.59375 -0.328125,0.78125 0,0.0625 0,0.15625 0.015625,0.21875 C 1.625,-5.640625 1,-4.75 1,-3.984375 c 0,0.46875 0.265625,0.84375 0.53125,1.03125 C 0.484375,-2.25 0.234375,-1.3125 0.234375,-0.9375 c 0,0.8125 0.734375,1.21875 1.328125,1.421875 L 2.703125,0.875 c 0.25,0.078125 0.671875,0.234375 0.75,0.265625 0.078125,0.046875 0.125,0.140625 0.125,0.21875 0,0.03125 -0.015625,0.296875 -0.3125,0.296875 -0.0625,0 -0.546875,-0.015625 -1,-0.25 C 2.203125,1.359375 2.1875,1.359375 2.140625,1.359375 2,1.359375 1.9375,1.46875 1.9375,1.53125 c 0,0.25 0.84375,0.484375 1.34375,0.484375 0.78125,0 1.1875,-0.71875 1.1875,-1.1875 0,-0.421875 -0.296875,-0.671875 -0.484375,-0.75 C 3.84375,0.03125 2.90625,-0.296875 2.65625,-0.375 L 2,-0.59375 c -0.34375,-0.125 -0.921875,-0.328125 -0.921875,-0.796875 0,-0.59375 0.75,-1.296875 0.875,-1.296875 0.015625,0 0.015625,0 0.078125,0.015625 C 2.515625,-2.5 2.828125,-2.5 3.09375,-2.5 c 0.3125,0 1.140625,0 1.140625,-0.546875 0,-0.40625 -0.625,-0.40625 -0.953125,-0.40625 -0.1875,0 -0.5,0 -0.953125,0.125 z M 3.40625,-5.71875 c 0.203125,-0.078125 0.375,-0.078125 0.515625,-0.078125 0.3125,0 0.34375,0 0.5,0.0625 0,0.015625 0,0.015625 -0.03125,0.0625 C 4.296875,-5.5625 3.921875,-5.5625 3.8125,-5.5625 c -0.15625,0 -0.3125,0 -0.40625,-0.15625 z M 2.578125,-3 c 0.265625,-0.09375 0.5,-0.09375 0.65625,-0.09375 0.328125,0 0.359375,0 0.515625,0.0625 -0.015625,0.015625 -0.015625,0.046875 -0.03125,0.0625 C 3.625,-2.859375 3.25,-2.859375 3.125,-2.859375 c -0.15625,0 -0.375,0 -0.546875,-0.140625 z m 0,0"
               id="id-34e4bf86-2ca4-4461-9465-8cf637b442ac" />
          </g>
          <g
             id="id-9a682f08-b0c7-4765-a904-cd7a8521f0b2" />
          <g
             id="id-db501f4e-1fe9-46cb-a795-aeeb99ef284e">
            <path
               d="M 5.8125,-4 C 5.875,-4.265625 6,-4.5 6.546875,-4.515625 c 0.03125,0 0.140625,0 0.140625,-0.140625 0,-0.046875 -0.03125,-0.109375 -0.109375,-0.109375 -0.21875,0 -0.484375,0.03125 -0.71875,0.03125 -0.171875,0 -0.5625,-0.03125 -0.734375,-0.03125 -0.03125,0 -0.140625,0 -0.140625,0.15625 0,0.09375 0.09375,0.09375 0.15625,0.09375 0.328125,0.015625 0.4375,0.125 0.4375,0.296875 0,0.046875 0,0.09375 -0.03125,0.15625 l -0.75,3.046875 -1.765625,-3.625 c -0.0625,-0.125 -0.078125,-0.125 -0.25,-0.125 H 1.828125 c -0.125,0 -0.21875,0 -0.21875,0.15625 0,0.09375 0.078125,0.09375 0.234375,0.09375 0.140625,0 0.296875,0.015625 0.4375,0.046875 L 1.359375,-0.75 c -0.0625,0.265625 -0.1875,0.484375 -0.734375,0.5 -0.046875,0 -0.140625,0 -0.140625,0.140625 C 0.484375,-0.03125 0.53125,0 0.578125,0 0.8125,0 1.078125,-0.03125 1.3125,-0.03125 1.484375,-0.03125 1.875,0 2.046875,0 2.125,0 2.1875,-0.03125 2.1875,-0.140625 2.1875,-0.25 2.109375,-0.25 2.03125,-0.25 c -0.4375,-0.015625 -0.4375,-0.203125 -0.4375,-0.296875 0,-0.03125 0,-0.0625 0.015625,-0.171875 l 0.90625,-3.5625 2.03125,4.15625 C 4.59375,0 4.625,0 4.703125,0 4.8125,0 4.8125,-0.015625 4.84375,-0.140625 Z m 0,0"
               id="id-472d9fa4-8c23-4b08-a892-1a063a6628ea" />
          </g>
        </g>
      </defs>
      <g
         fill="#000000"
         fill-opacity="1"
         id="id-c92ace9e-7443-456c-a4b0-0417477c3af3"
         transform="translate(-148.946, -127.749)">
        <g
           transform="translate(148.712, 134.765)"
           id="g807">
          <path
             d="m 2.328125,-3.328125 c -0.0625,-0.15625 -0.09375,-0.34375 -0.09375,-0.515625 0,-0.515625 0.296875,-1.28125 0.84375,-1.65625 0.21875,0.296875 0.5,0.296875 0.734375,0.296875 0.28125,0 1.078125,0 1.078125,-0.53125 0,-0.421875 -0.53125,-0.421875 -0.953125,-0.421875 -0.09375,0 -0.34375,0 -0.625,0.03125 0,-0.3125 0.0625,-0.53125 0.0625,-0.546875 0.03125,-0.09375 0.03125,-0.09375 0.03125,-0.125 0,-0.203125 -0.203125,-0.21875 -0.21875,-0.21875 -0.328125,0 -0.328125,0.59375 -0.328125,0.78125 0,0.0625 0,0.15625 0.015625,0.21875 C 1.625,-5.640625 1,-4.75 1,-3.984375 c 0,0.46875 0.265625,0.84375 0.53125,1.03125 C 0.484375,-2.25 0.234375,-1.3125 0.234375,-0.9375 c 0,0.8125 0.734375,1.21875 1.328125,1.421875 L 2.703125,0.875 c 0.25,0.078125 0.671875,0.234375 0.75,0.265625 0.078125,0.046875 0.125,0.140625 0.125,0.21875 0,0.03125 -0.015625,0.296875 -0.3125,0.296875 -0.0625,0 -0.546875,-0.015625 -1,-0.25 C 2.203125,1.359375 2.1875,1.359375 2.140625,1.359375 2,1.359375 1.9375,1.46875 1.9375,1.53125 c 0,0.25 0.84375,0.484375 1.34375,0.484375 0.78125,0 1.1875,-0.71875 1.1875,-1.1875 0,-0.421875 -0.296875,-0.671875 -0.484375,-0.75 C 3.84375,0.03125 2.90625,-0.296875 2.65625,-0.375 L 2,-0.59375 c -0.34375,-0.125 -0.921875,-0.328125 -0.921875,-0.796875 0,-0.59375 0.75,-1.296875 0.875,-1.296875 0.015625,0 0.015625,0 0.078125,0.015625 C 2.515625,-2.5 2.828125,-2.5 3.09375,-2.5 c 0.3125,0 1.140625,0 1.140625,-0.546875 0,-0.40625 -0.625,-0.40625 -0.953125,-0.40625 -0.1875,0 -0.5,0 -0.953125,0.125 z M 3.40625,-5.71875 c 0.203125,-0.078125 0.375,-0.078125 0.515625,-0.078125 0.3125,0 0.34375,0 0.5,0.0625 0,0.015625 0,0.015625 -0.03125,0.0625 C 4.296875,-5.5625 3.921875,-5.5625 3.8125,-5.5625 c -0.15625,0 -0.3125,0 -0.40625,-0.15625 z M 2.578125,-3 c 0.265625,-0.09375 0.5,-0.09375 0.65625,-0.09375 0.328125,0 0.359375,0 0.515625,0.0625 -0.015625,0.015625 -0.015625,0.046875 -0.03125,0.0625 C 3.625,-2.859375 3.25,-2.859375 3.125,-2.859375 c -0.15625,0 -0.375,0 -0.546875,-0.140625 z m 0,0"
             id="id-1f8be332-3b90-42a6-9f1b-05099552c97b" />
        </g>
      </g>
      <g
         fill="#000000"
         fill-opacity="1"
         id="id-9b36ef22-b004-4003-b860-d5c73b494d15"
         transform="translate(-148.946, -127.749)">
        <g
           transform="translate(154.078, 137.2)"
           id="g811">
          <path
             d="M 5.8125,-4 C 5.875,-4.265625 6,-4.5 6.546875,-4.515625 c 0.03125,0 0.140625,0 0.140625,-0.140625 0,-0.046875 -0.03125,-0.109375 -0.109375,-0.109375 -0.21875,0 -0.484375,0.03125 -0.71875,0.03125 -0.171875,0 -0.5625,-0.03125 -0.734375,-0.03125 -0.03125,0 -0.140625,0 -0.140625,0.15625 0,0.09375 0.09375,0.09375 0.15625,0.09375 0.328125,0.015625 0.4375,0.125 0.4375,0.296875 0,0.046875 0,0.09375 -0.03125,0.15625 l -0.75,3.046875 -1.765625,-3.625 c -0.0625,-0.125 -0.078125,-0.125 -0.25,-0.125 H 1.828125 c -0.125,0 -0.21875,0 -0.21875,0.15625 0,0.09375 0.078125,0.09375 0.234375,0.09375 0.140625,0 0.296875,0.015625 0.4375,0.046875 L 1.359375,-0.75 c -0.0625,0.265625 -0.1875,0.484375 -0.734375,0.5 -0.046875,0 -0.140625,0 -0.140625,0.140625 C 0.484375,-0.03125 0.53125,0 0.578125,0 0.8125,0 1.078125,-0.03125 1.3125,-0.03125 1.484375,-0.03125 1.875,0 2.046875,0 2.125,0 2.1875,-0.03125 2.1875,-0.140625 2.1875,-0.25 2.109375,-0.25 2.03125,-0.25 c -0.4375,-0.015625 -0.4375,-0.203125 -0.4375,-0.296875 0,-0.03125 0,-0.0625 0.015625,-0.171875 l 0.90625,-3.5625 2.03125,4.15625 C 4.59375,0 4.625,0 4.703125,0 4.8125,0 4.8125,-0.015625 4.84375,-0.140625 Z m 0,0"
             id="id-e6c6ef10-e7e8-430e-bdf6-c5938bd2c588" />
        </g>
      </g>
    </g>
  </g>
</svg>
