<?xml version="1.0" encoding="UTF-8" standalone="no"?>
<!-- Created with Inkscape (http://www.inkscape.org/) -->

<svg
   sodipodi:docname="esfera_hermite_laguerre.svg"
   inkscape:version="1.1.1 (3bf5ae0d25, 2021-09-20)"
   id="svg5"
   version="1.1"
   viewBox="0 0 210 297"
   height="297mm"
   width="210mm"
   inkscape:export-filename="D:\Users\marco\Desktop\Projeto Eletro\esfera_hermite_laguerre.png"
   inkscape:export-xdpi="96"
   inkscape:export-ydpi="96"
   xmlns:inkscape="http://www.inkscape.org/namespaces/inkscape"
   xmlns:sodipodi="http://sodipodi.sourceforge.net/DTD/sodipodi-0.dtd"
   xmlns="http://www.w3.org/2000/svg"
   xmlns:svg="http://www.w3.org/2000/svg"
   xmlns:ns1="http://www.iki.fi/pav/software/textext/">
  <sodipodi:namedview
     id="namedview7"
     pagecolor="#ffffff"
     bordercolor="#666666"
     borderopacity="1.0"
     inkscape:pageshadow="2"
     inkscape:pageopacity="0.0"
     inkscape:pagecheckerboard="0"
     inkscape:document-units="mm"
     showgrid="false"
     showguides="true"
     inkscape:guide-bbox="true"
     inkscape:zoom="0.9344421"
     inkscape:cx="162.12883"
     inkscape:cy="527.05245"
     inkscape:window-width="1920"
     inkscape:window-height="1051"
     inkscape:window-x="-9"
     inkscape:window-y="-9"
     inkscape:window-maximized="1"
     inkscape:current-layer="layer1" />
  <defs
     id="defs2">
    <marker
       style="overflow:visible"
       id="marker9087"
       refX="0.0"
       refY="0.0"
       orient="auto"
       inkscape:stockid="TriangleOutL"
       inkscape:isstock="true">
      <path
         transform="scale(0.8)"
         style="fill-rule:evenodd;fill:context-stroke;stroke:context-stroke;stroke-width:1.0pt"
         d="M 5.77,0.0 L -2.88,5.0 L -2.88,-5.0 L 5.77,0.0 z "
         id="path9085" />
    </marker>
    <marker
       style="overflow:visible"
       id="TriangleOutL"
       refX="0.0"
       refY="0.0"
       orient="auto"
       inkscape:stockid="TriangleOutL"
       inkscape:isstock="true">
      <path
         transform="scale(0.8)"
         style="fill-rule:evenodd;fill:context-stroke;stroke:context-stroke;stroke-width:1.0pt"
         d="M 5.77,0.0 L -2.88,5.0 L -2.88,-5.0 L 5.77,0.0 z "
         id="path5047" />
    </marker>
    <marker
       style="overflow:visible;"
       id="marker5166"
       refX="0.0"
       refY="0.0"
       orient="auto"
       inkscape:stockid="Arrow1Lend"
       inkscape:isstock="true">
      <path
         transform="scale(0.8) rotate(180) translate(12.5,0)"
         style="fill-rule:evenodd;fill:context-stroke;stroke:context-stroke;stroke-width:1.0pt;"
         d="M 0.0,0.0 L 5.0,-5.0 L -12.5,0.0 L 5.0,5.0 L 0.0,0.0 z "
         id="path4908" />
    </marker>
    <marker
       style="overflow:visible"
       id="Arrow1Lstart"
       refX="0.0"
       refY="0.0"
       orient="auto"
       inkscape:stockid="Arrow1Lstart"
       inkscape:isstock="true">
      <path
         transform="scale(0.8) translate(12.5,0)"
         style="fill-rule:evenodd;fill:context-stroke;stroke:context-stroke;stroke-width:1.0pt"
         d="M 0.0,0.0 L 5.0,-5.0 L -12.5,0.0 L 5.0,5.0 L 0.0,0.0 z "
         id="path5428" />
    </marker>
    <marker
       style="overflow:visible;"
       id="marker5708"
       refX="0.0"
       refY="0.0"
       orient="auto"
       inkscape:stockid="Arrow1Lend"
       inkscape:isstock="true">
      <path
         transform="scale(0.8) rotate(180) translate(12.5,0)"
         style="fill-rule:evenodd;fill:context-stroke;stroke:context-stroke;stroke-width:1.0pt;"
         d="M 0.0,0.0 L 5.0,-5.0 L -12.5,0.0 L 5.0,5.0 L 0.0,0.0 z "
         id="path5706" />
    </marker>
    <marker
       style="overflow:visible;"
       id="marker5698"
       refX="0.0"
       refY="0.0"
       orient="auto"
       inkscape:stockid="Arrow1Lend"
       inkscape:isstock="true">
      <path
         transform="scale(0.8) rotate(180) translate(12.5,0)"
         style="fill-rule:evenodd;fill:context-stroke;stroke:context-stroke;stroke-width:1.0pt;"
         d="M 0.0,0.0 L 5.0,-5.0 L -12.5,0.0 L 5.0,5.0 L 0.0,0.0 z "
         id="path5696" />
    </marker>
    <marker
       style="overflow:visible;"
       id="Arrow1Lend"
       refX="0.0"
       refY="0.0"
       orient="auto"
       inkscape:stockid="Arrow1Lend"
       inkscape:isstock="true">
      <path
         transform="scale(0.8) rotate(180) translate(12.5,0)"
         style="fill-rule:evenodd;fill:context-stroke;stroke:context-stroke;stroke-width:1.0pt;"
         d="M 0.0,0.0 L 5.0,-5.0 L -12.5,0.0 L 5.0,5.0 L 0.0,0.0 z "
         id="path5431" />
    </marker>
  </defs>
  <g
     inkscape:label="Camada 1"
     inkscape:groupmode="layer"
     id="layer1">
    <circle
       style="opacity:1;fill:none;stroke:#000000;stroke-width:0.847983;stroke-miterlimit:4;stroke-dasharray:none;stroke-dashoffset:0"
       id="path4542"
       cx="103.46812"
       cy="143.7569"
       r="65.610657" />
    <ellipse
       style="opacity:1;fill:none;stroke:#000000;stroke-width:0.406325;stroke-miterlimit:4;stroke-dasharray:3.2506, 1.6253;stroke-dashoffset:0"
       id="path4727"
       cx="103.45525"
       cy="143.83403"
       rx="65.075333"
       ry="16.840069" />
    <path
       style="fill:#000000;stroke:#000000;stroke-width:0.604306;stroke-linecap:butt;stroke-linejoin:miter;stroke-miterlimit:4;stroke-dasharray:none;stroke-opacity:1;marker-start:url(#Arrow1Lstart)"
       d="m 103.65115,50.693502 v 5.70832 170.628748"
       id="path5235"
       sodipodi:nodetypes="ccc" />
    <path
       style="fill:#000000;stroke:#000000;stroke-width:0.6;stroke-linecap:butt;stroke-linejoin:miter;stroke-miterlimit:4;stroke-dasharray:none;stroke-opacity:1;marker-end:url(#marker5708)"
       d="m 18.332317,143.9878 h 175.510223 4.18278"
       id="path5774"
       sodipodi:nodetypes="ccc" />
    <path
       style="fill:none;stroke:#000000;stroke-width:0.6;stroke-linecap:butt;stroke-linejoin:miter;stroke-miterlimit:4;stroke-dasharray:none;stroke-opacity:1;marker-end:url(#marker5698)"
       d="M 149.72717,117.77716 30.060857,185.99782"
       id="path6585"
       sodipodi:nodetypes="cc" />
    <path
       style="fill:#0000ff;stroke:#0000ff;stroke-width:0.502628;stroke-linecap:butt;stroke-linejoin:miter;stroke-miterlimit:4;stroke-dasharray:none;stroke-opacity:1;marker-end:url(#Arrow1Lend)"
       d="M 103.6602,144.00099 120.76714,93.419567"
       id="path7479" />
    <path
       style="fill:none;stroke:#0000ff;stroke-width:0.376971;stroke-linecap:butt;stroke-linejoin:miter;stroke-miterlimit:4;stroke-dasharray:1.50789, 1.50789;stroke-dashoffset:0;stroke-opacity:1"
       d="m 103.6602,144.00099 c 17.10694,13.44799 17.10694,13.44799 17.10694,13.44799"
       id="path8160" />
    <path
       style="fill:none;stroke:#0000ff;stroke-width:0.376971;stroke-linecap:butt;stroke-linejoin:miter;stroke-miterlimit:4;stroke-dasharray:1.50789, 1.50789;stroke-dashoffset:0;stroke-opacity:1"
       d="M 120.76714,157.44898 V 93.419567"
       id="path8445" />
    <path
       style="fill:none;stroke:#0000ff;stroke-width:0.2;stroke-linecap:butt;stroke-linejoin:miter;stroke-miterlimit:4;stroke-dasharray:0.4, 0.2;stroke-dashoffset:0;stroke-opacity:1;marker-end:url(#TriangleOutL)"
       d="m 95.489392,149.10828 c 3.106518,1.40254 5.451808,1.72702 8.272518,1.79187 1.84666,0.0425 5.46404,-0.92298 5.46404,-0.92298"
       id="path5577"
       sodipodi:nodetypes="cac" />
    <path
       style="fill:none;stroke:#0000ff;stroke-width:0.2;stroke-linecap:butt;stroke-linejoin:miter;stroke-miterlimit:4;stroke-dasharray:0.4, 0.2;stroke-dashoffset:0;stroke-opacity:1;marker-end:url(#marker9087)"
       d="m 104.05608,109.54201 c 1.43646,-0.8321 2.06128,-1.14171 3.20145,-1.32886 1.63419,-0.26824 3.3846,-0.18282 4.95668,0.33786 0.56205,0.18615 1.49385,0.96092 1.49385,0.96092"
       id="path6628"
       sodipodi:nodetypes="caac" />
    <g
       transform="matrix(0.352778,0,0,0.352778,107.76128,132.983)"
       ns1:version="1.8.0"
       ns1:texconverter="pdflatex"
       ns1:pdfconverter="inkscape"
       ns1:text="$\\phi$"
       ns1:preamble="C:\Users\marco\AppData\Roaming\inkscape\extensions\textext\default_packages.tex"
       ns1:scale="1.0"
       ns1:alignment="middle center"
       ns1:stroke-to-path="0"
       ns1:inkscapeversion="1.1.1"
       ns1:jacobian_sqrt="0.352778"
       id="g10807">
      <defs
         id="id-5d18b27a-d7a2-4b85-90a3-289e9c86184e">
        <g
           id="id-78eb9e70-7c6a-4040-85cf-d11c60c504c6">
          <symbol
             overflow="visible"
             id="id-09a96d32-8099-4905-946f-f82e0d8817b2">
            <path
               style="stroke:none;stroke-width:0"
               d=""
               id="id-c82c02de-9c8d-434b-8314-e9da2698051c" />
          </symbol>
          <symbol
             overflow="visible"
             id="id-a966fd2d-d3de-420f-a626-e83a3d42436a">
            <path
               style="stroke:none;stroke-width:0"
               d="m 4.359375,-6.671875 c 0,-0.03125 0.03125,-0.140625 0.03125,-0.140625 0,-0.015625 0,-0.109375 -0.125,-0.109375 -0.09375,0 -0.109375,0.03125 -0.15625,0.203125 L 3.53125,-4.421875 c -1.578125,0.0625 -3.046875,1.375 -3.046875,2.734375 0,0.953125 0.703125,1.734375 1.921875,1.8125 C 2.328125,0.421875 2.25,0.75 2.171875,1.0625 c -0.125,0.46875 -0.21875,0.84375 -0.21875,0.875 0,0.09375 0.078125,0.109375 0.125,0.109375 C 2.125,2.046875 2.140625,2.03125 2.171875,2 2.1875,1.984375 2.25,1.75 2.28125,1.609375 L 2.65625,0.125 c 1.609375,-0.0625 3.0625,-1.40625 3.0625,-2.734375 0,-0.796875 -0.53125,-1.703125 -1.921875,-1.8125 z m -1.90625,6.578125 c -0.59375,-0.03125 -1.3125,-0.390625 -1.3125,-1.375 0,-1.203125 0.859375,-2.59375 2.34375,-2.734375 z m 1.28125,-4.109375 c 0.765625,0.046875 1.328125,0.5 1.328125,1.375 0,1.1875 -0.859375,2.609375 -2.34375,2.734375 z m 0,0"
               id="id-d4f391b1-0c5b-4d3b-b7d0-1a294a4a21a6" />
          </symbol>
        </g>
      </defs>
      <g
         id="id-ffcec56b-fb2d-4b3f-b338-b92880f5b360"
         transform="translate(-149.196,-127.843)">
        <g
           style="fill:#000000;fill-opacity:1"
           id="id-8423605e-129b-42fa-bc74-88f5fb9db439">
          <g
             transform="translate(148.712,134.765)"
             id="g10803">
            <path
               style="fill:#0000ff;stroke:none;stroke-width:0"
               d="m -17.828416,46.138555 c 0,-0.07006 0.07006,-0.315261 0.07006,-0.315261 0,-0.03502 0,-0.245203 -0.280232,-0.245203 -0.210174,0 -0.245203,0.07006 -0.350291,0.455377 l -1.296072,5.149264 c -3.537929,0.140114 -6.830657,3.082552 -6.830657,6.130076 0,2.136769 1.576306,3.888219 4.308568,4.063364 -0.175144,0.66555 -0.35029,1.40116 -0.525435,2.101739 -0.280232,1.05087 -0.490405,1.891566 -0.490405,1.961625 0,0.210173 0.175144,0.245203 0.280232,0.245203 0.105089,0 0.140114,-0.03502 0.210173,-0.105089 0.03502,-0.03503 0.175145,-0.560464 0.245203,-0.875724 l 0.840696,-3.327754 c 3.607988,-0.140114 6.865685,-3.152611 6.865685,-6.130076 0,-1.78648 -1.190987,-3.818161 -4.308567,-4.063364 z m -4.273539,14.747211 c -1.331102,-0.07006 -2.942436,-0.875725 -2.942436,-3.082552 0,-2.697233 1.926595,-5.814815 5.25435,-6.130076 z m 2.872378,-9.212628 c 1.716422,0.105089 2.977465,1.120928 2.977465,3.082552 0,2.662204 -1.926595,5.849844 -5.25435,6.130076 z m 0,0"
               id="id-289d7515-802d-4449-bc54-1cef345b61ee" />
          </g>
        </g>
      </g>
    </g>
    <g
       transform="matrix(0.7219813,0,0,0.67192529,108.69128,100.88538)"
       ns1:version="1.8.0"
       ns1:texconverter="pdflatex"
       ns1:pdfconverter="inkscape"
       ns1:text="$\\theta$"
       ns1:preamble="C:\Users\marco\AppData\Roaming\inkscape\extensions\textext\default_packages.tex"
       ns1:scale="1.0"
       ns1:alignment="middle center"
       ns1:stroke-to-path="0"
       ns1:inkscapeversion="1.1.1"
       ns1:jacobian_sqrt="0.352778"
       id="g11065"
       style="fill:#0000ff">
      <defs
         id="id-2169c91c-86a8-482f-b2f1-fad28f7533c0">
        <g
           id="id-458c639a-c98a-4fce-9e47-af98fad7be6a">
          <symbol
             overflow="visible"
             id="id-f89c1fe9-76dc-4ec2-aeb3-a45bd756e905">
            <path
               style="stroke:none;stroke-width:0"
               d=""
               id="id-ea0921db-3426-4af1-bf02-79b302a6b19d" />
          </symbol>
          <symbol
             overflow="visible"
             id="id-ed367d96-1171-40c2-ad17-b4d8b9123241">
            <path
               style="stroke:none;stroke-width:0"
               d="m 4.53125,-4.984375 c 0,-0.65625 -0.171875,-2.046875 -1.1875,-2.046875 -1.390625,0 -2.921875,2.8125 -2.921875,5.09375 0,0.9375 0.28125,2.046875 1.1875,2.046875 1.40625,0 2.921875,-2.859375 2.921875,-5.09375 z M 1.46875,-3.625 C 1.640625,-4.25 1.84375,-5.046875 2.25,-5.765625 2.515625,-6.25 2.875,-6.8125 3.328125,-6.8125 c 0.484375,0 0.546875,0.640625 0.546875,1.203125 0,0.5 -0.078125,1 -0.3125,1.984375 z m 2,0.328125 C 3.359375,-2.84375 3.15625,-2 2.765625,-1.28125 c -0.34375,0.6875 -0.71875,1.171875 -1.15625,1.171875 -0.328125,0 -0.53125,-0.296875 -0.53125,-1.21875 0,-0.421875 0.0625,-1 0.3125,-1.96875 z m 0,0"
               id="id-753e70e5-f9a9-4b53-b48d-9ddfc02cc5ee" />
          </symbol>
        </g>
      </defs>
      <g
         id="id-39004fd5-50ee-46c8-99aa-840218f3021d"
         transform="translate(-149.134,-127.734)"
         style="fill:#0000ff">
        <g
           style="fill:#0000ff;fill-opacity:1"
           id="id-e87d905b-199a-4450-bac9-e262c445c2dc">
          <g
             transform="translate(148.712,134.765)"
             id="g11061"
             style="fill:#0000ff">
            <path
               style="fill:#0000ff;stroke:none;stroke-width:0"
               d="m 4.53125,-4.984375 c 0,-0.65625 -0.171875,-2.046875 -1.1875,-2.046875 -1.390625,0 -2.921875,2.8125 -2.921875,5.09375 0,0.9375 0.28125,2.046875 1.1875,2.046875 1.40625,0 2.921875,-2.859375 2.921875,-5.09375 z M 1.46875,-3.625 C 1.640625,-4.25 1.84375,-5.046875 2.25,-5.765625 2.515625,-6.25 2.875,-6.8125 3.328125,-6.8125 c 0.484375,0 0.546875,0.640625 0.546875,1.203125 0,0.5 -0.078125,1 -0.3125,1.984375 z m 2,0.328125 C 3.359375,-2.84375 3.15625,-2 2.765625,-1.28125 c -0.34375,0.6875 -0.71875,1.171875 -1.15625,1.171875 -0.328125,0 -0.53125,-0.296875 -0.53125,-1.21875 0,-0.421875 0.0625,-1 0.3125,-1.96875 z m 0,0"
               id="id-829b40d1-023d-4f85-a4e8-e4bead117d65" />
          </g>
        </g>
      </g>
    </g>
    <g
       transform="matrix(0.7164328,0,0,0.7164328,105.49604,83.111189)"
       ns1:version="1.8.0"
       ns1:texconverter="pdflatex"
       ns1:pdfconverter="inkscape"
       ns1:text="$\\hat{B}_+^\\dagger(\\theta,\\phi)$"
       ns1:preamble="C:\Users\marco\AppData\Roaming\inkscape\extensions\textext\default_packages.tex"
       ns1:scale="1.0"
       ns1:alignment="middle center"
       ns1:stroke-to-path="0"
       ns1:inkscapeversion="1.1.1"
       ns1:jacobian_sqrt="0.352778"
       id="g265"
       style="fill:#0000ff">
      <defs
         id="id-1f67e6fa-bfa1-4d35-b57a-af7151e39730">
        <g
           id="id-2d19153b-380b-42d1-b3b2-5f8fca71525e">
          <symbol
             overflow="visible"
             id="id-c8e7b0e4-49c8-4cc7-a3bf-5f16217832da">
            <path
               style="stroke:none;stroke-width:0"
               d=""
               id="id-ffb2a514-e8f7-4d1a-bf15-28f1b0563c0d" />
          </symbol>
          <symbol
             overflow="visible"
             id="id-3c41ef72-a147-4b54-9760-8d3312feed74">
            <path
               style="stroke:none;stroke-width:0"
               d="M 2.5,-6.921875 1.15625,-5.5625 1.328125,-5.390625 2.5,-6.40625 3.640625,-5.390625 3.8125,-5.5625 Z m 0,0"
               id="id-ef2bd7aa-e1aa-4aad-89b8-dc714fb7f7a4" />
          </symbol>
          <symbol
             overflow="visible"
             id="id-4bd22501-2d82-464e-b1cb-20722d01983f">
            <path
               style="stroke:none;stroke-width:0"
               d="m 3.296875,2.390625 c 0,-0.03125 0,-0.046875 -0.171875,-0.21875 C 1.890625,0.921875 1.5625,-0.96875 1.5625,-2.5 c 0,-1.734375 0.375,-3.46875 1.609375,-4.703125 0.125,-0.125 0.125,-0.140625 0.125,-0.171875 0,-0.078125 -0.03125,-0.109375 -0.09375,-0.109375 -0.109375,0 -1,0.6875 -1.59375,1.953125 -0.5,1.09375 -0.625,2.203125 -0.625,3.03125 0,0.78125 0.109375,1.984375 0.65625,3.125 C 2.25,1.84375 3.09375,2.5 3.203125,2.5 c 0.0625,0 0.09375,-0.03125 0.09375,-0.109375 z m 0,0"
               id="id-9b80fd4b-55c6-4161-86c3-1a3bdd8df739" />
          </symbol>
          <symbol
             overflow="visible"
             id="id-0141e8dc-539a-46bd-94dd-40c9ec2bdaf6">
            <path
               style="stroke:none;stroke-width:0"
               d="m 2.875,-2.5 c 0,-0.765625 -0.109375,-1.96875 -0.65625,-3.109375 -0.59375,-1.21875 -1.453125,-1.875 -1.546875,-1.875 -0.0625,0 -0.109375,0.046875 -0.109375,0.109375 0,0.03125 0,0.046875 0.1875,0.234375 0.984375,0.984375 1.546875,2.5625 1.546875,4.640625 0,1.71875 -0.359375,3.46875 -1.59375,4.71875 C 0.5625,2.34375 0.5625,2.359375 0.5625,2.390625 0.5625,2.453125 0.609375,2.5 0.671875,2.5 0.765625,2.5 1.671875,1.8125 2.25,0.546875 2.765625,-0.546875 2.875,-1.65625 2.875,-2.5 Z m 0,0"
               id="id-24bcb634-a7ea-4c95-a0a0-904d45aa0767" />
          </symbol>
          <symbol
             overflow="visible"
             id="id-b4080ba3-252e-4ca7-a88a-08ea02eefd57">
            <path
               style="stroke:none;stroke-width:0"
               d=""
               id="id-edffa046-e036-419a-a64f-243488273b1b" />
          </symbol>
          <symbol
             overflow="visible"
             id="id-083240a3-66f8-46b8-a0f0-498f34a96b7e">
            <path
               style="stroke:none;stroke-width:0"
               d="M 1.59375,-0.78125 C 1.5,-0.390625 1.46875,-0.3125 0.6875,-0.3125 c -0.171875,0 -0.265625,0 -0.265625,0.203125 C 0.421875,0 0.515625,0 0.6875,0 H 4.25 C 5.828125,0 7,-1.171875 7,-2.15625 7,-2.875 6.421875,-3.453125 5.453125,-3.5625 6.484375,-3.75 7.53125,-4.484375 7.53125,-5.4375 c 0,-0.734375 -0.65625,-1.375 -1.84375,-1.375 H 2.328125 c -0.1875,0 -0.28125,0 -0.28125,0.203125 0,0.109375 0.09375,0.109375 0.28125,0.109375 0.015625,0 0.203125,0 0.375,0.015625 0.171875,0.03125 0.265625,0.03125 0.265625,0.171875 0,0.03125 -0.015625,0.0625 -0.03125,0.1875 z m 1.5,-2.875 0.625,-2.46875 C 3.8125,-6.46875 3.828125,-6.5 4.25,-6.5 h 1.296875 c 0.875,0 1.078125,0.59375 1.078125,1.03125 0,0.875 -0.859375,1.8125 -2.0625,1.8125 z m -0.4375,3.34375 c -0.140625,0 -0.15625,0 -0.21875,0 -0.109375,-0.015625 -0.140625,-0.03125 -0.140625,-0.109375 0,-0.03125 0,-0.046875 0.0625,-0.21875 l 0.6875,-2.78125 h 1.875 c 0.953125,0 1.15625,0.734375 1.15625,1.15625 C 6.078125,-1.28125 5.1875,-0.3125 4,-0.3125 Z m 0,0"
               id="id-2c469824-20e4-4aae-bb40-689d451855e5" />
          </symbol>
          <symbol
             overflow="visible"
             id="id-35b48ff4-d6d8-4fa0-a599-a641cdc26f77">
            <path
               style="stroke:none;stroke-width:0"
               d="m 4.53125,-4.984375 c 0,-0.65625 -0.171875,-2.046875 -1.1875,-2.046875 -1.390625,0 -2.921875,2.8125 -2.921875,5.09375 0,0.9375 0.28125,2.046875 1.1875,2.046875 1.40625,0 2.921875,-2.859375 2.921875,-5.09375 z M 1.46875,-3.625 C 1.640625,-4.25 1.84375,-5.046875 2.25,-5.765625 2.515625,-6.25 2.875,-6.8125 3.328125,-6.8125 c 0.484375,0 0.546875,0.640625 0.546875,1.203125 0,0.5 -0.078125,1 -0.3125,1.984375 z m 2,0.328125 C 3.359375,-2.84375 3.15625,-2 2.765625,-1.28125 c -0.34375,0.6875 -0.71875,1.171875 -1.15625,1.171875 -0.328125,0 -0.53125,-0.296875 -0.53125,-1.21875 0,-0.421875 0.0625,-1 0.3125,-1.96875 z m 0,0"
               id="id-f5708e43-1783-42e2-98b4-8dacc9c8f73a" />
          </symbol>
          <symbol
             overflow="visible"
             id="id-e1f83dd9-38ce-46be-8f13-68c6fc0fd106">
            <path
               style="stroke:none;stroke-width:0"
               d="m 2.03125,-0.015625 c 0,-0.65625 -0.25,-1.046875 -0.640625,-1.046875 -0.328125,0 -0.53125,0.25 -0.53125,0.53125 C 0.859375,-0.265625 1.0625,0 1.390625,0 1.5,0 1.640625,-0.046875 1.734375,-0.125 1.765625,-0.15625 1.78125,-0.15625 1.78125,-0.15625 c 0.015625,0 0.015625,0 0.015625,0.140625 0,0.75 -0.34375,1.34375 -0.671875,1.671875 -0.109375,0.109375 -0.109375,0.125 -0.109375,0.15625 0,0.078125 0.046875,0.109375 0.09375,0.109375 0.109375,0 0.921875,-0.765625 0.921875,-1.9375 z m 0,0"
               id="id-f0aa7e9f-6d10-42e7-b870-2cf284b2701c" />
          </symbol>
          <symbol
             overflow="visible"
             id="id-a63308fe-f368-44d0-84b3-0dc9a3137911">
            <path
               style="stroke:none;stroke-width:0"
               d="m 4.359375,-6.671875 c 0,-0.03125 0.03125,-0.140625 0.03125,-0.140625 0,-0.015625 0,-0.109375 -0.125,-0.109375 -0.09375,0 -0.109375,0.03125 -0.15625,0.203125 L 3.53125,-4.421875 c -1.578125,0.0625 -3.046875,1.375 -3.046875,2.734375 0,0.953125 0.703125,1.734375 1.921875,1.8125 C 2.328125,0.421875 2.25,0.75 2.171875,1.0625 c -0.125,0.46875 -0.21875,0.84375 -0.21875,0.875 0,0.09375 0.078125,0.109375 0.125,0.109375 C 2.125,2.046875 2.140625,2.03125 2.171875,2 2.1875,1.984375 2.25,1.75 2.28125,1.609375 L 2.65625,0.125 c 1.609375,-0.0625 3.0625,-1.40625 3.0625,-2.734375 0,-0.796875 -0.53125,-1.703125 -1.921875,-1.8125 z m -1.90625,6.578125 c -0.59375,-0.03125 -1.3125,-0.390625 -1.3125,-1.375 0,-1.203125 0.859375,-2.59375 2.34375,-2.734375 z m 1.28125,-4.109375 c 0.765625,0.046875 1.328125,0.5 1.328125,1.375 0,1.1875 -0.859375,2.609375 -2.34375,2.734375 z m 0,0"
               id="id-52ce1998-f15b-4ff0-9a2b-3b9a91799fb5" />
          </symbol>
          <symbol
             overflow="visible"
             id="id-225cf54b-c014-4dfd-9213-8c8d5f2c28aa">
            <path
               style="stroke:none;stroke-width:0"
               d=""
               id="id-c872434c-cfe4-422c-ba9a-2a50ad36e532" />
          </symbol>
          <symbol
             overflow="visible"
             id="id-b0fe8bd7-1c48-4843-a1a2-5648b6610312">
            <path
               style="stroke:none;stroke-width:0"
               d="m 1.90625,-2.90625 c 0.109375,0 0.171875,0.015625 0.390625,0.0625 0.21875,0.0625 0.390625,0.109375 0.515625,0.109375 0.28125,0 0.296875,-0.203125 0.296875,-0.265625 0,-0.0625 -0.015625,-0.28125 -0.296875,-0.28125 -0.125,0 -0.296875,0.046875 -0.515625,0.109375 -0.21875,0.0625 -0.28125,0.0625 -0.390625,0.078125 0.015625,-0.25 0.0625,-0.53125 0.09375,-0.75 0.03125,-0.140625 0.09375,-0.5 0.09375,-0.734375 0,-0.21875 -0.09375,-0.328125 -0.265625,-0.328125 -0.15625,0 -0.28125,0.078125 -0.28125,0.328125 0,0.21875 0.0625,0.578125 0.109375,0.8125 0.015625,0.078125 0.078125,0.40625 0.078125,0.671875 C 1.640625,-3.109375 1.5625,-3.109375 1.359375,-3.171875 1.140625,-3.234375 0.96875,-3.28125 0.84375,-3.28125 c -0.28125,0 -0.3125,0.21875 -0.3125,0.28125 0,0.046875 0.03125,0.265625 0.3125,0.265625 0.125,0 0.296875,-0.046875 0.515625,-0.109375 0.203125,-0.046875 0.28125,-0.0625 0.375,-0.0625 0,0.171875 -0.0625,0.390625 -0.09375,0.53125 -0.09375,0.4375 -0.09375,0.484375 -0.09375,0.84375 0,1.34375 0.140625,2.78125 0.15625,2.921875 0.015625,0.0625 0.03125,0.09375 0.125,0.09375 0.109375,0 0.109375,-0.03125 0.125,-0.125 0,-0.015625 0.046875,-0.625 0.078125,-1.046875 0.03125,-0.609375 0.0625,-1.21875 0.0625,-1.84375 0,-0.359375 0,-0.40625 -0.09375,-0.859375 -0.015625,-0.0625 -0.078125,-0.34375 -0.09375,-0.515625 z m 0,0"
               id="id-cb36ba90-25cc-44db-9b3a-7e17815e389d" />
          </symbol>
          <symbol
             overflow="visible"
             id="id-2abf488b-0a0a-457c-a342-7d8f6ce4826e">
            <path
               style="stroke:none;stroke-width:0"
               d=""
               id="id-15d9a381-7dcc-4ee0-85f5-699a0b6780d9" />
          </symbol>
          <symbol
             overflow="visible"
             id="id-2802087e-405b-45dd-94af-b84ca1c825e1">
            <path
               style="stroke:none;stroke-width:0"
               d="m 3.21875,-1.578125 h 2.140625 c 0.09375,0 0.25,0 0.25,-0.15625 0,-0.1875 -0.15625,-0.1875 -0.25,-0.1875 H 3.21875 V -4.0625 c 0,-0.078125 0,-0.25 -0.15625,-0.25 -0.171875,0 -0.171875,0.15625 -0.171875,0.25 v 2.140625 H 0.75 c -0.09375,0 -0.265625,0 -0.265625,0.171875 0,0.171875 0.15625,0.171875 0.265625,0.171875 H 2.890625 V 0.5625 c 0,0.09375 0,0.265625 0.15625,0.265625 0.171875,0 0.171875,-0.171875 0.171875,-0.265625 z m 0,0"
               id="id-8c4e813d-baef-4834-b1ce-34a7fd51e931" />
          </symbol>
        </g>
      </defs>
      <g
         id="id-9d153ce3-1a5a-4a5f-8b39-71f7102bd71e"
         transform="translate(-149.134,-125.071)"
         style="fill:#0000ff">
        <g
           style="fill:#0000ff;fill-opacity:1"
           id="id-f876e31d-58fa-43ca-a18a-c845de05aebe">
          <g
             transform="translate(151.08,132.246)"
             id="g229"
             style="fill:#0000ff">
            <path
               style="fill:#0000ff;stroke:none;stroke-width:0"
               d="M 2.5,-6.921875 1.15625,-5.5625 1.328125,-5.390625 2.5,-6.40625 3.640625,-5.390625 3.8125,-5.5625 Z m 0,0"
               id="id-c22b4941-cf4c-474d-ba58-f0ccf71a0fb0" />
          </g>
        </g>
        <g
           style="fill:#0000ff;fill-opacity:1"
           id="id-b0c7180c-3854-4038-973a-46236116d311">
          <g
             transform="translate(148.712,134.765)"
             id="g233"
             style="fill:#0000ff">
            <path
               style="fill:#0000ff;stroke:none;stroke-width:0"
               d="M 1.59375,-0.78125 C 1.5,-0.390625 1.46875,-0.3125 0.6875,-0.3125 c -0.171875,0 -0.265625,0 -0.265625,0.203125 C 0.421875,0 0.515625,0 0.6875,0 H 4.25 C 5.828125,0 7,-1.171875 7,-2.15625 7,-2.875 6.421875,-3.453125 5.453125,-3.5625 6.484375,-3.75 7.53125,-4.484375 7.53125,-5.4375 c 0,-0.734375 -0.65625,-1.375 -1.84375,-1.375 H 2.328125 c -0.1875,0 -0.28125,0 -0.28125,0.203125 0,0.109375 0.09375,0.109375 0.28125,0.109375 0.015625,0 0.203125,0 0.375,0.015625 0.171875,0.03125 0.265625,0.03125 0.265625,0.171875 0,0.03125 -0.015625,0.0625 -0.03125,0.1875 z m 1.5,-2.875 0.625,-2.46875 C 3.8125,-6.46875 3.828125,-6.5 4.25,-6.5 h 1.296875 c 0.875,0 1.078125,0.59375 1.078125,1.03125 0,0.875 -0.859375,1.8125 -2.0625,1.8125 z m -0.4375,3.34375 c -0.140625,0 -0.15625,0 -0.21875,0 -0.109375,-0.015625 -0.140625,-0.03125 -0.140625,-0.109375 0,-0.03125 0,-0.046875 0.0625,-0.21875 l 0.6875,-2.78125 h 1.875 c 0.953125,0 1.15625,0.734375 1.15625,1.15625 C 6.078125,-1.28125 5.1875,-0.3125 4,-0.3125 Z m 0,0"
               id="id-25cc73ec-8430-43c1-8782-a8aa4593c786" />
          </g>
        </g>
        <g
           style="fill:#0000ff;fill-opacity:1"
           id="id-fcc3bb77-f416-4433-a32d-064cf1beedaa">
          <g
             transform="translate(156.769,129.977)"
             id="g237"
             style="fill:#0000ff">
            <path
               style="fill:#0000ff;stroke:none;stroke-width:0"
               d="m 1.90625,-2.90625 c 0.109375,0 0.171875,0.015625 0.390625,0.0625 0.21875,0.0625 0.390625,0.109375 0.515625,0.109375 0.28125,0 0.296875,-0.203125 0.296875,-0.265625 0,-0.0625 -0.015625,-0.28125 -0.296875,-0.28125 -0.125,0 -0.296875,0.046875 -0.515625,0.109375 -0.21875,0.0625 -0.28125,0.0625 -0.390625,0.078125 0.015625,-0.25 0.0625,-0.53125 0.09375,-0.75 0.03125,-0.140625 0.09375,-0.5 0.09375,-0.734375 0,-0.21875 -0.09375,-0.328125 -0.265625,-0.328125 -0.15625,0 -0.28125,0.078125 -0.28125,0.328125 0,0.21875 0.0625,0.578125 0.109375,0.8125 0.015625,0.078125 0.078125,0.40625 0.078125,0.671875 C 1.640625,-3.109375 1.5625,-3.109375 1.359375,-3.171875 1.140625,-3.234375 0.96875,-3.28125 0.84375,-3.28125 c -0.28125,0 -0.3125,0.21875 -0.3125,0.28125 0,0.046875 0.03125,0.265625 0.3125,0.265625 0.125,0 0.296875,-0.046875 0.515625,-0.109375 0.203125,-0.046875 0.28125,-0.0625 0.375,-0.0625 0,0.171875 -0.0625,0.390625 -0.09375,0.53125 -0.09375,0.4375 -0.09375,0.484375 -0.09375,0.84375 0,1.34375 0.140625,2.78125 0.15625,2.921875 0.015625,0.0625 0.03125,0.09375 0.125,0.09375 0.109375,0 0.109375,-0.03125 0.125,-0.125 0,-0.015625 0.046875,-0.625 0.078125,-1.046875 0.03125,-0.609375 0.0625,-1.21875 0.0625,-1.84375 0,-0.359375 0,-0.40625 -0.09375,-0.859375 -0.015625,-0.0625 -0.078125,-0.34375 -0.09375,-0.515625 z m 0,0"
               id="id-4d073b62-8bcf-4286-9fd7-c732179bda42" />
          </g>
        </g>
        <g
           style="fill:#0000ff;fill-opacity:1"
           id="id-52d62111-a11d-4889-9f5f-72efc48da2af">
          <g
             transform="translate(156.269,137.244)"
             id="g241"
             style="fill:#0000ff">
            <path
               style="fill:#0000ff;stroke:none;stroke-width:0"
               d="m 3.21875,-1.578125 h 2.140625 c 0.09375,0 0.25,0 0.25,-0.15625 0,-0.1875 -0.15625,-0.1875 -0.25,-0.1875 H 3.21875 V -4.0625 c 0,-0.078125 0,-0.25 -0.15625,-0.25 -0.171875,0 -0.171875,0.15625 -0.171875,0.25 v 2.140625 H 0.75 c -0.09375,0 -0.265625,0 -0.265625,0.171875 0,0.171875 0.15625,0.171875 0.265625,0.171875 H 2.890625 V 0.5625 c 0,0.09375 0,0.265625 0.15625,0.265625 0.171875,0 0.171875,-0.171875 0.171875,-0.265625 z m 0,0"
               id="id-dc61431a-20d3-4ba0-acfe-c95794d70cba" />
          </g>
        </g>
        <g
           style="fill:#0000ff;fill-opacity:1"
           id="id-bd4dbeba-4dd0-47a4-a486-3c27dc65a599">
          <g
             transform="translate(162.883,134.765)"
             id="g245"
             style="fill:#0000ff">
            <path
               style="fill:#0000ff;stroke:none;stroke-width:0"
               d="m 3.296875,2.390625 c 0,-0.03125 0,-0.046875 -0.171875,-0.21875 C 1.890625,0.921875 1.5625,-0.96875 1.5625,-2.5 c 0,-1.734375 0.375,-3.46875 1.609375,-4.703125 0.125,-0.125 0.125,-0.140625 0.125,-0.171875 0,-0.078125 -0.03125,-0.109375 -0.09375,-0.109375 -0.109375,0 -1,0.6875 -1.59375,1.953125 -0.5,1.09375 -0.625,2.203125 -0.625,3.03125 0,0.78125 0.109375,1.984375 0.65625,3.125 C 2.25,1.84375 3.09375,2.5 3.203125,2.5 c 0.0625,0 0.09375,-0.03125 0.09375,-0.109375 z m 0,0"
               id="id-bd438daa-6678-4ef1-9929-bd4cc08d8e60" />
          </g>
        </g>
        <g
           style="fill:#0000ff;fill-opacity:1"
           id="id-ff279f9d-df99-44db-a8e1-961dc6b657c5">
          <g
             transform="translate(166.758,134.765)"
             id="g249"
             style="fill:#0000ff">
            <path
               style="fill:#0000ff;stroke:none;stroke-width:0"
               d="m 4.53125,-4.984375 c 0,-0.65625 -0.171875,-2.046875 -1.1875,-2.046875 -1.390625,0 -2.921875,2.8125 -2.921875,5.09375 0,0.9375 0.28125,2.046875 1.1875,2.046875 1.40625,0 2.921875,-2.859375 2.921875,-5.09375 z M 1.46875,-3.625 C 1.640625,-4.25 1.84375,-5.046875 2.25,-5.765625 2.515625,-6.25 2.875,-6.8125 3.328125,-6.8125 c 0.484375,0 0.546875,0.640625 0.546875,1.203125 0,0.5 -0.078125,1 -0.3125,1.984375 z m 2,0.328125 C 3.359375,-2.84375 3.15625,-2 2.765625,-1.28125 c -0.34375,0.6875 -0.71875,1.171875 -1.15625,1.171875 -0.328125,0 -0.53125,-0.296875 -0.53125,-1.21875 0,-0.421875 0.0625,-1 0.3125,-1.96875 z m 0,0"
               id="id-3d97caec-7f71-4585-89b9-77498fb41691" />
          </g>
        </g>
        <g
           style="fill:#0000ff;fill-opacity:1"
           id="id-be3a48e9-d244-4f54-afcb-31f59d4eeec5">
          <g
             transform="translate(171.713,134.765)"
             id="g253"
             style="fill:#0000ff">
            <path
               style="fill:#0000ff;stroke:none;stroke-width:0"
               d="m 2.03125,-0.015625 c 0,-0.65625 -0.25,-1.046875 -0.640625,-1.046875 -0.328125,0 -0.53125,0.25 -0.53125,0.53125 C 0.859375,-0.265625 1.0625,0 1.390625,0 1.5,0 1.640625,-0.046875 1.734375,-0.125 1.765625,-0.15625 1.78125,-0.15625 1.78125,-0.15625 c 0.015625,0 0.015625,0 0.015625,0.140625 0,0.75 -0.34375,1.34375 -0.671875,1.671875 -0.109375,0.109375 -0.109375,0.125 -0.109375,0.15625 0,0.078125 0.046875,0.109375 0.09375,0.109375 0.109375,0 0.921875,-0.765625 0.921875,-1.9375 z m 0,0"
               id="id-aece391d-3763-47f5-82eb-45d8b85e1855" />
          </g>
        </g>
        <g
           style="fill:#0000ff;fill-opacity:1"
           id="id-6616da85-210a-413f-b152-541f32af04fd">
          <g
             transform="translate(176.135,134.765)"
             id="g257"
             style="fill:#0000ff">
            <path
               style="fill:#0000ff;stroke:none;stroke-width:0"
               d="m 4.359375,-6.671875 c 0,-0.03125 0.03125,-0.140625 0.03125,-0.140625 0,-0.015625 0,-0.109375 -0.125,-0.109375 -0.09375,0 -0.109375,0.03125 -0.15625,0.203125 L 3.53125,-4.421875 c -1.578125,0.0625 -3.046875,1.375 -3.046875,2.734375 0,0.953125 0.703125,1.734375 1.921875,1.8125 C 2.328125,0.421875 2.25,0.75 2.171875,1.0625 c -0.125,0.46875 -0.21875,0.84375 -0.21875,0.875 0,0.09375 0.078125,0.109375 0.125,0.109375 C 2.125,2.046875 2.140625,2.03125 2.171875,2 2.1875,1.984375 2.25,1.75 2.28125,1.609375 L 2.65625,0.125 c 1.609375,-0.0625 3.0625,-1.40625 3.0625,-2.734375 0,-0.796875 -0.53125,-1.703125 -1.921875,-1.8125 z m -1.90625,6.578125 c -0.59375,-0.03125 -1.3125,-0.390625 -1.3125,-1.375 0,-1.203125 0.859375,-2.59375 2.34375,-2.734375 z m 1.28125,-4.109375 c 0.765625,0.046875 1.328125,0.5 1.328125,1.375 0,1.1875 -0.859375,2.609375 -2.34375,2.734375 z m 0,0"
               id="id-9c00cfe9-3ddd-4da3-9fda-dea946247ff3" />
          </g>
        </g>
        <g
           style="fill:#0000ff;fill-opacity:1"
           id="id-d59a01ea-489b-44c2-9ecd-a276166aafd4">
          <g
             transform="translate(182.075,134.765)"
             id="g261"
             style="fill:#0000ff">
            <path
               style="fill:#0000ff;stroke:none;stroke-width:0"
               d="m 2.875,-2.5 c 0,-0.765625 -0.109375,-1.96875 -0.65625,-3.109375 -0.59375,-1.21875 -1.453125,-1.875 -1.546875,-1.875 -0.0625,0 -0.109375,0.046875 -0.109375,0.109375 0,0.03125 0,0.046875 0.1875,0.234375 0.984375,0.984375 1.546875,2.5625 1.546875,4.640625 0,1.71875 -0.359375,3.46875 -1.59375,4.71875 C 0.5625,2.34375 0.5625,2.359375 0.5625,2.390625 0.5625,2.453125 0.609375,2.5 0.671875,2.5 0.765625,2.5 1.671875,1.8125 2.25,0.546875 2.765625,-0.546875 2.875,-1.65625 2.875,-2.5 Z m 0,0"
               id="id-0102c723-d2d8-4888-b25a-b053520e3c0e" />
          </g>
        </g>
      </g>
    </g>
    <g
       transform="matrix(1.0170113,0,0,1.0170113,90.524689,62.618056)"
       ns1:version="1.8.0"
       ns1:texconverter="pdflatex"
       ns1:pdfconverter="inkscape"
       ns1:text="$\\hat{b}^\\dagger_+$"
       ns1:preamble="C:\Users\marco\AppData\Roaming\inkscape\extensions\textext\default_packages.tex"
       ns1:scale="1.0"
       ns1:alignment="middle center"
       ns1:stroke-to-path="0"
       ns1:inkscapeversion="1.1.1"
       ns1:jacobian_sqrt="0.352778"
       id="g895"
       style="fill:#ff0000">
      <defs
         id="id-286cff15-0efd-4ede-b176-fdea08c1a1c6">
        <g
           id="id-3e382e2c-a0a6-4098-8d69-4bae586ff48a">
          <symbol
             overflow="visible"
             id="id-9a4a0678-8a49-43a7-a7a6-9b4a0d7e04b7">
            <path
               style="stroke:none;stroke-width:0"
               d=""
               id="id-bc9fb562-aaf7-402f-8c2f-127c64ed2ac1" />
          </symbol>
          <symbol
             overflow="visible"
             id="id-cef912fd-d9c9-4d7e-a32a-eb9ce0da8a3b">
            <path
               style="stroke:none;stroke-width:0"
               d="M 2.5,-6.921875 1.15625,-5.5625 1.328125,-5.390625 2.5,-6.40625 3.640625,-5.390625 3.8125,-5.5625 Z m 0,0"
               id="id-7036137b-d012-4937-91b6-88b15a030e4f" />
          </symbol>
          <symbol
             overflow="visible"
             id="id-b787e73a-9942-4a5e-bb51-84da80ae415b">
            <path
               style="stroke:none;stroke-width:0"
               d=""
               id="id-ada7df55-a45e-4337-b25c-b7136b0623a6" />
          </symbol>
          <symbol
             overflow="visible"
             id="id-255e3929-128d-4ec7-835f-ad042d3f6417">
            <path
               style="stroke:none;stroke-width:0"
               d="m 2.375,-6.8125 c 0,0 0,-0.109375 -0.125,-0.109375 -0.21875,0 -0.953125,0.078125 -1.21875,0.109375 -0.078125,0 -0.1875,0.015625 -0.1875,0.1875 0,0.125 0.09375,0.125 0.25,0.125 0.46875,0 0.484375,0.0625 0.484375,0.171875 0,0.0625 -0.078125,0.40625 -0.125,0.609375 l -0.828125,3.25 c -0.109375,0.5 -0.15625,0.671875 -0.15625,1.015625 0,0.9375 0.53125,1.5625 1.265625,1.5625 1.171875,0 2.40625,-1.484375 2.40625,-2.921875 0,-0.90625 -0.53125,-1.59375 -1.328125,-1.59375 -0.453125,0 -0.875,0.296875 -1.171875,0.59375 z M 1.453125,-3.046875 C 1.5,-3.265625 1.5,-3.28125 1.59375,-3.390625 2.078125,-4.03125 2.53125,-4.1875 2.796875,-4.1875 c 0.359375,0 0.625,0.296875 0.625,0.9375 0,0.59375 -0.328125,1.734375 -0.515625,2.109375 -0.328125,0.671875 -0.78125,1.03125 -1.171875,1.03125 -0.34375,0 -0.671875,-0.265625 -0.671875,-1 0,-0.203125 0,-0.390625 0.15625,-1.015625 z m 0,0"
               id="id-ffb6887b-d137-4bbc-8e33-ee061b958124" />
          </symbol>
          <symbol
             overflow="visible"
             id="id-0ea54dd3-2167-486b-b726-574cdcafc3f0">
            <path
               style="stroke:none;stroke-width:0"
               d=""
               id="id-f3e2515c-3613-4c36-8e3f-a31d8f27863c" />
          </symbol>
          <symbol
             overflow="visible"
             id="id-f9219cf1-76c5-48b4-90ec-17e2341685b3">
            <path
               style="stroke:none;stroke-width:0"
               d="m 1.90625,-2.90625 c 0.109375,0 0.171875,0.015625 0.390625,0.0625 0.21875,0.0625 0.390625,0.109375 0.515625,0.109375 0.28125,0 0.296875,-0.203125 0.296875,-0.265625 0,-0.0625 -0.015625,-0.28125 -0.296875,-0.28125 -0.125,0 -0.296875,0.046875 -0.515625,0.109375 -0.21875,0.0625 -0.28125,0.0625 -0.390625,0.078125 0.015625,-0.25 0.0625,-0.53125 0.09375,-0.75 0.03125,-0.140625 0.09375,-0.5 0.09375,-0.734375 0,-0.21875 -0.09375,-0.328125 -0.265625,-0.328125 -0.15625,0 -0.28125,0.078125 -0.28125,0.328125 0,0.21875 0.0625,0.578125 0.109375,0.8125 0.015625,0.078125 0.078125,0.40625 0.078125,0.671875 C 1.640625,-3.109375 1.5625,-3.109375 1.359375,-3.171875 1.140625,-3.234375 0.96875,-3.28125 0.84375,-3.28125 c -0.28125,0 -0.3125,0.21875 -0.3125,0.28125 0,0.046875 0.03125,0.265625 0.3125,0.265625 0.125,0 0.296875,-0.046875 0.515625,-0.109375 0.203125,-0.046875 0.28125,-0.0625 0.375,-0.0625 0,0.171875 -0.0625,0.390625 -0.09375,0.53125 -0.09375,0.4375 -0.09375,0.484375 -0.09375,0.84375 0,1.34375 0.140625,2.78125 0.15625,2.921875 0.015625,0.0625 0.03125,0.09375 0.125,0.09375 0.109375,0 0.109375,-0.03125 0.125,-0.125 0,-0.015625 0.046875,-0.625 0.078125,-1.046875 0.03125,-0.609375 0.0625,-1.21875 0.0625,-1.84375 0,-0.359375 0,-0.40625 -0.09375,-0.859375 -0.015625,-0.0625 -0.078125,-0.34375 -0.09375,-0.515625 z m 0,0"
               id="id-76b80ffd-d6fd-4b90-98c3-527f41ea7229" />
          </symbol>
          <symbol
             overflow="visible"
             id="id-330deb5f-3f6a-4a6b-a746-e14a135bd32f">
            <path
               style="stroke:none;stroke-width:0"
               d=""
               id="id-752fe8e8-72eb-4f94-8cab-f3fcc7e4bb13" />
          </symbol>
          <symbol
             overflow="visible"
             id="id-e51612ef-bfe6-4b74-945e-b04b3a538fc5">
            <path
               style="stroke:none;stroke-width:0"
               d="m 3.21875,-1.578125 h 2.140625 c 0.09375,0 0.25,0 0.25,-0.15625 0,-0.1875 -0.15625,-0.1875 -0.25,-0.1875 H 3.21875 V -4.0625 c 0,-0.078125 0,-0.25 -0.15625,-0.25 -0.171875,0 -0.171875,0.15625 -0.171875,0.25 v 2.140625 H 0.75 c -0.09375,0 -0.265625,0 -0.265625,0.171875 0,0.171875 0.15625,0.171875 0.265625,0.171875 H 2.890625 V 0.5625 c 0,0.09375 0,0.265625 0.15625,0.265625 0.171875,0 0.171875,-0.171875 0.171875,-0.265625 z m 0,0"
               id="id-ebdf9ad1-afcb-4492-8474-506a47eeb4d7" />
          </symbol>
        </g>
      </defs>
      <g
         id="id-ecd6796b-8631-4b19-8662-1f241a35eaa4"
         transform="translate(-149.181,-125.071)"
         style="fill:#ff0000">
        <g
           style="fill:#ff0000;fill-opacity:1"
           id="id-4cfd69f8-7b29-4912-b445-3c8280e571d9">
          <g
             transform="translate(148.359,132.136)"
             id="g879"
             style="fill:#ff0000">
            <path
               style="fill:#ff0000;stroke:none;stroke-width:0"
               d="M 2.5,-6.921875 1.15625,-5.5625 1.328125,-5.390625 2.5,-6.40625 3.640625,-5.390625 3.8125,-5.5625 Z m 0,0"
               id="id-d9fc8991-8dca-4b36-8300-6a502492f777" />
          </g>
        </g>
        <g
           style="fill:#ff0000;fill-opacity:1"
           id="id-96ee1d4f-5a4c-488d-a061-21702dd75a1e">
          <g
             transform="translate(148.712,134.765)"
             id="g883"
             style="fill:#ff0000">
            <path
               style="fill:#ff0000;stroke:none;stroke-width:0"
               d="m 2.375,-6.8125 c 0,0 0,-0.109375 -0.125,-0.109375 -0.21875,0 -0.953125,0.078125 -1.21875,0.109375 -0.078125,0 -0.1875,0.015625 -0.1875,0.1875 0,0.125 0.09375,0.125 0.25,0.125 0.46875,0 0.484375,0.0625 0.484375,0.171875 0,0.0625 -0.078125,0.40625 -0.125,0.609375 l -0.828125,3.25 c -0.109375,0.5 -0.15625,0.671875 -0.15625,1.015625 0,0.9375 0.53125,1.5625 1.265625,1.5625 1.171875,0 2.40625,-1.484375 2.40625,-2.921875 0,-0.90625 -0.53125,-1.59375 -1.328125,-1.59375 -0.453125,0 -0.875,0.296875 -1.171875,0.59375 z M 1.453125,-3.046875 C 1.5,-3.265625 1.5,-3.28125 1.59375,-3.390625 2.078125,-4.03125 2.53125,-4.1875 2.796875,-4.1875 c 0.359375,0 0.625,0.296875 0.625,0.9375 0,0.59375 -0.328125,1.734375 -0.515625,2.109375 -0.328125,0.671875 -0.78125,1.03125 -1.171875,1.03125 -0.34375,0 -0.671875,-0.265625 -0.671875,-1 0,-0.203125 0,-0.390625 0.15625,-1.015625 z m 0,0"
               id="id-81b482d4-a212-4e11-b8c6-ec8afb2dcea8" />
          </g>
        </g>
        <g
           style="fill:#ff0000;fill-opacity:1"
           id="id-fd7ddbba-29d8-459c-ab63-579a7fae1fa6">
          <g
             transform="translate(152.988,129.977)"
             id="g887"
             style="fill:#ff0000">
            <path
               style="fill:#ff0000;stroke:none;stroke-width:0"
               d="m 1.90625,-2.90625 c 0.109375,0 0.171875,0.015625 0.390625,0.0625 0.21875,0.0625 0.390625,0.109375 0.515625,0.109375 0.28125,0 0.296875,-0.203125 0.296875,-0.265625 0,-0.0625 -0.015625,-0.28125 -0.296875,-0.28125 -0.125,0 -0.296875,0.046875 -0.515625,0.109375 -0.21875,0.0625 -0.28125,0.0625 -0.390625,0.078125 0.015625,-0.25 0.0625,-0.53125 0.09375,-0.75 0.03125,-0.140625 0.09375,-0.5 0.09375,-0.734375 0,-0.21875 -0.09375,-0.328125 -0.265625,-0.328125 -0.15625,0 -0.28125,0.078125 -0.28125,0.328125 0,0.21875 0.0625,0.578125 0.109375,0.8125 0.015625,0.078125 0.078125,0.40625 0.078125,0.671875 C 1.640625,-3.109375 1.5625,-3.109375 1.359375,-3.171875 1.140625,-3.234375 0.96875,-3.28125 0.84375,-3.28125 c -0.28125,0 -0.3125,0.21875 -0.3125,0.28125 0,0.046875 0.03125,0.265625 0.3125,0.265625 0.125,0 0.296875,-0.046875 0.515625,-0.109375 0.203125,-0.046875 0.28125,-0.0625 0.375,-0.0625 0,0.171875 -0.0625,0.390625 -0.09375,0.53125 -0.09375,0.4375 -0.09375,0.484375 -0.09375,0.84375 0,1.34375 0.140625,2.78125 0.15625,2.921875 0.015625,0.0625 0.03125,0.09375 0.125,0.09375 0.109375,0 0.109375,-0.03125 0.125,-0.125 0,-0.015625 0.046875,-0.625 0.078125,-1.046875 0.03125,-0.609375 0.0625,-1.21875 0.0625,-1.84375 0,-0.359375 0,-0.40625 -0.09375,-0.859375 -0.015625,-0.0625 -0.078125,-0.34375 -0.09375,-0.515625 z m 0,0"
               id="id-a5a8e198-19ff-4072-a804-3c393185bd15" />
          </g>
        </g>
        <g
           style="fill:#ff0000;fill-opacity:1"
           id="id-d6ee111c-d791-4e8a-a2c8-8e23096c3f07">
          <g
             transform="translate(152.988,137.244)"
             id="g891"
             style="fill:#ff0000">
            <path
               style="fill:#ff0000;stroke:none;stroke-width:0"
               d="m 3.21875,-1.578125 h 2.140625 c 0.09375,0 0.25,0 0.25,-0.15625 0,-0.1875 -0.15625,-0.1875 -0.25,-0.1875 H 3.21875 V -4.0625 c 0,-0.078125 0,-0.25 -0.15625,-0.25 -0.171875,0 -0.171875,0.15625 -0.171875,0.25 v 2.140625 H 0.75 c -0.09375,0 -0.265625,0 -0.265625,0.171875 0,0.171875 0.15625,0.171875 0.265625,0.171875 H 2.890625 V 0.5625 c 0,0.09375 0,0.265625 0.15625,0.265625 0.171875,0 0.171875,-0.171875 0.171875,-0.265625 z m 0,0"
               id="id-51127a4d-ef85-46dd-bc77-29cf8cb9266a" />
          </g>
        </g>
      </g>
    </g>
    <g
       transform="matrix(0.98079567,0,0,0.98079567,88.475033,212.68513)"
       ns1:version="1.8.0"
       ns1:texconverter="pdflatex"
       ns1:pdfconverter="inkscape"
       ns1:text="$\\hat{b}^\\dagger_-$"
       ns1:preamble="C:\Users\marco\AppData\Roaming\inkscape\extensions\textext\default_packages.tex"
       ns1:scale="1.0"
       ns1:alignment="middle center"
       ns1:stroke-to-path="0"
       ns1:inkscapeversion="1.1.1"
       ns1:jacobian_sqrt="0.352778"
       id="g1276"
       style="fill:#ff0000">
      <defs
         id="id-a5021c83-f2b0-4720-9ac9-1eba01bd8220">
        <g
           id="id-24399843-3812-42b1-acc8-1bd2423c7baa">
          <symbol
             overflow="visible"
             id="id-d3117152-837f-417d-ac56-fba662ecce2c">
            <path
               style="stroke:none;stroke-width:0"
               d=""
               id="id-848292d6-bf79-4077-9148-1169f5c960e4" />
          </symbol>
          <symbol
             overflow="visible"
             id="id-fc21cc8a-c8c2-4708-8bb5-d01e7ed0324b">
            <path
               style="stroke:none;stroke-width:0"
               d="M 2.5,-6.921875 1.15625,-5.5625 1.328125,-5.390625 2.5,-6.40625 3.640625,-5.390625 3.8125,-5.5625 Z m 0,0"
               id="id-f054520d-b2d7-4a4f-9a10-9eca5b8f9ecb" />
          </symbol>
          <symbol
             overflow="visible"
             id="id-e11579b4-f6c9-492b-854d-d7d53455a943">
            <path
               style="stroke:none;stroke-width:0"
               d=""
               id="id-a02d27bc-e9f3-4af7-805b-6e96117b14d2" />
          </symbol>
          <symbol
             overflow="visible"
             id="id-a07d0179-2939-47a6-b495-b83e2bd8efec">
            <path
               style="stroke:none;stroke-width:0"
               d="m 2.375,-6.8125 c 0,0 0,-0.109375 -0.125,-0.109375 -0.21875,0 -0.953125,0.078125 -1.21875,0.109375 -0.078125,0 -0.1875,0.015625 -0.1875,0.1875 0,0.125 0.09375,0.125 0.25,0.125 0.46875,0 0.484375,0.0625 0.484375,0.171875 0,0.0625 -0.078125,0.40625 -0.125,0.609375 l -0.828125,3.25 c -0.109375,0.5 -0.15625,0.671875 -0.15625,1.015625 0,0.9375 0.53125,1.5625 1.265625,1.5625 1.171875,0 2.40625,-1.484375 2.40625,-2.921875 0,-0.90625 -0.53125,-1.59375 -1.328125,-1.59375 -0.453125,0 -0.875,0.296875 -1.171875,0.59375 z M 1.453125,-3.046875 C 1.5,-3.265625 1.5,-3.28125 1.59375,-3.390625 2.078125,-4.03125 2.53125,-4.1875 2.796875,-4.1875 c 0.359375,0 0.625,0.296875 0.625,0.9375 0,0.59375 -0.328125,1.734375 -0.515625,2.109375 -0.328125,0.671875 -0.78125,1.03125 -1.171875,1.03125 -0.34375,0 -0.671875,-0.265625 -0.671875,-1 0,-0.203125 0,-0.390625 0.15625,-1.015625 z m 0,0"
               id="id-017d7925-0214-4a1b-9bd8-60d666d88804" />
          </symbol>
          <symbol
             overflow="visible"
             id="id-3f2cfda3-d77f-4db4-b3c2-a15f996670a8">
            <path
               style="stroke:none;stroke-width:0"
               d=""
               id="id-dabb3d23-d104-41cc-b68a-a20b9ecbc987" />
          </symbol>
          <symbol
             overflow="visible"
             id="id-6c313350-add1-44f8-8678-e5dac0196036">
            <path
               style="stroke:none;stroke-width:0"
               d="m 1.90625,-2.90625 c 0.109375,0 0.171875,0.015625 0.390625,0.0625 0.21875,0.0625 0.390625,0.109375 0.515625,0.109375 0.28125,0 0.296875,-0.203125 0.296875,-0.265625 0,-0.0625 -0.015625,-0.28125 -0.296875,-0.28125 -0.125,0 -0.296875,0.046875 -0.515625,0.109375 -0.21875,0.0625 -0.28125,0.0625 -0.390625,0.078125 0.015625,-0.25 0.0625,-0.53125 0.09375,-0.75 0.03125,-0.140625 0.09375,-0.5 0.09375,-0.734375 0,-0.21875 -0.09375,-0.328125 -0.265625,-0.328125 -0.15625,0 -0.28125,0.078125 -0.28125,0.328125 0,0.21875 0.0625,0.578125 0.109375,0.8125 0.015625,0.078125 0.078125,0.40625 0.078125,0.671875 C 1.640625,-3.109375 1.5625,-3.109375 1.359375,-3.171875 1.140625,-3.234375 0.96875,-3.28125 0.84375,-3.28125 c -0.28125,0 -0.3125,0.21875 -0.3125,0.28125 0,0.046875 0.03125,0.265625 0.3125,0.265625 0.125,0 0.296875,-0.046875 0.515625,-0.109375 0.203125,-0.046875 0.28125,-0.0625 0.375,-0.0625 0,0.171875 -0.0625,0.390625 -0.09375,0.53125 -0.09375,0.4375 -0.09375,0.484375 -0.09375,0.84375 0,1.34375 0.140625,2.78125 0.15625,2.921875 0.015625,0.0625 0.03125,0.09375 0.125,0.09375 0.109375,0 0.109375,-0.03125 0.125,-0.125 0,-0.015625 0.046875,-0.625 0.078125,-1.046875 0.03125,-0.609375 0.0625,-1.21875 0.0625,-1.84375 0,-0.359375 0,-0.40625 -0.09375,-0.859375 -0.015625,-0.0625 -0.078125,-0.34375 -0.09375,-0.515625 z m 0,0"
               id="id-44efd7cc-0763-4a87-9980-3a22259daa0d" />
          </symbol>
          <symbol
             overflow="visible"
             id="id-109d93c4-31c6-48c3-a14a-2daece89959b">
            <path
               style="stroke:none;stroke-width:0"
               d="m 5.1875,-1.578125 c 0.109375,0 0.28125,0 0.28125,-0.15625 0,-0.1875 -0.171875,-0.1875 -0.28125,-0.1875 H 1.03125 c -0.109375,0 -0.28125,0 -0.28125,0.171875 0,0.171875 0.15625,0.171875 0.28125,0.171875 z m 0,0"
               id="id-b252e47f-4cda-48c3-ac0d-b9cd3604b549" />
          </symbol>
        </g>
      </defs>
      <g
         id="id-94634f1c-fabc-4b0b-8459-896ebe729a21"
         transform="translate(-149.181,-125.071)"
         style="fill:#ff0000">
        <g
           style="fill:#ff0000;fill-opacity:1"
           id="id-3756278e-3734-412e-a53f-0a27b7fbc5d6">
          <g
             transform="translate(148.359,132.136)"
             id="g1260"
             style="fill:#ff0000">
            <path
               style="fill:#ff0000;stroke:none;stroke-width:0"
               d="M 2.5,-6.921875 1.15625,-5.5625 1.328125,-5.390625 2.5,-6.40625 3.640625,-5.390625 3.8125,-5.5625 Z m 0,0"
               id="id-28525c71-13ac-431f-bcbf-a510c90f79d0" />
          </g>
        </g>
        <g
           style="fill:#ff0000;fill-opacity:1"
           id="id-27c2e100-475a-42b4-9222-aa5b82def066">
          <g
             transform="translate(148.712,134.765)"
             id="g1264"
             style="fill:#ff0000">
            <path
               style="fill:#ff0000;stroke:none;stroke-width:0"
               d="m 2.375,-6.8125 c 0,0 0,-0.109375 -0.125,-0.109375 -0.21875,0 -0.953125,0.078125 -1.21875,0.109375 -0.078125,0 -0.1875,0.015625 -0.1875,0.1875 0,0.125 0.09375,0.125 0.25,0.125 0.46875,0 0.484375,0.0625 0.484375,0.171875 0,0.0625 -0.078125,0.40625 -0.125,0.609375 l -0.828125,3.25 c -0.109375,0.5 -0.15625,0.671875 -0.15625,1.015625 0,0.9375 0.53125,1.5625 1.265625,1.5625 1.171875,0 2.40625,-1.484375 2.40625,-2.921875 0,-0.90625 -0.53125,-1.59375 -1.328125,-1.59375 -0.453125,0 -0.875,0.296875 -1.171875,0.59375 z M 1.453125,-3.046875 C 1.5,-3.265625 1.5,-3.28125 1.59375,-3.390625 2.078125,-4.03125 2.53125,-4.1875 2.796875,-4.1875 c 0.359375,0 0.625,0.296875 0.625,0.9375 0,0.59375 -0.328125,1.734375 -0.515625,2.109375 -0.328125,0.671875 -0.78125,1.03125 -1.171875,1.03125 -0.34375,0 -0.671875,-0.265625 -0.671875,-1 0,-0.203125 0,-0.390625 0.15625,-1.015625 z m 0,0"
               id="id-b8f1aa23-e523-4d76-97f0-3bbad07a9c10" />
          </g>
        </g>
        <g
           style="fill:#ff0000;fill-opacity:1"
           id="id-a9eda212-bc8d-48e4-b68c-008c3688d6e2">
          <g
             transform="translate(152.988,129.977)"
             id="g1268"
             style="fill:#ff0000">
            <path
               style="fill:#ff0000;stroke:none;stroke-width:0"
               d="m 1.90625,-2.90625 c 0.109375,0 0.171875,0.015625 0.390625,0.0625 0.21875,0.0625 0.390625,0.109375 0.515625,0.109375 0.28125,0 0.296875,-0.203125 0.296875,-0.265625 0,-0.0625 -0.015625,-0.28125 -0.296875,-0.28125 -0.125,0 -0.296875,0.046875 -0.515625,0.109375 -0.21875,0.0625 -0.28125,0.0625 -0.390625,0.078125 0.015625,-0.25 0.0625,-0.53125 0.09375,-0.75 0.03125,-0.140625 0.09375,-0.5 0.09375,-0.734375 0,-0.21875 -0.09375,-0.328125 -0.265625,-0.328125 -0.15625,0 -0.28125,0.078125 -0.28125,0.328125 0,0.21875 0.0625,0.578125 0.109375,0.8125 0.015625,0.078125 0.078125,0.40625 0.078125,0.671875 C 1.640625,-3.109375 1.5625,-3.109375 1.359375,-3.171875 1.140625,-3.234375 0.96875,-3.28125 0.84375,-3.28125 c -0.28125,0 -0.3125,0.21875 -0.3125,0.28125 0,0.046875 0.03125,0.265625 0.3125,0.265625 0.125,0 0.296875,-0.046875 0.515625,-0.109375 0.203125,-0.046875 0.28125,-0.0625 0.375,-0.0625 0,0.171875 -0.0625,0.390625 -0.09375,0.53125 -0.09375,0.4375 -0.09375,0.484375 -0.09375,0.84375 0,1.34375 0.140625,2.78125 0.15625,2.921875 0.015625,0.0625 0.03125,0.09375 0.125,0.09375 0.109375,0 0.109375,-0.03125 0.125,-0.125 0,-0.015625 0.046875,-0.625 0.078125,-1.046875 0.03125,-0.609375 0.0625,-1.21875 0.0625,-1.84375 0,-0.359375 0,-0.40625 -0.09375,-0.859375 -0.015625,-0.0625 -0.078125,-0.34375 -0.09375,-0.515625 z m 0,0"
               id="id-27d2b595-50a6-45c9-a681-09ec0c630c32" />
          </g>
        </g>
        <g
           style="fill:#ff0000;fill-opacity:1"
           id="id-2c495891-0998-4ba0-9feb-989fdc273e84">
          <g
             transform="translate(152.988,137.244)"
             id="g1272"
             style="fill:#ff0000">
            <path
               style="fill:#ff0000;stroke:none;stroke-width:0"
               d="m 5.1875,-1.578125 c 0.109375,0 0.28125,0 0.28125,-0.15625 0,-0.1875 -0.171875,-0.1875 -0.28125,-0.1875 H 1.03125 c -0.109375,0 -0.28125,0 -0.28125,0.171875 0,0.171875 0.15625,0.171875 0.28125,0.171875 z m 0,0"
               id="id-efa48105-0759-49d4-80b5-4bfb46ce3645" />
          </g>
        </g>
      </g>
    </g>
    <g
       transform="matrix(1.1079159,0,0,1.1079159,74.070291,162.63096)"
       ns1:version="1.8.0"
       ns1:texconverter="pdflatex"
       ns1:pdfconverter="inkscape"
       ns1:text="$\\hat{b}^\\dagger_x$"
       ns1:preamble="C:\Users\marco\AppData\Roaming\inkscape\extensions\textext\default_packages.tex"
       ns1:scale="1.0"
       ns1:alignment="middle center"
       ns1:stroke-to-path="0"
       ns1:inkscapeversion="1.1.1"
       ns1:jacobian_sqrt="0.352778"
       id="g1717"
       style="fill:#ff0000">
      <defs
         id="id-08bbbc57-8acf-405b-a1ad-c2e9163875fe">
        <g
           id="id-df436e4f-90f7-4690-8d7d-af1bf301609f">
          <symbol
             overflow="visible"
             id="id-b79327b9-68fe-4e7e-97f3-0772d904617c">
            <path
               style="stroke:none;stroke-width:0"
               d=""
               id="id-5f49ed21-9deb-4a32-863e-4a292ef299af" />
          </symbol>
          <symbol
             overflow="visible"
             id="id-1f6ad7a3-5777-451b-b968-9aa6449ed9f8">
            <path
               style="stroke:none;stroke-width:0"
               d="M 2.5,-6.921875 1.15625,-5.5625 1.328125,-5.390625 2.5,-6.40625 3.640625,-5.390625 3.8125,-5.5625 Z m 0,0"
               id="id-ca67b472-e438-492d-b7fe-32a0a7af175b" />
          </symbol>
          <symbol
             overflow="visible"
             id="id-35c710de-58a4-42d2-b71d-7bd510f110d1">
            <path
               style="stroke:none;stroke-width:0"
               d=""
               id="id-b6f22633-a436-4bd7-bee6-20b3ac34885c" />
          </symbol>
          <symbol
             overflow="visible"
             id="id-07cfbea8-6343-4bf7-9946-565cc28afe9c">
            <path
               style="stroke:none;stroke-width:0"
               d="m 2.375,-6.8125 c 0,0 0,-0.109375 -0.125,-0.109375 -0.21875,0 -0.953125,0.078125 -1.21875,0.109375 -0.078125,0 -0.1875,0.015625 -0.1875,0.1875 0,0.125 0.09375,0.125 0.25,0.125 0.46875,0 0.484375,0.0625 0.484375,0.171875 0,0.0625 -0.078125,0.40625 -0.125,0.609375 l -0.828125,3.25 c -0.109375,0.5 -0.15625,0.671875 -0.15625,1.015625 0,0.9375 0.53125,1.5625 1.265625,1.5625 1.171875,0 2.40625,-1.484375 2.40625,-2.921875 0,-0.90625 -0.53125,-1.59375 -1.328125,-1.59375 -0.453125,0 -0.875,0.296875 -1.171875,0.59375 z M 1.453125,-3.046875 C 1.5,-3.265625 1.5,-3.28125 1.59375,-3.390625 2.078125,-4.03125 2.53125,-4.1875 2.796875,-4.1875 c 0.359375,0 0.625,0.296875 0.625,0.9375 0,0.59375 -0.328125,1.734375 -0.515625,2.109375 -0.328125,0.671875 -0.78125,1.03125 -1.171875,1.03125 -0.34375,0 -0.671875,-0.265625 -0.671875,-1 0,-0.203125 0,-0.390625 0.15625,-1.015625 z m 0,0"
               id="id-674062a9-2572-4c51-aced-bb936bdaefeb" />
          </symbol>
          <symbol
             overflow="visible"
             id="id-6a468425-99ff-4b8c-9dea-696fa1ee9ddd">
            <path
               style="stroke:none;stroke-width:0"
               d=""
               id="id-07046c1e-25ad-4bde-8f07-906d0b28d0ed" />
          </symbol>
          <symbol
             overflow="visible"
             id="id-9f8774f4-fd2c-4bbf-8f6a-1d3a6f1fa0a9">
            <path
               style="stroke:none;stroke-width:0"
               d="m 1.90625,-2.90625 c 0.109375,0 0.171875,0.015625 0.390625,0.0625 0.21875,0.0625 0.390625,0.109375 0.515625,0.109375 0.28125,0 0.296875,-0.203125 0.296875,-0.265625 0,-0.0625 -0.015625,-0.28125 -0.296875,-0.28125 -0.125,0 -0.296875,0.046875 -0.515625,0.109375 -0.21875,0.0625 -0.28125,0.0625 -0.390625,0.078125 0.015625,-0.25 0.0625,-0.53125 0.09375,-0.75 0.03125,-0.140625 0.09375,-0.5 0.09375,-0.734375 0,-0.21875 -0.09375,-0.328125 -0.265625,-0.328125 -0.15625,0 -0.28125,0.078125 -0.28125,0.328125 0,0.21875 0.0625,0.578125 0.109375,0.8125 0.015625,0.078125 0.078125,0.40625 0.078125,0.671875 C 1.640625,-3.109375 1.5625,-3.109375 1.359375,-3.171875 1.140625,-3.234375 0.96875,-3.28125 0.84375,-3.28125 c -0.28125,0 -0.3125,0.21875 -0.3125,0.28125 0,0.046875 0.03125,0.265625 0.3125,0.265625 0.125,0 0.296875,-0.046875 0.515625,-0.109375 0.203125,-0.046875 0.28125,-0.0625 0.375,-0.0625 0,0.171875 -0.0625,0.390625 -0.09375,0.53125 -0.09375,0.4375 -0.09375,0.484375 -0.09375,0.84375 0,1.34375 0.140625,2.78125 0.15625,2.921875 0.015625,0.0625 0.03125,0.09375 0.125,0.09375 0.109375,0 0.109375,-0.03125 0.125,-0.125 0,-0.015625 0.046875,-0.625 0.078125,-1.046875 0.03125,-0.609375 0.0625,-1.21875 0.0625,-1.84375 0,-0.359375 0,-0.40625 -0.09375,-0.859375 -0.015625,-0.0625 -0.078125,-0.34375 -0.09375,-0.515625 z m 0,0"
               id="id-9932acd0-a40f-4bdc-a789-17514816abaf" />
          </symbol>
          <symbol
             overflow="visible"
             id="id-a5e3692d-a2e6-4023-8627-2c81eb1a0b95">
            <path
               style="stroke:none;stroke-width:0"
               d=""
               id="id-6589ca0c-7164-47bf-8747-86f4c29dde4e" />
          </symbol>
          <symbol
             overflow="visible"
             id="id-61e07d94-99cb-4c70-847d-efee6b69deb8">
            <path
               style="stroke:none;stroke-width:0"
               d="M 1.734375,-0.734375 C 1.671875,-0.5 1.4375,-0.125 1.078125,-0.125 c -0.015625,0 -0.234375,0 -0.375,-0.09375 0.28125,-0.09375 0.3125,-0.34375 0.3125,-0.390625 0,-0.15625 -0.125,-0.25 -0.28125,-0.25 -0.203125,0 -0.40625,0.15625 -0.40625,0.421875 0,0.34375 0.390625,0.5 0.734375,0.5 0.328125,0 0.609375,-0.1875 0.78125,-0.484375 C 2.015625,-0.0625 2.390625,0.0625 2.671875,0.0625 c 0.8125,0 1.234375,-0.859375 1.234375,-1.0625 0,-0.09375 -0.09375,-0.09375 -0.109375,-0.09375 -0.109375,0 -0.109375,0.046875 -0.140625,0.125 -0.140625,0.484375 -0.5625,0.84375 -0.953125,0.84375 -0.28125,0 -0.421875,-0.1875 -0.421875,-0.453125 0,-0.1875 0.171875,-0.8125 0.359375,-1.59375 C 2.78125,-2.703125 3.09375,-2.875 3.328125,-2.875 c 0.015625,0 0.21875,0 0.375,0.09375 -0.21875,0.0625 -0.3125,0.265625 -0.3125,0.390625 0,0.140625 0.125,0.25 0.28125,0.25 0.15625,0 0.390625,-0.125 0.390625,-0.421875 0,-0.390625 -0.453125,-0.515625 -0.71875,-0.515625 -0.359375,0 -0.640625,0.234375 -0.78125,0.5 -0.125,-0.28125 -0.453125,-0.5 -0.84375,-0.5 C 0.9375,-3.078125 0.5,-2.21875 0.5,-2 c 0,0.078125 0.09375,0.078125 0.109375,0.078125 0.09375,0 0.09375,-0.015625 0.140625,-0.109375 C 0.921875,-2.578125 1.359375,-2.875 1.703125,-2.875 1.9375,-2.875 2.125,-2.75 2.125,-2.421875 2.125,-2.28125 2.03125,-1.9375 1.96875,-1.6875 Z m 0,0"
               id="id-7bfbae39-cf12-4370-8be6-039049750ef0" />
          </symbol>
        </g>
      </defs>
      <g
         id="id-f39f2be3-54d6-4d8d-9651-3c7920470883"
         transform="translate(-149.181,-125.214)"
         style="fill:#ff0000">
        <g
           style="fill:#ff0000;fill-opacity:1"
           id="id-563d558e-aaaf-464c-8c0e-427ce9756a37">
          <g
             transform="translate(148.359,132.136)"
             id="g1701"
             style="fill:#ff0000">
            <path
               style="fill:#ff0000;stroke:none;stroke-width:0"
               d="M 2.5,-6.921875 1.15625,-5.5625 1.328125,-5.390625 2.5,-6.40625 3.640625,-5.390625 3.8125,-5.5625 Z m 0,0"
               id="id-d70f627c-39a1-48d0-991c-146ee8a782fd" />
          </g>
        </g>
        <g
           style="fill:#ff0000;fill-opacity:1"
           id="id-4f8b3bf3-e8c6-490b-ac07-636a88cd7b58">
          <g
             transform="translate(148.712,134.765)"
             id="g1705"
             style="fill:#ff0000">
            <path
               style="fill:#ff0000;stroke:none;stroke-width:0"
               d="m 2.375,-6.8125 c 0,0 0,-0.109375 -0.125,-0.109375 -0.21875,0 -0.953125,0.078125 -1.21875,0.109375 -0.078125,0 -0.1875,0.015625 -0.1875,0.1875 0,0.125 0.09375,0.125 0.25,0.125 0.46875,0 0.484375,0.0625 0.484375,0.171875 0,0.0625 -0.078125,0.40625 -0.125,0.609375 l -0.828125,3.25 c -0.109375,0.5 -0.15625,0.671875 -0.15625,1.015625 0,0.9375 0.53125,1.5625 1.265625,1.5625 1.171875,0 2.40625,-1.484375 2.40625,-2.921875 0,-0.90625 -0.53125,-1.59375 -1.328125,-1.59375 -0.453125,0 -0.875,0.296875 -1.171875,0.59375 z M 1.453125,-3.046875 C 1.5,-3.265625 1.5,-3.28125 1.59375,-3.390625 2.078125,-4.03125 2.53125,-4.1875 2.796875,-4.1875 c 0.359375,0 0.625,0.296875 0.625,0.9375 0,0.59375 -0.328125,1.734375 -0.515625,2.109375 -0.328125,0.671875 -0.78125,1.03125 -1.171875,1.03125 -0.34375,0 -0.671875,-0.265625 -0.671875,-1 0,-0.203125 0,-0.390625 0.15625,-1.015625 z m 0,0"
               id="id-2cd82568-7bb7-4814-bc0c-82b2dba65153" />
          </g>
        </g>
        <g
           style="fill:#ff0000;fill-opacity:1"
           id="id-388f7402-6c1a-415d-a928-bb6308c52178">
          <g
             transform="translate(152.988,131.149)"
             id="g1709"
             style="fill:#ff0000">
            <path
               style="fill:#ff0000;stroke:none;stroke-width:0"
               d="m 1.90625,-2.90625 c 0.109375,0 0.171875,0.015625 0.390625,0.0625 0.21875,0.0625 0.390625,0.109375 0.515625,0.109375 0.28125,0 0.296875,-0.203125 0.296875,-0.265625 0,-0.0625 -0.015625,-0.28125 -0.296875,-0.28125 -0.125,0 -0.296875,0.046875 -0.515625,0.109375 -0.21875,0.0625 -0.28125,0.0625 -0.390625,0.078125 0.015625,-0.25 0.0625,-0.53125 0.09375,-0.75 0.03125,-0.140625 0.09375,-0.5 0.09375,-0.734375 0,-0.21875 -0.09375,-0.328125 -0.265625,-0.328125 -0.15625,0 -0.28125,0.078125 -0.28125,0.328125 0,0.21875 0.0625,0.578125 0.109375,0.8125 0.015625,0.078125 0.078125,0.40625 0.078125,0.671875 C 1.640625,-3.109375 1.5625,-3.109375 1.359375,-3.171875 1.140625,-3.234375 0.96875,-3.28125 0.84375,-3.28125 c -0.28125,0 -0.3125,0.21875 -0.3125,0.28125 0,0.046875 0.03125,0.265625 0.3125,0.265625 0.125,0 0.296875,-0.046875 0.515625,-0.109375 0.203125,-0.046875 0.28125,-0.0625 0.375,-0.0625 0,0.171875 -0.0625,0.390625 -0.09375,0.53125 -0.09375,0.4375 -0.09375,0.484375 -0.09375,0.84375 0,1.34375 0.140625,2.78125 0.15625,2.921875 0.015625,0.0625 0.03125,0.09375 0.125,0.09375 0.109375,0 0.109375,-0.03125 0.125,-0.125 0,-0.015625 0.046875,-0.625 0.078125,-1.046875 0.03125,-0.609375 0.0625,-1.21875 0.0625,-1.84375 0,-0.359375 0,-0.40625 -0.09375,-0.859375 -0.015625,-0.0625 -0.078125,-0.34375 -0.09375,-0.515625 z m 0,0"
               id="id-d3485309-33da-4bc4-a344-f982cb0d0b5d" />
          </g>
        </g>
        <g
           style="fill:#ff0000;fill-opacity:1"
           id="id-f91f70c9-fa3b-4549-ada0-b93ccfbe940d">
          <g
             transform="translate(152.988,137.228)"
             id="g1713"
             style="fill:#ff0000">
            <path
               style="fill:#ff0000;stroke:none;stroke-width:0"
               d="M 1.734375,-0.734375 C 1.671875,-0.5 1.4375,-0.125 1.078125,-0.125 c -0.015625,0 -0.234375,0 -0.375,-0.09375 0.28125,-0.09375 0.3125,-0.34375 0.3125,-0.390625 0,-0.15625 -0.125,-0.25 -0.28125,-0.25 -0.203125,0 -0.40625,0.15625 -0.40625,0.421875 0,0.34375 0.390625,0.5 0.734375,0.5 0.328125,0 0.609375,-0.1875 0.78125,-0.484375 C 2.015625,-0.0625 2.390625,0.0625 2.671875,0.0625 c 0.8125,0 1.234375,-0.859375 1.234375,-1.0625 0,-0.09375 -0.09375,-0.09375 -0.109375,-0.09375 -0.109375,0 -0.109375,0.046875 -0.140625,0.125 -0.140625,0.484375 -0.5625,0.84375 -0.953125,0.84375 -0.28125,0 -0.421875,-0.1875 -0.421875,-0.453125 0,-0.1875 0.171875,-0.8125 0.359375,-1.59375 C 2.78125,-2.703125 3.09375,-2.875 3.328125,-2.875 c 0.015625,0 0.21875,0 0.375,0.09375 -0.21875,0.0625 -0.3125,0.265625 -0.3125,0.390625 0,0.140625 0.125,0.25 0.28125,0.25 0.15625,0 0.390625,-0.125 0.390625,-0.421875 0,-0.390625 -0.453125,-0.515625 -0.71875,-0.515625 -0.359375,0 -0.640625,0.234375 -0.78125,0.5 -0.125,-0.28125 -0.453125,-0.5 -0.84375,-0.5 C 0.9375,-3.078125 0.5,-2.21875 0.5,-2 c 0,0.078125 0.09375,0.078125 0.109375,0.078125 0.09375,0 0.09375,-0.015625 0.140625,-0.109375 C 0.921875,-2.578125 1.359375,-2.875 1.703125,-2.875 1.9375,-2.875 2.125,-2.75 2.125,-2.421875 2.125,-2.28125 2.03125,-1.9375 1.96875,-1.6875 Z m 0,0"
               id="id-490997c6-843b-46c7-ae1a-f1daddc6f0c9" />
          </g>
        </g>
      </g>
    </g>
    <g
       transform="matrix(1.0271479,0,0,1.0271479,125.13875,111.91689)"
       ns1:version="1.8.0"
       ns1:texconverter="pdflatex"
       ns1:pdfconverter="inkscape"
       ns1:text="$\\hat{b}^\\dagger_y$"
       ns1:preamble="C:\Users\marco\AppData\Roaming\inkscape\extensions\textext\default_packages.tex"
       ns1:scale="1.0"
       ns1:alignment="middle center"
       ns1:stroke-to-path="0"
       ns1:inkscapeversion="1.1.1"
       ns1:jacobian_sqrt="0.352778"
       id="g2807"
       style="fill:#ff0000">
      <defs
         id="id-d00bcdcd-6c09-44b3-8a55-a022dd0fc9d6">
        <g
           id="id-16c1ef9c-0697-4090-9177-3b06e8125548">
          <symbol
             overflow="visible"
             id="id-73dcc647-69b5-4dbe-ba9e-a1057b98b36e">
            <path
               style="stroke:none;stroke-width:0"
               d=""
               id="id-0586c7c5-a83b-4829-84eb-31e2a45657c4" />
          </symbol>
          <symbol
             overflow="visible"
             id="id-96de5027-2c8d-488a-bdd1-b36e2cd1cb4c">
            <path
               style="stroke:none;stroke-width:0"
               d="M 2.5,-6.921875 1.15625,-5.5625 1.328125,-5.390625 2.5,-6.40625 3.640625,-5.390625 3.8125,-5.5625 Z m 0,0"
               id="id-498aa8df-d954-430f-81e0-91f99dd356df" />
          </symbol>
          <symbol
             overflow="visible"
             id="id-1aab79f2-d24d-4fc6-98ed-bec986052c6d">
            <path
               style="stroke:none;stroke-width:0"
               d=""
               id="id-312e11c3-537a-4a7f-a116-0fdd364b5e74" />
          </symbol>
          <symbol
             overflow="visible"
             id="id-d562fda8-4ab7-48fd-92a0-6454cd2d17c0">
            <path
               style="stroke:none;stroke-width:0"
               d="m 2.375,-6.8125 c 0,0 0,-0.109375 -0.125,-0.109375 -0.21875,0 -0.953125,0.078125 -1.21875,0.109375 -0.078125,0 -0.1875,0.015625 -0.1875,0.1875 0,0.125 0.09375,0.125 0.25,0.125 0.46875,0 0.484375,0.0625 0.484375,0.171875 0,0.0625 -0.078125,0.40625 -0.125,0.609375 l -0.828125,3.25 c -0.109375,0.5 -0.15625,0.671875 -0.15625,1.015625 0,0.9375 0.53125,1.5625 1.265625,1.5625 1.171875,0 2.40625,-1.484375 2.40625,-2.921875 0,-0.90625 -0.53125,-1.59375 -1.328125,-1.59375 -0.453125,0 -0.875,0.296875 -1.171875,0.59375 z M 1.453125,-3.046875 C 1.5,-3.265625 1.5,-3.28125 1.59375,-3.390625 2.078125,-4.03125 2.53125,-4.1875 2.796875,-4.1875 c 0.359375,0 0.625,0.296875 0.625,0.9375 0,0.59375 -0.328125,1.734375 -0.515625,2.109375 -0.328125,0.671875 -0.78125,1.03125 -1.171875,1.03125 -0.34375,0 -0.671875,-0.265625 -0.671875,-1 0,-0.203125 0,-0.390625 0.15625,-1.015625 z m 0,0"
               id="id-7dff0fdb-9c07-4f44-b654-60901d60521e" />
          </symbol>
          <symbol
             overflow="visible"
             id="id-ad496ed1-ed24-4d9b-a670-845551a073f8">
            <path
               style="stroke:none;stroke-width:0"
               d=""
               id="id-b9294e20-a9e4-472d-8e33-4a058ffa0c8e" />
          </symbol>
          <symbol
             overflow="visible"
             id="id-a660f56e-5124-4d59-9e70-a95c31092603">
            <path
               style="stroke:none;stroke-width:0"
               d="m 1.90625,-2.90625 c 0.109375,0 0.171875,0.015625 0.390625,0.0625 0.21875,0.0625 0.390625,0.109375 0.515625,0.109375 0.28125,0 0.296875,-0.203125 0.296875,-0.265625 0,-0.0625 -0.015625,-0.28125 -0.296875,-0.28125 -0.125,0 -0.296875,0.046875 -0.515625,0.109375 -0.21875,0.0625 -0.28125,0.0625 -0.390625,0.078125 0.015625,-0.25 0.0625,-0.53125 0.09375,-0.75 0.03125,-0.140625 0.09375,-0.5 0.09375,-0.734375 0,-0.21875 -0.09375,-0.328125 -0.265625,-0.328125 -0.15625,0 -0.28125,0.078125 -0.28125,0.328125 0,0.21875 0.0625,0.578125 0.109375,0.8125 0.015625,0.078125 0.078125,0.40625 0.078125,0.671875 C 1.640625,-3.109375 1.5625,-3.109375 1.359375,-3.171875 1.140625,-3.234375 0.96875,-3.28125 0.84375,-3.28125 c -0.28125,0 -0.3125,0.21875 -0.3125,0.28125 0,0.046875 0.03125,0.265625 0.3125,0.265625 0.125,0 0.296875,-0.046875 0.515625,-0.109375 0.203125,-0.046875 0.28125,-0.0625 0.375,-0.0625 0,0.171875 -0.0625,0.390625 -0.09375,0.53125 -0.09375,0.4375 -0.09375,0.484375 -0.09375,0.84375 0,1.34375 0.140625,2.78125 0.15625,2.921875 0.015625,0.0625 0.03125,0.09375 0.125,0.09375 0.109375,0 0.109375,-0.03125 0.125,-0.125 0,-0.015625 0.046875,-0.625 0.078125,-1.046875 0.03125,-0.609375 0.0625,-1.21875 0.0625,-1.84375 0,-0.359375 0,-0.40625 -0.09375,-0.859375 -0.015625,-0.0625 -0.078125,-0.34375 -0.09375,-0.515625 z m 0,0"
               id="id-006c12aa-fbb8-421f-a642-cc6a7a6223e8" />
          </symbol>
          <symbol
             overflow="visible"
             id="id-29dfe014-0635-46ad-aa4a-ab1917724c96">
            <path
               style="stroke:none;stroke-width:0"
               d=""
               id="id-1fe9923c-8e0a-41d8-9d55-475d52b2aa15" />
          </symbol>
          <symbol
             overflow="visible"
             id="id-98fe1d2e-229e-42c5-95d5-2e1bc9af135c">
            <path
               style="stroke:none;stroke-width:0"
               d="M 3.875,-2.625 C 3.90625,-2.71875 3.90625,-2.734375 3.90625,-2.78125 3.90625,-2.921875 3.796875,-3 3.671875,-3 3.59375,-3 3.46875,-2.96875 3.390625,-2.84375 3.359375,-2.796875 3.3125,-2.578125 3.28125,-2.4375 L 3.125,-1.859375 c -0.03125,0.171875 -0.25,1.046875 -0.28125,1.125 0,0 -0.3125,0.609375 -0.84375,0.609375 -0.484375,0 -0.484375,-0.453125 -0.484375,-0.578125 0,-0.375 0.15625,-0.8125 0.375,-1.359375 C 1.96875,-2.28125 2,-2.359375 2,-2.484375 2,-2.8125 1.71875,-3.078125 1.34375,-3.078125 0.640625,-3.078125 0.328125,-2.125 0.328125,-2 c 0,0.078125 0.09375,0.078125 0.125,0.078125 0.09375,0 0.09375,-0.03125 0.125,-0.109375 C 0.75,-2.609375 1.046875,-2.875 1.328125,-2.875 1.4375,-2.875 1.5,-2.796875 1.5,-2.640625 c 0,0.171875 -0.0625,0.3125 -0.09375,0.40625 C 1.0625,-1.375 1,-1.125 1,-0.8125 1,-0.703125 1,-0.375 1.265625,-0.140625 1.484375,0.03125 1.78125,0.0625 1.96875,0.0625 2.25,0.0625 2.5,-0.03125 2.71875,-0.25 2.640625,0.140625 2.5625,0.4375 2.265625,0.78125 2.078125,1 1.796875,1.21875 1.421875,1.21875 c -0.046875,0 -0.375,0 -0.515625,-0.21875 0.375,-0.046875 0.375,-0.375 0.375,-0.390625 0,-0.21875 -0.203125,-0.265625 -0.265625,-0.265625 -0.171875,0 -0.40625,0.140625 -0.40625,0.46875 0,0.34375 0.328125,0.609375 0.828125,0.609375 C 2.140625,1.421875 3,0.875 3.21875,0 Z m 0,0"
               id="id-f5362c18-2e83-4f6f-8400-b02db9b9a86a" />
          </symbol>
        </g>
      </defs>
      <g
         id="id-9524fad4-744f-4501-9f68-242183f214dc"
         transform="translate(-149.181,-125.214)"
         style="fill:#ff0000">
        <g
           style="fill:#ff0000;fill-opacity:1"
           id="id-fbdaaa39-c444-42e2-a434-781cf5cb8574">
          <g
             transform="translate(148.359,132.136)"
             id="g2791"
             style="fill:#ff0000">
            <path
               style="fill:#ff0000;stroke:none;stroke-width:0"
               d="M 2.5,-6.921875 1.15625,-5.5625 1.328125,-5.390625 2.5,-6.40625 3.640625,-5.390625 3.8125,-5.5625 Z m 0,0"
               id="id-1561f31a-d41b-45d9-a878-ac13be59560c" />
          </g>
        </g>
        <g
           style="fill:#ff0000;fill-opacity:1"
           id="id-2fbcd913-07b6-48d6-b51f-5cc8d3fa7123">
          <g
             transform="translate(148.712,134.765)"
             id="g2795"
             style="fill:#ff0000">
            <path
               style="fill:#ff0000;stroke:none;stroke-width:0"
               d="m 2.375,-6.8125 c 0,0 0,-0.109375 -0.125,-0.109375 -0.21875,0 -0.953125,0.078125 -1.21875,0.109375 -0.078125,0 -0.1875,0.015625 -0.1875,0.1875 0,0.125 0.09375,0.125 0.25,0.125 0.46875,0 0.484375,0.0625 0.484375,0.171875 0,0.0625 -0.078125,0.40625 -0.125,0.609375 l -0.828125,3.25 c -0.109375,0.5 -0.15625,0.671875 -0.15625,1.015625 0,0.9375 0.53125,1.5625 1.265625,1.5625 1.171875,0 2.40625,-1.484375 2.40625,-2.921875 0,-0.90625 -0.53125,-1.59375 -1.328125,-1.59375 -0.453125,0 -0.875,0.296875 -1.171875,0.59375 z M 1.453125,-3.046875 C 1.5,-3.265625 1.5,-3.28125 1.59375,-3.390625 2.078125,-4.03125 2.53125,-4.1875 2.796875,-4.1875 c 0.359375,0 0.625,0.296875 0.625,0.9375 0,0.59375 -0.328125,1.734375 -0.515625,2.109375 -0.328125,0.671875 -0.78125,1.03125 -1.171875,1.03125 -0.34375,0 -0.671875,-0.265625 -0.671875,-1 0,-0.203125 0,-0.390625 0.15625,-1.015625 z m 0,0"
               id="id-af64efe2-7798-46e2-8a4f-569eda650f18" />
          </g>
        </g>
        <g
           style="fill:#ff0000;fill-opacity:1"
           id="id-02465a34-6686-4202-913d-9320bd0fd8c3">
          <g
             transform="translate(152.988,131.149)"
             id="g2799"
             style="fill:#ff0000">
            <path
               style="fill:#ff0000;stroke:none;stroke-width:0"
               d="m 1.90625,-2.90625 c 0.109375,0 0.171875,0.015625 0.390625,0.0625 0.21875,0.0625 0.390625,0.109375 0.515625,0.109375 0.28125,0 0.296875,-0.203125 0.296875,-0.265625 0,-0.0625 -0.015625,-0.28125 -0.296875,-0.28125 -0.125,0 -0.296875,0.046875 -0.515625,0.109375 -0.21875,0.0625 -0.28125,0.0625 -0.390625,0.078125 0.015625,-0.25 0.0625,-0.53125 0.09375,-0.75 0.03125,-0.140625 0.09375,-0.5 0.09375,-0.734375 0,-0.21875 -0.09375,-0.328125 -0.265625,-0.328125 -0.15625,0 -0.28125,0.078125 -0.28125,0.328125 0,0.21875 0.0625,0.578125 0.109375,0.8125 0.015625,0.078125 0.078125,0.40625 0.078125,0.671875 C 1.640625,-3.109375 1.5625,-3.109375 1.359375,-3.171875 1.140625,-3.234375 0.96875,-3.28125 0.84375,-3.28125 c -0.28125,0 -0.3125,0.21875 -0.3125,0.28125 0,0.046875 0.03125,0.265625 0.3125,0.265625 0.125,0 0.296875,-0.046875 0.515625,-0.109375 0.203125,-0.046875 0.28125,-0.0625 0.375,-0.0625 0,0.171875 -0.0625,0.390625 -0.09375,0.53125 -0.09375,0.4375 -0.09375,0.484375 -0.09375,0.84375 0,1.34375 0.140625,2.78125 0.15625,2.921875 0.015625,0.0625 0.03125,0.09375 0.125,0.09375 0.109375,0 0.109375,-0.03125 0.125,-0.125 0,-0.015625 0.046875,-0.625 0.078125,-1.046875 0.03125,-0.609375 0.0625,-1.21875 0.0625,-1.84375 0,-0.359375 0,-0.40625 -0.09375,-0.859375 -0.015625,-0.0625 -0.078125,-0.34375 -0.09375,-0.515625 z m 0,0"
               id="id-3acbd5a6-f1bc-4e5f-9402-bcc8d4779936" />
          </g>
        </g>
        <g
           style="fill:#ff0000;fill-opacity:1"
           id="id-225de1a7-fb79-4601-b664-c899d8d3973c">
          <g
             transform="translate(152.988,137.228)"
             id="g2803"
             style="fill:#ff0000">
            <path
               style="fill:#ff0000;stroke:none;stroke-width:0"
               d="M 3.875,-2.625 C 3.90625,-2.71875 3.90625,-2.734375 3.90625,-2.78125 3.90625,-2.921875 3.796875,-3 3.671875,-3 3.59375,-3 3.46875,-2.96875 3.390625,-2.84375 3.359375,-2.796875 3.3125,-2.578125 3.28125,-2.4375 L 3.125,-1.859375 c -0.03125,0.171875 -0.25,1.046875 -0.28125,1.125 0,0 -0.3125,0.609375 -0.84375,0.609375 -0.484375,0 -0.484375,-0.453125 -0.484375,-0.578125 0,-0.375 0.15625,-0.8125 0.375,-1.359375 C 1.96875,-2.28125 2,-2.359375 2,-2.484375 2,-2.8125 1.71875,-3.078125 1.34375,-3.078125 0.640625,-3.078125 0.328125,-2.125 0.328125,-2 c 0,0.078125 0.09375,0.078125 0.125,0.078125 0.09375,0 0.09375,-0.03125 0.125,-0.109375 C 0.75,-2.609375 1.046875,-2.875 1.328125,-2.875 1.4375,-2.875 1.5,-2.796875 1.5,-2.640625 c 0,0.171875 -0.0625,0.3125 -0.09375,0.40625 C 1.0625,-1.375 1,-1.125 1,-0.8125 1,-0.703125 1,-0.375 1.265625,-0.140625 1.484375,0.03125 1.78125,0.0625 1.96875,0.0625 2.25,0.0625 2.5,-0.03125 2.71875,-0.25 2.640625,0.140625 2.5625,0.4375 2.265625,0.78125 2.078125,1 1.796875,1.21875 1.421875,1.21875 c -0.046875,0 -0.375,0 -0.515625,-0.21875 0.375,-0.046875 0.375,-0.375 0.375,-0.390625 0,-0.21875 -0.203125,-0.265625 -0.265625,-0.265625 -0.171875,0 -0.40625,0.140625 -0.40625,0.46875 0,0.34375 0.328125,0.609375 0.828125,0.609375 C 2.140625,1.421875 3,0.875 3.21875,0 Z m 0,0"
               id="id-21070009-b386-4609-a59c-bad5b1eaf39b" />
          </g>
        </g>
      </g>
    </g>
  </g>
</svg>
