<?xml version="1.0" encoding="UTF-8" standalone="no"?>
<!-- Created with Inkscape (http://www.inkscape.org/) -->

<svg
   width="210mm"
   height="297mm"
   viewBox="0 0 210 297"
   version="1.1"
   id="svg5"
   inkscape:version="1.1.1 (3bf5ae0d25, 2021-09-20)"
   sodipodi:docname="feixe_paraxial.svg"
   inkscape:export-filename="D:\Users\marco\Desktop\Projeto Feixes Estruturados\Imagens\feixe_paraxial.png"
   inkscape:export-xdpi="96"
   inkscape:export-ydpi="96"
   xmlns:inkscape="http://www.inkscape.org/namespaces/inkscape"
   xmlns:sodipodi="http://sodipodi.sourceforge.net/DTD/sodipodi-0.dtd"
   xmlns="http://www.w3.org/2000/svg"
   xmlns:svg="http://www.w3.org/2000/svg"
   xmlns:ns2="http://www.iki.fi/pav/software/textext/">
  <sodipodi:namedview
     id="namedview7"
     pagecolor="#ffffff"
     bordercolor="#666666"
     borderopacity="1.0"
     inkscape:pageshadow="2"
     inkscape:pageopacity="0.0"
     inkscape:pagecheckerboard="0"
     inkscape:document-units="mm"
     showgrid="false"
     inkscape:zoom="1.9362123"
     inkscape:cx="318.92164"
     inkscape:cy="249.71435"
     inkscape:window-width="1920"
     inkscape:window-height="1051"
     inkscape:window-x="-9"
     inkscape:window-y="-9"
     inkscape:window-maximized="1"
     inkscape:current-layer="g10897"
     showguides="true"
     inkscape:guide-bbox="true" />
  <defs
     id="defs2">
    <marker
       style="overflow:visible;"
       id="Arrow1Lend"
       refX="0.0"
       refY="0.0"
       orient="auto"
       inkscape:stockid="Arrow1Lend"
       inkscape:isstock="true">
      <path
         transform="scale(0.8) rotate(180) translate(12.5,0)"
         style="fill-rule:evenodd;fill:context-stroke;stroke:context-stroke;stroke-width:1.0pt;"
         d="M 0.0,0.0 L 5.0,-5.0 L -12.5,0.0 L 5.0,5.0 L 0.0,0.0 z "
         id="path3553" />
    </marker>
    <marker
       style="overflow:visible"
       id="Arrow1Lstart"
       refX="0.0"
       refY="0.0"
       orient="auto"
       inkscape:stockid="Arrow1Lstart"
       inkscape:isstock="true">
      <path
         transform="scale(0.8) translate(12.5,0)"
         style="fill-rule:evenodd;fill:context-stroke;stroke:context-stroke;stroke-width:1.0pt"
         d="M 0.0,0.0 L 5.0,-5.0 L -12.5,0.0 L 5.0,5.0 L 0.0,0.0 z "
         id="path3550" />
    </marker>
  </defs>
  <g
     inkscape:label="Camada 1"
     inkscape:groupmode="layer"
     id="layer1">
    <path
       style="fill:none;stroke:#ff0000;stroke-width:1;stroke-linecap:butt;stroke-linejoin:miter;stroke-miterlimit:4;stroke-dasharray:none;stroke-opacity:1"
       d="m 19.940124,51.678825 c 26.452512,4.016005 53.789099,5.546679 75.001942,5.628096 29.897724,0.114751 51.817164,-2.617669 75.224934,-5.659378"
       id="path1222"
       sodipodi:nodetypes="csc" />
    <path
       style="fill:none;stroke:#ff0000;stroke-width:1;stroke-linecap:butt;stroke-linejoin:miter;stroke-miterlimit:4;stroke-dasharray:none;stroke-opacity:1"
       d="M 170.14332,78.911891 C 143.69081,74.895888 116.35421,73.365217 95.141373,73.283794 65.243649,73.16905 43.324217,75.901466 19.916444,78.943176"
       id="path1222-0"
       sodipodi:nodetypes="csc" />
    <path
       style="fill:none;stroke:#000000;stroke-width:0.300001;stroke-linecap:butt;stroke-linejoin:miter;stroke-miterlimit:4;stroke-dasharray:none;stroke-opacity:1;marker-end:url(#Arrow1Lend)"
       d="M 10.037097,65.27472 H 190.19936"
       id="path3491" />
    <path
       style="fill:#0000ff;stroke:#0000ff;stroke-width:0.4;stroke-linecap:butt;stroke-linejoin:miter;stroke-miterlimit:4;stroke-dasharray:none;stroke-dashoffset:0;stroke-opacity:1"
       d="m 95.010404,58.045433 v 6.81084 0"
       id="path3826" />
    <path
       style="fill:none;stroke:#0000ff;stroke-width:0.4;stroke-linecap:butt;stroke-linejoin:miter;stroke-miterlimit:4;stroke-dasharray:none;stroke-dashoffset:0;stroke-opacity:1"
       d="m 95.02685,82.845159 h 75.25302"
       id="path4368" />
    <path
       style="fill:none;stroke:#0000ff;stroke-width:0.4;stroke-linecap:butt;stroke-linejoin:miter;stroke-miterlimit:4;stroke-dasharray:none;stroke-opacity:1"
       d="m 95.02685,81.209171 v 1.635986"
       id="path4923" />
    <path
       style="fill:none;stroke:#0000ff;stroke-width:0.4;stroke-linecap:butt;stroke-linejoin:miter;stroke-miterlimit:4;stroke-dasharray:none;stroke-opacity:1"
       d="m 95.02685,82.845159 v 1.635986"
       id="path4923-7" />
    <path
       style="fill:none;stroke:#0000ff;stroke-width:0.4;stroke-linecap:butt;stroke-linejoin:miter;stroke-miterlimit:4;stroke-dasharray:none;stroke-opacity:1"
       d="m 93.369859,64.856273 h 1.640545"
       id="path4923-72" />
    <path
       style="fill:none;stroke:#0000ff;stroke-width:0.4;stroke-linecap:butt;stroke-linejoin:miter;stroke-miterlimit:4;stroke-dasharray:none;stroke-opacity:1"
       d="m 95.010404,64.856273 h 1.640544"
       id="path4923-7-5" />
    <path
       style="fill:none;stroke:#0000ff;stroke-width:0.4;stroke-linecap:butt;stroke-linejoin:miter;stroke-miterlimit:4;stroke-dasharray:none;stroke-opacity:1"
       d="m 93.369859,58.045433 h 1.640545"
       id="path4923-72-9" />
    <path
       style="fill:none;stroke:#0000ff;stroke-width:0.4;stroke-linecap:butt;stroke-linejoin:miter;stroke-miterlimit:4;stroke-dasharray:none;stroke-opacity:1"
       d="m 95.010404,58.045433 h 1.640544"
       id="path4923-7-5-7" />
    <path
       style="fill:none;stroke:#0000ff;stroke-width:0.4;stroke-linecap:butt;stroke-linejoin:miter;stroke-miterlimit:4;stroke-dasharray:none;stroke-opacity:1"
       d="m 170.27987,81.209173 v 1.635986"
       id="path4923-5" />
    <path
       style="fill:none;stroke:#0000ff;stroke-width:0.4;stroke-linecap:butt;stroke-linejoin:miter;stroke-miterlimit:4;stroke-dasharray:none;stroke-opacity:1"
       d="m 170.27987,82.84516 v 1.635987"
       id="path4923-7-4" />
    <ellipse
       style="fill:none;stroke:#ff0000;stroke-width:0.999995;stroke-miterlimit:4;stroke-dasharray:none;stroke-dashoffset:0"
       id="path6086-4"
       cx="169.99448"
       cy="65.246902"
       rx="6.3203878"
       ry="13.564063" />
    <path
       id="path6086-2"
       style="fill:none;stroke:#ff0000;stroke-width:0.999995;stroke-miterlimit:4;stroke-dasharray:none;stroke-dashoffset:0"
       d="m 19.940124,51.678825 c -3.490104,0.002 -6.318988,6.07398 -6.318996,13.56403 -1.23e-4,7.49025 2.828799,13.56289 6.318996,13.56454"
       sodipodi:nodetypes="ccc" />
    <path
       id="path10338"
       style="fill:none;stroke:#ff0000;stroke-width:0.999995;stroke-miterlimit:4;stroke-dasharray:2.99998, 2.99998;stroke-dashoffset:0"
       d="m 19.940124,78.807395 c 3.490785,1.8e-4 6.320645,-6.073 6.320525,-13.56454 -10e-6,-7.49134 -2.82983,-13.56421 -6.320525,-13.56403"
       sodipodi:nodetypes="ccc" />
    <g
       transform="matrix(0.80437384,0,0,0.80437384,184.61913,68.856741)"
       ns2:version="1.8.0"
       ns2:texconverter="pdflatex"
       ns2:pdfconverter="inkscape"
       ns2:text="$\\hat{\\mathbf{z}}$"
       ns2:preamble="C:\Users\marco\AppData\Roaming\inkscape\extensions\textext\default_packages.tex"
       ns2:scale="1.0"
       ns2:alignment="middle center"
       ns2:stroke-to-path="0"
       ns2:inkscapeversion="1.1.1"
       ns2:jacobian_sqrt="0.352778"
       id="g10756"
       style="stroke-width:0.438575">
      <defs
         id="id-f61776fe-c196-41e4-a547-a12aa10ba7d7">
        <g
           id="id-aa18f252-d614-431d-acee-ec7e24ea1036">
          <symbol
             overflow="visible"
             id="id-1f7d5080-51f7-4794-84a3-d176e318f454">
            <path
               style="stroke:none;stroke-width:0"
               d=""
               id="id-9578db14-5c64-4d98-acf3-ad22393ee7d7" />
          </symbol>
          <symbol
             overflow="visible"
             id="id-a9adeb2d-8050-4836-b37b-a762d9183449">
            <path
               style="stroke:none;stroke-width:0"
               d="M 2.5,-6.921875 1.15625,-5.5625 1.328125,-5.390625 2.5,-6.40625 3.640625,-5.390625 3.8125,-5.5625 Z m 0,0"
               id="id-f6f126e8-a541-45e7-9bcc-08f126b5441f" />
          </symbol>
          <symbol
             overflow="visible"
             id="id-d01e665b-a7ee-470d-b781-5ed5582bbb55">
            <path
               style="stroke:none;stroke-width:0"
               d=""
               id="id-9c96fa8f-b96f-4fa7-bc3d-40ba03a5b831" />
          </symbol>
          <symbol
             overflow="visible"
             id="id-a9700992-471a-4ec9-baf1-d1ab4257fdee">
            <path
               style="stroke:none;stroke-width:0"
               d="M 4.46875,-4 C 4.5625,-4.109375 4.578125,-4.125 4.578125,-4.21875 4.578125,-4.421875 4.4375,-4.421875 4.25,-4.421875 H 0.59375 L 0.484375,-2.6875 h 0.46875 C 1,-3.703125 1.3125,-4.0625 2.34375,-4.0625 H 3.1875 l -2.78125,3.625 C 0.3125,-0.328125 0.3125,-0.3125 0.3125,-0.21875 0.3125,0 0.453125,0 0.640625,0 h 3.78125 l 0.1875,-2.015625 H 4.140625 C 4.046875,-1 3.890625,-0.40625 2.578125,-0.40625 H 1.71875 Z m 0,0"
               id="id-a0c04968-2789-4a4a-80b7-8e0f120fe145" />
          </symbol>
        </g>
      </defs>
      <g
         id="id-0d550ea9-b663-4447-a0d0-ca9065ab3f0a"
         transform="translate(-149.025,-127.704)"
         style="stroke-width:0.438575">
        <g
           style="fill:#000000;fill-opacity:1;stroke-width:0.438575"
           id="id-924b8080-fea1-489b-875c-4a5911a49a4f">
          <g
             transform="translate(148.768,134.626)"
             id="g10748"
             style="stroke-width:0.438575">
            <path
               style="stroke:none;stroke-width:0"
               d="M 2.5,-6.921875 1.15625,-5.5625 1.328125,-5.390625 2.5,-6.40625 3.640625,-5.390625 3.8125,-5.5625 Z m 0,0"
               id="id-432abcba-9964-4bd8-97eb-dd650ae2bbc8" />
          </g>
        </g>
        <g
           style="fill:#000000;fill-opacity:1;stroke-width:0.438575"
           id="id-c1a1e2fa-f82c-48ba-ab46-d5344ea835ed">
          <g
             transform="translate(148.712,134.765)"
             id="g10752"
             style="stroke-width:0.438575">
            <path
               style="stroke:none;stroke-width:0"
               d="M 4.46875,-4 C 4.5625,-4.109375 4.578125,-4.125 4.578125,-4.21875 4.578125,-4.421875 4.4375,-4.421875 4.25,-4.421875 H 0.59375 L 0.484375,-2.6875 h 0.46875 C 1,-3.703125 1.3125,-4.0625 2.34375,-4.0625 H 3.1875 l -2.78125,3.625 C 0.3125,-0.328125 0.3125,-0.3125 0.3125,-0.21875 0.3125,0 0.453125,0 0.640625,0 h 3.78125 l 0.1875,-2.015625 H 4.140625 C 4.046875,-1 3.890625,-0.40625 2.578125,-0.40625 H 1.71875 Z m 0,0"
               id="id-3bf217da-b8cd-4fa5-8560-d793aa70d9bc" />
          </g>
        </g>
      </g>
    </g>
    <g
       transform="matrix(0.705556,0,0,0.705556,130.32552,88.222659)"
       ns2:version="1.8.0"
       ns2:texconverter="pdflatex"
       ns2:pdfconverter="inkscape"
       ns2:text="$\\sim l$"
       ns2:preamble="C:\Users\marco\AppData\Roaming\inkscape\extensions\textext\default_packages.tex"
       ns2:scale="2.0"
       ns2:alignment="middle center"
       ns2:stroke-to-path="0"
       ns2:inkscapeversion="1.1.1"
       ns2:jacobian_sqrt="0.705556"
       id="g10897"
       style="fill:#0000ff">
      <defs
         id="id-eaf6b2f7-c064-49d5-bb49-aca5aae343f0">
        <g
           id="id-367d3aa1-f020-4189-93c3-91f9d1b912d2">
          <symbol
             overflow="visible"
             id="id-1d7c3f56-4e5c-4ab9-9908-c90271d9f08c">
            <path
               style="stroke:none;stroke-width:0"
               d=""
               id="id-42f64bdb-cb2a-406b-9520-912ad1995270" />
          </symbol>
          <symbol
             overflow="visible"
             id="id-dc5450ef-a85a-4994-ada1-6502e17bf366">
            <path
               style="stroke:none;stroke-width:0"
               d="m 7.203125,-3.328125 c 0,-0.21875 -0.0625,-0.328125 -0.140625,-0.328125 -0.046875,0 -0.140625,0.078125 -0.140625,0.265625 -0.046875,0.953125 -0.703125,1.5 -1.40625,1.5 -0.625,0 -1.09375,-0.421875 -1.59375,-0.84375 -0.5,-0.46875 -1.015625,-0.921875 -1.703125,-0.921875 -1.078125,0 -1.671875,1.09375 -1.671875,2 0,0.328125 0.125,0.328125 0.140625,0.328125 0.109375,0 0.140625,-0.203125 0.140625,-0.234375 0.046875,-1.09375 0.78125,-1.53125 1.390625,-1.53125 0.625,0 1.109375,0.421875 1.59375,0.84375 0.515625,0.46875 1.03125,0.921875 1.703125,0.921875 1.09375,0 1.6875,-1.09375 1.6875,-2 z m 0,0"
               id="id-64752dc6-8795-4841-bc89-f35f36dcfd79" />
          </symbol>
          <symbol
             overflow="visible"
             id="id-8b6dc4e1-b135-45f8-a933-97e7c1cd2cdf">
            <path
               style="stroke:none;stroke-width:0"
               d=""
               id="id-67a1d722-1e2c-4096-a4a7-5e846bb7c642" />
          </symbol>
          <symbol
             overflow="visible"
             id="id-d11f4442-bbda-4ef9-9e6f-fa398566d139">
            <path
               style="stroke:none;stroke-width:0"
               d="m 2.578125,-6.8125 c 0,0 0,-0.109375 -0.140625,-0.109375 -0.21875,0 -0.953125,0.078125 -1.21875,0.109375 -0.078125,0 -0.1875,0.015625 -0.1875,0.203125 0,0.109375 0.109375,0.109375 0.25,0.109375 0.484375,0 0.5,0.09375 0.5,0.171875 L 1.75,-6.125 0.484375,-1.140625 C 0.453125,-1.03125 0.4375,-0.96875 0.4375,-0.8125 c 0,0.578125 0.4375,0.921875 0.90625,0.921875 0.328125,0 0.578125,-0.203125 0.75,-0.5625 0.171875,-0.375 0.296875,-0.953125 0.296875,-0.96875 0,-0.109375 -0.09375,-0.109375 -0.125,-0.109375 -0.09375,0 -0.109375,0.046875 -0.125,0.1875 C 1.96875,-0.703125 1.78125,-0.109375 1.375,-0.109375 c -0.296875,0 -0.296875,-0.3125 -0.296875,-0.453125 0,-0.25 0.015625,-0.296875 0.0625,-0.484375 z m 0,0"
               id="id-51d0c545-8b16-4dd0-9afd-89fb25c65ff6" />
          </symbol>
        </g>
      </defs>
      <g
         id="id-d68aaffd-3b4d-4f53-900d-f3fe96124a38"
         transform="translate(-153.759,-133.093)"
         style="fill:#0000ff">
        <g
           style="fill:#0000ff;fill-opacity:1"
           id="id-c9c85cca-9a84-468e-987c-58d6b044a2c2">
          <g
             transform="translate(148.712,134.765)"
             id="g10889"
             style="fill:#0000ff">
            <path
               style="fill:#0000ff;stroke:none;stroke-width:0"
               d="m 7.203125,-3.328125 c 0,-0.21875 -0.0625,-0.328125 -0.140625,-0.328125 -0.046875,0 -0.140625,0.078125 -0.140625,0.265625 -0.046875,0.953125 -0.703125,1.5 -1.40625,1.5 -0.625,0 -1.09375,-0.421875 -1.59375,-0.84375 -0.5,-0.46875 -1.015625,-0.921875 -1.703125,-0.921875 -1.078125,0 -1.671875,1.09375 -1.671875,2 0,0.328125 0.125,0.328125 0.140625,0.328125 0.109375,0 0.140625,-0.203125 0.140625,-0.234375 0.046875,-1.09375 0.78125,-1.53125 1.390625,-1.53125 0.625,0 1.109375,0.421875 1.59375,0.84375 0.515625,0.46875 1.03125,0.921875 1.703125,0.921875 1.09375,0 1.6875,-1.09375 1.6875,-2 z m 0,0"
               id="id-ee0d36c3-29a3-4650-8b27-aed0859c0e7e" />
          </g>
        </g>
        <g
           style="fill:#0000ff;fill-opacity:1"
           id="id-28192754-ba98-4d09-8139-0dde234ee226">
          <g
             transform="translate(159.228,134.765)"
             id="g10893"
             style="fill:#0000ff">
            <path
               style="fill:#0000ff;stroke:none;stroke-width:0"
               d="m 2.578125,-6.8125 c 0,0 0,-0.109375 -0.140625,-0.109375 -0.21875,0 -0.953125,0.078125 -1.21875,0.109375 -0.078125,0 -0.1875,0.015625 -0.1875,0.203125 0,0.109375 0.109375,0.109375 0.25,0.109375 0.484375,0 0.5,0.09375 0.5,0.171875 L 1.75,-6.125 0.484375,-1.140625 C 0.453125,-1.03125 0.4375,-0.96875 0.4375,-0.8125 c 0,0.578125 0.4375,0.921875 0.90625,0.921875 0.328125,0 0.578125,-0.203125 0.75,-0.5625 0.171875,-0.375 0.296875,-0.953125 0.296875,-0.96875 0,-0.109375 -0.09375,-0.109375 -0.125,-0.109375 -0.09375,0 -0.109375,0.046875 -0.125,0.1875 C 1.96875,-0.703125 1.78125,-0.109375 1.375,-0.109375 c -0.296875,0 -0.296875,-0.3125 -0.296875,-0.453125 0,-0.25 0.015625,-0.296875 0.0625,-0.484375 z m 0,0"
               id="id-60863306-274e-4671-99fb-cbae9ffb8398" />
          </g>
        </g>
      </g>
    </g>
    <g
       transform="matrix(0.705556,0,0,0.705556,97.727552,59.387908)"
       ns2:version="1.8.0"
       ns2:texconverter="pdflatex"
       ns2:pdfconverter="inkscape"
       ns2:text="$\\sim \\gamma_0$"
       ns2:preamble="C:\Users\marco\AppData\Roaming\inkscape\extensions\textext\default_packages.tex"
       ns2:scale="2.0"
       ns2:alignment="middle center"
       ns2:stroke-to-path="0"
       ns2:inkscapeversion="1.1.1"
       ns2:jacobian_sqrt="0.705556"
       id="g11100"
       style="fill:#0000ff">
      <defs
         id="id-07a4e29c-e93a-4a42-8103-64e5883e4fea">
        <g
           id="id-e0737957-fb61-4f79-93b1-52d6dc2196d3">
          <symbol
             overflow="visible"
             id="id-2c45606d-a91b-4341-b6fa-55b639d4ac99">
            <path
               style="stroke:none;stroke-width:0"
               d=""
               id="id-26cb6f90-b4de-427b-8e81-1276d103e93d" />
          </symbol>
          <symbol
             overflow="visible"
             id="id-c17662ba-5313-40fd-a5b8-0d6bb9e9bead">
            <path
               style="stroke:none;stroke-width:0"
               d="m 7.203125,-3.328125 c 0,-0.21875 -0.0625,-0.328125 -0.140625,-0.328125 -0.046875,0 -0.140625,0.078125 -0.140625,0.265625 -0.046875,0.953125 -0.703125,1.5 -1.40625,1.5 -0.625,0 -1.09375,-0.421875 -1.59375,-0.84375 -0.5,-0.46875 -1.015625,-0.921875 -1.703125,-0.921875 -1.078125,0 -1.671875,1.09375 -1.671875,2 0,0.328125 0.125,0.328125 0.140625,0.328125 0.109375,0 0.140625,-0.203125 0.140625,-0.234375 0.046875,-1.09375 0.78125,-1.53125 1.390625,-1.53125 0.625,0 1.109375,0.421875 1.59375,0.84375 0.515625,0.46875 1.03125,0.921875 1.703125,0.921875 1.09375,0 1.6875,-1.09375 1.6875,-2 z m 0,0"
               id="id-b0a80341-b89e-429d-8d50-6ecc4781eb7d" />
          </symbol>
          <symbol
             overflow="visible"
             id="id-d738bdef-356b-4ac7-9d09-bba4f78738e6">
            <path
               style="stroke:none;stroke-width:0"
               d=""
               id="id-9ab23238-802a-4929-bea2-6273800ebb6d" />
          </symbol>
          <symbol
             overflow="visible"
             id="id-068377a0-1b11-442c-bca3-20d885d964a7">
            <path
               style="stroke:none;stroke-width:0"
               d="M 0.40625,-2.53125 C 0.796875,-3.671875 1.890625,-3.6875 2,-3.6875 c 1.5,0 1.609375,1.75 1.609375,2.53125 0,0.609375 -0.046875,0.78125 -0.125,0.984375 -0.21875,0.71875 -0.515625,1.875 -0.515625,2.140625 0,0.109375 0.046875,0.171875 0.125,0.171875 0.140625,0 0.21875,-0.21875 0.328125,-0.59375 C 3.65625,0.703125 3.75,0.140625 3.78125,-0.171875 c 0.03125,-0.125 0.046875,-0.25 0.09375,-0.390625 0.3125,-0.984375 0.953125,-2.46875 1.34375,-3.25 0.078125,-0.125 0.1875,-0.34375 0.1875,-0.390625 0,-0.09375 -0.09375,-0.09375 -0.109375,-0.09375 -0.03125,0 -0.09375,0 -0.125,0.0625 C 4.65625,-3.28125 4.25,-2.28125 3.859375,-1.28125 3.84375,-1.578125 3.84375,-2.34375 3.453125,-3.3125 3.203125,-3.921875 2.8125,-4.40625 2.125,-4.40625 c -1.25,0 -1.953125,1.515625 -1.953125,1.828125 0,0.09375 0.09375,0.09375 0.203125,0.09375 z m 0,0"
               id="id-76d52264-fcbf-45bc-a168-25b2b3e9756a" />
          </symbol>
          <symbol
             overflow="visible"
             id="id-328e1319-03d0-4d58-a496-bce3ef55377f">
            <path
               style="stroke:none;stroke-width:0"
               d=""
               id="id-8b83bd98-74b5-4776-9c07-47a6f85d0e73" />
          </symbol>
          <symbol
             overflow="visible"
             id="id-e3b236e5-99e1-45dc-a702-4562b5e08497">
            <path
               style="stroke:none;stroke-width:0"
               d="M 3.59375,-2.21875 C 3.59375,-2.984375 3.5,-3.546875 3.1875,-4.03125 2.96875,-4.34375 2.53125,-4.625 1.984375,-4.625 c -1.625,0 -1.625,1.90625 -1.625,2.40625 0,0.5 0,2.359375 1.625,2.359375 1.609375,0 1.609375,-1.859375 1.609375,-2.359375 z M 1.984375,-0.0625 c -0.328125,0 -0.75,-0.1875 -0.890625,-0.75 C 1,-1.21875 1,-1.796875 1,-2.3125 1,-2.828125 1,-3.359375 1.09375,-3.734375 1.25,-4.28125 1.6875,-4.4375 1.984375,-4.4375 c 0.375,0 0.734375,0.234375 0.859375,0.640625 0.109375,0.375 0.125,0.875 0.125,1.484375 0,0.515625 0,1.03125 -0.09375,1.46875 -0.140625,0.640625 -0.609375,0.78125 -0.890625,0.78125 z m 0,0"
               id="id-25eba426-0ef2-4041-9462-9fb29a48bbb7" />
          </symbol>
        </g>
      </defs>
      <g
         id="id-9cc532b3-72b1-453b-9750-51b3aab52d06"
         transform="translate(-149.259,-130.359)"
         style="fill:#0000ff">
        <g
           style="fill:#0000ff;fill-opacity:1"
           id="id-56ec67ff-6cdc-4b02-9ad1-e2585059c27a">
          <g
             transform="translate(148.712,134.765)"
             id="g11088"
             style="fill:#0000ff">
            <path
               style="fill:#0000ff;stroke:none;stroke-width:0"
               d="m 7.203125,-3.328125 c 0,-0.21875 -0.0625,-0.328125 -0.140625,-0.328125 -0.046875,0 -0.140625,0.078125 -0.140625,0.265625 -0.046875,0.953125 -0.703125,1.5 -1.40625,1.5 -0.625,0 -1.09375,-0.421875 -1.59375,-0.84375 -0.5,-0.46875 -1.015625,-0.921875 -1.703125,-0.921875 -1.078125,0 -1.671875,1.09375 -1.671875,2 0,0.328125 0.125,0.328125 0.140625,0.328125 0.109375,0 0.140625,-0.203125 0.140625,-0.234375 0.046875,-1.09375 0.78125,-1.53125 1.390625,-1.53125 0.625,0 1.109375,0.421875 1.59375,0.84375 0.515625,0.46875 1.03125,0.921875 1.703125,0.921875 1.09375,0 1.6875,-1.09375 1.6875,-2 z m 0,0"
               id="id-4407bb9a-b98d-4d87-9ec3-96639dd9b8ef" />
          </g>
        </g>
        <g
           style="fill:#0000ff;fill-opacity:1"
           id="id-bfcc969e-c519-4afb-ad40-11b327b3e915">
          <g
             transform="translate(159.228,134.765)"
             id="g11092"
             style="fill:#0000ff">
            <path
               style="fill:#0000ff;stroke:none;stroke-width:0"
               d="M 0.40625,-2.53125 C 0.796875,-3.671875 1.890625,-3.6875 2,-3.6875 c 1.5,0 1.609375,1.75 1.609375,2.53125 0,0.609375 -0.046875,0.78125 -0.125,0.984375 -0.21875,0.71875 -0.515625,1.875 -0.515625,2.140625 0,0.109375 0.046875,0.171875 0.125,0.171875 0.140625,0 0.21875,-0.21875 0.328125,-0.59375 C 3.65625,0.703125 3.75,0.140625 3.78125,-0.171875 c 0.03125,-0.125 0.046875,-0.25 0.09375,-0.390625 0.3125,-0.984375 0.953125,-2.46875 1.34375,-3.25 0.078125,-0.125 0.1875,-0.34375 0.1875,-0.390625 0,-0.09375 -0.09375,-0.09375 -0.109375,-0.09375 -0.03125,0 -0.09375,0 -0.125,0.0625 C 4.65625,-3.28125 4.25,-2.28125 3.859375,-1.28125 3.84375,-1.578125 3.84375,-2.34375 3.453125,-3.3125 3.203125,-3.921875 2.8125,-4.40625 2.125,-4.40625 c -1.25,0 -1.953125,1.515625 -1.953125,1.828125 0,0.09375 0.09375,0.09375 0.203125,0.09375 z m 0,0"
               id="id-2837ddec-b316-4932-a7c1-a300ccd43355" />
          </g>
        </g>
        <g
           style="fill:#0000ff;fill-opacity:1"
           id="id-dac7a2ef-ee93-4643-9c85-c6479e18daf8">
          <g
             transform="translate(164.386,136.259)"
             id="g11096"
             style="fill:#0000ff">
            <path
               style="fill:#0000ff;stroke:none;stroke-width:0"
               d="M 3.59375,-2.21875 C 3.59375,-2.984375 3.5,-3.546875 3.1875,-4.03125 2.96875,-4.34375 2.53125,-4.625 1.984375,-4.625 c -1.625,0 -1.625,1.90625 -1.625,2.40625 0,0.5 0,2.359375 1.625,2.359375 1.609375,0 1.609375,-1.859375 1.609375,-2.359375 z M 1.984375,-0.0625 c -0.328125,0 -0.75,-0.1875 -0.890625,-0.75 C 1,-1.21875 1,-1.796875 1,-2.3125 1,-2.828125 1,-3.359375 1.09375,-3.734375 1.25,-4.28125 1.6875,-4.4375 1.984375,-4.4375 c 0.375,0 0.734375,0.234375 0.859375,0.640625 0.109375,0.375 0.125,0.875 0.125,1.484375 0,0.515625 0,1.03125 -0.09375,1.46875 -0.140625,0.640625 -0.609375,0.78125 -0.890625,0.78125 z m 0,0"
               id="id-a2fe7f70-d284-4ed6-a07d-fc3cc51a62a4" />
          </g>
        </g>
      </g>
    </g>
  </g>
</svg>
