<?xml version="1.0" encoding="UTF-8" standalone="no"?>
<!-- Created with Inkscape (http://www.inkscape.org/) -->

<svg
   width="210mm"
   height="297mm"
   viewBox="0 0 210 297"
   version="1.1"
   id="svg2708"
   sodipodi:docname="trajetória_básica.svg"
   inkscape:version="1.1.2 (1:1.1+202202050942+0a00cf5339)"
   xmlns:inkscape="http://www.inkscape.org/namespaces/inkscape"
   xmlns:sodipodi="http://sodipodi.sourceforge.net/DTD/sodipodi-0.dtd"
   xmlns="http://www.w3.org/2000/svg"
   xmlns:svg="http://www.w3.org/2000/svg"
   xmlns:ns1="http://www.iki.fi/pav/software/textext/">
  <sodipodi:namedview
     id="namedview2710"
     pagecolor="#ffffff"
     bordercolor="#666666"
     borderopacity="1.0"
     inkscape:pageshadow="2"
     inkscape:pageopacity="0.0"
     inkscape:pagecheckerboard="0"
     inkscape:document-units="mm"
     showgrid="false"
     inkscape:zoom="1.4948513"
     inkscape:cx="368.93302"
     inkscape:cy="309.06084"
     inkscape:window-width="2560"
     inkscape:window-height="1011"
     inkscape:window-x="0"
     inkscape:window-y="32"
     inkscape:window-maximized="1"
     inkscape:current-layer="layer1"
     showguides="true"
     inkscape:guide-bbox="true" />
  <defs
     id="defs2705">
    <marker
       style="overflow:visible;"
       id="Arrow1Lend"
       refX="0.0"
       refY="0.0"
       orient="auto"
       inkscape:stockid="Arrow1Lend"
       inkscape:isstock="true">
      <path
         transform="scale(0.8) rotate(180) translate(12.5,0)"
         style="fill-rule:evenodd;fill:context-stroke;stroke:context-stroke;stroke-width:1.0pt;"
         d="M 0.0,0.0 L 5.0,-5.0 L -12.5,0.0 L 5.0,5.0 L 0.0,0.0 z "
         id="path9258" />
    </marker>
    <marker
       style="overflow:visible;"
       id="Arrow2Lend"
       refX="0.0"
       refY="0.0"
       orient="auto"
       inkscape:stockid="Arrow2Lend"
       inkscape:isstock="true">
      <path
         transform="scale(1.1) rotate(180) translate(1,0)"
         d="M 8.7185878,4.0337352 L -2.2072895,0.016013256 L 8.7185884,-4.0017078 C 6.9730900,-1.6296469 6.9831476,1.6157441 8.7185878,4.0337352 z "
         style="stroke:context-stroke;fill-rule:evenodd;fill:context-stroke;stroke-width:0.62500000;stroke-linejoin:round;"
         id="path9276" />
    </marker>
    <linearGradient
       id="linearGradient4479"
       inkscape:swatch="solid">
      <stop
         style="stop-color:#000000;stop-opacity:1;"
         offset="0"
         id="stop4477" />
    </linearGradient>
  </defs>
  <g
     inkscape:label="Layer 1"
     inkscape:groupmode="layer"
     id="layer1">
    <path
       id="path8617"
       style="opacity:1;fill:none;fill-opacity:1;stroke:#000000;stroke-width:2.89134;stroke-miterlimit:4;stroke-dasharray:none;stroke-opacity:1;marker-mid:"
       d="M 23.448921 369.33717 A 374.78956 169.82859 0 0 1 398.23617 200.10469 A 374.78956 169.82859 0 0 1 773.02573 369.93328 L 773.02573 369.93328 A 374.78956 169.82859 0 0 1 773.02344 370.52746 "
       transform="scale(0.26458333)" />
    <path
       style="fill:none;stroke:#000000;stroke-width:0.764514;stroke-linecap:butt;stroke-linejoin:miter;stroke-miterlimit:4;stroke-dasharray:none;stroke-opacity:1;marker-end:url(#Arrow2Lend)"
       d="M 5.7863672,97.720081 203.60392,98.035418"
       id="path8952" />
    <circle
       style="fill:#000000;fill-opacity:1;stroke:#000000;stroke-width:0.432081;stroke-miterlimit:4;stroke-dasharray:none;stroke-opacity:1"
       id="path9124-3"
       cx="105.33387"
       cy="97.877922"
       r="0.86024988" />
    <circle
       style="fill:#000000;fill-opacity:1;stroke:#000000;stroke-width:0.432081;stroke-miterlimit:4;stroke-dasharray:none;stroke-opacity:1"
       id="path9124-3-5"
       cx="105.36697"
       cy="52.713078"
       r="0.86024988" />
    <g
       transform="matrix(0.881945 0 0 0.881945 97.0875 85.2834)"
       ns1:version="1.8.1"
       ns1:texconverter="pdflatex"
       ns1:pdfconverter="inkscape"
       ns1:text="$\\mathbf{x}$"
       ns1:preamble="/home/marcosgil/.config/inkscape/extensions/textext/default_packages.tex"
       ns1:scale="2.5"
       ns1:alignment="middle center"
       ns1:stroke-to-path="0"
       ns1:jacobian_sqrt="0.881945"
       id="g10018">
      <defs
         id="id-d4ac5fa4-dd8b-4f90-a435-31b613c2dfee">
        <g
           id="id-61e6677d-d3bc-4cd3-bb47-56869915a6c7">
          <symbol
             overflow="visible"
             id="id-7e500e94-0542-4300-99af-8c8a4b610a47">
            <path
               style="stroke:none;stroke-width:0"
               d=""
               id="id-5d8028b9-0004-43c1-a3d0-c9fc7c81d76b" />
          </symbol>
          <symbol
             overflow="visible"
             id="id-1e7151c0-d53f-4bdb-9e5e-1a18cea9863f">
            <path
               style="stroke:none;stroke-width:0"
               d="M 3.453125,-2.453125 4.609375,-3.75 C 4.75,-3.890625 4.8125,-3.953125 5.625,-3.953125 v -0.46875 c -0.34375,0.015625 -0.859375,0.03125 -0.90625,0.03125 -0.25,0 -0.75,-0.03125 -1.03125,-0.03125 v 0.46875 c 0.140625,0 0.265625,0.015625 0.375,0.078125 -0.03125,0.0625 -0.03125,0.09375 -0.078125,0.125 L 3.15625,-2.8125 2.171875,-3.953125 h 0.40625 v -0.46875 c -0.265625,0 -0.890625,0.03125 -1.21875,0.03125 -0.3125,0 -0.765625,-0.03125 -1.09375,-0.03125 v 0.46875 h 0.71875 L 2.53125,-2.125 1.21875,-0.65625 c -0.15625,0.1875 -0.515625,0.1875 -1,0.1875 V 0 c 0.34375,-0.015625 0.875,-0.03125 0.921875,-0.03125 0.25,0 0.828125,0.015625 1.015625,0.03125 v -0.46875 c -0.171875,0 -0.359375,-0.046875 -0.359375,-0.109375 0,-0.015625 0,-0.015625 0.0625,-0.09375 l 0.96875,-1.09375 1.09375,1.296875 H 3.53125 V 0 c 0.265625,-0.015625 0.875,-0.03125 1.203125,-0.03125 0.3125,0 0.765625,0.015625 1.09375,0.03125 V -0.46875 H 5.125 Z m 0,0"
               id="id-b6d00407-e023-4a0d-805b-fe561d4f6e3a" />
          </symbol>
        </g>
      </defs>
      <g
         id="id-c606c036-8a58-42fc-bac7-841c9575c015"
         transform="translate(-142.32902,-111.14175)">
        <g
           style="fill:#000000;fill-opacity:1"
           id="id-af85f13b-0fe0-47fe-8394-4b9b1790817c">
          <g
             transform="translate(148.712,134.765)"
             id="g10014">
            <path
               style="stroke:none;stroke-width:0"
               d="M 3.453125,-2.453125 4.609375,-3.75 C 4.75,-3.890625 4.8125,-3.953125 5.625,-3.953125 v -0.46875 c -0.34375,0.015625 -0.859375,0.03125 -0.90625,0.03125 -0.25,0 -0.75,-0.03125 -1.03125,-0.03125 v 0.46875 c 0.140625,0 0.265625,0.015625 0.375,0.078125 -0.03125,0.0625 -0.03125,0.09375 -0.078125,0.125 L 3.15625,-2.8125 2.171875,-3.953125 h 0.40625 v -0.46875 c -0.265625,0 -0.890625,0.03125 -1.21875,0.03125 -0.3125,0 -0.765625,-0.03125 -1.09375,-0.03125 v 0.46875 h 0.71875 L 2.53125,-2.125 1.21875,-0.65625 c -0.15625,0.1875 -0.515625,0.1875 -1,0.1875 V 0 c 0.34375,-0.015625 0.875,-0.03125 0.921875,-0.03125 0.25,0 0.828125,0.015625 1.015625,0.03125 v -0.46875 c -0.171875,0 -0.359375,-0.046875 -0.359375,-0.109375 0,-0.015625 0,-0.015625 0.0625,-0.09375 l 0.96875,-1.09375 1.09375,1.296875 H 3.53125 V 0 c 0.265625,-0.015625 0.875,-0.03125 1.203125,-0.03125 0.3125,0 0.765625,0.015625 1.09375,0.03125 V -0.46875 H 5.125 Z m 0,0"
               id="id-f00b09d6-c82f-4499-8f10-e3a417bea14a" />
          </g>
        </g>
      </g>
      <g
         transform="translate(-106.49478,18.3879)"
         ns1:version="1.8.1"
         ns1:texconverter="pdflatex"
         ns1:pdfconverter="inkscape"
         ns1:text="$\\mathbf{x}_-$"
         ns1:preamble="/home/marcosgil/.config/inkscape/extensions/textext/default_packages.tex"
         ns1:scale="2.5"
         ns1:alignment="middle center"
         ns1:stroke-to-path="0"
         ns1:jacobian_sqrt="1.0"
         id="g10117">
        <defs
           id="id-c50c4649-a3e9-4945-aa4f-c4de8f6df404">
          <g
             id="id-7979a125-324c-40d5-95be-2243f2b46ae8">
            <symbol
               overflow="visible"
               id="id-cfdd9c03-559e-4483-b39d-16cebe0dafac">
              <path
                 style="stroke:none;stroke-width:0"
                 d=""
                 id="id-824679f3-18e1-45b7-8e59-1f7ee356aed6" />
            </symbol>
            <symbol
               overflow="visible"
               id="id-3e817aeb-d4eb-4c37-bbe0-2043b1f58af5">
              <path
                 style="stroke:none;stroke-width:0"
                 d="M 3.453125,-2.453125 4.609375,-3.75 C 4.75,-3.890625 4.8125,-3.953125 5.625,-3.953125 v -0.46875 c -0.34375,0.015625 -0.859375,0.03125 -0.90625,0.03125 -0.25,0 -0.75,-0.03125 -1.03125,-0.03125 v 0.46875 c 0.140625,0 0.265625,0.015625 0.375,0.078125 -0.03125,0.0625 -0.03125,0.09375 -0.078125,0.125 L 3.15625,-2.8125 2.171875,-3.953125 h 0.40625 v -0.46875 c -0.265625,0 -0.890625,0.03125 -1.21875,0.03125 -0.3125,0 -0.765625,-0.03125 -1.09375,-0.03125 v 0.46875 h 0.71875 L 2.53125,-2.125 1.21875,-0.65625 c -0.15625,0.1875 -0.515625,0.1875 -1,0.1875 V 0 c 0.34375,-0.015625 0.875,-0.03125 0.921875,-0.03125 0.25,0 0.828125,0.015625 1.015625,0.03125 v -0.46875 c -0.171875,0 -0.359375,-0.046875 -0.359375,-0.109375 0,-0.015625 0,-0.015625 0.0625,-0.09375 l 0.96875,-1.09375 1.09375,1.296875 H 3.53125 V 0 c 0.265625,-0.015625 0.875,-0.03125 1.203125,-0.03125 0.3125,0 0.765625,0.015625 1.09375,0.03125 V -0.46875 H 5.125 Z m 0,0"
                 id="id-94a2ad6d-72b4-4bea-984b-496fdd1e3579" />
            </symbol>
            <symbol
               overflow="visible"
               id="id-590a45e8-19cc-4eb0-8149-281ed7bae9c7">
              <path
                 style="stroke:none;stroke-width:0"
                 d=""
                 id="id-480227bb-acc1-4d40-b199-1a3b3ea86ff8" />
            </symbol>
            <symbol
               overflow="visible"
               id="id-91ba0384-b977-49ed-b9c9-c05b22deba39">
              <path
                 style="stroke:none;stroke-width:0"
                 d="m 5.1875,-1.578125 c 0.109375,0 0.28125,0 0.28125,-0.15625 0,-0.1875 -0.171875,-0.1875 -0.28125,-0.1875 H 1.03125 c -0.109375,0 -0.28125,0 -0.28125,0.171875 0,0.171875 0.15625,0.171875 0.28125,0.171875 z m 0,0"
                 id="id-4849deda-28a7-4555-a6f8-4a469dc88cdd" />
            </symbol>
          </g>
        </defs>
        <g
           id="id-9f933345-701d-4c35-9931-965fa30429cb"
           transform="translate(-148.931,-130.343)">
          <g
             style="fill:#000000;fill-opacity:1"
             id="id-0e51adb8-2e9b-4cd7-bdec-78c143addc12">
            <g
               transform="translate(148.712,134.765)"
               id="g10109">
              <path
                 style="stroke:none;stroke-width:0"
                 d="M 3.453125,-2.453125 4.609375,-3.75 C 4.75,-3.890625 4.8125,-3.953125 5.625,-3.953125 v -0.46875 c -0.34375,0.015625 -0.859375,0.03125 -0.90625,0.03125 -0.25,0 -0.75,-0.03125 -1.03125,-0.03125 v 0.46875 c 0.140625,0 0.265625,0.015625 0.375,0.078125 -0.03125,0.0625 -0.03125,0.09375 -0.078125,0.125 L 3.15625,-2.8125 2.171875,-3.953125 h 0.40625 v -0.46875 c -0.265625,0 -0.890625,0.03125 -1.21875,0.03125 -0.3125,0 -0.765625,-0.03125 -1.09375,-0.03125 v 0.46875 h 0.71875 L 2.53125,-2.125 1.21875,-0.65625 c -0.15625,0.1875 -0.515625,0.1875 -1,0.1875 V 0 c 0.34375,-0.015625 0.875,-0.03125 0.921875,-0.03125 0.25,0 0.828125,0.015625 1.015625,0.03125 v -0.46875 c -0.171875,0 -0.359375,-0.046875 -0.359375,-0.109375 0,-0.015625 0,-0.015625 0.0625,-0.09375 l 0.96875,-1.09375 1.09375,1.296875 H 3.53125 V 0 c 0.265625,-0.015625 0.875,-0.03125 1.203125,-0.03125 0.3125,0 0.765625,0.015625 1.09375,0.03125 V -0.46875 H 5.125 Z m 0,0"
                 id="id-1b62a629-fd31-4efa-a495-f65aaf620a4a" />
            </g>
          </g>
          <g
             style="fill:#000000;fill-opacity:1"
             id="id-ffb6ef70-16d0-417a-85ad-d8f62e69c4c3">
            <g
               transform="translate(154.759,136.259)"
               id="g10113">
              <path
                 style="stroke:none;stroke-width:0"
                 d="m 5.1875,-1.578125 c 0.109375,0 0.28125,0 0.28125,-0.15625 0,-0.1875 -0.171875,-0.1875 -0.28125,-0.1875 H 1.03125 c -0.109375,0 -0.28125,0 -0.28125,0.171875 0,0.171875 0.15625,0.171875 0.28125,0.171875 z m 0,0"
                 id="id-aba95dd0-3d1e-4336-b024-fd698d5fae0e" />
            </g>
          </g>
        </g>
      </g>
      <g
         transform="translate(114.28665,18.393429)"
         ns1:version="1.8.1"
         ns1:texconverter="pdflatex"
         ns1:pdfconverter="inkscape"
         ns1:text="$\\mathbf{x}_+$"
         ns1:preamble="/home/marcosgil/.config/inkscape/extensions/textext/default_packages.tex"
         ns1:scale="2.5"
         ns1:alignment="middle center"
         ns1:stroke-to-path="0"
         ns1:jacobian_sqrt="1.0"
         id="g10260">
        <defs
           id="id-90b2fc68-38ad-428e-8ab4-5843d4c45a2c">
          <g
             id="id-2a20fad0-3903-4ef5-9446-5b21f29dc33f">
            <symbol
               overflow="visible"
               id="id-35163c78-e746-4d70-a7cb-14896c5fbf01">
              <path
                 style="stroke:none;stroke-width:0"
                 d=""
                 id="id-bc7f3760-e3b9-49ae-8d5e-8b0a750a39e7" />
            </symbol>
            <symbol
               overflow="visible"
               id="id-81c941ab-1eca-483f-b84b-fd5863dad9ff">
              <path
                 style="stroke:none;stroke-width:0"
                 d="M 3.453125,-2.453125 4.609375,-3.75 C 4.75,-3.890625 4.8125,-3.953125 5.625,-3.953125 v -0.46875 c -0.34375,0.015625 -0.859375,0.03125 -0.90625,0.03125 -0.25,0 -0.75,-0.03125 -1.03125,-0.03125 v 0.46875 c 0.140625,0 0.265625,0.015625 0.375,0.078125 -0.03125,0.0625 -0.03125,0.09375 -0.078125,0.125 L 3.15625,-2.8125 2.171875,-3.953125 h 0.40625 v -0.46875 c -0.265625,0 -0.890625,0.03125 -1.21875,0.03125 -0.3125,0 -0.765625,-0.03125 -1.09375,-0.03125 v 0.46875 h 0.71875 L 2.53125,-2.125 1.21875,-0.65625 c -0.15625,0.1875 -0.515625,0.1875 -1,0.1875 V 0 c 0.34375,-0.015625 0.875,-0.03125 0.921875,-0.03125 0.25,0 0.828125,0.015625 1.015625,0.03125 v -0.46875 c -0.171875,0 -0.359375,-0.046875 -0.359375,-0.109375 0,-0.015625 0,-0.015625 0.0625,-0.09375 l 0.96875,-1.09375 1.09375,1.296875 H 3.53125 V 0 c 0.265625,-0.015625 0.875,-0.03125 1.203125,-0.03125 0.3125,0 0.765625,0.015625 1.09375,0.03125 V -0.46875 H 5.125 Z m 0,0"
                 id="id-8faff982-1bec-4878-8530-ddb1464ca54f" />
            </symbol>
            <symbol
               overflow="visible"
               id="id-50dcd352-e87e-453c-9d18-2904a86dcb4e">
              <path
                 style="stroke:none;stroke-width:0"
                 d=""
                 id="id-bb0bb3cf-8999-415e-b717-384763747525" />
            </symbol>
            <symbol
               overflow="visible"
               id="id-8795aeee-29ed-418d-9401-610f4299b58f">
              <path
                 style="stroke:none;stroke-width:0"
                 d="m 3.21875,-1.578125 h 2.140625 c 0.09375,0 0.25,0 0.25,-0.15625 0,-0.1875 -0.15625,-0.1875 -0.25,-0.1875 H 3.21875 V -4.0625 c 0,-0.078125 0,-0.25 -0.15625,-0.25 -0.171875,0 -0.171875,0.15625 -0.171875,0.25 v 2.140625 H 0.75 c -0.09375,0 -0.265625,0 -0.265625,0.171875 0,0.171875 0.15625,0.171875 0.265625,0.171875 H 2.890625 V 0.5625 c 0,0.09375 0,0.265625 0.15625,0.265625 0.171875,0 0.171875,-0.171875 0.171875,-0.265625 z m 0,0"
                 id="id-b90163bd-2b1e-48d7-9851-433174b935a4" />
            </symbol>
          </g>
        </defs>
        <g
           id="id-59bbda90-94d1-49b6-ae0c-ddd41477b738"
           transform="translate(-148.931,-130.343)">
          <g
             style="fill:#000000;fill-opacity:1"
             id="id-21cf2f39-c418-49a7-8722-f48a05c6de78">
            <g
               transform="translate(148.712,134.765)"
               id="g10252">
              <path
                 style="stroke:none;stroke-width:0"
                 d="M 3.453125,-2.453125 4.609375,-3.75 C 4.75,-3.890625 4.8125,-3.953125 5.625,-3.953125 v -0.46875 c -0.34375,0.015625 -0.859375,0.03125 -0.90625,0.03125 -0.25,0 -0.75,-0.03125 -1.03125,-0.03125 v 0.46875 c 0.140625,0 0.265625,0.015625 0.375,0.078125 -0.03125,0.0625 -0.03125,0.09375 -0.078125,0.125 L 3.15625,-2.8125 2.171875,-3.953125 h 0.40625 v -0.46875 c -0.265625,0 -0.890625,0.03125 -1.21875,0.03125 -0.3125,0 -0.765625,-0.03125 -1.09375,-0.03125 v 0.46875 h 0.71875 L 2.53125,-2.125 1.21875,-0.65625 c -0.15625,0.1875 -0.515625,0.1875 -1,0.1875 V 0 c 0.34375,-0.015625 0.875,-0.03125 0.921875,-0.03125 0.25,0 0.828125,0.015625 1.015625,0.03125 v -0.46875 c -0.171875,0 -0.359375,-0.046875 -0.359375,-0.109375 0,-0.015625 0,-0.015625 0.0625,-0.09375 l 0.96875,-1.09375 1.09375,1.296875 H 3.53125 V 0 c 0.265625,-0.015625 0.875,-0.03125 1.203125,-0.03125 0.3125,0 0.765625,0.015625 1.09375,0.03125 V -0.46875 H 5.125 Z m 0,0"
                 id="id-ff26c7bc-3020-4426-90d0-729885fd943e" />
            </g>
          </g>
          <g
             style="fill:#000000;fill-opacity:1"
             id="id-37a1780d-1dea-4a56-a92a-7b755a9c2e77">
            <g
               transform="translate(154.759,136.259)"
               id="g10256">
              <path
                 style="stroke:none;stroke-width:0"
                 d="m 3.21875,-1.578125 h 2.140625 c 0.09375,0 0.25,0 0.25,-0.15625 0,-0.1875 -0.15625,-0.1875 -0.25,-0.1875 H 3.21875 V -4.0625 c 0,-0.078125 0,-0.25 -0.15625,-0.25 -0.171875,0 -0.171875,0.15625 -0.171875,0.25 v 2.140625 H 0.75 c -0.09375,0 -0.265625,0 -0.265625,0.171875 0,0.171875 0.15625,0.171875 0.265625,0.171875 H 2.890625 V 0.5625 c 0,0.09375 0,0.265625 0.15625,0.265625 0.171875,0 0.171875,-0.171875 0.171875,-0.265625 z m 0,0"
                 id="id-1a5df8e1-b3c2-4648-8906-96ab64c66a94" />
            </g>
          </g>
        </g>
      </g>
    </g>
  </g>
</svg>
