<?xml version="1.0" encoding="UTF-8" standalone="no"?>
<!-- Created with Inkscape (http://www.inkscape.org/) -->

<svg
   width="210mm"
   height="297mm"
   viewBox="0 0 210 297"
   version="1.1"
   id="svg5"
   inkscape:version="1.1.2 (1:1.1+202202050942+0a00cf5339)"
   sodipodi:docname="triangles.svg"
   inkscape:export-filename="/home/marcosgil/Pictures/Imagens Inkscape/triangles.png"
   inkscape:export-xdpi="96"
   inkscape:export-ydpi="96"
   xmlns:inkscape="http://www.inkscape.org/namespaces/inkscape"
   xmlns:sodipodi="http://sodipodi.sourceforge.net/DTD/sodipodi-0.dtd"
   xmlns="http://www.w3.org/2000/svg"
   xmlns:svg="http://www.w3.org/2000/svg"
   xmlns:ns1="http://www.iki.fi/pav/software/textext/">
  <sodipodi:namedview
     id="namedview7"
     pagecolor="#ffffff"
     bordercolor="#666666"
     borderopacity="1.0"
     inkscape:pageshadow="2"
     inkscape:pageopacity="0.0"
     inkscape:pagecheckerboard="0"
     inkscape:document-units="mm"
     showgrid="false"
     inkscape:zoom="1.0570195"
     inkscape:cx="618.24782"
     inkscape:cy="471.13606"
     inkscape:window-width="2560"
     inkscape:window-height="1011"
     inkscape:window-x="0"
     inkscape:window-y="32"
     inkscape:window-maximized="1"
     inkscape:current-layer="layer1" />
  <defs
     id="defs2">
    <marker
       style="overflow:visible;"
       id="marker2595"
       refX="0.0"
       refY="0.0"
       orient="auto"
       inkscape:stockid="Arrow2Lend"
       inkscape:isstock="true">
      <path
         transform="scale(1.1) rotate(180) translate(1,0)"
         d="M 8.7185878,4.0337352 L -2.2072895,0.016013256 L 8.7185884,-4.0017078 C 6.9730900,-1.6296469 6.9831476,1.6157441 8.7185878,4.0337352 z "
         style="stroke:context-stroke;fill-rule:evenodd;fill:context-stroke;stroke-width:0.62500000;stroke-linejoin:round;"
         id="path2593" />
    </marker>
    <marker
       style="overflow:visible;"
       id="marker2585"
       refX="0.0"
       refY="0.0"
       orient="auto"
       inkscape:stockid="Arrow1Lend"
       inkscape:isstock="true">
      <path
         transform="scale(0.8) rotate(180) translate(12.5,0)"
         style="fill-rule:evenodd;fill:context-stroke;stroke:context-stroke;stroke-width:1.0pt;"
         d="M 0.0,0.0 L 5.0,-5.0 L -12.5,0.0 L 5.0,5.0 L 0.0,0.0 z "
         id="path2583" />
    </marker>
    <marker
       style="overflow:visible;"
       id="Arrow2Lend"
       refX="0.0"
       refY="0.0"
       orient="auto"
       inkscape:stockid="Arrow2Lend"
       inkscape:isstock="true">
      <path
         transform="scale(1.1) rotate(180) translate(1,0)"
         d="M 8.7185878,4.0337352 L -2.2072895,0.016013256 L 8.7185884,-4.0017078 C 6.9730900,-1.6296469 6.9831476,1.6157441 8.7185878,4.0337352 z "
         style="stroke:context-stroke;fill-rule:evenodd;fill:context-stroke;stroke-width:0.62500000;stroke-linejoin:round;"
         id="path1265" />
    </marker>
    <marker
       style="overflow:visible;"
       id="Arrow1Lend"
       refX="0.0"
       refY="0.0"
       orient="auto"
       inkscape:stockid="Arrow1Lend"
       inkscape:isstock="true">
      <path
         transform="scale(0.8) rotate(180) translate(12.5,0)"
         style="fill-rule:evenodd;fill:context-stroke;stroke:context-stroke;stroke-width:1.0pt;"
         d="M 0.0,0.0 L 5.0,-5.0 L -12.5,0.0 L 5.0,5.0 L 0.0,0.0 z "
         id="path1247" />
    </marker>
    <marker
       style="overflow:visible"
       id="Arrow2Lstart"
       refX="0.0"
       refY="0.0"
       orient="auto"
       inkscape:stockid="Arrow2Lstart"
       inkscape:isstock="true">
      <path
         transform="scale(1.1) translate(1,0)"
         d="M 8.7185878,4.0337352 L -2.2072895,0.016013256 L 8.7185884,-4.0017078 C 6.9730900,-1.6296469 6.9831476,1.6157441 8.7185878,4.0337352 z "
         style="stroke:context-stroke;fill-rule:evenodd;fill:context-stroke;stroke-width:0.62500000;stroke-linejoin:round"
         id="path1262" />
    </marker>
  </defs>
  <g
     inkscape:label="Layer 1"
     inkscape:groupmode="layer"
     id="layer1">
    <path
       style="fill:none;stroke:#000000;stroke-width:0.536977px;stroke-linecap:butt;stroke-linejoin:miter;stroke-opacity:1;marker-end:url(#marker2595)"
       d="M 3.0161298,109.77211 184.83628,83.505158"
       id="path1754" />
    <path
       style="fill:none;stroke:#000000;stroke-width:0.536977px;stroke-linecap:butt;stroke-linejoin:miter;stroke-opacity:1;marker-end:url(#marker2595)"
       d="M 3.0161298,109.77211 103.75833,141.87754"
       id="path1959" />
    <path
       style="fill:none;stroke:#000000;stroke-width:0.536977px;stroke-linecap:butt;stroke-linejoin:miter;stroke-opacity:1;marker-end:url(#marker2595)"
       d="M 184.83628,83.505156 103.75831,141.87754"
       id="path1961" />
    <circle
       style="fill:#000000;stroke-width:0.536977"
       id="path2453"
       cx="93.926193"
       cy="96.638634"
       r="0.80923933" />
    <circle
       style="fill:#000000;stroke-width:0.536977"
       id="path2453-7"
       cx="53.387226"
       cy="125.8248"
       r="0.80923933" />
    <circle
       style="fill:#000000;stroke-width:0.536977"
       id="path2453-5"
       cx="144.2973"
       cy="112.69135"
       r="0.80923933" />
    <g
       transform="matrix(0.71597041,0,0,0.71597041,91.250006,129.54344)"
       ns1:version="1.8.1"
       ns1:texconverter="pdflatex"
       ns1:pdfconverter="inkscape"
       ns1:text="$\\boldsymbol{\\xi}$"
       ns1:preamble="/home/marcosgil/.config/inkscape/extensions/textext/default_packages.tex"
       ns1:scale="1.0"
       ns1:alignment="middle center"
       ns1:stroke-to-path="0"
       ns1:inkscapeversion="1.1.2"
       ns1:jacobian_sqrt="0.352778"
       id="g71">
      <defs
         id="id-1eb5564d-7596-4a43-8daf-2d20ac7af998">
        <g
           id="id-6568ac8c-f4bd-44ac-aef2-dee89d0ce826">
          <symbol
             overflow="visible"
             id="id-5c94f888-5130-4d02-99a6-2f14075472b2">
            <path
               style="stroke:none;stroke-width:0"
               d=""
               id="id-28742889-4ce5-476e-8436-b637d376529e" />
          </symbol>
          <symbol
             overflow="visible"
             id="id-3f8e732a-7e0f-4869-81a1-694d8f2d09e0">
            <path
               style="stroke:none;stroke-width:0"
               d="m 2.328125,-3.328125 c -0.0625,-0.15625 -0.09375,-0.34375 -0.09375,-0.515625 0,-0.515625 0.296875,-1.28125 0.84375,-1.65625 0.21875,0.296875 0.5,0.296875 0.734375,0.296875 0.28125,0 1.078125,0 1.078125,-0.53125 0,-0.421875 -0.53125,-0.421875 -0.953125,-0.421875 -0.09375,0 -0.34375,0 -0.625,0.03125 0,-0.3125 0.0625,-0.53125 0.0625,-0.546875 0.03125,-0.09375 0.03125,-0.09375 0.03125,-0.125 0,-0.203125 -0.203125,-0.21875 -0.21875,-0.21875 -0.328125,0 -0.328125,0.59375 -0.328125,0.78125 0,0.0625 0,0.15625 0.015625,0.21875 C 1.625,-5.640625 1,-4.75 1,-3.984375 c 0,0.46875 0.265625,0.84375 0.53125,1.03125 C 0.484375,-2.25 0.234375,-1.3125 0.234375,-0.9375 c 0,0.8125 0.734375,1.21875 1.328125,1.421875 L 2.703125,0.875 c 0.25,0.078125 0.671875,0.234375 0.75,0.265625 0.078125,0.046875 0.125,0.140625 0.125,0.21875 0,0.03125 -0.015625,0.296875 -0.3125,0.296875 -0.0625,0 -0.546875,-0.015625 -1,-0.25 C 2.203125,1.359375 2.1875,1.359375 2.140625,1.359375 2,1.359375 1.9375,1.46875 1.9375,1.53125 c 0,0.25 0.84375,0.484375 1.34375,0.484375 0.78125,0 1.1875,-0.71875 1.1875,-1.1875 0,-0.421875 -0.296875,-0.671875 -0.484375,-0.75 C 3.84375,0.03125 2.90625,-0.296875 2.65625,-0.375 L 2,-0.59375 c -0.34375,-0.125 -0.921875,-0.328125 -0.921875,-0.796875 0,-0.59375 0.75,-1.296875 0.875,-1.296875 0.015625,0 0.015625,0 0.078125,0.015625 C 2.515625,-2.5 2.828125,-2.5 3.09375,-2.5 c 0.3125,0 1.140625,0 1.140625,-0.546875 0,-0.40625 -0.625,-0.40625 -0.953125,-0.40625 -0.1875,0 -0.5,0 -0.953125,0.125 z M 3.40625,-5.71875 c 0.203125,-0.078125 0.375,-0.078125 0.515625,-0.078125 0.3125,0 0.34375,0 0.5,0.0625 0,0.015625 0,0.015625 -0.03125,0.0625 C 4.296875,-5.5625 3.921875,-5.5625 3.8125,-5.5625 c -0.15625,0 -0.3125,0 -0.40625,-0.15625 z M 2.578125,-3 c 0.265625,-0.09375 0.5,-0.09375 0.65625,-0.09375 0.328125,0 0.359375,0 0.515625,0.0625 -0.015625,0.015625 -0.015625,0.046875 -0.03125,0.0625 C 3.625,-2.859375 3.25,-2.859375 3.125,-2.859375 c -0.15625,0 -0.375,0 -0.546875,-0.140625 z m 0,0"
               id="id-ce1a350e-0b15-41b1-9f67-348b3380c089" />
          </symbol>
        </g>
      </defs>
      <g
         id="id-1c4bc799-832b-4fea-a232-9241889d3606"
         transform="translate(-163.71208,-115.29165)">
        <g
           style="fill:#000000;fill-opacity:1"
           id="id-223b63db-04b6-46d4-b0a0-71570d1ba2b4"
           transform="translate(16.304813,-10.934789)">
          <g
             transform="translate(148.712,134.765)"
             id="g67">
            <path
               style="stroke:none;stroke-width:0"
               d="m 2.328125,-3.328125 c -0.0625,-0.15625 -0.09375,-0.34375 -0.09375,-0.515625 0,-0.515625 0.296875,-1.28125 0.84375,-1.65625 0.21875,0.296875 0.5,0.296875 0.734375,0.296875 0.28125,0 1.078125,0 1.078125,-0.53125 0,-0.421875 -0.53125,-0.421875 -0.953125,-0.421875 -0.09375,0 -0.34375,0 -0.625,0.03125 0,-0.3125 0.0625,-0.53125 0.0625,-0.546875 0.03125,-0.09375 0.03125,-0.09375 0.03125,-0.125 0,-0.203125 -0.203125,-0.21875 -0.21875,-0.21875 -0.328125,0 -0.328125,0.59375 -0.328125,0.78125 0,0.0625 0,0.15625 0.015625,0.21875 C 1.625,-5.640625 1,-4.75 1,-3.984375 c 0,0.46875 0.265625,0.84375 0.53125,1.03125 C 0.484375,-2.25 0.234375,-1.3125 0.234375,-0.9375 c 0,0.8125 0.734375,1.21875 1.328125,1.421875 L 2.703125,0.875 c 0.25,0.078125 0.671875,0.234375 0.75,0.265625 0.078125,0.046875 0.125,0.140625 0.125,0.21875 0,0.03125 -0.015625,0.296875 -0.3125,0.296875 -0.0625,0 -0.546875,-0.015625 -1,-0.25 C 2.203125,1.359375 2.1875,1.359375 2.140625,1.359375 2,1.359375 1.9375,1.46875 1.9375,1.53125 c 0,0.25 0.84375,0.484375 1.34375,0.484375 0.78125,0 1.1875,-0.71875 1.1875,-1.1875 0,-0.421875 -0.296875,-0.671875 -0.484375,-0.75 C 3.84375,0.03125 2.90625,-0.296875 2.65625,-0.375 L 2,-0.59375 c -0.34375,-0.125 -0.921875,-0.328125 -0.921875,-0.796875 0,-0.59375 0.75,-1.296875 0.875,-1.296875 0.015625,0 0.015625,0 0.078125,0.015625 C 2.515625,-2.5 2.828125,-2.5 3.09375,-2.5 c 0.3125,0 1.140625,0 1.140625,-0.546875 0,-0.40625 -0.625,-0.40625 -0.953125,-0.40625 -0.1875,0 -0.5,0 -0.953125,0.125 z M 3.40625,-5.71875 c 0.203125,-0.078125 0.375,-0.078125 0.515625,-0.078125 0.3125,0 0.34375,0 0.5,0.0625 0,0.015625 0,0.015625 -0.03125,0.0625 C 4.296875,-5.5625 3.921875,-5.5625 3.8125,-5.5625 c -0.15625,0 -0.3125,0 -0.40625,-0.15625 z M 2.578125,-3 c 0.265625,-0.09375 0.5,-0.09375 0.65625,-0.09375 0.328125,0 0.359375,0 0.515625,0.0625 -0.015625,0.015625 -0.015625,0.046875 -0.03125,0.0625 C 3.625,-2.859375 3.25,-2.859375 3.125,-2.859375 c -0.15625,0 -0.375,0 -0.546875,-0.140625 z m 0,0"
               id="id-732eb203-1631-4503-9856-036f911bc126" />
          </g>
        </g>
      </g>
    </g>
    <g
       transform="matrix(0.71597041,0,0,0.71597041,169.75074,75.996469)"
       ns1:version="1.8.1"
       ns1:texconverter="pdflatex"
       ns1:pdfconverter="inkscape"
       ns1:text="$\\boldsymbol{\\xi}_1$"
       ns1:preamble="/home/marcosgil/.config/inkscape/extensions/textext/default_packages.tex"
       ns1:scale="1.0"
       ns1:alignment="middle center"
       ns1:stroke-to-path="0"
       ns1:inkscapeversion="1.1.2"
       ns1:jacobian_sqrt="0.352778"
       id="g183">
      <defs
         id="id-8a6208bf-7a63-48e0-9cd9-f8d30a5895af">
        <g
           id="id-ed19150e-748e-4a7d-b5c0-865164a5c06a">
          <symbol
             overflow="visible"
             id="id-d383c99d-bc74-4920-b9e4-3101c8141445">
            <path
               style="stroke:none;stroke-width:0"
               d=""
               id="id-94ea403f-91ac-4881-b7b3-7ea99d263a0f" />
          </symbol>
          <symbol
             overflow="visible"
             id="id-642fe6ee-a8ed-4693-989d-0592da07b5f8">
            <path
               style="stroke:none;stroke-width:0"
               d="m 2.328125,-3.328125 c -0.0625,-0.15625 -0.09375,-0.34375 -0.09375,-0.515625 0,-0.515625 0.296875,-1.28125 0.84375,-1.65625 0.21875,0.296875 0.5,0.296875 0.734375,0.296875 0.28125,0 1.078125,0 1.078125,-0.53125 0,-0.421875 -0.53125,-0.421875 -0.953125,-0.421875 -0.09375,0 -0.34375,0 -0.625,0.03125 0,-0.3125 0.0625,-0.53125 0.0625,-0.546875 0.03125,-0.09375 0.03125,-0.09375 0.03125,-0.125 0,-0.203125 -0.203125,-0.21875 -0.21875,-0.21875 -0.328125,0 -0.328125,0.59375 -0.328125,0.78125 0,0.0625 0,0.15625 0.015625,0.21875 C 1.625,-5.640625 1,-4.75 1,-3.984375 c 0,0.46875 0.265625,0.84375 0.53125,1.03125 C 0.484375,-2.25 0.234375,-1.3125 0.234375,-0.9375 c 0,0.8125 0.734375,1.21875 1.328125,1.421875 L 2.703125,0.875 c 0.25,0.078125 0.671875,0.234375 0.75,0.265625 0.078125,0.046875 0.125,0.140625 0.125,0.21875 0,0.03125 -0.015625,0.296875 -0.3125,0.296875 -0.0625,0 -0.546875,-0.015625 -1,-0.25 C 2.203125,1.359375 2.1875,1.359375 2.140625,1.359375 2,1.359375 1.9375,1.46875 1.9375,1.53125 c 0,0.25 0.84375,0.484375 1.34375,0.484375 0.78125,0 1.1875,-0.71875 1.1875,-1.1875 0,-0.421875 -0.296875,-0.671875 -0.484375,-0.75 C 3.84375,0.03125 2.90625,-0.296875 2.65625,-0.375 L 2,-0.59375 c -0.34375,-0.125 -0.921875,-0.328125 -0.921875,-0.796875 0,-0.59375 0.75,-1.296875 0.875,-1.296875 0.015625,0 0.015625,0 0.078125,0.015625 C 2.515625,-2.5 2.828125,-2.5 3.09375,-2.5 c 0.3125,0 1.140625,0 1.140625,-0.546875 0,-0.40625 -0.625,-0.40625 -0.953125,-0.40625 -0.1875,0 -0.5,0 -0.953125,0.125 z M 3.40625,-5.71875 c 0.203125,-0.078125 0.375,-0.078125 0.515625,-0.078125 0.3125,0 0.34375,0 0.5,0.0625 0,0.015625 0,0.015625 -0.03125,0.0625 C 4.296875,-5.5625 3.921875,-5.5625 3.8125,-5.5625 c -0.15625,0 -0.3125,0 -0.40625,-0.15625 z M 2.578125,-3 c 0.265625,-0.09375 0.5,-0.09375 0.65625,-0.09375 0.328125,0 0.359375,0 0.515625,0.0625 -0.015625,0.015625 -0.015625,0.046875 -0.03125,0.0625 C 3.625,-2.859375 3.25,-2.859375 3.125,-2.859375 c -0.15625,0 -0.375,0 -0.546875,-0.140625 z m 0,0"
               id="id-5389c30d-5b7d-40be-a986-b243126556ed" />
          </symbol>
          <symbol
             overflow="visible"
             id="id-f4992bd9-e0a3-4ae8-a6e3-d049a7f6e68a">
            <path
               style="stroke:none;stroke-width:0"
               d=""
               id="id-d453aeef-5f5c-41dc-a098-3ce4f1a29edc" />
          </symbol>
          <symbol
             overflow="visible"
             id="id-56995982-e094-4155-9862-845c2e66606d">
            <path
               style="stroke:none;stroke-width:0"
               d="m 2.328125,-4.4375 c 0,-0.1875 0,-0.1875 -0.203125,-0.1875 -0.453125,0.4375 -1.078125,0.4375 -1.359375,0.4375 v 0.25 c 0.15625,0 0.625,0 1,-0.1875 v 3.546875 c 0,0.234375 0,0.328125 -0.6875,0.328125 H 0.8125 V 0 c 0.125,0 0.984375,-0.03125 1.234375,-0.03125 0.21875,0 1.09375,0.03125 1.25,0.03125 V -0.25 H 3.03125 c -0.703125,0 -0.703125,-0.09375 -0.703125,-0.328125 z m 0,0"
               id="id-24aea62e-b430-4736-bcf0-1ce308af067e" />
          </symbol>
        </g>
      </defs>
      <g
         id="id-9f168597-2758-40c5-9aa0-c5800b21ca65"
         transform="translate(-148.946,-127.749)">
        <g
           style="fill:#000000;fill-opacity:1"
           id="id-987ecdfd-8a26-4d2b-ab7e-fb971dc27d98">
          <g
             transform="translate(148.712,134.765)"
             id="g175">
            <path
               style="stroke:none;stroke-width:0"
               d="m 2.328125,-3.328125 c -0.0625,-0.15625 -0.09375,-0.34375 -0.09375,-0.515625 0,-0.515625 0.296875,-1.28125 0.84375,-1.65625 0.21875,0.296875 0.5,0.296875 0.734375,0.296875 0.28125,0 1.078125,0 1.078125,-0.53125 0,-0.421875 -0.53125,-0.421875 -0.953125,-0.421875 -0.09375,0 -0.34375,0 -0.625,0.03125 0,-0.3125 0.0625,-0.53125 0.0625,-0.546875 0.03125,-0.09375 0.03125,-0.09375 0.03125,-0.125 0,-0.203125 -0.203125,-0.21875 -0.21875,-0.21875 -0.328125,0 -0.328125,0.59375 -0.328125,0.78125 0,0.0625 0,0.15625 0.015625,0.21875 C 1.625,-5.640625 1,-4.75 1,-3.984375 c 0,0.46875 0.265625,0.84375 0.53125,1.03125 C 0.484375,-2.25 0.234375,-1.3125 0.234375,-0.9375 c 0,0.8125 0.734375,1.21875 1.328125,1.421875 L 2.703125,0.875 c 0.25,0.078125 0.671875,0.234375 0.75,0.265625 0.078125,0.046875 0.125,0.140625 0.125,0.21875 0,0.03125 -0.015625,0.296875 -0.3125,0.296875 -0.0625,0 -0.546875,-0.015625 -1,-0.25 C 2.203125,1.359375 2.1875,1.359375 2.140625,1.359375 2,1.359375 1.9375,1.46875 1.9375,1.53125 c 0,0.25 0.84375,0.484375 1.34375,0.484375 0.78125,0 1.1875,-0.71875 1.1875,-1.1875 0,-0.421875 -0.296875,-0.671875 -0.484375,-0.75 C 3.84375,0.03125 2.90625,-0.296875 2.65625,-0.375 L 2,-0.59375 c -0.34375,-0.125 -0.921875,-0.328125 -0.921875,-0.796875 0,-0.59375 0.75,-1.296875 0.875,-1.296875 0.015625,0 0.015625,0 0.078125,0.015625 C 2.515625,-2.5 2.828125,-2.5 3.09375,-2.5 c 0.3125,0 1.140625,0 1.140625,-0.546875 0,-0.40625 -0.625,-0.40625 -0.953125,-0.40625 -0.1875,0 -0.5,0 -0.953125,0.125 z M 3.40625,-5.71875 c 0.203125,-0.078125 0.375,-0.078125 0.515625,-0.078125 0.3125,0 0.34375,0 0.5,0.0625 0,0.015625 0,0.015625 -0.03125,0.0625 C 4.296875,-5.5625 3.921875,-5.5625 3.8125,-5.5625 c -0.15625,0 -0.3125,0 -0.40625,-0.15625 z M 2.578125,-3 c 0.265625,-0.09375 0.5,-0.09375 0.65625,-0.09375 0.328125,0 0.359375,0 0.515625,0.0625 -0.015625,0.015625 -0.015625,0.046875 -0.03125,0.0625 C 3.625,-2.859375 3.25,-2.859375 3.125,-2.859375 c -0.15625,0 -0.375,0 -0.546875,-0.140625 z m 0,0"
               id="id-6e98a12e-a2fd-4744-9f7b-7491b2afe8e7" />
          </g>
        </g>
        <g
           style="fill:#000000;fill-opacity:1"
           id="id-e1290902-6f10-42fb-8331-a22a956316da">
          <g
             transform="translate(154.078,137.2)"
             id="g179">
            <path
               style="stroke:none;stroke-width:0"
               d="m 2.328125,-4.4375 c 0,-0.1875 0,-0.1875 -0.203125,-0.1875 -0.453125,0.4375 -1.078125,0.4375 -1.359375,0.4375 v 0.25 c 0.15625,0 0.625,0 1,-0.1875 v 3.546875 c 0,0.234375 0,0.328125 -0.6875,0.328125 H 0.8125 V 0 c 0.125,0 0.984375,-0.03125 1.234375,-0.03125 0.21875,0 1.09375,0.03125 1.25,0.03125 V -0.25 H 3.03125 c -0.703125,0 -0.703125,-0.09375 -0.703125,-0.328125 z m 0,0"
               id="id-f7bda6a1-1205-4773-8bb9-ffb3c98a3555" />
          </g>
        </g>
      </g>
    </g>
    <g
       transform="matrix(0.71597041,0,0,0.71597041,106.69048,127.20301)"
       ns1:version="1.8.1"
       ns1:texconverter="pdflatex"
       ns1:pdfconverter="inkscape"
       ns1:text="$\\boldsymbol{\\xi}_2$"
       ns1:preamble="/home/marcosgil/.config/inkscape/extensions/textext/default_packages.tex"
       ns1:scale="1.0"
       ns1:alignment="middle center"
       ns1:stroke-to-path="0"
       ns1:inkscapeversion="1.1.2"
       ns1:jacobian_sqrt="0.352778"
       id="g338">
      <defs
         id="id-fbe5097a-4bad-4e27-9c6c-bae718f94fe5">
        <g
           id="id-fc371291-0047-440e-895d-268dc82ef7e8">
          <symbol
             overflow="visible"
             id="id-b5f9f413-703d-4681-abed-db20ffefee1e">
            <path
               style="stroke:none;stroke-width:0"
               d=""
               id="id-ca6763e8-b356-4011-9085-d7749c57025e" />
          </symbol>
          <symbol
             overflow="visible"
             id="id-8591402b-4de5-4bd4-95ef-015410a61b59">
            <path
               style="stroke:none;stroke-width:0"
               d="m 2.328125,-3.328125 c -0.0625,-0.15625 -0.09375,-0.34375 -0.09375,-0.515625 0,-0.515625 0.296875,-1.28125 0.84375,-1.65625 0.21875,0.296875 0.5,0.296875 0.734375,0.296875 0.28125,0 1.078125,0 1.078125,-0.53125 0,-0.421875 -0.53125,-0.421875 -0.953125,-0.421875 -0.09375,0 -0.34375,0 -0.625,0.03125 0,-0.3125 0.0625,-0.53125 0.0625,-0.546875 0.03125,-0.09375 0.03125,-0.09375 0.03125,-0.125 0,-0.203125 -0.203125,-0.21875 -0.21875,-0.21875 -0.328125,0 -0.328125,0.59375 -0.328125,0.78125 0,0.0625 0,0.15625 0.015625,0.21875 C 1.625,-5.640625 1,-4.75 1,-3.984375 c 0,0.46875 0.265625,0.84375 0.53125,1.03125 C 0.484375,-2.25 0.234375,-1.3125 0.234375,-0.9375 c 0,0.8125 0.734375,1.21875 1.328125,1.421875 L 2.703125,0.875 c 0.25,0.078125 0.671875,0.234375 0.75,0.265625 0.078125,0.046875 0.125,0.140625 0.125,0.21875 0,0.03125 -0.015625,0.296875 -0.3125,0.296875 -0.0625,0 -0.546875,-0.015625 -1,-0.25 C 2.203125,1.359375 2.1875,1.359375 2.140625,1.359375 2,1.359375 1.9375,1.46875 1.9375,1.53125 c 0,0.25 0.84375,0.484375 1.34375,0.484375 0.78125,0 1.1875,-0.71875 1.1875,-1.1875 0,-0.421875 -0.296875,-0.671875 -0.484375,-0.75 C 3.84375,0.03125 2.90625,-0.296875 2.65625,-0.375 L 2,-0.59375 c -0.34375,-0.125 -0.921875,-0.328125 -0.921875,-0.796875 0,-0.59375 0.75,-1.296875 0.875,-1.296875 0.015625,0 0.015625,0 0.078125,0.015625 C 2.515625,-2.5 2.828125,-2.5 3.09375,-2.5 c 0.3125,0 1.140625,0 1.140625,-0.546875 0,-0.40625 -0.625,-0.40625 -0.953125,-0.40625 -0.1875,0 -0.5,0 -0.953125,0.125 z M 3.40625,-5.71875 c 0.203125,-0.078125 0.375,-0.078125 0.515625,-0.078125 0.3125,0 0.34375,0 0.5,0.0625 0,0.015625 0,0.015625 -0.03125,0.0625 C 4.296875,-5.5625 3.921875,-5.5625 3.8125,-5.5625 c -0.15625,0 -0.3125,0 -0.40625,-0.15625 z M 2.578125,-3 c 0.265625,-0.09375 0.5,-0.09375 0.65625,-0.09375 0.328125,0 0.359375,0 0.515625,0.0625 -0.015625,0.015625 -0.015625,0.046875 -0.03125,0.0625 C 3.625,-2.859375 3.25,-2.859375 3.125,-2.859375 c -0.15625,0 -0.375,0 -0.546875,-0.140625 z m 0,0"
               id="id-fc02bd46-1a8c-4a0c-8100-1f319f8e5b07" />
          </symbol>
          <symbol
             overflow="visible"
             id="id-617cd0d6-da81-4802-9d67-1f029505b36b">
            <path
               style="stroke:none;stroke-width:0"
               d=""
               id="id-23f8785c-70d3-4209-aefb-3c3c958df114" />
          </symbol>
          <symbol
             overflow="visible"
             id="id-29d28681-19f9-4b8e-b71f-46fb4f0ac816">
            <path
               style="stroke:none;stroke-width:0"
               d="M 3.515625,-1.265625 H 3.28125 c -0.015625,0.15625 -0.09375,0.5625 -0.1875,0.625 C 3.046875,-0.59375 2.515625,-0.59375 2.40625,-0.59375 H 1.125 c 0.734375,-0.640625 0.984375,-0.84375 1.390625,-1.171875 0.515625,-0.40625 1,-0.84375 1,-1.5 0,-0.84375 -0.734375,-1.359375 -1.625,-1.359375 -0.859375,0 -1.453125,0.609375 -1.453125,1.25 0,0.34375 0.296875,0.390625 0.375,0.390625 0.15625,0 0.359375,-0.125 0.359375,-0.375 0,-0.125 -0.046875,-0.375 -0.40625,-0.375 C 0.984375,-4.21875 1.453125,-4.375 1.78125,-4.375 c 0.703125,0 1.0625,0.546875 1.0625,1.109375 0,0.609375 -0.4375,1.078125 -0.65625,1.328125 L 0.515625,-0.265625 C 0.4375,-0.203125 0.4375,-0.1875 0.4375,0 h 2.875 z m 0,0"
               id="id-159217d3-500a-4030-a46f-d97821c805fe" />
          </symbol>
        </g>
      </defs>
      <g
         id="id-577dc1e6-9b52-4288-9732-a819a1c020ff"
         transform="translate(-147.74173,-128.23624)">
        <g
           style="fill:#000000;fill-opacity:1"
           id="id-095e01d6-13f9-4b92-918b-28347d752440">
          <g
             transform="translate(148.712,134.765)"
             id="g330">
            <path
               style="stroke:none;stroke-width:0"
               d="m 2.328125,-3.328125 c -0.0625,-0.15625 -0.09375,-0.34375 -0.09375,-0.515625 0,-0.515625 0.296875,-1.28125 0.84375,-1.65625 0.21875,0.296875 0.5,0.296875 0.734375,0.296875 0.28125,0 1.078125,0 1.078125,-0.53125 0,-0.421875 -0.53125,-0.421875 -0.953125,-0.421875 -0.09375,0 -0.34375,0 -0.625,0.03125 0,-0.3125 0.0625,-0.53125 0.0625,-0.546875 0.03125,-0.09375 0.03125,-0.09375 0.03125,-0.125 0,-0.203125 -0.203125,-0.21875 -0.21875,-0.21875 -0.328125,0 -0.328125,0.59375 -0.328125,0.78125 0,0.0625 0,0.15625 0.015625,0.21875 C 1.625,-5.640625 1,-4.75 1,-3.984375 c 0,0.46875 0.265625,0.84375 0.53125,1.03125 C 0.484375,-2.25 0.234375,-1.3125 0.234375,-0.9375 c 0,0.8125 0.734375,1.21875 1.328125,1.421875 L 2.703125,0.875 c 0.25,0.078125 0.671875,0.234375 0.75,0.265625 0.078125,0.046875 0.125,0.140625 0.125,0.21875 0,0.03125 -0.015625,0.296875 -0.3125,0.296875 -0.0625,0 -0.546875,-0.015625 -1,-0.25 C 2.203125,1.359375 2.1875,1.359375 2.140625,1.359375 2,1.359375 1.9375,1.46875 1.9375,1.53125 c 0,0.25 0.84375,0.484375 1.34375,0.484375 0.78125,0 1.1875,-0.71875 1.1875,-1.1875 0,-0.421875 -0.296875,-0.671875 -0.484375,-0.75 C 3.84375,0.03125 2.90625,-0.296875 2.65625,-0.375 L 2,-0.59375 c -0.34375,-0.125 -0.921875,-0.328125 -0.921875,-0.796875 0,-0.59375 0.75,-1.296875 0.875,-1.296875 0.015625,0 0.015625,0 0.078125,0.015625 C 2.515625,-2.5 2.828125,-2.5 3.09375,-2.5 c 0.3125,0 1.140625,0 1.140625,-0.546875 0,-0.40625 -0.625,-0.40625 -0.953125,-0.40625 -0.1875,0 -0.5,0 -0.953125,0.125 z M 3.40625,-5.71875 c 0.203125,-0.078125 0.375,-0.078125 0.515625,-0.078125 0.3125,0 0.34375,0 0.5,0.0625 0,0.015625 0,0.015625 -0.03125,0.0625 C 4.296875,-5.5625 3.921875,-5.5625 3.8125,-5.5625 c -0.15625,0 -0.3125,0 -0.40625,-0.15625 z M 2.578125,-3 c 0.265625,-0.09375 0.5,-0.09375 0.65625,-0.09375 0.328125,0 0.359375,0 0.515625,0.0625 -0.015625,0.015625 -0.015625,0.046875 -0.03125,0.0625 C 3.625,-2.859375 3.25,-2.859375 3.125,-2.859375 c -0.15625,0 -0.375,0 -0.546875,-0.140625 z m 0,0"
               id="id-859891fb-59b6-4e3b-9f2a-4617df166274" />
          </g>
        </g>
        <g
           style="fill:#000000;fill-opacity:1"
           id="id-64d65ab8-7ec1-4f09-8fa9-d1d97126fde0">
          <g
             transform="translate(154.078,137.2)"
             id="g334">
            <path
               style="stroke:none;stroke-width:0"
               d="M 3.515625,-1.265625 H 3.28125 c -0.015625,0.15625 -0.09375,0.5625 -0.1875,0.625 C 3.046875,-0.59375 2.515625,-0.59375 2.40625,-0.59375 H 1.125 c 0.734375,-0.640625 0.984375,-0.84375 1.390625,-1.171875 0.515625,-0.40625 1,-0.84375 1,-1.5 0,-0.84375 -0.734375,-1.359375 -1.625,-1.359375 -0.859375,0 -1.453125,0.609375 -1.453125,1.25 0,0.34375 0.296875,0.390625 0.375,0.390625 0.15625,0 0.359375,-0.125 0.359375,-0.375 0,-0.125 -0.046875,-0.375 -0.40625,-0.375 C 0.984375,-4.21875 1.453125,-4.375 1.78125,-4.375 c 0.703125,0 1.0625,0.546875 1.0625,1.109375 0,0.609375 -0.4375,1.078125 -0.65625,1.328125 L 0.515625,-0.265625 C 0.4375,-0.203125 0.4375,-0.1875 0.4375,0 h 2.875 z m 0,0"
               id="id-87570792-aa46-4866-a7c2-52235de4d6bf" />
          </g>
        </g>
      </g>
    </g>
    <g
       transform="matrix(0.71597041,0,0,0.71597041,49.927562,128.3413)"
       ns1:version="1.8.1"
       ns1:texconverter="pdflatex"
       ns1:pdfconverter="inkscape"
       ns1:text="$\\mathbf{x}$"
       ns1:preamble="/home/marcosgil/.config/inkscape/extensions/textext/default_packages.tex"
       ns1:scale="1.0"
       ns1:alignment="middle center"
       ns1:stroke-to-path="0"
       ns1:inkscapeversion="1.1.2"
       ns1:jacobian_sqrt="0.352778"
       id="g654">
      <defs
         id="id-81a8d681-9735-46ed-936f-d59b88958ff4">
        <g
           id="id-edd6cefa-9e46-4281-9810-2675efff7e2e">
          <symbol
             overflow="visible"
             id="id-d41c02d9-96ba-4040-ae36-e36bfb71fa66">
            <path
               style="stroke:none;stroke-width:0"
               d=""
               id="id-e00f400e-2d82-4626-8c7c-07c5806f686a" />
          </symbol>
          <symbol
             overflow="visible"
             id="id-51be5edb-a165-4e7f-be00-87a499f14cc6">
            <path
               style="stroke:none;stroke-width:0"
               d="M 3.453125,-2.453125 4.609375,-3.75 C 4.75,-3.890625 4.8125,-3.953125 5.625,-3.953125 v -0.46875 c -0.34375,0.015625 -0.859375,0.03125 -0.90625,0.03125 -0.25,0 -0.75,-0.03125 -1.03125,-0.03125 v 0.46875 c 0.140625,0 0.265625,0.015625 0.375,0.078125 -0.03125,0.0625 -0.03125,0.09375 -0.078125,0.125 L 3.15625,-2.8125 2.171875,-3.953125 h 0.40625 v -0.46875 c -0.265625,0 -0.890625,0.03125 -1.21875,0.03125 -0.3125,0 -0.765625,-0.03125 -1.09375,-0.03125 v 0.46875 h 0.71875 L 2.53125,-2.125 1.21875,-0.65625 c -0.15625,0.1875 -0.515625,0.1875 -1,0.1875 V 0 c 0.34375,-0.015625 0.875,-0.03125 0.921875,-0.03125 0.25,0 0.828125,0.015625 1.015625,0.03125 v -0.46875 c -0.171875,0 -0.359375,-0.046875 -0.359375,-0.109375 0,-0.015625 0,-0.015625 0.0625,-0.09375 l 0.96875,-1.09375 1.09375,1.296875 H 3.53125 V 0 c 0.265625,-0.015625 0.875,-0.03125 1.203125,-0.03125 0.3125,0 0.765625,0.015625 1.09375,0.03125 V -0.46875 H 5.125 Z m 0,0"
               id="id-238d0294-5cf2-4daa-8898-3fff97152f36" />
          </symbol>
        </g>
      </defs>
      <g
         id="id-42a4636d-3822-4277-8ba5-9da05fe91774"
         transform="translate(-148.931,-130.343)">
        <g
           style="fill:#000000;fill-opacity:1"
           id="id-a5cad08f-7940-46b9-8345-f73232736c0c">
          <g
             transform="translate(148.712,134.765)"
             id="g650">
            <path
               style="stroke:none;stroke-width:0"
               d="M 3.453125,-2.453125 4.609375,-3.75 C 4.75,-3.890625 4.8125,-3.953125 5.625,-3.953125 v -0.46875 c -0.34375,0.015625 -0.859375,0.03125 -0.90625,0.03125 -0.25,0 -0.75,-0.03125 -1.03125,-0.03125 v 0.46875 c 0.140625,0 0.265625,0.015625 0.375,0.078125 -0.03125,0.0625 -0.03125,0.09375 -0.078125,0.125 L 3.15625,-2.8125 2.171875,-3.953125 h 0.40625 v -0.46875 c -0.265625,0 -0.890625,0.03125 -1.21875,0.03125 -0.3125,0 -0.765625,-0.03125 -1.09375,-0.03125 v 0.46875 h 0.71875 L 2.53125,-2.125 1.21875,-0.65625 c -0.15625,0.1875 -0.515625,0.1875 -1,0.1875 V 0 c 0.34375,-0.015625 0.875,-0.03125 0.921875,-0.03125 0.25,0 0.828125,0.015625 1.015625,0.03125 v -0.46875 c -0.171875,0 -0.359375,-0.046875 -0.359375,-0.109375 0,-0.015625 0,-0.015625 0.0625,-0.09375 l 0.96875,-1.09375 1.09375,1.296875 H 3.53125 V 0 c 0.265625,-0.015625 0.875,-0.03125 1.203125,-0.03125 0.3125,0 0.765625,0.015625 1.09375,0.03125 V -0.46875 H 5.125 Z m 0,0"
               id="id-457b97ac-1e93-45b4-86c3-927dd27edb61" />
          </g>
        </g>
      </g>
    </g>
    <g
       transform="matrix(0.71597041,0,0,0.71597041,90.874848,90.142199)"
       ns1:version="1.8.1"
       ns1:texconverter="pdflatex"
       ns1:pdfconverter="inkscape"
       ns1:text="$\\mathbf{x}_1$"
       ns1:preamble="/home/marcosgil/.config/inkscape/extensions/textext/default_packages.tex"
       ns1:scale="1.0"
       ns1:alignment="middle center"
       ns1:stroke-to-path="0"
       ns1:inkscapeversion="1.1.2"
       ns1:jacobian_sqrt="0.352778"
       id="g860">
      <defs
         id="id-2cada55f-f3cb-41b9-b953-7cbcede097d0">
        <g
           id="id-e7a02375-2478-4b48-9453-c99918018435">
          <symbol
             overflow="visible"
             id="id-aa637222-d004-45c5-93f0-93dbc5dffc31">
            <path
               style="stroke:none;stroke-width:0"
               d=""
               id="id-5993d424-c0fa-490d-84cc-74c0c5bb67b0" />
          </symbol>
          <symbol
             overflow="visible"
             id="id-5f48e872-d6b2-42b4-a7e7-29b72f938404">
            <path
               style="stroke:none;stroke-width:0"
               d="M 3.453125,-2.453125 4.609375,-3.75 C 4.75,-3.890625 4.8125,-3.953125 5.625,-3.953125 v -0.46875 c -0.34375,0.015625 -0.859375,0.03125 -0.90625,0.03125 -0.25,0 -0.75,-0.03125 -1.03125,-0.03125 v 0.46875 c 0.140625,0 0.265625,0.015625 0.375,0.078125 -0.03125,0.0625 -0.03125,0.09375 -0.078125,0.125 L 3.15625,-2.8125 2.171875,-3.953125 h 0.40625 v -0.46875 c -0.265625,0 -0.890625,0.03125 -1.21875,0.03125 -0.3125,0 -0.765625,-0.03125 -1.09375,-0.03125 v 0.46875 h 0.71875 L 2.53125,-2.125 1.21875,-0.65625 c -0.15625,0.1875 -0.515625,0.1875 -1,0.1875 V 0 c 0.34375,-0.015625 0.875,-0.03125 0.921875,-0.03125 0.25,0 0.828125,0.015625 1.015625,0.03125 v -0.46875 c -0.171875,0 -0.359375,-0.046875 -0.359375,-0.109375 0,-0.015625 0,-0.015625 0.0625,-0.09375 l 0.96875,-1.09375 1.09375,1.296875 H 3.53125 V 0 c 0.265625,-0.015625 0.875,-0.03125 1.203125,-0.03125 0.3125,0 0.765625,0.015625 1.09375,0.03125 V -0.46875 H 5.125 Z m 0,0"
               id="id-5e4d37d9-30ca-4389-8b21-c9aa089a048b" />
          </symbol>
          <symbol
             overflow="visible"
             id="id-a6fe8090-e6ed-4ff4-87d3-c418de47cf66">
            <path
               style="stroke:none;stroke-width:0"
               d=""
               id="id-d42d04f1-df25-48f1-aa19-5e700760797b" />
          </symbol>
          <symbol
             overflow="visible"
             id="id-587bd285-f90d-42be-913d-66e8906712c7">
            <path
               style="stroke:none;stroke-width:0"
               d="m 2.328125,-4.4375 c 0,-0.1875 0,-0.1875 -0.203125,-0.1875 -0.453125,0.4375 -1.078125,0.4375 -1.359375,0.4375 v 0.25 c 0.15625,0 0.625,0 1,-0.1875 v 3.546875 c 0,0.234375 0,0.328125 -0.6875,0.328125 H 0.8125 V 0 c 0.125,0 0.984375,-0.03125 1.234375,-0.03125 0.21875,0 1.09375,0.03125 1.25,0.03125 V -0.25 H 3.03125 c -0.703125,0 -0.703125,-0.09375 -0.703125,-0.328125 z m 0,0"
               id="id-1202a2d9-4734-467c-ad5e-cf0765aa5096" />
          </symbol>
        </g>
      </defs>
      <g
         id="id-6eb8eb63-4630-4ebd-afd2-85312a9da750"
         transform="translate(-148.931,-130.343)">
        <g
           style="fill:#000000;fill-opacity:1"
           id="id-07bf94d3-8293-459a-9d26-cb03f6d2b699">
          <g
             transform="translate(148.712,134.765)"
             id="g852">
            <path
               style="stroke:none;stroke-width:0"
               d="M 3.453125,-2.453125 4.609375,-3.75 C 4.75,-3.890625 4.8125,-3.953125 5.625,-3.953125 v -0.46875 c -0.34375,0.015625 -0.859375,0.03125 -0.90625,0.03125 -0.25,0 -0.75,-0.03125 -1.03125,-0.03125 v 0.46875 c 0.140625,0 0.265625,0.015625 0.375,0.078125 -0.03125,0.0625 -0.03125,0.09375 -0.078125,0.125 L 3.15625,-2.8125 2.171875,-3.953125 h 0.40625 v -0.46875 c -0.265625,0 -0.890625,0.03125 -1.21875,0.03125 -0.3125,0 -0.765625,-0.03125 -1.09375,-0.03125 v 0.46875 h 0.71875 L 2.53125,-2.125 1.21875,-0.65625 c -0.15625,0.1875 -0.515625,0.1875 -1,0.1875 V 0 c 0.34375,-0.015625 0.875,-0.03125 0.921875,-0.03125 0.25,0 0.828125,0.015625 1.015625,0.03125 v -0.46875 c -0.171875,0 -0.359375,-0.046875 -0.359375,-0.109375 0,-0.015625 0,-0.015625 0.0625,-0.09375 l 0.96875,-1.09375 1.09375,1.296875 H 3.53125 V 0 c 0.265625,-0.015625 0.875,-0.03125 1.203125,-0.03125 0.3125,0 0.765625,0.015625 1.09375,0.03125 V -0.46875 H 5.125 Z m 0,0"
               id="id-f3bdee44-4b45-4e72-a3ca-0c81c87bc191" />
          </g>
        </g>
        <g
           style="fill:#000000;fill-opacity:1"
           id="id-b79be19a-1bd4-4743-b9b1-50e36c97a1ed">
          <g
             transform="translate(154.759,136.259)"
             id="g856">
            <path
               style="stroke:none;stroke-width:0"
               d="m 2.328125,-4.4375 c 0,-0.1875 0,-0.1875 -0.203125,-0.1875 -0.453125,0.4375 -1.078125,0.4375 -1.359375,0.4375 v 0.25 c 0.15625,0 0.625,0 1,-0.1875 v 3.546875 c 0,0.234375 0,0.328125 -0.6875,0.328125 H 0.8125 V 0 c 0.125,0 0.984375,-0.03125 1.234375,-0.03125 0.21875,0 1.09375,0.03125 1.25,0.03125 V -0.25 H 3.03125 c -0.703125,0 -0.703125,-0.09375 -0.703125,-0.328125 z m 0,0"
               id="id-3726ef55-8138-4bec-831d-cca34be9ccd2" />
          </g>
        </g>
      </g>
    </g>
    <g
       transform="matrix(0.71597041,0,0,0.71597041,146.07172,113.135)"
       ns1:version="1.8.1"
       ns1:texconverter="pdflatex"
       ns1:pdfconverter="inkscape"
       ns1:text="$\\mathbf{x}_2$"
       ns1:preamble="/home/marcosgil/.config/inkscape/extensions/textext/default_packages.tex"
       ns1:scale="1.0"
       ns1:alignment="middle center"
       ns1:stroke-to-path="0"
       ns1:inkscapeversion="1.1.2"
       ns1:jacobian_sqrt="0.352778"
       id="g1109">
      <defs
         id="id-b976924a-90dd-42fb-83c3-719400677b69">
        <g
           id="id-770bd93e-6232-4e03-a6db-63b2c4e19766">
          <symbol
             overflow="visible"
             id="id-193a7243-681c-4e34-bb57-794cb88e5d0d">
            <path
               style="stroke:none;stroke-width:0"
               d=""
               id="id-5ab1c8a7-05e7-46bf-93cb-9d7c0c576c81" />
          </symbol>
          <symbol
             overflow="visible"
             id="id-6f691581-b2eb-4618-ad25-6538268c0963">
            <path
               style="stroke:none;stroke-width:0"
               d="M 3.453125,-2.453125 4.609375,-3.75 C 4.75,-3.890625 4.8125,-3.953125 5.625,-3.953125 v -0.46875 c -0.34375,0.015625 -0.859375,0.03125 -0.90625,0.03125 -0.25,0 -0.75,-0.03125 -1.03125,-0.03125 v 0.46875 c 0.140625,0 0.265625,0.015625 0.375,0.078125 -0.03125,0.0625 -0.03125,0.09375 -0.078125,0.125 L 3.15625,-2.8125 2.171875,-3.953125 h 0.40625 v -0.46875 c -0.265625,0 -0.890625,0.03125 -1.21875,0.03125 -0.3125,0 -0.765625,-0.03125 -1.09375,-0.03125 v 0.46875 h 0.71875 L 2.53125,-2.125 1.21875,-0.65625 c -0.15625,0.1875 -0.515625,0.1875 -1,0.1875 V 0 c 0.34375,-0.015625 0.875,-0.03125 0.921875,-0.03125 0.25,0 0.828125,0.015625 1.015625,0.03125 v -0.46875 c -0.171875,0 -0.359375,-0.046875 -0.359375,-0.109375 0,-0.015625 0,-0.015625 0.0625,-0.09375 l 0.96875,-1.09375 1.09375,1.296875 H 3.53125 V 0 c 0.265625,-0.015625 0.875,-0.03125 1.203125,-0.03125 0.3125,0 0.765625,0.015625 1.09375,0.03125 V -0.46875 H 5.125 Z m 0,0"
               id="id-0682ccc0-b0f5-45dc-bc7e-5268aeb94c16" />
          </symbol>
          <symbol
             overflow="visible"
             id="id-7a0d6b7c-cf0d-49c0-8f20-443abcede3e0">
            <path
               style="stroke:none;stroke-width:0"
               d=""
               id="id-998a0165-adee-43a8-ab06-b85dadadaf46" />
          </symbol>
          <symbol
             overflow="visible"
             id="id-6d2fe61b-a1d0-48a5-a4e4-e0f85305a65b">
            <path
               style="stroke:none;stroke-width:0"
               d="M 3.515625,-1.265625 H 3.28125 c -0.015625,0.15625 -0.09375,0.5625 -0.1875,0.625 C 3.046875,-0.59375 2.515625,-0.59375 2.40625,-0.59375 H 1.125 c 0.734375,-0.640625 0.984375,-0.84375 1.390625,-1.171875 0.515625,-0.40625 1,-0.84375 1,-1.5 0,-0.84375 -0.734375,-1.359375 -1.625,-1.359375 -0.859375,0 -1.453125,0.609375 -1.453125,1.25 0,0.34375 0.296875,0.390625 0.375,0.390625 0.15625,0 0.359375,-0.125 0.359375,-0.375 0,-0.125 -0.046875,-0.375 -0.40625,-0.375 C 0.984375,-4.21875 1.453125,-4.375 1.78125,-4.375 c 0.703125,0 1.0625,0.546875 1.0625,1.109375 0,0.609375 -0.4375,1.078125 -0.65625,1.328125 L 0.515625,-0.265625 C 0.4375,-0.203125 0.4375,-0.1875 0.4375,0 h 2.875 z m 0,0"
               id="id-4071ffb8-53cc-4a9a-bf4a-754efe32bbc6" />
          </symbol>
        </g>
      </defs>
      <g
         id="id-c3c6688a-7b63-4213-9aaf-3c0dbf76be2c"
         transform="translate(-148.931,-130.343)">
        <g
           style="fill:#000000;fill-opacity:1"
           id="id-632ce187-f1eb-44e2-8b8f-abd9a14a12cf">
          <g
             transform="translate(148.712,134.765)"
             id="g1101">
            <path
               style="stroke:none;stroke-width:0"
               d="M 3.453125,-2.453125 4.609375,-3.75 C 4.75,-3.890625 4.8125,-3.953125 5.625,-3.953125 v -0.46875 c -0.34375,0.015625 -0.859375,0.03125 -0.90625,0.03125 -0.25,0 -0.75,-0.03125 -1.03125,-0.03125 v 0.46875 c 0.140625,0 0.265625,0.015625 0.375,0.078125 -0.03125,0.0625 -0.03125,0.09375 -0.078125,0.125 L 3.15625,-2.8125 2.171875,-3.953125 h 0.40625 v -0.46875 c -0.265625,0 -0.890625,0.03125 -1.21875,0.03125 -0.3125,0 -0.765625,-0.03125 -1.09375,-0.03125 v 0.46875 h 0.71875 L 2.53125,-2.125 1.21875,-0.65625 c -0.15625,0.1875 -0.515625,0.1875 -1,0.1875 V 0 c 0.34375,-0.015625 0.875,-0.03125 0.921875,-0.03125 0.25,0 0.828125,0.015625 1.015625,0.03125 v -0.46875 c -0.171875,0 -0.359375,-0.046875 -0.359375,-0.109375 0,-0.015625 0,-0.015625 0.0625,-0.09375 l 0.96875,-1.09375 1.09375,1.296875 H 3.53125 V 0 c 0.265625,-0.015625 0.875,-0.03125 1.203125,-0.03125 0.3125,0 0.765625,0.015625 1.09375,0.03125 V -0.46875 H 5.125 Z m 0,0"
               id="id-cd31226b-5684-4d8d-9c5e-9a7441e9eb3e" />
          </g>
        </g>
        <g
           style="fill:#000000;fill-opacity:1"
           id="id-cd0ef625-13d3-4a67-a501-b3ec80cdb9b1">
          <g
             transform="translate(154.759,136.259)"
             id="g1105">
            <path
               style="stroke:none;stroke-width:0"
               d="M 3.515625,-1.265625 H 3.28125 c -0.015625,0.15625 -0.09375,0.5625 -0.1875,0.625 C 3.046875,-0.59375 2.515625,-0.59375 2.40625,-0.59375 H 1.125 c 0.734375,-0.640625 0.984375,-0.84375 1.390625,-1.171875 0.515625,-0.40625 1,-0.84375 1,-1.5 0,-0.84375 -0.734375,-1.359375 -1.625,-1.359375 -0.859375,0 -1.453125,0.609375 -1.453125,1.25 0,0.34375 0.296875,0.390625 0.375,0.390625 0.15625,0 0.359375,-0.125 0.359375,-0.375 0,-0.125 -0.046875,-0.375 -0.40625,-0.375 C 0.984375,-4.21875 1.453125,-4.375 1.78125,-4.375 c 0.703125,0 1.0625,0.546875 1.0625,1.109375 0,0.609375 -0.4375,1.078125 -0.65625,1.328125 L 0.515625,-0.265625 C 0.4375,-0.203125 0.4375,-0.1875 0.4375,0 h 2.875 z m 0,0"
               id="id-58a67832-c872-4da3-9e0d-528b030cad61" />
          </g>
        </g>
      </g>
    </g>
    <g
       transform="matrix(0.71597041,0,0,0.71597041,-3.5951493,109.40263)"
       ns1:version="1.8.1"
       ns1:texconverter="pdflatex"
       ns1:pdfconverter="inkscape"
       ns1:text="$\\mathbf{x}_-$"
       ns1:preamble="/home/marcosgil/.config/inkscape/extensions/textext/default_packages.tex"
       ns1:scale="1.0"
       ns1:alignment="middle center"
       ns1:stroke-to-path="0"
       ns1:inkscapeversion="1.1.2"
       ns1:jacobian_sqrt="0.352778"
       id="g1394">
      <defs
         id="id-a357c809-169f-4782-b41f-02b6734e8609">
        <g
           id="id-b052634a-d3b0-422a-9a95-db244b85cbaa">
          <symbol
             overflow="visible"
             id="id-803badfe-ce87-407b-936d-c8d345ee470c">
            <path
               style="stroke:none;stroke-width:0"
               d=""
               id="id-c61de5d4-a88d-4de3-9f88-dc3a7b909d3f" />
          </symbol>
          <symbol
             overflow="visible"
             id="id-33e9821e-56d5-4916-8002-f94bc1db01d7">
            <path
               style="stroke:none;stroke-width:0"
               d="M 3.453125,-2.453125 4.609375,-3.75 C 4.75,-3.890625 4.8125,-3.953125 5.625,-3.953125 v -0.46875 c -0.34375,0.015625 -0.859375,0.03125 -0.90625,0.03125 -0.25,0 -0.75,-0.03125 -1.03125,-0.03125 v 0.46875 c 0.140625,0 0.265625,0.015625 0.375,0.078125 -0.03125,0.0625 -0.03125,0.09375 -0.078125,0.125 L 3.15625,-2.8125 2.171875,-3.953125 h 0.40625 v -0.46875 c -0.265625,0 -0.890625,0.03125 -1.21875,0.03125 -0.3125,0 -0.765625,-0.03125 -1.09375,-0.03125 v 0.46875 h 0.71875 L 2.53125,-2.125 1.21875,-0.65625 c -0.15625,0.1875 -0.515625,0.1875 -1,0.1875 V 0 c 0.34375,-0.015625 0.875,-0.03125 0.921875,-0.03125 0.25,0 0.828125,0.015625 1.015625,0.03125 v -0.46875 c -0.171875,0 -0.359375,-0.046875 -0.359375,-0.109375 0,-0.015625 0,-0.015625 0.0625,-0.09375 l 0.96875,-1.09375 1.09375,1.296875 H 3.53125 V 0 c 0.265625,-0.015625 0.875,-0.03125 1.203125,-0.03125 0.3125,0 0.765625,0.015625 1.09375,0.03125 V -0.46875 H 5.125 Z m 0,0"
               id="id-f4bb352b-4f3e-41dd-90fe-f938aee622d5" />
          </symbol>
          <symbol
             overflow="visible"
             id="id-e74b8a9a-dd44-4adc-b4ac-94dec9326093">
            <path
               style="stroke:none;stroke-width:0"
               d=""
               id="id-5a586ada-3b0b-4e96-96fb-572e3685902d" />
          </symbol>
          <symbol
             overflow="visible"
             id="id-4a20be8e-2d39-4758-8a2f-5f71a967aa0d">
            <path
               style="stroke:none;stroke-width:0"
               d="m 5.1875,-1.578125 c 0.109375,0 0.28125,0 0.28125,-0.15625 0,-0.1875 -0.171875,-0.1875 -0.28125,-0.1875 H 1.03125 c -0.109375,0 -0.28125,0 -0.28125,0.171875 0,0.171875 0.15625,0.171875 0.28125,0.171875 z m 0,0"
               id="id-95f424aa-c0eb-4233-a613-455f6e160519" />
          </symbol>
        </g>
      </defs>
      <g
         id="id-fe0f1adf-317d-4cc6-b33e-2f2230a34764"
         transform="translate(-143.51334,-137.90502)">
        <g
           style="fill:#000000;fill-opacity:1"
           id="id-9df13421-a081-4fdf-899a-7d1a9340ee14">
          <g
             transform="translate(148.712,134.765)"
             id="g1386">
            <path
               style="stroke:none;stroke-width:0"
               d="M 3.453125,-2.453125 4.609375,-3.75 C 4.75,-3.890625 4.8125,-3.953125 5.625,-3.953125 v -0.46875 c -0.34375,0.015625 -0.859375,0.03125 -0.90625,0.03125 -0.25,0 -0.75,-0.03125 -1.03125,-0.03125 v 0.46875 c 0.140625,0 0.265625,0.015625 0.375,0.078125 -0.03125,0.0625 -0.03125,0.09375 -0.078125,0.125 L 3.15625,-2.8125 2.171875,-3.953125 h 0.40625 v -0.46875 c -0.265625,0 -0.890625,0.03125 -1.21875,0.03125 -0.3125,0 -0.765625,-0.03125 -1.09375,-0.03125 v 0.46875 h 0.71875 L 2.53125,-2.125 1.21875,-0.65625 c -0.15625,0.1875 -0.515625,0.1875 -1,0.1875 V 0 c 0.34375,-0.015625 0.875,-0.03125 0.921875,-0.03125 0.25,0 0.828125,0.015625 1.015625,0.03125 v -0.46875 c -0.171875,0 -0.359375,-0.046875 -0.359375,-0.109375 0,-0.015625 0,-0.015625 0.0625,-0.09375 l 0.96875,-1.09375 1.09375,1.296875 H 3.53125 V 0 c 0.265625,-0.015625 0.875,-0.03125 1.203125,-0.03125 0.3125,0 0.765625,0.015625 1.09375,0.03125 V -0.46875 H 5.125 Z m 0,0"
               id="id-d8eb0c9e-5e05-4dcd-8c1f-d711e12643f6" />
          </g>
        </g>
        <g
           style="fill:#000000;fill-opacity:1"
           id="id-c7a5cf49-ab48-4026-92e7-553529f79270">
          <g
             transform="translate(154.759,136.259)"
             id="g1390">
            <path
               style="stroke:none;stroke-width:0"
               d="m 5.1875,-1.578125 c 0.109375,0 0.28125,0 0.28125,-0.15625 0,-0.1875 -0.171875,-0.1875 -0.28125,-0.1875 H 1.03125 c -0.109375,0 -0.28125,0 -0.28125,0.171875 0,0.171875 0.15625,0.171875 0.28125,0.171875 z m 0,0"
               id="id-40e0bfb0-23ca-48ed-8674-d98797ff5e18" />
          </g>
        </g>
      </g>
      <g
         transform="translate(154.211,-3.45389)"
         ns1:version="1.8.1"
         ns1:texconverter="pdflatex"
         ns1:pdfconverter="inkscape"
         ns1:text="$T_1 \\left(\\mathbf{x}_-\\right)$"
         ns1:preamble="/home/marcosgil/.config/inkscape/extensions/textext/default_packages.tex"
         ns1:scale="1.0"
         ns1:alignment="middle center"
         ns1:stroke-to-path="0"
         ns1:inkscapeversion="1.1.2"
         ns1:jacobian_sqrt="1.0"
         id="g1744">
        <defs
           id="id-461f4229-4ebe-4bd4-9d19-f8c562c81c17">
          <g
             id="id-57f1065c-2fea-4eeb-9489-586aa3bc4656">
            <symbol
               overflow="visible"
               id="id-c46ae108-f073-43ce-88d0-120780464e20">
              <path
                 style="stroke:none;stroke-width:0"
                 d=""
                 id="id-3bcd5502-50bf-42a7-b3fb-2e29873048ee" />
            </symbol>
            <symbol
               overflow="visible"
               id="id-6de26a7d-85f8-49c0-abe5-b62a0a332862">
              <path
                 style="stroke:none;stroke-width:0"
                 d="m 4.25,-6.046875 c 0.078125,-0.28125 0.109375,-0.34375 0.234375,-0.375 0.09375,-0.015625 0.421875,-0.015625 0.625,-0.015625 1.015625,0 1.453125,0.03125 1.453125,0.8125 0,0.15625 -0.03125,0.546875 -0.078125,0.796875 0,0.046875 -0.03125,0.15625 -0.03125,0.1875 0,0.0625 0.03125,0.140625 0.125,0.140625 0.109375,0 0.125,-0.078125 0.15625,-0.234375 L 7,-6.46875 C 7.015625,-6.515625 7.015625,-6.609375 7.015625,-6.640625 7.015625,-6.75 6.921875,-6.75 6.75,-6.75 H 1.21875 c -0.234375,0 -0.25,0.015625 -0.328125,0.203125 l -0.59375,1.75 c 0,0.015625 -0.0625,0.15625 -0.0625,0.1875 0,0.046875 0.0625,0.109375 0.125,0.109375 0.09375,0 0.109375,-0.0625 0.171875,-0.21875 C 1.0625,-6.265625 1.328125,-6.4375 2.796875,-6.4375 H 3.1875 c 0.28125,0 0.28125,0.03125 0.28125,0.125 0,0.046875 -0.03125,0.171875 -0.046875,0.203125 L 2.09375,-0.78125 C 2,-0.421875 1.96875,-0.3125 0.90625,-0.3125 c -0.359375,0 -0.421875,0 -0.421875,0.1875 C 0.484375,0 0.59375,0 0.65625,0 c 0.265625,0 0.546875,-0.015625 0.8125,-0.015625 0.28125,0 0.578125,-0.015625 0.859375,-0.015625 0.28125,0 0.546875,0.015625 0.828125,0.015625 C 3.4375,-0.015625 3.734375,0 4.015625,0 c 0.09375,0 0.21875,0 0.21875,-0.203125 0,-0.109375 -0.078125,-0.109375 -0.34375,-0.109375 -0.234375,0 -0.375,0 -0.625,-0.015625 -0.296875,-0.03125 -0.375,-0.0625 -0.375,-0.21875 0,-0.015625 0,-0.0625 0.046875,-0.203125 z m 0,0"
                 id="id-086945ac-6e20-4be2-8ad8-7c8cd4e11c1b" />
            </symbol>
            <symbol
               overflow="visible"
               id="id-73d6c5a1-a1e9-4573-bd1a-0699d570fc25">
              <path
                 style="stroke:none;stroke-width:0"
                 d=""
                 id="id-73e04e23-8626-4b0d-93a6-c0bcd864e5f9" />
            </symbol>
            <symbol
               overflow="visible"
               id="id-74b4de74-31d4-4f6b-b57a-ac760a51fb38">
              <path
                 style="stroke:none;stroke-width:0"
                 d="m 2.328125,-4.4375 c 0,-0.1875 0,-0.1875 -0.203125,-0.1875 -0.453125,0.4375 -1.078125,0.4375 -1.359375,0.4375 v 0.25 c 0.15625,0 0.625,0 1,-0.1875 v 3.546875 c 0,0.234375 0,0.328125 -0.6875,0.328125 H 0.8125 V 0 c 0.125,0 0.984375,-0.03125 1.234375,-0.03125 0.21875,0 1.09375,0.03125 1.25,0.03125 V -0.25 H 3.03125 c -0.703125,0 -0.703125,-0.09375 -0.703125,-0.328125 z m 0,0"
                 id="id-65ca1480-94ca-4033-acc3-c00d78a58c1a" />
            </symbol>
            <symbol
               overflow="visible"
               id="id-6d240379-13e8-4dfb-9e9a-5ac3d13ef672">
              <path
                 style="stroke:none;stroke-width:0"
                 d=""
                 id="id-8143d181-2424-4151-8847-a07daf4f5719" />
            </symbol>
            <symbol
               overflow="visible"
               id="id-6602b8a0-fa0a-41a2-b6f1-e21da39343c4">
              <path
                 style="stroke:none;stroke-width:0"
                 d="m 3.296875,2.390625 c 0,-0.03125 0,-0.046875 -0.171875,-0.21875 C 1.890625,0.921875 1.5625,-0.96875 1.5625,-2.5 c 0,-1.734375 0.375,-3.46875 1.609375,-4.703125 0.125,-0.125 0.125,-0.140625 0.125,-0.171875 0,-0.078125 -0.03125,-0.109375 -0.09375,-0.109375 -0.109375,0 -1,0.6875 -1.59375,1.953125 -0.5,1.09375 -0.625,2.203125 -0.625,3.03125 0,0.78125 0.109375,1.984375 0.65625,3.125 C 2.25,1.84375 3.09375,2.5 3.203125,2.5 c 0.0625,0 0.09375,-0.03125 0.09375,-0.109375 z m 0,0"
                 id="id-6436f298-a1b7-411d-a1ec-aef5434f0e2b" />
            </symbol>
            <symbol
               overflow="visible"
               id="id-1a714c39-8f41-4bcc-9d79-ddcb01c9b622">
              <path
                 style="stroke:none;stroke-width:0"
                 d="m 2.875,-2.5 c 0,-0.765625 -0.109375,-1.96875 -0.65625,-3.109375 -0.59375,-1.21875 -1.453125,-1.875 -1.546875,-1.875 -0.0625,0 -0.109375,0.046875 -0.109375,0.109375 0,0.03125 0,0.046875 0.1875,0.234375 0.984375,0.984375 1.546875,2.5625 1.546875,4.640625 0,1.71875 -0.359375,3.46875 -1.59375,4.71875 C 0.5625,2.34375 0.5625,2.359375 0.5625,2.390625 0.5625,2.453125 0.609375,2.5 0.671875,2.5 0.765625,2.5 1.671875,1.8125 2.25,0.546875 2.765625,-0.546875 2.875,-1.65625 2.875,-2.5 Z m 0,0"
                 id="id-e1312fb3-7bce-49c7-8b93-5899e365e053" />
            </symbol>
            <symbol
               overflow="visible"
               id="id-8201af96-8283-4de2-b56b-47e1929b67ec">
              <path
                 style="stroke:none;stroke-width:0"
                 d=""
                 id="id-34584c6b-b1bd-471e-9e20-4b594d0bdb3d" />
            </symbol>
            <symbol
               overflow="visible"
               id="id-4b2c3f10-ae03-4c16-9464-db17a9ff4ac6">
              <path
                 style="stroke:none;stroke-width:0"
                 d="M 3.453125,-2.453125 4.609375,-3.75 C 4.75,-3.890625 4.8125,-3.953125 5.625,-3.953125 v -0.46875 c -0.34375,0.015625 -0.859375,0.03125 -0.90625,0.03125 -0.25,0 -0.75,-0.03125 -1.03125,-0.03125 v 0.46875 c 0.140625,0 0.265625,0.015625 0.375,0.078125 -0.03125,0.0625 -0.03125,0.09375 -0.078125,0.125 L 3.15625,-2.8125 2.171875,-3.953125 h 0.40625 v -0.46875 c -0.265625,0 -0.890625,0.03125 -1.21875,0.03125 -0.3125,0 -0.765625,-0.03125 -1.09375,-0.03125 v 0.46875 h 0.71875 L 2.53125,-2.125 1.21875,-0.65625 c -0.15625,0.1875 -0.515625,0.1875 -1,0.1875 V 0 c 0.34375,-0.015625 0.875,-0.03125 0.921875,-0.03125 0.25,0 0.828125,0.015625 1.015625,0.03125 v -0.46875 c -0.171875,0 -0.359375,-0.046875 -0.359375,-0.109375 0,-0.015625 0,-0.015625 0.0625,-0.09375 l 0.96875,-1.09375 1.09375,1.296875 H 3.53125 V 0 c 0.265625,-0.015625 0.875,-0.03125 1.203125,-0.03125 0.3125,0 0.765625,0.015625 1.09375,0.03125 V -0.46875 H 5.125 Z m 0,0"
                 id="id-c59f7d5b-948b-4692-b448-fd5a85e3c573" />
            </symbol>
            <symbol
               overflow="visible"
               id="id-5e896dec-2353-4d23-99fd-5e885aa282ee">
              <path
                 style="stroke:none;stroke-width:0"
                 d=""
                 id="id-f8aea7ea-bc6b-424e-8360-e9f074048880" />
            </symbol>
            <symbol
               overflow="visible"
               id="id-6e0cf54d-fc3d-4e2a-8ff8-57dcd589c30e">
              <path
                 style="stroke:none;stroke-width:0"
                 d="m 5.1875,-1.578125 c 0.109375,0 0.28125,0 0.28125,-0.15625 0,-0.1875 -0.171875,-0.1875 -0.28125,-0.1875 H 1.03125 c -0.109375,0 -0.28125,0 -0.28125,0.171875 0,0.171875 0.15625,0.171875 0.28125,0.171875 z m 0,0"
                 id="id-48184266-fecf-4d3b-b4fb-99fbe39d8015" />
            </symbol>
          </g>
        </defs>
        <g
           id="id-e9969bf4-61e0-4952-90d1-ff6600f66ddf"
           transform="translate(-36.710248,-164.50116)">
          <g
             style="fill:#000000;fill-opacity:1"
             id="id-0ac30b07-545b-4afb-9170-edf3afb73ba1">
            <g
               transform="translate(148.712,134.765)"
               id="g1720">
              <path
                 style="stroke:none;stroke-width:0"
                 d="m 4.25,-6.046875 c 0.078125,-0.28125 0.109375,-0.34375 0.234375,-0.375 0.09375,-0.015625 0.421875,-0.015625 0.625,-0.015625 1.015625,0 1.453125,0.03125 1.453125,0.8125 0,0.15625 -0.03125,0.546875 -0.078125,0.796875 0,0.046875 -0.03125,0.15625 -0.03125,0.1875 0,0.0625 0.03125,0.140625 0.125,0.140625 0.109375,0 0.125,-0.078125 0.15625,-0.234375 L 7,-6.46875 C 7.015625,-6.515625 7.015625,-6.609375 7.015625,-6.640625 7.015625,-6.75 6.921875,-6.75 6.75,-6.75 H 1.21875 c -0.234375,0 -0.25,0.015625 -0.328125,0.203125 l -0.59375,1.75 c 0,0.015625 -0.0625,0.15625 -0.0625,0.1875 0,0.046875 0.0625,0.109375 0.125,0.109375 0.09375,0 0.109375,-0.0625 0.171875,-0.21875 C 1.0625,-6.265625 1.328125,-6.4375 2.796875,-6.4375 H 3.1875 c 0.28125,0 0.28125,0.03125 0.28125,0.125 0,0.046875 -0.03125,0.171875 -0.046875,0.203125 L 2.09375,-0.78125 C 2,-0.421875 1.96875,-0.3125 0.90625,-0.3125 c -0.359375,0 -0.421875,0 -0.421875,0.1875 C 0.484375,0 0.59375,0 0.65625,0 c 0.265625,0 0.546875,-0.015625 0.8125,-0.015625 0.28125,0 0.578125,-0.015625 0.859375,-0.015625 0.28125,0 0.546875,0.015625 0.828125,0.015625 C 3.4375,-0.015625 3.734375,0 4.015625,0 c 0.09375,0 0.21875,0 0.21875,-0.203125 0,-0.109375 -0.078125,-0.109375 -0.34375,-0.109375 -0.234375,0 -0.375,0 -0.625,-0.015625 -0.296875,-0.03125 -0.375,-0.0625 -0.375,-0.21875 0,-0.015625 0,-0.0625 0.046875,-0.203125 z m 0,0"
                 id="id-0f799620-d55c-4ab8-92f3-9836fa0c4489" />
            </g>
          </g>
          <g
             style="fill:#000000;fill-opacity:1"
             id="id-aa1d2137-c884-484e-8932-61791297db5b">
            <g
               transform="translate(154.534,136.259)"
               id="g1724">
              <path
                 style="stroke:none;stroke-width:0"
                 d="m 2.328125,-4.4375 c 0,-0.1875 0,-0.1875 -0.203125,-0.1875 -0.453125,0.4375 -1.078125,0.4375 -1.359375,0.4375 v 0.25 c 0.15625,0 0.625,0 1,-0.1875 v 3.546875 c 0,0.234375 0,0.328125 -0.6875,0.328125 H 0.8125 V 0 c 0.125,0 0.984375,-0.03125 1.234375,-0.03125 0.21875,0 1.09375,0.03125 1.25,0.03125 V -0.25 H 3.03125 c -0.703125,0 -0.703125,-0.09375 -0.703125,-0.328125 z m 0,0"
                 id="id-ca07a728-ca96-40f6-9607-0820f2c3bd74" />
            </g>
          </g>
          <g
             style="fill:#000000;fill-opacity:1"
             id="id-6ab31b37-220e-4dd4-8d0b-b4f155e0544f">
            <g
               transform="translate(160.664,134.765)"
               id="g1728">
              <path
                 style="stroke:none;stroke-width:0"
                 d="m 3.296875,2.390625 c 0,-0.03125 0,-0.046875 -0.171875,-0.21875 C 1.890625,0.921875 1.5625,-0.96875 1.5625,-2.5 c 0,-1.734375 0.375,-3.46875 1.609375,-4.703125 0.125,-0.125 0.125,-0.140625 0.125,-0.171875 0,-0.078125 -0.03125,-0.109375 -0.09375,-0.109375 -0.109375,0 -1,0.6875 -1.59375,1.953125 -0.5,1.09375 -0.625,2.203125 -0.625,3.03125 0,0.78125 0.109375,1.984375 0.65625,3.125 C 2.25,1.84375 3.09375,2.5 3.203125,2.5 c 0.0625,0 0.09375,-0.03125 0.09375,-0.109375 z m 0,0"
                 id="id-9f78fbc0-5066-487a-a580-52ab417f367f" />
            </g>
          </g>
          <g
             style="fill:#000000;fill-opacity:1"
             id="id-cb5bd8df-b24c-4e6d-bf0f-4b80c4e4ad53">
            <g
               transform="translate(164.538,134.765)"
               id="g1732">
              <path
                 style="stroke:none;stroke-width:0"
                 d="M 3.453125,-2.453125 4.609375,-3.75 C 4.75,-3.890625 4.8125,-3.953125 5.625,-3.953125 v -0.46875 c -0.34375,0.015625 -0.859375,0.03125 -0.90625,0.03125 -0.25,0 -0.75,-0.03125 -1.03125,-0.03125 v 0.46875 c 0.140625,0 0.265625,0.015625 0.375,0.078125 -0.03125,0.0625 -0.03125,0.09375 -0.078125,0.125 L 3.15625,-2.8125 2.171875,-3.953125 h 0.40625 v -0.46875 c -0.265625,0 -0.890625,0.03125 -1.21875,0.03125 -0.3125,0 -0.765625,-0.03125 -1.09375,-0.03125 v 0.46875 h 0.71875 L 2.53125,-2.125 1.21875,-0.65625 c -0.15625,0.1875 -0.515625,0.1875 -1,0.1875 V 0 c 0.34375,-0.015625 0.875,-0.03125 0.921875,-0.03125 0.25,0 0.828125,0.015625 1.015625,0.03125 v -0.46875 c -0.171875,0 -0.359375,-0.046875 -0.359375,-0.109375 0,-0.015625 0,-0.015625 0.0625,-0.09375 l 0.96875,-1.09375 1.09375,1.296875 H 3.53125 V 0 c 0.265625,-0.015625 0.875,-0.03125 1.203125,-0.03125 0.3125,0 0.765625,0.015625 1.09375,0.03125 V -0.46875 H 5.125 Z m 0,0"
                 id="id-39e7b17c-9a8d-4b61-bf04-aabdd9fe6298" />
            </g>
          </g>
          <g
             style="fill:#000000;fill-opacity:1"
             id="id-79af3e49-a8ef-4337-b952-6fb0b5114c0b">
            <g
               transform="translate(170.585,136.259)"
               id="g1736">
              <path
                 style="stroke:none;stroke-width:0"
                 d="m 5.1875,-1.578125 c 0.109375,0 0.28125,0 0.28125,-0.15625 0,-0.1875 -0.171875,-0.1875 -0.28125,-0.1875 H 1.03125 c -0.109375,0 -0.28125,0 -0.28125,0.171875 0,0.171875 0.15625,0.171875 0.28125,0.171875 z m 0,0"
                 id="id-96dc116d-e1b4-4cd5-99e2-8bdec3ce0bca" />
            </g>
          </g>
          <g
             style="fill:#000000;fill-opacity:1"
             id="id-069794be-6e9c-4330-a19c-7f7547359047">
            <g
               transform="translate(177.31,134.765)"
               id="g1740">
              <path
                 style="stroke:none;stroke-width:0"
                 d="m 2.875,-2.5 c 0,-0.765625 -0.109375,-1.96875 -0.65625,-3.109375 -0.59375,-1.21875 -1.453125,-1.875 -1.546875,-1.875 -0.0625,0 -0.109375,0.046875 -0.109375,0.109375 0,0.03125 0,0.046875 0.1875,0.234375 0.984375,0.984375 1.546875,2.5625 1.546875,4.640625 0,1.71875 -0.359375,3.46875 -1.59375,4.71875 C 0.5625,2.34375 0.5625,2.359375 0.5625,2.390625 0.5625,2.453125 0.609375,2.5 0.671875,2.5 0.765625,2.5 1.671875,1.8125 2.25,0.546875 2.765625,-0.546875 2.875,-1.65625 2.875,-2.5 Z m 0,0"
                 id="id-7c9d9003-0aa5-4a5f-bf95-abf907c532a9" />
            </g>
          </g>
        </g>
        <g
           transform="translate(-17.945201,51.458336)"
           ns1:version="1.8.1"
           ns1:texconverter="pdflatex"
           ns1:pdfconverter="inkscape"
           ns1:text="$T \\left(\\mathbf{x}_-\\right)$"
           ns1:preamble="/home/marcosgil/.config/inkscape/extensions/textext/default_packages.tex"
           ns1:scale="1.0"
           ns1:alignment="middle center"
           ns1:stroke-to-path="0"
           ns1:inkscapeversion="1.1.2"
           ns1:jacobian_sqrt="1.0"
           id="g2218">
          <defs
             id="id-6a5cb4bd-ca9d-4f28-8060-e7c3c4e71500">
            <g
               id="id-c0a3ec8a-4af2-4b47-abf0-1004b3c67122">
              <symbol
                 overflow="visible"
                 id="id-38252c8c-c697-4993-a5bc-b826031488a4">
                <path
                   style="stroke:none;stroke-width:0"
                   d=""
                   id="id-9418ac2a-3992-4f51-8450-2bc5311b188b" />
              </symbol>
              <symbol
                 overflow="visible"
                 id="id-5c8b7629-d14c-423e-bfd4-fd17a4953fab">
                <path
                   style="stroke:none;stroke-width:0"
                   d="m 4.25,-6.046875 c 0.078125,-0.28125 0.109375,-0.34375 0.234375,-0.375 0.09375,-0.015625 0.421875,-0.015625 0.625,-0.015625 1.015625,0 1.453125,0.03125 1.453125,0.8125 0,0.15625 -0.03125,0.546875 -0.078125,0.796875 0,0.046875 -0.03125,0.15625 -0.03125,0.1875 0,0.0625 0.03125,0.140625 0.125,0.140625 0.109375,0 0.125,-0.078125 0.15625,-0.234375 L 7,-6.46875 C 7.015625,-6.515625 7.015625,-6.609375 7.015625,-6.640625 7.015625,-6.75 6.921875,-6.75 6.75,-6.75 H 1.21875 c -0.234375,0 -0.25,0.015625 -0.328125,0.203125 l -0.59375,1.75 c 0,0.015625 -0.0625,0.15625 -0.0625,0.1875 0,0.046875 0.0625,0.109375 0.125,0.109375 0.09375,0 0.109375,-0.0625 0.171875,-0.21875 C 1.0625,-6.265625 1.328125,-6.4375 2.796875,-6.4375 H 3.1875 c 0.28125,0 0.28125,0.03125 0.28125,0.125 0,0.046875 -0.03125,0.171875 -0.046875,0.203125 L 2.09375,-0.78125 C 2,-0.421875 1.96875,-0.3125 0.90625,-0.3125 c -0.359375,0 -0.421875,0 -0.421875,0.1875 C 0.484375,0 0.59375,0 0.65625,0 c 0.265625,0 0.546875,-0.015625 0.8125,-0.015625 0.28125,0 0.578125,-0.015625 0.859375,-0.015625 0.28125,0 0.546875,0.015625 0.828125,0.015625 C 3.4375,-0.015625 3.734375,0 4.015625,0 c 0.09375,0 0.21875,0 0.21875,-0.203125 0,-0.109375 -0.078125,-0.109375 -0.34375,-0.109375 -0.234375,0 -0.375,0 -0.625,-0.015625 -0.296875,-0.03125 -0.375,-0.0625 -0.375,-0.21875 0,-0.015625 0,-0.0625 0.046875,-0.203125 z m 0,0"
                   id="id-f113242b-48a3-42ae-9950-a7c1921f0af9" />
              </symbol>
              <symbol
                 overflow="visible"
                 id="id-edf1d487-07cb-4104-8818-323d52f2fd3e">
                <path
                   style="stroke:none;stroke-width:0"
                   d=""
                   id="id-8af01ad2-1dcb-4ba6-bf78-1eab91067858" />
              </symbol>
              <symbol
                 overflow="visible"
                 id="id-8eeff7cb-706b-4ee6-bf19-7271f959196d">
                <path
                   style="stroke:none;stroke-width:0"
                   d="m 3.296875,2.390625 c 0,-0.03125 0,-0.046875 -0.171875,-0.21875 C 1.890625,0.921875 1.5625,-0.96875 1.5625,-2.5 c 0,-1.734375 0.375,-3.46875 1.609375,-4.703125 0.125,-0.125 0.125,-0.140625 0.125,-0.171875 0,-0.078125 -0.03125,-0.109375 -0.09375,-0.109375 -0.109375,0 -1,0.6875 -1.59375,1.953125 -0.5,1.09375 -0.625,2.203125 -0.625,3.03125 0,0.78125 0.109375,1.984375 0.65625,3.125 C 2.25,1.84375 3.09375,2.5 3.203125,2.5 c 0.0625,0 0.09375,-0.03125 0.09375,-0.109375 z m 0,0"
                   id="id-201630de-bb90-4e8f-878a-47655454b855" />
              </symbol>
              <symbol
                 overflow="visible"
                 id="id-3fd2d4ee-69a4-4b7e-858a-06703aa7ce43">
                <path
                   style="stroke:none;stroke-width:0"
                   d="m 2.875,-2.5 c 0,-0.765625 -0.109375,-1.96875 -0.65625,-3.109375 -0.59375,-1.21875 -1.453125,-1.875 -1.546875,-1.875 -0.0625,0 -0.109375,0.046875 -0.109375,0.109375 0,0.03125 0,0.046875 0.1875,0.234375 0.984375,0.984375 1.546875,2.5625 1.546875,4.640625 0,1.71875 -0.359375,3.46875 -1.59375,4.71875 C 0.5625,2.34375 0.5625,2.359375 0.5625,2.390625 0.5625,2.453125 0.609375,2.5 0.671875,2.5 0.765625,2.5 1.671875,1.8125 2.25,0.546875 2.765625,-0.546875 2.875,-1.65625 2.875,-2.5 Z m 0,0"
                   id="id-16331a74-dca0-442b-8b75-3114b4840dad" />
              </symbol>
              <symbol
                 overflow="visible"
                 id="id-6ac795b2-a73c-4c61-b04a-595e776d2910">
                <path
                   style="stroke:none;stroke-width:0"
                   d=""
                   id="id-7fa157ad-b8d3-4b0a-87fb-e32f6a1bfef5" />
              </symbol>
              <symbol
                 overflow="visible"
                 id="id-6c4c126c-6147-4fc1-8603-37ec699c97e7">
                <path
                   style="stroke:none;stroke-width:0"
                   d="M 3.453125,-2.453125 4.609375,-3.75 C 4.75,-3.890625 4.8125,-3.953125 5.625,-3.953125 v -0.46875 c -0.34375,0.015625 -0.859375,0.03125 -0.90625,0.03125 -0.25,0 -0.75,-0.03125 -1.03125,-0.03125 v 0.46875 c 0.140625,0 0.265625,0.015625 0.375,0.078125 -0.03125,0.0625 -0.03125,0.09375 -0.078125,0.125 L 3.15625,-2.8125 2.171875,-3.953125 h 0.40625 v -0.46875 c -0.265625,0 -0.890625,0.03125 -1.21875,0.03125 -0.3125,0 -0.765625,-0.03125 -1.09375,-0.03125 v 0.46875 h 0.71875 L 2.53125,-2.125 1.21875,-0.65625 c -0.15625,0.1875 -0.515625,0.1875 -1,0.1875 V 0 c 0.34375,-0.015625 0.875,-0.03125 0.921875,-0.03125 0.25,0 0.828125,0.015625 1.015625,0.03125 v -0.46875 c -0.171875,0 -0.359375,-0.046875 -0.359375,-0.109375 0,-0.015625 0,-0.015625 0.0625,-0.09375 l 0.96875,-1.09375 1.09375,1.296875 H 3.53125 V 0 c 0.265625,-0.015625 0.875,-0.03125 1.203125,-0.03125 0.3125,0 0.765625,0.015625 1.09375,0.03125 V -0.46875 H 5.125 Z m 0,0"
                   id="id-205defbe-0964-4983-878a-6d597e71ed21" />
              </symbol>
              <symbol
                 overflow="visible"
                 id="id-54a7a9ff-8ea3-466f-ae00-188908edde2f">
                <path
                   style="stroke:none;stroke-width:0"
                   d=""
                   id="id-5ea5affa-0923-4727-bd73-a7e126822502" />
              </symbol>
              <symbol
                 overflow="visible"
                 id="id-d267ddbc-c766-4db6-adcc-e8f7be36abf5">
                <path
                   style="stroke:none;stroke-width:0"
                   d="m 5.1875,-1.578125 c 0.109375,0 0.28125,0 0.28125,-0.15625 0,-0.1875 -0.171875,-0.1875 -0.28125,-0.1875 H 1.03125 c -0.109375,0 -0.28125,0 -0.28125,0.171875 0,0.171875 0.15625,0.171875 0.28125,0.171875 z m 0,0"
                   id="id-a6e6a2b1-c789-48bf-9f09-1b143f473754" />
              </symbol>
            </g>
          </defs>
          <g
             id="id-aa03c351-63a0-45ba-bb35-29b22e716c02"
             transform="translate(-148.946,-127.281)">
            <g
               style="fill:#000000;fill-opacity:1"
               id="id-e639be5a-43f2-4dd5-a31b-52fdc5425a2e">
              <g
                 transform="translate(148.712,134.765)"
                 id="g2198">
                <path
                   style="stroke:none;stroke-width:0"
                   d="m 4.25,-6.046875 c 0.078125,-0.28125 0.109375,-0.34375 0.234375,-0.375 0.09375,-0.015625 0.421875,-0.015625 0.625,-0.015625 1.015625,0 1.453125,0.03125 1.453125,0.8125 0,0.15625 -0.03125,0.546875 -0.078125,0.796875 0,0.046875 -0.03125,0.15625 -0.03125,0.1875 0,0.0625 0.03125,0.140625 0.125,0.140625 0.109375,0 0.125,-0.078125 0.15625,-0.234375 L 7,-6.46875 C 7.015625,-6.515625 7.015625,-6.609375 7.015625,-6.640625 7.015625,-6.75 6.921875,-6.75 6.75,-6.75 H 1.21875 c -0.234375,0 -0.25,0.015625 -0.328125,0.203125 l -0.59375,1.75 c 0,0.015625 -0.0625,0.15625 -0.0625,0.1875 0,0.046875 0.0625,0.109375 0.125,0.109375 0.09375,0 0.109375,-0.0625 0.171875,-0.21875 C 1.0625,-6.265625 1.328125,-6.4375 2.796875,-6.4375 H 3.1875 c 0.28125,0 0.28125,0.03125 0.28125,0.125 0,0.046875 -0.03125,0.171875 -0.046875,0.203125 L 2.09375,-0.78125 C 2,-0.421875 1.96875,-0.3125 0.90625,-0.3125 c -0.359375,0 -0.421875,0 -0.421875,0.1875 C 0.484375,0 0.59375,0 0.65625,0 c 0.265625,0 0.546875,-0.015625 0.8125,-0.015625 0.28125,0 0.578125,-0.015625 0.859375,-0.015625 0.28125,0 0.546875,0.015625 0.828125,0.015625 C 3.4375,-0.015625 3.734375,0 4.015625,0 c 0.09375,0 0.21875,0 0.21875,-0.203125 0,-0.109375 -0.078125,-0.109375 -0.34375,-0.109375 -0.234375,0 -0.375,0 -0.625,-0.015625 -0.296875,-0.03125 -0.375,-0.0625 -0.375,-0.21875 0,-0.015625 0,-0.0625 0.046875,-0.203125 z m 0,0"
                   id="id-aad423f3-4e35-4c67-acb7-bf53101b2c74" />
              </g>
            </g>
            <g
               style="fill:#000000;fill-opacity:1"
               id="id-a6acb340-b2bb-429e-9d70-2776aee8fbef">
              <g
                 transform="translate(157.578,134.765)"
                 id="g2202">
                <path
                   style="stroke:none;stroke-width:0"
                   d="m 3.296875,2.390625 c 0,-0.03125 0,-0.046875 -0.171875,-0.21875 C 1.890625,0.921875 1.5625,-0.96875 1.5625,-2.5 c 0,-1.734375 0.375,-3.46875 1.609375,-4.703125 0.125,-0.125 0.125,-0.140625 0.125,-0.171875 0,-0.078125 -0.03125,-0.109375 -0.09375,-0.109375 -0.109375,0 -1,0.6875 -1.59375,1.953125 -0.5,1.09375 -0.625,2.203125 -0.625,3.03125 0,0.78125 0.109375,1.984375 0.65625,3.125 C 2.25,1.84375 3.09375,2.5 3.203125,2.5 c 0.0625,0 0.09375,-0.03125 0.09375,-0.109375 z m 0,0"
                   id="id-b3efe93f-c020-4daa-958f-c6678b1cbad2" />
              </g>
            </g>
            <g
               style="fill:#000000;fill-opacity:1"
               id="id-ab2fabf9-4bd0-4642-b229-d0eda52848d2">
              <g
                 transform="translate(161.453,134.765)"
                 id="g2206">
                <path
                   style="stroke:none;stroke-width:0"
                   d="M 3.453125,-2.453125 4.609375,-3.75 C 4.75,-3.890625 4.8125,-3.953125 5.625,-3.953125 v -0.46875 c -0.34375,0.015625 -0.859375,0.03125 -0.90625,0.03125 -0.25,0 -0.75,-0.03125 -1.03125,-0.03125 v 0.46875 c 0.140625,0 0.265625,0.015625 0.375,0.078125 -0.03125,0.0625 -0.03125,0.09375 -0.078125,0.125 L 3.15625,-2.8125 2.171875,-3.953125 h 0.40625 v -0.46875 c -0.265625,0 -0.890625,0.03125 -1.21875,0.03125 -0.3125,0 -0.765625,-0.03125 -1.09375,-0.03125 v 0.46875 h 0.71875 L 2.53125,-2.125 1.21875,-0.65625 c -0.15625,0.1875 -0.515625,0.1875 -1,0.1875 V 0 c 0.34375,-0.015625 0.875,-0.03125 0.921875,-0.03125 0.25,0 0.828125,0.015625 1.015625,0.03125 v -0.46875 c -0.171875,0 -0.359375,-0.046875 -0.359375,-0.109375 0,-0.015625 0,-0.015625 0.0625,-0.09375 l 0.96875,-1.09375 1.09375,1.296875 H 3.53125 V 0 c 0.265625,-0.015625 0.875,-0.03125 1.203125,-0.03125 0.3125,0 0.765625,0.015625 1.09375,0.03125 V -0.46875 H 5.125 Z m 0,0"
                   id="id-87ab358f-8b4b-4b91-88b2-69d7e41664b0" />
              </g>
            </g>
            <g
               style="fill:#000000;fill-opacity:1"
               id="id-c600627d-be44-4549-b688-a58e9b2a91bc">
              <g
                 transform="translate(167.499,136.259)"
                 id="g2210">
                <path
                   style="stroke:none;stroke-width:0"
                   d="m 5.1875,-1.578125 c 0.109375,0 0.28125,0 0.28125,-0.15625 0,-0.1875 -0.171875,-0.1875 -0.28125,-0.1875 H 1.03125 c -0.109375,0 -0.28125,0 -0.28125,0.171875 0,0.171875 0.15625,0.171875 0.28125,0.171875 z m 0,0"
                   id="id-068cce43-4725-4f2f-8f0e-f678d683271b" />
              </g>
            </g>
            <g
               style="fill:#000000;fill-opacity:1"
               id="id-cc151942-f6bf-4b74-a44a-c4b9642a02dd">
              <g
                 transform="translate(174.224,134.765)"
                 id="g2214">
                <path
                   style="stroke:none;stroke-width:0"
                   d="m 2.875,-2.5 c 0,-0.765625 -0.109375,-1.96875 -0.65625,-3.109375 -0.59375,-1.21875 -1.453125,-1.875 -1.546875,-1.875 -0.0625,0 -0.109375,0.046875 -0.109375,0.109375 0,0.03125 0,0.046875 0.1875,0.234375 0.984375,0.984375 1.546875,2.5625 1.546875,4.640625 0,1.71875 -0.359375,3.46875 -1.59375,4.71875 C 0.5625,2.34375 0.5625,2.359375 0.5625,2.390625 0.5625,2.453125 0.609375,2.5 0.671875,2.5 0.765625,2.5 1.671875,1.8125 2.25,0.546875 2.765625,-0.546875 2.875,-1.65625 2.875,-2.5 Z m 0,0"
                   id="id-03611c75-9077-479b-a056-c7493a226623" />
              </g>
            </g>
          </g>
        </g>
      </g>
    </g>
  </g>
</svg>
