<?xml version="1.0" encoding="UTF-8" standalone="no"?>
<!-- Created with Inkscape (http://www.inkscape.org/) -->

<svg
   width="210mm"
   height="297mm"
   viewBox="0 0 210 297"
   version="1.1"
   id="svg5"
   sodipodi:docname="paralelogramo.svg"
   inkscape:version="1.1.2 (1:1.1+202202050942+0a00cf5339)"
   inkscape:export-filename="/home/marcosgil/Desktop/Tese de Mestrado/Tese/Imagens/paralelogramo.png"
   inkscape:export-xdpi="96"
   inkscape:export-ydpi="96"
   xmlns:inkscape="http://www.inkscape.org/namespaces/inkscape"
   xmlns:sodipodi="http://sodipodi.sourceforge.net/DTD/sodipodi-0.dtd"
   xmlns="http://www.w3.org/2000/svg"
   xmlns:svg="http://www.w3.org/2000/svg"
   xmlns:ns1="http://www.iki.fi/pav/software/textext/">
  <sodipodi:namedview
     id="namedview7"
     pagecolor="#ffffff"
     bordercolor="#666666"
     borderopacity="1.0"
     inkscape:pageshadow="2"
     inkscape:pageopacity="0.0"
     inkscape:pagecheckerboard="0"
     inkscape:document-units="mm"
     showgrid="false"
     inkscape:zoom="1.4948513"
     inkscape:cx="358.22961"
     inkscape:cy="234.80597"
     inkscape:window-width="2560"
     inkscape:window-height="1011"
     inkscape:window-x="0"
     inkscape:window-y="32"
     inkscape:window-maximized="1"
     inkscape:current-layer="layer1" />
  <defs
     id="defs2">
    <marker
       style="overflow:visible;"
       id="Arrow2Mend"
       refX="0.0"
       refY="0.0"
       orient="auto"
       inkscape:stockid="Arrow2Mend"
       inkscape:isstock="true">
      <path
         transform="scale(0.6) rotate(180) translate(0,0)"
         d="M 8.7185878,4.0337352 L -2.2072895,0.016013256 L 8.7185884,-4.0017078 C 6.9730900,-1.6296469 6.9831476,1.6157441 8.7185878,4.0337352 z "
         style="stroke:context-stroke;fill-rule:evenodd;fill:context-stroke;stroke-width:0.62500000;stroke-linejoin:round;"
         id="path1305" />
    </marker>
  </defs>
  <g
     inkscape:label="Layer 1"
     inkscape:groupmode="layer"
     id="layer1">
    <path
       style="fill:none;stroke:#000000;stroke-width:0.4;stroke-linecap:butt;stroke-linejoin:miter;stroke-opacity:1;marker-end:url(#Arrow2Mend);stroke-miterlimit:4;stroke-dasharray:none"
       d="M 68.035181,70.848987 96.239709,32.520915"
       id="path1052" />
    <path
       style="fill:none;stroke:#000000;stroke-width:0.4;stroke-linecap:butt;stroke-linejoin:miter;stroke-opacity:1;stroke-miterlimit:4;stroke-dasharray:3.19999999,3.19999999;stroke-dashoffset:0"
       d="M 116.11644,69.15644 144.32097,30.828368"
       id="path1052-3" />
    <path
       style="fill:none;stroke:#000000;stroke-width:0.4;stroke-linecap:butt;stroke-linejoin:miter;stroke-opacity:1;stroke-miterlimit:4;stroke-dasharray:3.19999999,3.19999999;stroke-dashoffset:0"
       d="M 68.035181,70.848987 116.11644,69.15644"
       id="path1194" />
    <path
       style="fill:none;stroke:#000000;stroke-width:0.4;stroke-linecap:butt;stroke-linejoin:miter;stroke-opacity:1;stroke-miterlimit:4;stroke-dasharray:none;stroke-dashoffset:0;marker-end:url(#Arrow2Mend)"
       d="M 96.239709,32.520915 144.32097,30.828368"
       id="path1196" />
    <g
       transform="matrix(0.529167,0,0,0.529167,89.238681,31.017589)"
       ns1:version="1.8.1"
       ns1:texconverter="pdflatex"
       ns1:pdfconverter="inkscape"
       ns1:text="$\\boldsymbol{\\xi}$"
       ns1:preamble="/home/marcosgil/.config/inkscape/extensions/textext/default_packages.tex"
       ns1:scale="1.5"
       ns1:alignment="middle center"
       ns1:stroke-to-path="0"
       ns1:jacobian_sqrt="0.529167"
       id="g1575">
      <defs
         id="id-0ff01fd8-033c-43c4-afa5-79d6de406d47">
        <g
           id="id-4045c591-718b-44dc-925c-fc25a0dc941a">
          <symbol
             overflow="visible"
             id="id-d26bee9a-5cef-4f7d-ac19-852766b362d3">
            <path
               style="stroke:none;stroke-width:0"
               d=""
               id="id-651756cd-2427-4746-80c9-b6db9ef2d9ce" />
          </symbol>
          <symbol
             overflow="visible"
             id="id-9012d7f3-a712-415c-8b40-5742350a30dd">
            <path
               style="stroke:none;stroke-width:0"
               d="m 2.328125,-3.328125 c -0.0625,-0.15625 -0.09375,-0.34375 -0.09375,-0.515625 0,-0.515625 0.296875,-1.28125 0.84375,-1.65625 0.21875,0.296875 0.5,0.296875 0.734375,0.296875 0.28125,0 1.078125,0 1.078125,-0.53125 0,-0.421875 -0.53125,-0.421875 -0.953125,-0.421875 -0.09375,0 -0.34375,0 -0.625,0.03125 0,-0.3125 0.0625,-0.53125 0.0625,-0.546875 0.03125,-0.09375 0.03125,-0.09375 0.03125,-0.125 0,-0.203125 -0.203125,-0.21875 -0.21875,-0.21875 -0.328125,0 -0.328125,0.59375 -0.328125,0.78125 0,0.0625 0,0.15625 0.015625,0.21875 C 1.625,-5.640625 1,-4.75 1,-3.984375 c 0,0.46875 0.265625,0.84375 0.53125,1.03125 C 0.484375,-2.25 0.234375,-1.3125 0.234375,-0.9375 c 0,0.8125 0.734375,1.21875 1.328125,1.421875 L 2.703125,0.875 c 0.25,0.078125 0.671875,0.234375 0.75,0.265625 0.078125,0.046875 0.125,0.140625 0.125,0.21875 0,0.03125 -0.015625,0.296875 -0.3125,0.296875 -0.0625,0 -0.546875,-0.015625 -1,-0.25 C 2.203125,1.359375 2.1875,1.359375 2.140625,1.359375 2,1.359375 1.9375,1.46875 1.9375,1.53125 c 0,0.25 0.84375,0.484375 1.34375,0.484375 0.78125,0 1.1875,-0.71875 1.1875,-1.1875 0,-0.421875 -0.296875,-0.671875 -0.484375,-0.75 C 3.84375,0.03125 2.90625,-0.296875 2.65625,-0.375 L 2,-0.59375 c -0.34375,-0.125 -0.921875,-0.328125 -0.921875,-0.796875 0,-0.59375 0.75,-1.296875 0.875,-1.296875 0.015625,0 0.015625,0 0.078125,0.015625 C 2.515625,-2.5 2.828125,-2.5 3.09375,-2.5 c 0.3125,0 1.140625,0 1.140625,-0.546875 0,-0.40625 -0.625,-0.40625 -0.953125,-0.40625 -0.1875,0 -0.5,0 -0.953125,0.125 z M 3.40625,-5.71875 c 0.203125,-0.078125 0.375,-0.078125 0.515625,-0.078125 0.3125,0 0.34375,0 0.5,0.0625 0,0.015625 0,0.015625 -0.03125,0.0625 C 4.296875,-5.5625 3.921875,-5.5625 3.8125,-5.5625 c -0.15625,0 -0.3125,0 -0.40625,-0.15625 z M 2.578125,-3 c 0.265625,-0.09375 0.5,-0.09375 0.65625,-0.09375 0.328125,0 0.359375,0 0.515625,0.0625 -0.015625,0.015625 -0.015625,0.046875 -0.03125,0.0625 C 3.625,-2.859375 3.25,-2.859375 3.125,-2.859375 c -0.15625,0 -0.375,0 -0.546875,-0.140625 z m 0,0"
               id="id-7e2cae25-4a6e-40cf-8bc3-417ed6a6c00e" />
          </symbol>
        </g>
      </defs>
      <g
         id="id-7ccfa6d6-cd69-4630-a200-503ddb5b6ecd"
         transform="translate(-148.946,-127.749)">
        <g
           style="fill:#000000;fill-opacity:1"
           id="id-392837ff-4357-4dbd-a6a7-d9501687c4f1">
          <g
             transform="translate(148.712,134.765)"
             id="g1571">
            <path
               style="stroke:none;stroke-width:0"
               d="m 2.328125,-3.328125 c -0.0625,-0.15625 -0.09375,-0.34375 -0.09375,-0.515625 0,-0.515625 0.296875,-1.28125 0.84375,-1.65625 0.21875,0.296875 0.5,0.296875 0.734375,0.296875 0.28125,0 1.078125,0 1.078125,-0.53125 0,-0.421875 -0.53125,-0.421875 -0.953125,-0.421875 -0.09375,0 -0.34375,0 -0.625,0.03125 0,-0.3125 0.0625,-0.53125 0.0625,-0.546875 0.03125,-0.09375 0.03125,-0.09375 0.03125,-0.125 0,-0.203125 -0.203125,-0.21875 -0.21875,-0.21875 -0.328125,0 -0.328125,0.59375 -0.328125,0.78125 0,0.0625 0,0.15625 0.015625,0.21875 C 1.625,-5.640625 1,-4.75 1,-3.984375 c 0,0.46875 0.265625,0.84375 0.53125,1.03125 C 0.484375,-2.25 0.234375,-1.3125 0.234375,-0.9375 c 0,0.8125 0.734375,1.21875 1.328125,1.421875 L 2.703125,0.875 c 0.25,0.078125 0.671875,0.234375 0.75,0.265625 0.078125,0.046875 0.125,0.140625 0.125,0.21875 0,0.03125 -0.015625,0.296875 -0.3125,0.296875 -0.0625,0 -0.546875,-0.015625 -1,-0.25 C 2.203125,1.359375 2.1875,1.359375 2.140625,1.359375 2,1.359375 1.9375,1.46875 1.9375,1.53125 c 0,0.25 0.84375,0.484375 1.34375,0.484375 0.78125,0 1.1875,-0.71875 1.1875,-1.1875 0,-0.421875 -0.296875,-0.671875 -0.484375,-0.75 C 3.84375,0.03125 2.90625,-0.296875 2.65625,-0.375 L 2,-0.59375 c -0.34375,-0.125 -0.921875,-0.328125 -0.921875,-0.796875 0,-0.59375 0.75,-1.296875 0.875,-1.296875 0.015625,0 0.015625,0 0.078125,0.015625 C 2.515625,-2.5 2.828125,-2.5 3.09375,-2.5 c 0.3125,0 1.140625,0 1.140625,-0.546875 0,-0.40625 -0.625,-0.40625 -0.953125,-0.40625 -0.1875,0 -0.5,0 -0.953125,0.125 z M 3.40625,-5.71875 c 0.203125,-0.078125 0.375,-0.078125 0.515625,-0.078125 0.3125,0 0.34375,0 0.5,0.0625 0,0.015625 0,0.015625 -0.03125,0.0625 C 4.296875,-5.5625 3.921875,-5.5625 3.8125,-5.5625 c -0.15625,0 -0.3125,0 -0.40625,-0.15625 z M 2.578125,-3 c 0.265625,-0.09375 0.5,-0.09375 0.65625,-0.09375 0.328125,0 0.359375,0 0.515625,0.0625 -0.015625,0.015625 -0.015625,0.046875 -0.03125,0.0625 C 3.625,-2.859375 3.25,-2.859375 3.125,-2.859375 c -0.15625,0 -0.375,0 -0.546875,-0.140625 z m 0,0"
               id="id-3d0b4cf8-0605-409c-8638-38e4c0aa63ef" />
          </g>
        </g>
      </g>
    </g>
    <g
       transform="matrix(0.529167,0,0,0.529167,137.96284,25.514667)"
       ns1:version="1.8.1"
       ns1:texconverter="pdflatex"
       ns1:pdfconverter="inkscape"
       ns1:text="$\\boldsymbol{\\eta}$"
       ns1:preamble="/home/marcosgil/.config/inkscape/extensions/textext/default_packages.tex"
       ns1:scale="1.5"
       ns1:alignment="middle center"
       ns1:stroke-to-path="0"
       ns1:jacobian_sqrt="0.529167"
       id="g1659">
      <defs
         id="id-dd60c491-83c2-4fd0-9473-c567b923f643">
        <g
           id="id-3aec8e5f-de84-4022-aeed-13c0a4b0565e">
          <symbol
             overflow="visible"
             id="id-3c94655d-34b9-43a2-a674-1ce47edcc07b">
            <path
               style="stroke:none;stroke-width:0"
               d=""
               id="id-bd51d3a3-9f96-4f43-9326-b8061c3cabc5" />
          </symbol>
          <symbol
             overflow="visible"
             id="id-7b49c9af-fd56-4032-81d9-fcd75a677a75">
            <path
               style="stroke:none;stroke-width:0"
               d="M 5.84375,-2.796875 C 5.890625,-2.96875 5.921875,-3.09375 5.921875,-3.34375 5.921875,-4.265625 5.15625,-4.5 4.4375,-4.5 4.234375,-4.5 3.5,-4.5 2.796875,-3.75 2.65625,-4.25 2.109375,-4.5 1.5625,-4.5 1.203125,-4.5 0.90625,-4.296875 0.703125,-3.9375 0.453125,-3.53125 0.3125,-3 0.3125,-2.953125 c 0,0.140625 0.15625,0.140625 0.25,0.140625 0.109375,0 0.140625,0 0.1875,-0.046875 C 0.78125,-2.875 0.78125,-2.90625 0.84375,-3.15625 1.03125,-3.953125 1.265625,-4.140625 1.515625,-4.140625 1.625,-4.140625 1.75,-4.109375 1.75,-3.78125 1.75,-3.609375 1.703125,-3.453125 1.609375,-3.046875 1.53125,-2.765625 1.4375,-2.375 1.390625,-2.15625 L 1.03125,-0.75 C 1,-0.625 0.953125,-0.421875 0.953125,-0.359375 c 0,0.203125 0.15625,0.4375 0.46875,0.4375 0.515625,0 0.625,-0.453125 0.703125,-0.75 0.09375,-0.375 0.171875,-0.6875 0.28125,-1.125 0.03125,-0.125 0.28125,-1.15625 0.3125,-1.1875 0,-0.0625 0.28125,-0.5 0.609375,-0.78125 0.28125,-0.21875 0.609375,-0.375 1.03125,-0.375 0.25,0 0.5,0.09375 0.5,0.578125 0,0.25 -0.046875,0.390625 -0.078125,0.578125 L 3.671875,1.40625 C 3.625,1.5625 3.625,1.625 3.625,1.671875 c 0,0.3125 0.265625,0.4375 0.46875,0.4375 0.109375,0 0.515625,-0.015625 0.671875,-0.609375 z m 0,0"
               id="id-8a212c59-fa31-4f08-ab8e-671c97c89097" />
          </symbol>
        </g>
      </defs>
      <g
         id="id-7d06ae9b-3f4d-4230-b4ec-8b0ffb28fc89"
         transform="translate(-149.025,-130.265)">
        <g
           style="fill:#000000;fill-opacity:1"
           id="id-054eb620-2e32-4d4d-8f0c-5548e9a242c2">
          <g
             transform="translate(148.712,134.765)"
             id="g1655">
            <path
               style="stroke:none;stroke-width:0"
               d="M 5.84375,-2.796875 C 5.890625,-2.96875 5.921875,-3.09375 5.921875,-3.34375 5.921875,-4.265625 5.15625,-4.5 4.4375,-4.5 4.234375,-4.5 3.5,-4.5 2.796875,-3.75 2.65625,-4.25 2.109375,-4.5 1.5625,-4.5 1.203125,-4.5 0.90625,-4.296875 0.703125,-3.9375 0.453125,-3.53125 0.3125,-3 0.3125,-2.953125 c 0,0.140625 0.15625,0.140625 0.25,0.140625 0.109375,0 0.140625,0 0.1875,-0.046875 C 0.78125,-2.875 0.78125,-2.90625 0.84375,-3.15625 1.03125,-3.953125 1.265625,-4.140625 1.515625,-4.140625 1.625,-4.140625 1.75,-4.109375 1.75,-3.78125 1.75,-3.609375 1.703125,-3.453125 1.609375,-3.046875 1.53125,-2.765625 1.4375,-2.375 1.390625,-2.15625 L 1.03125,-0.75 C 1,-0.625 0.953125,-0.421875 0.953125,-0.359375 c 0,0.203125 0.15625,0.4375 0.46875,0.4375 0.515625,0 0.625,-0.453125 0.703125,-0.75 0.09375,-0.375 0.171875,-0.6875 0.28125,-1.125 0.03125,-0.125 0.28125,-1.15625 0.3125,-1.1875 0,-0.0625 0.28125,-0.5 0.609375,-0.78125 0.28125,-0.21875 0.609375,-0.375 1.03125,-0.375 0.25,0 0.5,0.09375 0.5,0.578125 0,0.25 -0.046875,0.390625 -0.078125,0.578125 L 3.671875,1.40625 C 3.625,1.5625 3.625,1.625 3.625,1.671875 c 0,0.3125 0.265625,0.4375 0.46875,0.4375 0.109375,0 0.515625,-0.015625 0.671875,-0.609375 z m 0,0"
               id="id-4c175896-f483-4f89-9b33-1bf90f83727d" />
          </g>
        </g>
      </g>
    </g>
    <g
       transform="matrix(0.529167,0,0,0.529167,103.07283,47.42527)"
       ns1:version="1.8.1"
       ns1:texconverter="pdflatex"
       ns1:pdfconverter="inkscape"
       ns1:text="$\\boldsymbol{\\xi} \\wedge \\boldsymbol{\\eta}$"
       ns1:preamble="/home/marcosgil/.config/inkscape/extensions/textext/default_packages.tex"
       ns1:scale="1.5"
       ns1:alignment="middle center"
       ns1:stroke-to-path="0"
       ns1:jacobian_sqrt="0.529167"
       id="g1779">
      <defs
         id="id-4919bace-3a1a-4b23-a0bb-03e945527aab">
        <g
           id="id-412f4088-b884-46e8-914a-53d856ef65bc">
          <symbol
             overflow="visible"
             id="id-21f75d16-fd4b-4123-a9f3-3c2ac6a34426">
            <path
               style="stroke:none;stroke-width:0"
               d=""
               id="id-7ebf220f-6cdc-4915-8e87-8faecf7bb105" />
          </symbol>
          <symbol
             overflow="visible"
             id="id-931f0323-bc89-49d4-9a5b-72fb2b370e6d">
            <path
               style="stroke:none;stroke-width:0"
               d="m 2.328125,-3.328125 c -0.0625,-0.15625 -0.09375,-0.34375 -0.09375,-0.515625 0,-0.515625 0.296875,-1.28125 0.84375,-1.65625 0.21875,0.296875 0.5,0.296875 0.734375,0.296875 0.28125,0 1.078125,0 1.078125,-0.53125 0,-0.421875 -0.53125,-0.421875 -0.953125,-0.421875 -0.09375,0 -0.34375,0 -0.625,0.03125 0,-0.3125 0.0625,-0.53125 0.0625,-0.546875 0.03125,-0.09375 0.03125,-0.09375 0.03125,-0.125 0,-0.203125 -0.203125,-0.21875 -0.21875,-0.21875 -0.328125,0 -0.328125,0.59375 -0.328125,0.78125 0,0.0625 0,0.15625 0.015625,0.21875 C 1.625,-5.640625 1,-4.75 1,-3.984375 c 0,0.46875 0.265625,0.84375 0.53125,1.03125 C 0.484375,-2.25 0.234375,-1.3125 0.234375,-0.9375 c 0,0.8125 0.734375,1.21875 1.328125,1.421875 L 2.703125,0.875 c 0.25,0.078125 0.671875,0.234375 0.75,0.265625 0.078125,0.046875 0.125,0.140625 0.125,0.21875 0,0.03125 -0.015625,0.296875 -0.3125,0.296875 -0.0625,0 -0.546875,-0.015625 -1,-0.25 C 2.203125,1.359375 2.1875,1.359375 2.140625,1.359375 2,1.359375 1.9375,1.46875 1.9375,1.53125 c 0,0.25 0.84375,0.484375 1.34375,0.484375 0.78125,0 1.1875,-0.71875 1.1875,-1.1875 0,-0.421875 -0.296875,-0.671875 -0.484375,-0.75 C 3.84375,0.03125 2.90625,-0.296875 2.65625,-0.375 L 2,-0.59375 c -0.34375,-0.125 -0.921875,-0.328125 -0.921875,-0.796875 0,-0.59375 0.75,-1.296875 0.875,-1.296875 0.015625,0 0.015625,0 0.078125,0.015625 C 2.515625,-2.5 2.828125,-2.5 3.09375,-2.5 c 0.3125,0 1.140625,0 1.140625,-0.546875 0,-0.40625 -0.625,-0.40625 -0.953125,-0.40625 -0.1875,0 -0.5,0 -0.953125,0.125 z M 3.40625,-5.71875 c 0.203125,-0.078125 0.375,-0.078125 0.515625,-0.078125 0.3125,0 0.34375,0 0.5,0.0625 0,0.015625 0,0.015625 -0.03125,0.0625 C 4.296875,-5.5625 3.921875,-5.5625 3.8125,-5.5625 c -0.15625,0 -0.3125,0 -0.40625,-0.15625 z M 2.578125,-3 c 0.265625,-0.09375 0.5,-0.09375 0.65625,-0.09375 0.328125,0 0.359375,0 0.515625,0.0625 -0.015625,0.015625 -0.015625,0.046875 -0.03125,0.0625 C 3.625,-2.859375 3.25,-2.859375 3.125,-2.859375 c -0.15625,0 -0.375,0 -0.546875,-0.140625 z m 0,0"
               id="id-812d9423-820c-4ca2-9a63-e0032070ad45" />
          </symbol>
          <symbol
             overflow="visible"
             id="id-2a1252e6-1f9c-414c-9b61-f661700c80bc">
            <path
               style="stroke:none;stroke-width:0"
               d="M 5.84375,-2.796875 C 5.890625,-2.96875 5.921875,-3.09375 5.921875,-3.34375 5.921875,-4.265625 5.15625,-4.5 4.4375,-4.5 4.234375,-4.5 3.5,-4.5 2.796875,-3.75 2.65625,-4.25 2.109375,-4.5 1.5625,-4.5 1.203125,-4.5 0.90625,-4.296875 0.703125,-3.9375 0.453125,-3.53125 0.3125,-3 0.3125,-2.953125 c 0,0.140625 0.15625,0.140625 0.25,0.140625 0.109375,0 0.140625,0 0.1875,-0.046875 C 0.78125,-2.875 0.78125,-2.90625 0.84375,-3.15625 1.03125,-3.953125 1.265625,-4.140625 1.515625,-4.140625 1.625,-4.140625 1.75,-4.109375 1.75,-3.78125 1.75,-3.609375 1.703125,-3.453125 1.609375,-3.046875 1.53125,-2.765625 1.4375,-2.375 1.390625,-2.15625 L 1.03125,-0.75 C 1,-0.625 0.953125,-0.421875 0.953125,-0.359375 c 0,0.203125 0.15625,0.4375 0.46875,0.4375 0.515625,0 0.625,-0.453125 0.703125,-0.75 0.09375,-0.375 0.171875,-0.6875 0.28125,-1.125 0.03125,-0.125 0.28125,-1.15625 0.3125,-1.1875 0,-0.0625 0.28125,-0.5 0.609375,-0.78125 0.28125,-0.21875 0.609375,-0.375 1.03125,-0.375 0.25,0 0.5,0.09375 0.5,0.578125 0,0.25 -0.046875,0.390625 -0.078125,0.578125 L 3.671875,1.40625 C 3.625,1.5625 3.625,1.625 3.625,1.671875 c 0,0.3125 0.265625,0.4375 0.46875,0.4375 0.109375,0 0.515625,-0.015625 0.671875,-0.609375 z m 0,0"
               id="id-08daf71f-4259-4561-8c3c-be0482b64eec" />
          </symbol>
          <symbol
             overflow="visible"
             id="id-dd665fe8-4bc4-4c22-9baa-38cf0c1f1eb3">
            <path
               style="stroke:none;stroke-width:0"
               d=""
               id="id-081c5e61-1b5d-4145-b01d-9495373d1851" />
          </symbol>
          <symbol
             overflow="visible"
             id="id-f3efcd59-229b-45b0-8d1d-4189b05837ca">
            <path
               style="stroke:none;stroke-width:0"
               d="M 3.546875,-5.75 C 3.46875,-5.921875 3.40625,-5.96875 3.3125,-5.96875 c -0.125,0 -0.15625,0.078125 -0.21875,0.21875 L 0.625,-0.171875 c -0.0625,0.125 -0.078125,0.140625 -0.078125,0.1875 0,0.109375 0.09375,0.203125 0.203125,0.203125 0.0625,0 0.140625,-0.015625 0.234375,-0.203125 L 3.3125,-5.28125 5.65625,0.015625 C 5.75,0.21875 5.859375,0.21875 5.890625,0.21875 6,0.21875 6.09375,0.125 6.09375,0.015625 c 0,-0.015625 0,-0.03125 -0.0625,-0.15625 z m 0,0"
               id="id-be67c83b-17b4-40b7-96a3-9914fdf1451e" />
          </symbol>
        </g>
      </defs>
      <g
         id="id-6adf520f-9135-4bd1-9f91-b5288515bf04"
         transform="translate(-153.83685,-128.67435)">
        <g
           style="fill:#000000;fill-opacity:1"
           id="id-82e8d269-c25d-41fa-9cef-adcfde3b5703">
          <g
             transform="translate(148.712,134.765)"
             id="g1767">
            <path
               style="stroke:none;stroke-width:0"
               d="m 2.328125,-3.328125 c -0.0625,-0.15625 -0.09375,-0.34375 -0.09375,-0.515625 0,-0.515625 0.296875,-1.28125 0.84375,-1.65625 0.21875,0.296875 0.5,0.296875 0.734375,0.296875 0.28125,0 1.078125,0 1.078125,-0.53125 0,-0.421875 -0.53125,-0.421875 -0.953125,-0.421875 -0.09375,0 -0.34375,0 -0.625,0.03125 0,-0.3125 0.0625,-0.53125 0.0625,-0.546875 0.03125,-0.09375 0.03125,-0.09375 0.03125,-0.125 0,-0.203125 -0.203125,-0.21875 -0.21875,-0.21875 -0.328125,0 -0.328125,0.59375 -0.328125,0.78125 0,0.0625 0,0.15625 0.015625,0.21875 C 1.625,-5.640625 1,-4.75 1,-3.984375 c 0,0.46875 0.265625,0.84375 0.53125,1.03125 C 0.484375,-2.25 0.234375,-1.3125 0.234375,-0.9375 c 0,0.8125 0.734375,1.21875 1.328125,1.421875 L 2.703125,0.875 c 0.25,0.078125 0.671875,0.234375 0.75,0.265625 0.078125,0.046875 0.125,0.140625 0.125,0.21875 0,0.03125 -0.015625,0.296875 -0.3125,0.296875 -0.0625,0 -0.546875,-0.015625 -1,-0.25 C 2.203125,1.359375 2.1875,1.359375 2.140625,1.359375 2,1.359375 1.9375,1.46875 1.9375,1.53125 c 0,0.25 0.84375,0.484375 1.34375,0.484375 0.78125,0 1.1875,-0.71875 1.1875,-1.1875 0,-0.421875 -0.296875,-0.671875 -0.484375,-0.75 C 3.84375,0.03125 2.90625,-0.296875 2.65625,-0.375 L 2,-0.59375 c -0.34375,-0.125 -0.921875,-0.328125 -0.921875,-0.796875 0,-0.59375 0.75,-1.296875 0.875,-1.296875 0.015625,0 0.015625,0 0.078125,0.015625 C 2.515625,-2.5 2.828125,-2.5 3.09375,-2.5 c 0.3125,0 1.140625,0 1.140625,-0.546875 0,-0.40625 -0.625,-0.40625 -0.953125,-0.40625 -0.1875,0 -0.5,0 -0.953125,0.125 z M 3.40625,-5.71875 c 0.203125,-0.078125 0.375,-0.078125 0.515625,-0.078125 0.3125,0 0.34375,0 0.5,0.0625 0,0.015625 0,0.015625 -0.03125,0.0625 C 4.296875,-5.5625 3.921875,-5.5625 3.8125,-5.5625 c -0.15625,0 -0.3125,0 -0.40625,-0.15625 z M 2.578125,-3 c 0.265625,-0.09375 0.5,-0.09375 0.65625,-0.09375 0.328125,0 0.359375,0 0.515625,0.0625 -0.015625,0.015625 -0.015625,0.046875 -0.03125,0.0625 C 3.625,-2.859375 3.25,-2.859375 3.125,-2.859375 c -0.15625,0 -0.375,0 -0.546875,-0.140625 z m 0,0"
               id="id-3aee3e44-b161-445c-aa41-4ca12a9c0098" />
          </g>
        </g>
        <g
           style="fill:#000000;fill-opacity:1"
           id="id-8f3af47f-2efd-448f-8cd7-aabfb9aecf16">
          <g
             transform="translate(156.291,134.765)"
             id="g1771">
            <path
               style="stroke:none;stroke-width:0"
               d="M 3.546875,-5.75 C 3.46875,-5.921875 3.40625,-5.96875 3.3125,-5.96875 c -0.125,0 -0.15625,0.078125 -0.21875,0.21875 L 0.625,-0.171875 c -0.0625,0.125 -0.078125,0.140625 -0.078125,0.1875 0,0.109375 0.09375,0.203125 0.203125,0.203125 0.0625,0 0.140625,-0.015625 0.234375,-0.203125 L 3.3125,-5.28125 5.65625,0.015625 C 5.75,0.21875 5.859375,0.21875 5.890625,0.21875 6,0.21875 6.09375,0.125 6.09375,0.015625 c 0,-0.015625 0,-0.03125 -0.0625,-0.15625 z m 0,0"
               id="id-608c73d6-318d-43dc-a42b-92dfbf94b394" />
          </g>
        </g>
        <g
           style="fill:#000000;fill-opacity:1"
           id="id-af61022f-191b-44c9-8455-ccac43bce8fc">
          <g
             transform="translate(165.147,134.765)"
             id="g1775">
            <path
               style="stroke:none;stroke-width:0"
               d="M 5.84375,-2.796875 C 5.890625,-2.96875 5.921875,-3.09375 5.921875,-3.34375 5.921875,-4.265625 5.15625,-4.5 4.4375,-4.5 4.234375,-4.5 3.5,-4.5 2.796875,-3.75 2.65625,-4.25 2.109375,-4.5 1.5625,-4.5 1.203125,-4.5 0.90625,-4.296875 0.703125,-3.9375 0.453125,-3.53125 0.3125,-3 0.3125,-2.953125 c 0,0.140625 0.15625,0.140625 0.25,0.140625 0.109375,0 0.140625,0 0.1875,-0.046875 C 0.78125,-2.875 0.78125,-2.90625 0.84375,-3.15625 1.03125,-3.953125 1.265625,-4.140625 1.515625,-4.140625 1.625,-4.140625 1.75,-4.109375 1.75,-3.78125 1.75,-3.609375 1.703125,-3.453125 1.609375,-3.046875 1.53125,-2.765625 1.4375,-2.375 1.390625,-2.15625 L 1.03125,-0.75 C 1,-0.625 0.953125,-0.421875 0.953125,-0.359375 c 0,0.203125 0.15625,0.4375 0.46875,0.4375 0.515625,0 0.625,-0.453125 0.703125,-0.75 0.09375,-0.375 0.171875,-0.6875 0.28125,-1.125 0.03125,-0.125 0.28125,-1.15625 0.3125,-1.1875 0,-0.0625 0.28125,-0.5 0.609375,-0.78125 0.28125,-0.21875 0.609375,-0.375 1.03125,-0.375 0.25,0 0.5,0.09375 0.5,0.578125 0,0.25 -0.046875,0.390625 -0.078125,0.578125 L 3.671875,1.40625 C 3.625,1.5625 3.625,1.625 3.625,1.671875 c 0,0.3125 0.265625,0.4375 0.46875,0.4375 0.109375,0 0.515625,-0.015625 0.671875,-0.609375 z m 0,0"
               id="id-85d97b0c-71d7-4c86-866b-ca9d483c90df" />
          </g>
        </g>
      </g>
    </g>
    <path
       style="fill:none;stroke:#000000;stroke-width:0.3;stroke-linecap:butt;stroke-linejoin:miter;stroke-opacity:1;stroke-miterlimit:4;stroke-dasharray:none"
       d="m 78.485996,60.620811 10.3339,7.090908"
       id="path1857" />
    <path
       style="fill:none;stroke:#000000;stroke-width:0.3;stroke-linecap:butt;stroke-linejoin:miter;stroke-opacity:1;stroke-miterlimit:4;stroke-dasharray:none"
       d="M 82.943087,54.117145 103.23931,68.04399"
       id="path1857-6" />
    <path
       style="fill:none;stroke:#000000;stroke-width:0.3;stroke-linecap:butt;stroke-linejoin:miter;stroke-opacity:1;stroke-miterlimit:4;stroke-dasharray:none"
       d="M 88.043395,47.488087 115.56486,66.372742"
       id="path1857-7" />
    <path
       style="fill:none;stroke:#000000;stroke-width:0.3;stroke-linecap:butt;stroke-linejoin:miter;stroke-opacity:1;stroke-miterlimit:4;stroke-dasharray:none"
       d="M 97.442158,34.853035 125.57262,54.155574"
       id="path1857-5" />
    <path
       style="fill:none;stroke:#000000;stroke-width:0.3;stroke-linecap:butt;stroke-linejoin:miter;stroke-opacity:1;stroke-miterlimit:4;stroke-dasharray:none"
       d="m 112.88505,54.749705 7.70263,5.285383"
       id="path1857-56" />
    <path
       style="fill:none;stroke:#000000;stroke-width:0.3;stroke-linecap:butt;stroke-linejoin:miter;stroke-miterlimit:4;stroke-dasharray:none;stroke-opacity:1"
       d="m 91.613509,41.153958 7.860893,5.39398"
       id="path1857-2" />
    <path
       style="fill:none;stroke:#000000;stroke-width:0.3;stroke-linecap:butt;stroke-linejoin:miter;stroke-miterlimit:4;stroke-dasharray:none;stroke-opacity:1"
       d="m 109.04632,33.145545 20.50454,14.069783"
       id="path1857-9" />
    <path
       style="fill:none;stroke:#000000;stroke-width:0.3;stroke-linecap:butt;stroke-linejoin:miter;stroke-opacity:1;stroke-miterlimit:4;stroke-dasharray:none"
       d="m 122.24582,32.908238 11.5104,7.898193"
       id="path1857-1" />
  </g>
</svg>
