<?xml version="1.0" encoding="UTF-8" standalone="no"?>
<!-- Created with Inkscape (http://www.inkscape.org/) -->

<svg
   width="210mm"
   height="297mm"
   viewBox="0 0 210 297"
   version="1.1"
   id="svg5"
   inkscape:version="1.2 (dc2aedaf03, 2022-05-15)"
   sodipodi:docname="translação.svg"
   inkscape:export-filename="PNGs\translação.png"
   inkscape:export-xdpi="200"
   inkscape:export-ydpi="200"
   xmlns:inkscape="http://www.inkscape.org/namespaces/inkscape"
   xmlns:sodipodi="http://sodipodi.sourceforge.net/DTD/sodipodi-0.dtd"
   xmlns="http://www.w3.org/2000/svg"
   xmlns:svg="http://www.w3.org/2000/svg"
   xmlns:ns1="http://www.iki.fi/pav/software/textext/">
  <sodipodi:namedview
     id="namedview7"
     pagecolor="#ffffff"
     bordercolor="#000000"
     borderopacity="0.25"
     inkscape:showpageshadow="2"
     inkscape:pageopacity="0.0"
     inkscape:pagecheckerboard="0"
     inkscape:deskcolor="#d1d1d1"
     inkscape:document-units="mm"
     showgrid="false"
     inkscape:zoom="1.044421"
     inkscape:cx="157.50354"
     inkscape:cy="340.85873"
     inkscape:window-width="2560"
     inkscape:window-height="1057"
     inkscape:window-x="-8"
     inkscape:window-y="-8"
     inkscape:window-maximized="1"
     inkscape:current-layer="layer1" />
  <defs
     id="defs2">
    <marker
       style="overflow:visible"
       id="TriangleStart"
       refX="0"
       refY="0"
       orient="auto-start-reverse"
       inkscape:stockid="TriangleStart"
       markerWidth="5.3244081"
       markerHeight="6.155385"
       viewBox="0 0 5.3244081 6.1553851"
       inkscape:isstock="true"
       inkscape:collect="always"
       preserveAspectRatio="xMidYMid">
      <path
         transform="scale(0.5)"
         style="fill:context-stroke;fill-rule:evenodd;stroke:context-stroke;stroke-width:1pt"
         d="M 5.77,0 -2.88,5 V -5 Z"
         id="path135" />
    </marker>
  </defs>
  <g
     inkscape:label="Camada 1"
     inkscape:groupmode="layer"
     id="layer1">
    <path
       style="fill:#000000;stroke-width:0.468876"
       d="M 56.161749,144.85226 179.96514,88.029668"
       id="path63"
       inkscape:export-filename="PNGs\translação.png"
       inkscape:export-xdpi="96"
       inkscape:export-ydpi="96" />
    <path
       style="fill:#000000;stroke:#000000;stroke-width:1.91943;stroke-dasharray:none;stroke-opacity:1;marker-end:url(#TriangleStart)"
       d="M 22.391332,173.96537 167.38396,42.506147"
       id="path65" />
    <circle
       style="fill:#000000;stroke:#000000;stroke-width:1.27507;stroke-dasharray:none;stroke-opacity:1"
       id="path1778"
       cx="-41.680241"
       cy="170.94893"
       r="2.5378211"
       transform="rotate(-20.780226)" />
    <circle
       style="fill:#000000;stroke:#000000;stroke-width:1.27507;stroke-dasharray:none;stroke-opacity:1"
       id="path1778-3"
       cx="148.71249"
       cy="95.766914"
       r="2.5378211"
       inkscape:export-filename="translação.png"
       inkscape:export-xdpi="96"
       inkscape:export-ydpi="96"
       transform="rotate(-20.780226)" />
    <g
       transform="matrix(1.5728964,0,0,1.5728964,151.99619,15.892425)"
       ns1:version="1.8.1"
       ns1:texconverter="pdflatex"
       ns1:pdfconverter="inkscape"
       ns1:text="$T_{\\boldsymbol{\\xi}} \\left( \\mathbf{x}_- \\right)$"
       ns1:preamble="C:\Users\marco\AppData\Roaming\inkscape\extensions\textext\default_packages.tex"
       ns1:scale="2.0"
       ns1:alignment="middle center"
       ns1:stroke-to-path="0"
       ns1:inkscapeversion="1.2.1"
       ns1:jacobian_sqrt="0.705556"
       id="g1466">
      <defs
         id="id-73d3c070-772b-42c2-a87d-8df3e6c7d145">
        <g
           id="id-6e21a497-2bc5-4ab4-a681-f67b51197f80">
          <g
             id="id-e2d295fc-3d89-49fc-9736-8ea1456fb8eb" />
          <g
             id="id-3f1259c2-9a54-48d6-a5fb-24843fb686e0">
            <path
               d="m 4.25,-6.046875 c 0.078125,-0.28125 0.109375,-0.34375 0.234375,-0.375 0.09375,-0.015625 0.421875,-0.015625 0.625,-0.015625 1.015625,0 1.453125,0.03125 1.453125,0.8125 0,0.15625 -0.03125,0.546875 -0.078125,0.796875 0,0.046875 -0.03125,0.15625 -0.03125,0.1875 0,0.0625 0.03125,0.140625 0.125,0.140625 0.109375,0 0.125,-0.078125 0.15625,-0.234375 L 7,-6.46875 C 7.015625,-6.515625 7.015625,-6.609375 7.015625,-6.640625 7.015625,-6.75 6.921875,-6.75 6.75,-6.75 H 1.21875 c -0.234375,0 -0.25,0.015625 -0.328125,0.203125 l -0.59375,1.75 c 0,0.015625 -0.0625,0.15625 -0.0625,0.1875 0,0.046875 0.0625,0.109375 0.125,0.109375 0.09375,0 0.109375,-0.0625 0.171875,-0.21875 C 1.0625,-6.265625 1.328125,-6.4375 2.796875,-6.4375 H 3.1875 c 0.28125,0 0.28125,0.03125 0.28125,0.125 0,0.046875 -0.03125,0.171875 -0.046875,0.203125 L 2.09375,-0.78125 C 2,-0.421875 1.96875,-0.3125 0.90625,-0.3125 c -0.359375,0 -0.421875,0 -0.421875,0.1875 C 0.484375,0 0.59375,0 0.65625,0 c 0.265625,0 0.546875,-0.015625 0.8125,-0.015625 0.28125,0 0.578125,-0.015625 0.859375,-0.015625 0.28125,0 0.546875,0.015625 0.828125,0.015625 C 3.4375,-0.015625 3.734375,0 4.015625,0 c 0.09375,0 0.21875,0 0.21875,-0.203125 0,-0.109375 -0.078125,-0.109375 -0.34375,-0.109375 -0.234375,0 -0.375,0 -0.625,-0.015625 -0.296875,-0.03125 -0.375,-0.0625 -0.375,-0.21875 0,-0.015625 0,-0.0625 0.046875,-0.203125 z m 0,0"
               id="id-f3dbb3bf-3bef-459c-8d63-33b92cf87e48" />
          </g>
          <g
             id="id-5b1c4f17-6667-4b4e-adf8-5bfd650e911c" />
          <g
             id="id-ea244ac4-dc1f-48c6-9e0f-2f507c9f0c95">
            <path
               d="M 2.765625,0.828125 C 2.8125,0.859375 2.84375,0.890625 2.84375,0.9375 c 0,0.15625 -0.140625,0.15625 -0.1875,0.15625 C 2.390625,1.09375 2.125,1.03125 1.890625,0.9375 1.84375,0.921875 1.8125,0.90625 1.78125,0.90625 1.6875,0.90625 1.609375,1 1.609375,1.078125 c 0,0.125 0.171875,0.171875 0.4375,0.25 0.171875,0.046875 0.421875,0.078125 0.625,0.078125 0.5625,0 0.875,-0.5 0.875,-0.84375 C 3.546875,0.234375 3.359375,0.078125 3.125,0 3.078125,-0.015625 2.328125,-0.25 2.203125,-0.28125 L 1.6875,-0.4375 c -0.390625,-0.125 -0.78125,-0.25 -0.78125,-0.53125 0,-0.390625 0.515625,-0.84375 0.609375,-0.84375 L 1.5625,-1.796875 c 0.359375,0.125 0.703125,0.125 0.859375,0.125 0.265625,0 0.875,0 0.875,-0.421875 0,-0.328125 -0.46875,-0.328125 -0.75,-0.328125 -0.140625,0 -0.421875,0 -0.75,0.109375 -0.09375,-0.15625 -0.09375,-0.359375 -0.09375,-0.375 0,-0.328125 0.1875,-0.796875 0.640625,-1.078125 0.171875,0.234375 0.390625,0.234375 0.578125,0.234375 0.21875,0 0.84375,0 0.84375,-0.421875 0,-0.328125 -0.46875,-0.328125 -0.75,-0.328125 -0.15625,0 -0.234375,0 -0.421875,0.015625 0.015625,-0.109375 0.03125,-0.25 0.0625,-0.375 0.015625,-0.046875 0.015625,-0.078125 0.015625,-0.09375 0,-0.078125 -0.0625,-0.1875 -0.203125,-0.1875 -0.25,0 -0.28125,0.328125 -0.28125,0.59375 0,0.078125 0,0.09375 0,0.140625 -1.203125,0.34375 -1.40625,1.109375 -1.40625,1.453125 0,0.328125 0.15625,0.546875 0.359375,0.71875 C 0.421875,-1.53125 0.25,-0.921875 0.25,-0.640625 0.25,-0.296875 0.453125,-0.109375 0.546875,0 0.78125,0.21875 1.109375,0.328125 1.53125,0.453125 Z m 0.15625,-4.671875 c -0.03125,0 -0.234375,0 -0.234375,-0.078125 0,-0.015625 0.109375,-0.03125 0.3125,-0.03125 0,0 0.296875,0 0.296875,0.03125 0,0.015625 -0.078125,0.078125 -0.375,0.078125 z m -0.84375,1.796875 C 2.125,-2.0625 2.09375,-2.0625 2.1875,-2.0625 c 0.140625,-0.03125 0.25,-0.03125 0.328125,-0.03125 0.203125,0 0.21875,0 0.328125,0.03125 -0.0625,0.046875 -0.109375,0.078125 -0.390625,0.078125 -0.09375,0 -0.234375,0 -0.375,-0.0625 z m 0,0"
               id="id-8aff4263-32aa-4e48-99fe-07a413146d0a" />
          </g>
          <g
             id="id-f314843c-3a1d-415b-9a9f-fc1f9facda3f" />
          <g
             id="id-cae6aacb-080b-4ce0-9b83-84b721ba0a56">
            <path
               d="m 3.296875,2.390625 c 0,-0.03125 0,-0.046875 -0.171875,-0.21875 C 1.890625,0.921875 1.5625,-0.96875 1.5625,-2.5 c 0,-1.734375 0.375,-3.46875 1.609375,-4.703125 0.125,-0.125 0.125,-0.140625 0.125,-0.171875 0,-0.078125 -0.03125,-0.109375 -0.09375,-0.109375 -0.109375,0 -1,0.6875 -1.59375,1.953125 -0.5,1.09375 -0.625,2.203125 -0.625,3.03125 0,0.78125 0.109375,1.984375 0.65625,3.125 C 2.25,1.84375 3.09375,2.5 3.203125,2.5 c 0.0625,0 0.09375,-0.03125 0.09375,-0.109375 z m 0,0"
               id="id-67308839-90b7-43b8-a7cb-783c053a169d" />
          </g>
          <g
             id="id-89fe959e-dda6-4879-b4e1-41c50676455c">
            <path
               d="m 2.875,-2.5 c 0,-0.765625 -0.109375,-1.96875 -0.65625,-3.109375 -0.59375,-1.21875 -1.453125,-1.875 -1.546875,-1.875 -0.0625,0 -0.109375,0.046875 -0.109375,0.109375 0,0.03125 0,0.046875 0.1875,0.234375 0.984375,0.984375 1.546875,2.5625 1.546875,4.640625 0,1.71875 -0.359375,3.46875 -1.59375,4.71875 C 0.5625,2.34375 0.5625,2.359375 0.5625,2.390625 0.5625,2.453125 0.609375,2.5 0.671875,2.5 0.765625,2.5 1.671875,1.8125 2.25,0.546875 2.765625,-0.546875 2.875,-1.65625 2.875,-2.5 Z m 0,0"
               id="id-6a1f8d05-38a2-4a95-9f90-b3547c735232" />
          </g>
          <g
             id="id-b7a4f87b-3c83-4ea2-885d-0f2dc5b66591" />
          <g
             id="id-6c4dd1fc-3142-4c96-b63c-940c4fe531ba">
            <path
               d="M 3.453125,-2.453125 4.609375,-3.75 C 4.75,-3.890625 4.8125,-3.953125 5.625,-3.953125 v -0.46875 c -0.34375,0.015625 -0.859375,0.03125 -0.90625,0.03125 -0.25,0 -0.75,-0.03125 -1.03125,-0.03125 v 0.46875 c 0.140625,0 0.265625,0.015625 0.375,0.078125 -0.03125,0.0625 -0.03125,0.09375 -0.078125,0.125 L 3.15625,-2.8125 2.171875,-3.953125 h 0.40625 v -0.46875 c -0.265625,0 -0.890625,0.03125 -1.21875,0.03125 -0.3125,0 -0.765625,-0.03125 -1.09375,-0.03125 v 0.46875 h 0.71875 L 2.53125,-2.125 1.21875,-0.65625 c -0.15625,0.1875 -0.515625,0.1875 -1,0.1875 V 0 c 0.34375,-0.015625 0.875,-0.03125 0.921875,-0.03125 0.25,0 0.828125,0.015625 1.015625,0.03125 v -0.46875 c -0.171875,0 -0.359375,-0.046875 -0.359375,-0.109375 0,-0.015625 0,-0.015625 0.0625,-0.09375 l 0.96875,-1.09375 1.09375,1.296875 H 3.53125 V 0 c 0.265625,-0.015625 0.875,-0.03125 1.203125,-0.03125 0.3125,0 0.765625,0.015625 1.09375,0.03125 V -0.46875 H 5.125 Z m 0,0"
               id="id-a2dba2a1-4162-4933-8df4-c8912509b9cb" />
          </g>
          <g
             id="id-63c23bf1-b660-401f-8425-8e6b0b7ebe62" />
          <g
             id="id-79bbdfd0-dfd5-47d9-9b27-e945f75c708d">
            <path
               d="m 5.1875,-1.578125 c 0.109375,0 0.28125,0 0.28125,-0.15625 0,-0.1875 -0.171875,-0.1875 -0.28125,-0.1875 H 1.03125 c -0.109375,0 -0.28125,0 -0.28125,0.171875 0,0.171875 0.15625,0.171875 0.28125,0.171875 z m 0,0"
               id="id-a495ab77-825a-40e8-89cb-24bdc12de941" />
          </g>
        </g>
      </defs>
      <g
         fill="#000000"
         fill-opacity="1"
         id="id-c17db84a-90b1-4e3a-808b-0be8c5a13125"
         transform="translate(-148.946,-127.281)">
        <g
           transform="translate(148.712,134.765)"
           id="g2428">
          <path
             d="m 4.25,-6.046875 c 0.078125,-0.28125 0.109375,-0.34375 0.234375,-0.375 0.09375,-0.015625 0.421875,-0.015625 0.625,-0.015625 1.015625,0 1.453125,0.03125 1.453125,0.8125 0,0.15625 -0.03125,0.546875 -0.078125,0.796875 0,0.046875 -0.03125,0.15625 -0.03125,0.1875 0,0.0625 0.03125,0.140625 0.125,0.140625 0.109375,0 0.125,-0.078125 0.15625,-0.234375 L 7,-6.46875 C 7.015625,-6.515625 7.015625,-6.609375 7.015625,-6.640625 7.015625,-6.75 6.921875,-6.75 6.75,-6.75 H 1.21875 c -0.234375,0 -0.25,0.015625 -0.328125,0.203125 l -0.59375,1.75 c 0,0.015625 -0.0625,0.15625 -0.0625,0.1875 0,0.046875 0.0625,0.109375 0.125,0.109375 0.09375,0 0.109375,-0.0625 0.171875,-0.21875 C 1.0625,-6.265625 1.328125,-6.4375 2.796875,-6.4375 H 3.1875 c 0.28125,0 0.28125,0.03125 0.28125,0.125 0,0.046875 -0.03125,0.171875 -0.046875,0.203125 L 2.09375,-0.78125 C 2,-0.421875 1.96875,-0.3125 0.90625,-0.3125 c -0.359375,0 -0.421875,0 -0.421875,0.1875 C 0.484375,0 0.59375,0 0.65625,0 c 0.265625,0 0.546875,-0.015625 0.8125,-0.015625 0.28125,0 0.578125,-0.015625 0.859375,-0.015625 0.28125,0 0.546875,0.015625 0.828125,0.015625 C 3.4375,-0.015625 3.734375,0 4.015625,0 c 0.09375,0 0.21875,0 0.21875,-0.203125 0,-0.109375 -0.078125,-0.109375 -0.34375,-0.109375 -0.234375,0 -0.375,0 -0.625,-0.015625 -0.296875,-0.03125 -0.375,-0.0625 -0.375,-0.21875 0,-0.015625 0,-0.0625 0.046875,-0.203125 z m 0,0"
             id="id-62b83e70-fba7-4d70-b88e-f11ed17c4db2" />
        </g>
      </g>
      <g
         fill="#000000"
         fill-opacity="1"
         id="id-1a78958c-f031-4ba4-a721-237315c67839"
         transform="translate(-148.946,-127.281)">
        <g
           transform="translate(154.534,136.259)"
           id="g2432">
          <path
             d="M 2.765625,0.828125 C 2.8125,0.859375 2.84375,0.890625 2.84375,0.9375 c 0,0.15625 -0.140625,0.15625 -0.1875,0.15625 C 2.390625,1.09375 2.125,1.03125 1.890625,0.9375 1.84375,0.921875 1.8125,0.90625 1.78125,0.90625 1.6875,0.90625 1.609375,1 1.609375,1.078125 c 0,0.125 0.171875,0.171875 0.4375,0.25 0.171875,0.046875 0.421875,0.078125 0.625,0.078125 0.5625,0 0.875,-0.5 0.875,-0.84375 C 3.546875,0.234375 3.359375,0.078125 3.125,0 3.078125,-0.015625 2.328125,-0.25 2.203125,-0.28125 L 1.6875,-0.4375 c -0.390625,-0.125 -0.78125,-0.25 -0.78125,-0.53125 0,-0.390625 0.515625,-0.84375 0.609375,-0.84375 L 1.5625,-1.796875 c 0.359375,0.125 0.703125,0.125 0.859375,0.125 0.265625,0 0.875,0 0.875,-0.421875 0,-0.328125 -0.46875,-0.328125 -0.75,-0.328125 -0.140625,0 -0.421875,0 -0.75,0.109375 -0.09375,-0.15625 -0.09375,-0.359375 -0.09375,-0.375 0,-0.328125 0.1875,-0.796875 0.640625,-1.078125 0.171875,0.234375 0.390625,0.234375 0.578125,0.234375 0.21875,0 0.84375,0 0.84375,-0.421875 0,-0.328125 -0.46875,-0.328125 -0.75,-0.328125 -0.15625,0 -0.234375,0 -0.421875,0.015625 0.015625,-0.109375 0.03125,-0.25 0.0625,-0.375 0.015625,-0.046875 0.015625,-0.078125 0.015625,-0.09375 0,-0.078125 -0.0625,-0.1875 -0.203125,-0.1875 -0.25,0 -0.28125,0.328125 -0.28125,0.59375 0,0.078125 0,0.09375 0,0.140625 -1.203125,0.34375 -1.40625,1.109375 -1.40625,1.453125 0,0.328125 0.15625,0.546875 0.359375,0.71875 C 0.421875,-1.53125 0.25,-0.921875 0.25,-0.640625 0.25,-0.296875 0.453125,-0.109375 0.546875,0 0.78125,0.21875 1.109375,0.328125 1.53125,0.453125 Z m 0.15625,-4.671875 c -0.03125,0 -0.234375,0 -0.234375,-0.078125 0,-0.015625 0.109375,-0.03125 0.3125,-0.03125 0,0 0.296875,0 0.296875,0.03125 0,0.015625 -0.078125,0.078125 -0.375,0.078125 z m -0.84375,1.796875 C 2.125,-2.0625 2.09375,-2.0625 2.1875,-2.0625 c 0.140625,-0.03125 0.25,-0.03125 0.328125,-0.03125 0.203125,0 0.21875,0 0.328125,0.03125 -0.0625,0.046875 -0.109375,0.078125 -0.390625,0.078125 -0.09375,0 -0.234375,0 -0.375,-0.0625 z m 0,0"
             id="id-c29677ed-aff2-4784-a741-e6ba2a65cbd2" />
        </g>
      </g>
      <g
         fill="#000000"
         fill-opacity="1"
         id="id-5d6c3991-b084-4594-bff8-3eef901791ba"
         transform="translate(-148.946,-127.281)">
        <g
           transform="translate(160.883,134.765)"
           id="g2436">
          <path
             d="m 3.296875,2.390625 c 0,-0.03125 0,-0.046875 -0.171875,-0.21875 C 1.890625,0.921875 1.5625,-0.96875 1.5625,-2.5 c 0,-1.734375 0.375,-3.46875 1.609375,-4.703125 0.125,-0.125 0.125,-0.140625 0.125,-0.171875 0,-0.078125 -0.03125,-0.109375 -0.09375,-0.109375 -0.109375,0 -1,0.6875 -1.59375,1.953125 -0.5,1.09375 -0.625,2.203125 -0.625,3.03125 0,0.78125 0.109375,1.984375 0.65625,3.125 C 2.25,1.84375 3.09375,2.5 3.203125,2.5 c 0.0625,0 0.09375,-0.03125 0.09375,-0.109375 z m 0,0"
             id="id-86ac1dd8-f647-4437-a0a0-8eb51bd89f18" />
        </g>
      </g>
      <g
         fill="#000000"
         fill-opacity="1"
         id="id-2c0d5f79-26bc-416a-a956-57074f3dca26"
         transform="translate(-148.946,-127.281)">
        <g
           transform="translate(164.757,134.765)"
           id="g2440">
          <path
             d="M 3.453125,-2.453125 4.609375,-3.75 C 4.75,-3.890625 4.8125,-3.953125 5.625,-3.953125 v -0.46875 c -0.34375,0.015625 -0.859375,0.03125 -0.90625,0.03125 -0.25,0 -0.75,-0.03125 -1.03125,-0.03125 v 0.46875 c 0.140625,0 0.265625,0.015625 0.375,0.078125 -0.03125,0.0625 -0.03125,0.09375 -0.078125,0.125 L 3.15625,-2.8125 2.171875,-3.953125 h 0.40625 v -0.46875 c -0.265625,0 -0.890625,0.03125 -1.21875,0.03125 -0.3125,0 -0.765625,-0.03125 -1.09375,-0.03125 v 0.46875 h 0.71875 L 2.53125,-2.125 1.21875,-0.65625 c -0.15625,0.1875 -0.515625,0.1875 -1,0.1875 V 0 c 0.34375,-0.015625 0.875,-0.03125 0.921875,-0.03125 0.25,0 0.828125,0.015625 1.015625,0.03125 v -0.46875 c -0.171875,0 -0.359375,-0.046875 -0.359375,-0.109375 0,-0.015625 0,-0.015625 0.0625,-0.09375 l 0.96875,-1.09375 1.09375,1.296875 H 3.53125 V 0 c 0.265625,-0.015625 0.875,-0.03125 1.203125,-0.03125 0.3125,0 0.765625,0.015625 1.09375,0.03125 V -0.46875 H 5.125 Z m 0,0"
             id="id-2434f60a-b845-45f4-b1db-96a8e5cfa377" />
        </g>
      </g>
      <g
         fill="#000000"
         fill-opacity="1"
         id="id-ec5aac64-2945-45f1-b514-51f98fc57ab7"
         transform="translate(-148.946,-127.281)">
        <g
           transform="translate(170.804,136.259)"
           id="g2444">
          <path
             d="m 5.1875,-1.578125 c 0.109375,0 0.28125,0 0.28125,-0.15625 0,-0.1875 -0.171875,-0.1875 -0.28125,-0.1875 H 1.03125 c -0.109375,0 -0.28125,0 -0.28125,0.171875 0,0.171875 0.15625,0.171875 0.28125,0.171875 z m 0,0"
             id="id-ac224b85-fb64-4e33-b1f8-4751f082ae99" />
        </g>
      </g>
      <g
         fill="#000000"
         fill-opacity="1"
         id="id-5488e58e-40ec-4236-988d-0accb06c5557"
         transform="translate(-148.946,-127.281)">
        <g
           transform="translate(177.529,134.765)"
           id="g2448">
          <path
             d="m 2.875,-2.5 c 0,-0.765625 -0.109375,-1.96875 -0.65625,-3.109375 -0.59375,-1.21875 -1.453125,-1.875 -1.546875,-1.875 -0.0625,0 -0.109375,0.046875 -0.109375,0.109375 0,0.03125 0,0.046875 0.1875,0.234375 0.984375,0.984375 1.546875,2.5625 1.546875,4.640625 0,1.71875 -0.359375,3.46875 -1.59375,4.71875 C 0.5625,2.34375 0.5625,2.359375 0.5625,2.390625 0.5625,2.453125 0.609375,2.5 0.671875,2.5 0.765625,2.5 1.671875,1.8125 2.25,0.546875 2.765625,-0.546875 2.875,-1.65625 2.875,-2.5 Z m 0,0"
             id="id-f0fe2b6c-7ba6-4449-9f8a-e6f4361a402a" />
        </g>
      </g>
    </g>
    <g
       transform="matrix(1.3573774,0,0,1.3573774,187.98204,-18.527806)"
       ns1:version="1.8.1"
       ns1:texconverter="pdflatex"
       ns1:pdfconverter="inkscape"
       ns1:text="$\\boldsymbol{\\xi}$"
       ns1:preamble="C:\Users\marco\AppData\Roaming\inkscape\extensions\textext\default_packages.tex"
       ns1:scale="2.0"
       ns1:alignment="middle center"
       ns1:stroke-to-path="0"
       ns1:inkscapeversion="1.2.1"
       ns1:jacobian_sqrt="0.705556"
       id="g3339">
      <defs
         id="id-39c9cd21-8352-42e1-a557-eef9119e9f0d">
        <g
           id="id-6ab15872-5969-4122-8b3c-ada9c8415253">
          <g
             id="id-88621d03-e257-4b13-b0d3-8699ff31aaa9" />
          <g
             id="id-6906600d-0b9e-4215-a734-b3b75d285f10">
            <path
               d="m 2.328125,-3.328125 c -0.0625,-0.15625 -0.09375,-0.34375 -0.09375,-0.515625 0,-0.515625 0.296875,-1.28125 0.84375,-1.65625 0.21875,0.296875 0.5,0.296875 0.734375,0.296875 0.28125,0 1.078125,0 1.078125,-0.53125 0,-0.421875 -0.53125,-0.421875 -0.953125,-0.421875 -0.09375,0 -0.34375,0 -0.625,0.03125 0,-0.3125 0.0625,-0.53125 0.0625,-0.546875 0.03125,-0.09375 0.03125,-0.09375 0.03125,-0.125 0,-0.203125 -0.203125,-0.21875 -0.21875,-0.21875 -0.328125,0 -0.328125,0.59375 -0.328125,0.78125 0,0.0625 0,0.15625 0.015625,0.21875 C 1.625,-5.640625 1,-4.75 1,-3.984375 c 0,0.46875 0.265625,0.84375 0.53125,1.03125 C 0.484375,-2.25 0.234375,-1.3125 0.234375,-0.9375 c 0,0.8125 0.734375,1.21875 1.328125,1.421875 L 2.703125,0.875 c 0.25,0.078125 0.671875,0.234375 0.75,0.265625 0.078125,0.046875 0.125,0.140625 0.125,0.21875 0,0.03125 -0.015625,0.296875 -0.3125,0.296875 -0.0625,0 -0.546875,-0.015625 -1,-0.25 C 2.203125,1.359375 2.1875,1.359375 2.140625,1.359375 2,1.359375 1.9375,1.46875 1.9375,1.53125 c 0,0.25 0.84375,0.484375 1.34375,0.484375 0.78125,0 1.1875,-0.71875 1.1875,-1.1875 0,-0.421875 -0.296875,-0.671875 -0.484375,-0.75 C 3.84375,0.03125 2.90625,-0.296875 2.65625,-0.375 L 2,-0.59375 c -0.34375,-0.125 -0.921875,-0.328125 -0.921875,-0.796875 0,-0.59375 0.75,-1.296875 0.875,-1.296875 0.015625,0 0.015625,0 0.078125,0.015625 C 2.515625,-2.5 2.828125,-2.5 3.09375,-2.5 c 0.3125,0 1.140625,0 1.140625,-0.546875 0,-0.40625 -0.625,-0.40625 -0.953125,-0.40625 -0.1875,0 -0.5,0 -0.953125,0.125 z M 3.40625,-5.71875 c 0.203125,-0.078125 0.375,-0.078125 0.515625,-0.078125 0.3125,0 0.34375,0 0.5,0.0625 0,0.015625 0,0.015625 -0.03125,0.0625 C 4.296875,-5.5625 3.921875,-5.5625 3.8125,-5.5625 c -0.15625,0 -0.3125,0 -0.40625,-0.15625 z M 2.578125,-3 c 0.265625,-0.09375 0.5,-0.09375 0.65625,-0.09375 0.328125,0 0.359375,0 0.515625,0.0625 -0.015625,0.015625 -0.015625,0.046875 -0.03125,0.0625 C 3.625,-2.859375 3.25,-2.859375 3.125,-2.859375 c -0.15625,0 -0.375,0 -0.546875,-0.140625 z m 0,0"
               id="id-c5a68223-7ad3-4da6-9705-fefe74d77c62" />
          </g>
        </g>
      </defs>
      <g
         fill="#000000"
         fill-opacity="1"
         id="id-df976727-28e5-4935-a51d-2f9f67c742f8"
         transform="matrix(1.3856222,0,0,1.3856222,-222.91202,-216.33044)">
        <g
           transform="translate(148.712,134.765)"
           id="g3336">
          <path
             d="m -1.1159122,63.7158 c -0.0625,-0.15625 -0.09375,-0.34375 -0.09375,-0.515625 0,-0.515625 0.29687498,-1.28125 0.84374998,-1.65625 0.21875,0.296875 0.5,0.296875 0.734375,0.296875 0.28125,0 1.07812502,0 1.07812502,-0.53125 0,-0.421875 -0.53125002,-0.421875 -0.95312502,-0.421875 -0.09375,0 -0.34375,0 -0.625,0.03125 0,-0.3125 0.0625,-0.53125 0.0625,-0.546875 0.03125,-0.09375 0.03125,-0.09375 0.03125,-0.125 0,-0.203125 -0.203125,-0.21875 -0.21875,-0.21875 -0.328125,0 -0.328125,0.59375 -0.328125,0.78125 0,0.0625 0,0.15625 0.015625,0.21875 -1.24999998,0.375 -1.87499998,1.265625 -1.87499998,2.03125 0,0.46875 0.265625,0.84375 0.53125,1.03125 -1.046875,0.703125 -1.296875,1.640625 -1.296875,2.015625 0,0.8125 0.734375,1.21875 1.328125,1.421875 l 1.14062498,0.390625 c 0.25,0.07813 0.671875,0.234375 0.75,0.265625 0.078125,0.04687 0.125,0.140625 0.125,0.21875 0,0.03125 -0.015625,0.296875 -0.3125,0.296875 -0.0625,0 -0.546875,-0.01563 -0.99999998,-0.25 -0.0625,-0.04687 -0.078125,-0.04687 -0.125,-0.04687 -0.140625,0 -0.203125,0.109375 -0.203125,0.171875 0,0.25 0.84374998,0.484375 1.34374998,0.484375 0.78125,0 1.18750002,-0.71875 1.18750002,-1.1875 0,-0.421875 -0.29687502,-0.671875 -0.48437502,-0.75 -0.140625,-0.04687 -1.078125,-0.375 -1.328125,-0.453125 L -1.4440372,66.45018 c -0.34375,-0.125 -0.921875,-0.328125 -0.921875,-0.796875 0,-0.59375 0.75,-1.296875 0.875,-1.296875 0.015625,0 0.015625,0 0.078125,0.01563 0.48437498,0.171875 0.79687498,0.171875 1.06249998,0.171875 0.3125,0 1.140625,0 1.140625,-0.546875 0,-0.40625 -0.625,-0.40625 -0.953125,-0.40625 -0.1875,0 -0.5,0 -0.95312498,0.125 z m 1.07812498,-2.390625 c 0.203125,-0.07813 0.375,-0.07813 0.515625,-0.07813 0.3125,0 0.34375,0 0.5,0.0625 0,0.01563 0,0.01563 -0.03125,0.0625 -0.09375,0.109375 -0.46875,0.109375 -0.578125,0.109375 -0.15625,0 -0.3125,0 -0.40625,-0.15625 z m -0.828125,2.71875 c 0.265625,-0.09375 0.5,-0.09375 0.65625,-0.09375 0.328125,0 0.359375,0 0.515625,0.0625 -0.015625,0.01563 -0.015625,0.04687 -0.03125,0.0625 -0.09375,0.109375 -0.46875,0.109375 -0.59375,0.109375 -0.15625,0 -0.375,0 -0.546875,-0.140625 z m 0,0"
             id="id-8670b74d-a4c4-480f-8f5a-6bf98307c7fd" />
        </g>
      </g>
      <g
         transform="matrix(1.3651359,0,0,1.3651359,-143.58637,139.39493)"
         ns1:version="1.8.1"
         ns1:texconverter="pdflatex"
         ns1:pdfconverter="inkscape"
         ns1:text="$\\mathbf{x}_-$"
         ns1:preamble="C:\Users\marco\AppData\Roaming\inkscape\extensions\textext\default_packages.tex"
         ns1:scale="2.0"
         ns1:alignment="middle center"
         ns1:stroke-to-path="0"
         ns1:inkscapeversion="1.2.1"
         ns1:jacobian_sqrt="1.0"
         id="g4223">
        <defs
           id="id-14e291bf-66d8-4f27-965f-58da8111e082">
          <g
             id="id-0624c9ac-9212-46dd-aba9-6da6a0d9a577">
            <g
               id="id-451aad2f-9e87-49dc-8144-1f4bbb5c3ca6" />
            <g
               id="id-3b02f6ea-7b45-41d4-88f9-e593b9aaadc3">
              <path
                 d="M 3.453125,-2.453125 4.609375,-3.75 C 4.75,-3.890625 4.8125,-3.953125 5.625,-3.953125 v -0.46875 c -0.34375,0.015625 -0.859375,0.03125 -0.90625,0.03125 -0.25,0 -0.75,-0.03125 -1.03125,-0.03125 v 0.46875 c 0.140625,0 0.265625,0.015625 0.375,0.078125 -0.03125,0.0625 -0.03125,0.09375 -0.078125,0.125 L 3.15625,-2.8125 2.171875,-3.953125 h 0.40625 v -0.46875 c -0.265625,0 -0.890625,0.03125 -1.21875,0.03125 -0.3125,0 -0.765625,-0.03125 -1.09375,-0.03125 v 0.46875 h 0.71875 L 2.53125,-2.125 1.21875,-0.65625 c -0.15625,0.1875 -0.515625,0.1875 -1,0.1875 V 0 c 0.34375,-0.015625 0.875,-0.03125 0.921875,-0.03125 0.25,0 0.828125,0.015625 1.015625,0.03125 v -0.46875 c -0.171875,0 -0.359375,-0.046875 -0.359375,-0.109375 0,-0.015625 0,-0.015625 0.0625,-0.09375 l 0.96875,-1.09375 1.09375,1.296875 H 3.53125 V 0 c 0.265625,-0.015625 0.875,-0.03125 1.203125,-0.03125 0.3125,0 0.765625,0.015625 1.09375,0.03125 V -0.46875 H 5.125 Z m 0,0"
                 id="id-83494ffd-977c-4f0e-98d7-77a1c38046a4" />
            </g>
            <g
               id="id-f2d9a354-2005-4667-b094-27458715ea4e" />
            <g
               id="id-7c40f7a0-8ff0-4085-b1a0-5a6c1fa9c401">
              <path
                 d="m 5.1875,-1.578125 c 0.109375,0 0.28125,0 0.28125,-0.15625 0,-0.1875 -0.171875,-0.1875 -0.28125,-0.1875 H 1.03125 c -0.109375,0 -0.28125,0 -0.28125,0.171875 0,0.171875 0.15625,0.171875 0.28125,0.171875 z m 0,0"
                 id="id-1ecc1871-a264-4b98-9ca7-646f578dede6" />
            </g>
          </g>
        </defs>
        <g
           fill="#000000"
           fill-opacity="1"
           id="id-bf444abf-c19a-4e08-9009-13462d66bbcd"
           transform="translate(-138.67344,-124.55668)">
          <g
             transform="translate(148.712,134.765)"
             id="g4216">
            <path
               d="M 3.453125,-2.453125 4.609375,-3.75 C 4.75,-3.890625 4.8125,-3.953125 5.625,-3.953125 v -0.46875 c -0.34375,0.015625 -0.859375,0.03125 -0.90625,0.03125 -0.25,0 -0.75,-0.03125 -1.03125,-0.03125 v 0.46875 c 0.140625,0 0.265625,0.015625 0.375,0.078125 -0.03125,0.0625 -0.03125,0.09375 -0.078125,0.125 L 3.15625,-2.8125 2.171875,-3.953125 h 0.40625 v -0.46875 c -0.265625,0 -0.890625,0.03125 -1.21875,0.03125 -0.3125,0 -0.765625,-0.03125 -1.09375,-0.03125 v 0.46875 h 0.71875 L 2.53125,-2.125 1.21875,-0.65625 c -0.15625,0.1875 -0.515625,0.1875 -1,0.1875 V 0 c 0.34375,-0.015625 0.875,-0.03125 0.921875,-0.03125 0.25,0 0.828125,0.015625 1.015625,0.03125 v -0.46875 c -0.171875,0 -0.359375,-0.046875 -0.359375,-0.109375 0,-0.015625 0,-0.015625 0.0625,-0.09375 l 0.96875,-1.09375 1.09375,1.296875 H 3.53125 V 0 c 0.265625,-0.015625 0.875,-0.03125 1.203125,-0.03125 0.3125,0 0.765625,0.015625 1.09375,0.03125 V -0.46875 H 5.125 Z m 0,0"
               id="id-64553b32-b950-4771-a1e1-4543c41fc006" />
          </g>
        </g>
        <g
           fill="#000000"
           fill-opacity="1"
           id="id-6401a1e4-a662-4f95-a8e6-a2819e18d99c"
           transform="translate(-138.67344,-124.55668)">
          <g
             transform="translate(154.759,136.259)"
             id="g4220">
            <path
               d="m 5.1875,-1.578125 c 0.109375,0 0.28125,0 0.28125,-0.15625 0,-0.1875 -0.171875,-0.1875 -0.28125,-0.1875 H 1.03125 c -0.109375,0 -0.28125,0 -0.28125,0.171875 0,0.171875 0.15625,0.171875 0.28125,0.171875 z m 0,0"
               id="id-a430bedb-40f3-4ade-8d57-fe9c3a290de5" />
          </g>
        </g>
      </g>
    </g>
  </g>
</svg>
