<svg xmlns="http://www.w3.org/2000/svg" xmlns:xlink="http://www.w3.org/1999/xlink" width="600" height="400" viewBox="0 0 2400 1600">
<defs>
  <clipPath id="clip620">
    <rect x="0" y="0" width="2400" height="1600"></rect>
  </clipPath>
</defs>
<path clip-path="url(#clip620)" d="M0 1600 L2400 1600 L2400 0 L0 0  Z" fill="#ffffff" fill-rule="evenodd" fill-opacity="1"></path>
<defs>
  <clipPath id="clip621">
    <rect x="480" y="0" width="1681" height="1600"></rect>
  </clipPath>
</defs>
<defs>
  <clipPath id="clip622">
    <rect x="365" y="47" width="1988" height="1329"></rect>
  </clipPath>
</defs>
<path clip-path="url(#clip620)" d="M293.481 1328.42 L2352.76 1328.42 L2352.76 47.2441 L293.481 47.2441  Z" fill="#ffffff" fill-rule="evenodd" fill-opacity="1"></path>
<defs>
  <clipPath id="clip623">
    <rect x="293" y="47" width="2060" height="1282"></rect>
  </clipPath>
</defs>
<polyline clip-path="url(#clip620)" style="stroke:#000000; stroke-linecap:round; stroke-linejoin:round; stroke-width:4; stroke-opacity:1; fill:none" points="293.481,1328.42 2352.76,1328.42 "></polyline>
<polyline clip-path="url(#clip620)" style="stroke:#000000; stroke-linecap:round; stroke-linejoin:round; stroke-width:4; stroke-opacity:1; fill:none" points="293.481,47.2441 2352.76,47.2441 "></polyline>
<polyline clip-path="url(#clip620)" style="stroke:#000000; stroke-linecap:round; stroke-linejoin:round; stroke-width:4; stroke-opacity:1; fill:none" points="293.481,1328.42 293.481,1309.52 "></polyline>
<polyline clip-path="url(#clip620)" style="stroke:#000000; stroke-linecap:round; stroke-linejoin:round; stroke-width:4; stroke-opacity:1; fill:none" points="705.336,1328.42 705.336,1309.52 "></polyline>
<polyline clip-path="url(#clip620)" style="stroke:#000000; stroke-linecap:round; stroke-linejoin:round; stroke-width:4; stroke-opacity:1; fill:none" points="1117.19,1328.42 1117.19,1309.52 "></polyline>
<polyline clip-path="url(#clip620)" style="stroke:#000000; stroke-linecap:round; stroke-linejoin:round; stroke-width:4; stroke-opacity:1; fill:none" points="1529.05,1328.42 1529.05,1309.52 "></polyline>
<polyline clip-path="url(#clip620)" style="stroke:#000000; stroke-linecap:round; stroke-linejoin:round; stroke-width:4; stroke-opacity:1; fill:none" points="1940.9,1328.42 1940.9,1309.52 "></polyline>
<polyline clip-path="url(#clip620)" style="stroke:#000000; stroke-linecap:round; stroke-linejoin:round; stroke-width:4; stroke-opacity:1; fill:none" points="2352.76,1328.42 2352.76,1309.52 "></polyline>
<path clip-path="url(#clip620)" d="M240.415 1394.9 Q240.415 1381.89 243.7 1374.8 Q248.283 1364.25 259.09 1364.25 Q261.382 1364.25 263.759 1364.9 Q266.18 1365.5 269.206 1367.88 Q272.276 1370.26 274.135 1374.15 Q277.68 1381.67 277.68 1394.9 Q277.68 1407.83 274.394 1414.87 Q269.596 1425.16 259.004 1425.16 Q255.027 1425.16 250.963 1423.13 Q246.943 1421.1 244.392 1416.21 Q240.415 1408.91 240.415 1394.9 M247.764 1393.82 Q247.764 1407.18 248.715 1412.49 Q249.796 1418.24 252.736 1420.75 Q255.718 1423.22 259.004 1423.22 Q262.549 1423.22 265.489 1420.58 Q268.472 1417.9 269.379 1412.15 Q270.374 1406.49 270.33 1393.82 Q270.33 1381.5 269.466 1376.57 Q268.299 1370.82 265.186 1368.53 Q262.117 1366.19 259.004 1366.19 Q257.837 1366.19 256.583 1366.54 Q255.373 1366.89 253.6 1367.88 Q251.828 1368.87 250.444 1371.34 Q249.104 1373.8 248.456 1377.52 Q247.764 1382.32 247.764 1393.82 Z" fill="#000000" fill-rule="evenodd" fill-opacity="1"></path><path clip-path="url(#clip620)" d="M290.087 1421.79 Q288.747 1420.36 288.747 1418.5 Q288.747 1416.64 290.087 1415.3 Q291.427 1413.92 293.459 1413.92 Q295.404 1413.92 296.701 1415.22 Q298.041 1416.47 298.041 1418.55 Q298.041 1420.58 296.615 1421.92 Q295.231 1423.22 293.459 1423.22 Q291.427 1423.22 290.087 1421.79 Z" fill="#000000" fill-rule="evenodd" fill-opacity="1"></path><path clip-path="url(#clip620)" d="M309.281 1394.9 Q309.281 1381.89 312.567 1374.8 Q317.15 1364.25 327.957 1364.25 Q330.248 1364.25 332.626 1364.9 Q335.047 1365.5 338.073 1367.88 Q341.143 1370.26 343.002 1374.15 Q346.547 1381.67 346.547 1394.9 Q346.547 1407.83 343.261 1414.87 Q338.462 1425.16 327.871 1425.16 Q323.894 1425.16 319.83 1423.13 Q315.809 1421.1 313.259 1416.21 Q309.281 1408.91 309.281 1394.9 M316.631 1393.82 Q316.631 1407.18 317.582 1412.49 Q318.663 1418.24 321.602 1420.75 Q324.585 1423.22 327.871 1423.22 Q331.416 1423.22 334.355 1420.58 Q337.338 1417.9 338.246 1412.15 Q339.24 1406.49 339.197 1393.82 Q339.197 1381.5 338.333 1376.57 Q337.165 1370.82 334.053 1368.53 Q330.983 1366.19 327.871 1366.19 Q326.704 1366.19 325.45 1366.54 Q324.239 1366.89 322.467 1367.88 Q320.694 1368.87 319.311 1371.34 Q317.971 1373.8 317.322 1377.52 Q316.631 1382.32 316.631 1393.82 Z" fill="#000000" fill-rule="evenodd" fill-opacity="1"></path><path clip-path="url(#clip620)" d="M652.745 1394.9 Q652.745 1381.89 656.031 1374.8 Q660.613 1364.25 671.421 1364.25 Q673.712 1364.25 676.09 1364.9 Q678.511 1365.5 681.537 1367.88 Q684.606 1370.26 686.465 1374.15 Q690.01 1381.67 690.01 1394.9 Q690.01 1407.83 686.725 1414.87 Q681.926 1425.16 671.335 1425.16 Q667.357 1425.16 663.294 1423.13 Q659.273 1421.1 656.723 1416.21 Q652.745 1408.91 652.745 1394.9 M660.095 1393.82 Q660.095 1407.18 661.046 1412.49 Q662.126 1418.24 665.066 1420.75 Q668.049 1423.22 671.335 1423.22 Q674.88 1423.22 677.819 1420.58 Q680.802 1417.9 681.71 1412.15 Q682.704 1406.49 682.661 1393.82 Q682.661 1381.5 681.796 1376.57 Q680.629 1370.82 677.517 1368.53 Q674.447 1366.19 671.335 1366.19 Q670.167 1366.19 668.914 1366.54 Q667.703 1366.89 665.931 1367.88 Q664.158 1368.87 662.775 1371.34 Q661.435 1373.8 660.786 1377.52 Q660.095 1382.32 660.095 1393.82 Z" fill="#000000" fill-rule="evenodd" fill-opacity="1"></path><path clip-path="url(#clip620)" d="M702.418 1421.79 Q701.077 1420.36 701.077 1418.5 Q701.077 1416.64 702.418 1415.3 Q703.758 1413.92 705.79 1413.92 Q707.735 1413.92 709.032 1415.22 Q710.372 1416.47 710.372 1418.55 Q710.372 1420.58 708.945 1421.92 Q707.562 1423.22 705.79 1423.22 Q703.758 1423.22 702.418 1421.79 Z" fill="#000000" fill-rule="evenodd" fill-opacity="1"></path><path clip-path="url(#clip620)" d="M722.563 1423.22 Q722.563 1421.62 722.693 1421.14 Q722.866 1420.67 723.557 1419.93 L740.547 1401 Q749.842 1390.53 749.842 1381.41 Q749.842 1375.49 746.729 1371.25 Q743.66 1367.02 737.997 1367.02 Q734.106 1367.02 730.82 1369.39 Q727.535 1371.77 726.022 1376.01 Q726.281 1375.92 727.189 1375.92 Q729.394 1375.92 730.604 1377.3 Q731.858 1378.69 731.858 1380.55 Q731.858 1382.92 730.302 1384.09 Q728.788 1385.22 727.275 1385.22 Q726.67 1385.22 725.849 1385.09 Q725.071 1384.96 723.817 1383.75 Q722.563 1382.49 722.563 1380.29 Q722.563 1374.11 727.232 1369.18 Q731.944 1364.25 739.121 1364.25 Q747.248 1364.25 752.565 1369.09 Q757.926 1373.89 757.926 1381.41 Q757.926 1384.05 757.105 1386.47 Q756.326 1388.85 755.246 1390.71 Q754.208 1392.57 751.355 1395.55 Q748.502 1398.53 746.21 1400.65 Q743.919 1402.77 738.775 1407.26 L729.394 1416.39 L745.346 1416.39 Q753.127 1416.39 753.733 1415.69 Q754.597 1414.44 755.678 1407.83 L757.926 1407.83 L755.419 1423.22 L722.563 1423.22 Z" fill="#000000" fill-rule="evenodd" fill-opacity="1"></path><path clip-path="url(#clip620)" d="M1063.63 1394.9 Q1063.63 1381.89 1066.91 1374.8 Q1071.5 1364.25 1082.3 1364.25 Q1084.59 1364.25 1086.97 1364.9 Q1089.39 1365.5 1092.42 1367.88 Q1095.49 1370.26 1097.35 1374.15 Q1100.89 1381.67 1100.89 1394.9 Q1100.89 1407.83 1097.61 1414.87 Q1092.81 1425.16 1082.22 1425.16 Q1078.24 1425.16 1074.18 1423.13 Q1070.16 1421.1 1067.6 1416.21 Q1063.63 1408.91 1063.63 1394.9 M1070.98 1393.82 Q1070.98 1407.18 1071.93 1412.49 Q1073.01 1418.24 1075.95 1420.75 Q1078.93 1423.22 1082.22 1423.22 Q1085.76 1423.22 1088.7 1420.58 Q1091.68 1417.9 1092.59 1412.15 Q1093.59 1406.49 1093.54 1393.82 Q1093.54 1381.5 1092.68 1376.57 Q1091.51 1370.82 1088.4 1368.53 Q1085.33 1366.19 1082.22 1366.19 Q1081.05 1366.19 1079.8 1366.54 Q1078.59 1366.89 1076.81 1367.88 Q1075.04 1368.87 1073.66 1371.34 Q1072.32 1373.8 1071.67 1377.52 Q1070.98 1382.32 1070.98 1393.82 Z" fill="#000000" fill-rule="evenodd" fill-opacity="1"></path><path clip-path="url(#clip620)" d="M1113.3 1421.79 Q1111.96 1420.36 1111.96 1418.5 Q1111.96 1416.64 1113.3 1415.3 Q1114.64 1413.92 1116.67 1413.92 Q1118.62 1413.92 1119.91 1415.22 Q1121.25 1416.47 1121.25 1418.55 Q1121.25 1420.58 1119.83 1421.92 Q1118.44 1423.22 1116.67 1423.22 Q1114.64 1423.22 1113.3 1421.79 Z" fill="#000000" fill-rule="evenodd" fill-opacity="1"></path><path clip-path="url(#clip620)" d="M1131.5 1408.6 L1131.5 1405.88 L1158.69 1364.34 Q1159.38 1363.25 1160.46 1363.3 Q1161.46 1363.3 1161.68 1363.69 Q1161.89 1364.08 1161.89 1365.59 L1161.89 1405.88 L1170.75 1405.88 L1170.75 1408.6 L1161.89 1408.6 L1161.89 1416.3 Q1161.89 1418.85 1162.93 1419.67 Q1164.01 1420.49 1168.59 1420.49 L1170.45 1420.49 L1170.45 1423.22 Q1166.82 1422.96 1158.43 1422.96 Q1150.09 1422.96 1146.46 1423.22 L1146.46 1420.49 L1148.32 1420.49 Q1152.9 1420.49 1153.98 1419.71 Q1155.06 1418.89 1155.06 1416.3 L1155.06 1408.6 L1131.5 1408.6 M1134.01 1405.88 L1155.58 1405.88 L1155.58 1372.85 L1134.01 1405.88 Z" fill="#000000" fill-rule="evenodd" fill-opacity="1"></path><path clip-path="url(#clip620)" d="M1476.11 1394.9 Q1476.11 1381.89 1479.4 1374.8 Q1483.98 1364.25 1494.79 1364.25 Q1497.08 1364.25 1499.45 1364.9 Q1501.88 1365.5 1504.9 1367.88 Q1507.97 1370.26 1509.83 1374.15 Q1513.37 1381.67 1513.37 1394.9 Q1513.37 1407.83 1510.09 1414.87 Q1505.29 1425.16 1494.7 1425.16 Q1490.72 1425.16 1486.66 1423.13 Q1482.64 1421.1 1480.09 1416.21 Q1476.11 1408.91 1476.11 1394.9 M1483.46 1393.82 Q1483.46 1407.18 1484.41 1412.49 Q1485.49 1418.24 1488.43 1420.75 Q1491.41 1423.22 1494.7 1423.22 Q1498.24 1423.22 1501.18 1420.58 Q1504.17 1417.9 1505.07 1412.15 Q1506.07 1406.49 1506.03 1393.82 Q1506.03 1381.5 1505.16 1376.57 Q1503.99 1370.82 1500.88 1368.53 Q1497.81 1366.19 1494.7 1366.19 Q1493.53 1366.19 1492.28 1366.54 Q1491.07 1366.89 1489.29 1367.88 Q1487.52 1368.87 1486.14 1371.34 Q1484.8 1373.8 1484.15 1377.52 Q1483.46 1382.32 1483.46 1393.82 Z" fill="#000000" fill-rule="evenodd" fill-opacity="1"></path><path clip-path="url(#clip620)" d="M1525.78 1421.79 Q1524.44 1420.36 1524.44 1418.5 Q1524.44 1416.64 1525.78 1415.3 Q1527.12 1413.92 1529.15 1413.92 Q1531.1 1413.92 1532.4 1415.22 Q1533.74 1416.47 1533.74 1418.55 Q1533.74 1420.58 1532.31 1421.92 Q1530.93 1423.22 1529.15 1423.22 Q1527.12 1423.22 1525.78 1421.79 Z" fill="#000000" fill-rule="evenodd" fill-opacity="1"></path><path clip-path="url(#clip620)" d="M1545.24 1395.25 Q1545.24 1381.33 1552.33 1372.81 Q1559.42 1364.25 1568.54 1364.25 Q1573.85 1364.25 1576.79 1366.97 Q1579.78 1369.65 1579.78 1373.8 Q1579.78 1376.09 1578.44 1377.09 Q1577.1 1378.08 1575.71 1378.08 Q1574.11 1378.08 1572.86 1377 Q1571.61 1375.92 1571.61 1373.98 Q1571.61 1370 1576.49 1370 Q1574.2 1366.45 1568.71 1366.45 Q1567.02 1366.45 1565.29 1366.97 Q1563.57 1367.45 1561.32 1369.09 Q1559.07 1370.73 1557.34 1373.33 Q1555.61 1375.92 1554.4 1380.81 Q1553.19 1385.69 1553.19 1392.05 L1553.19 1394.16 Q1556.82 1385.39 1564.26 1385.43 Q1571.69 1385.43 1576.84 1391.1 Q1581.98 1396.76 1581.98 1405.15 Q1581.98 1413.75 1576.62 1419.45 Q1571.26 1425.16 1563.74 1425.16 Q1560.37 1425.16 1557.3 1423.73 Q1554.27 1422.35 1551.42 1419.15 Q1548.61 1415.95 1546.92 1409.81 Q1545.24 1403.68 1545.24 1395.25 M1553.36 1403.2 Q1553.36 1411.89 1554.96 1416.04 Q1555.22 1416.73 1555.78 1417.68 Q1556.39 1418.63 1557.38 1419.89 Q1558.42 1421.1 1560.11 1421.92 Q1561.79 1422.7 1563.74 1422.7 Q1569.66 1422.7 1572.51 1416.95 Q1574.03 1413.75 1574.03 1405.06 Q1574.03 1396.2 1572.43 1392.95 Q1569.7 1387.46 1564.17 1387.46 Q1560.45 1387.46 1557.86 1390.01 Q1555.31 1392.57 1554.31 1395.98 Q1553.36 1399.4 1553.36 1403.2 Z" fill="#000000" fill-rule="evenodd" fill-opacity="1"></path><path clip-path="url(#clip620)" d="M1887.96 1394.9 Q1887.96 1381.89 1891.25 1374.8 Q1895.83 1364.25 1906.64 1364.25 Q1908.93 1364.25 1911.31 1364.9 Q1913.73 1365.5 1916.76 1367.88 Q1919.83 1370.26 1921.68 1374.15 Q1925.23 1381.67 1925.23 1394.9 Q1925.23 1407.83 1921.94 1414.87 Q1917.15 1425.16 1906.55 1425.16 Q1902.58 1425.16 1898.51 1423.13 Q1894.49 1421.1 1891.94 1416.21 Q1887.96 1408.91 1887.96 1394.9 M1895.31 1393.82 Q1895.31 1407.18 1896.26 1412.49 Q1897.35 1418.24 1900.29 1420.75 Q1903.27 1423.22 1906.55 1423.22 Q1910.1 1423.22 1913.04 1420.58 Q1916.02 1417.9 1916.93 1412.15 Q1917.92 1406.49 1917.88 1393.82 Q1917.88 1381.5 1917.02 1376.57 Q1915.85 1370.82 1912.74 1368.53 Q1909.67 1366.19 1906.55 1366.19 Q1905.39 1366.19 1904.13 1366.54 Q1902.92 1366.89 1901.15 1367.88 Q1899.38 1368.87 1897.99 1371.34 Q1896.65 1373.8 1896.01 1377.52 Q1895.31 1382.32 1895.31 1393.82 Z" fill="#000000" fill-rule="evenodd" fill-opacity="1"></path><path clip-path="url(#clip620)" d="M1937.64 1421.79 Q1936.3 1420.36 1936.3 1418.5 Q1936.3 1416.64 1937.64 1415.3 Q1938.98 1413.92 1941.01 1413.92 Q1942.95 1413.92 1944.25 1415.22 Q1945.59 1416.47 1945.59 1418.55 Q1945.59 1420.58 1944.16 1421.92 Q1942.78 1423.22 1941.01 1423.22 Q1938.98 1423.22 1937.64 1421.79 Z" fill="#000000" fill-rule="evenodd" fill-opacity="1"></path><path clip-path="url(#clip620)" d="M1957.09 1409.86 Q1957.09 1399.96 1969.84 1393.56 Q1964.35 1389.84 1963.36 1388.76 Q1959.47 1384.44 1959.47 1379.03 Q1959.47 1372.85 1964.14 1368.57 Q1968.85 1364.25 1975.51 1364.25 Q1981.86 1364.25 1986.66 1367.92 Q1991.46 1371.6 1991.46 1377.43 Q1991.46 1385.65 1980.74 1391.18 Q1987.83 1395.59 1989.51 1397.45 Q1993.84 1402.25 1993.84 1408.34 Q1993.84 1415.43 1988.39 1420.32 Q1982.94 1425.16 1975.42 1425.16 Q1968.07 1425.16 1962.58 1420.88 Q1957.09 1416.6 1957.09 1409.86 M1961.5 1409.86 Q1961.5 1415.35 1965.61 1419.02 Q1969.76 1422.7 1975.51 1422.7 Q1981.08 1422.7 1985.23 1419.5 Q1989.43 1416.3 1989.43 1411.54 Q1989.43 1409.68 1988.78 1408.08 Q1988.17 1406.49 1986.92 1405.23 Q1985.71 1403.93 1984.93 1403.37 Q1984.2 1402.77 1982.77 1401.77 L1971.88 1394.9 Q1961.5 1400.65 1961.5 1409.86 M1963.36 1375.58 Q1963.36 1379.81 1967.81 1382.75 L1978.79 1389.84 Q1987.57 1384.7 1987.57 1377.43 Q1987.57 1372.72 1983.98 1369.61 Q1980.39 1366.45 1975.42 1366.45 Q1970.54 1366.45 1966.95 1369.05 Q1963.36 1371.6 1963.36 1375.58 Z" fill="#000000" fill-rule="evenodd" fill-opacity="1"></path><path clip-path="url(#clip620)" d="M2301.89 1372.68 L2301.89 1369.91 Q2312.53 1369.91 2318.02 1364.25 Q2319.53 1364.25 2319.79 1364.59 Q2320.05 1364.94 2320.05 1366.54 L2320.05 1416.21 Q2320.05 1418.85 2321.35 1419.67 Q2322.65 1420.49 2328.31 1420.49 L2331.12 1420.49 L2331.12 1423.22 Q2328.01 1422.96 2316.77 1422.96 Q2305.53 1422.96 2302.46 1423.22 L2302.46 1420.49 L2305.27 1420.49 Q2310.84 1420.49 2312.18 1419.71 Q2313.52 1418.89 2313.52 1416.21 L2313.52 1370.34 Q2308.9 1372.68 2301.89 1372.68 Z" fill="#000000" fill-rule="evenodd" fill-opacity="1"></path><path clip-path="url(#clip620)" d="M2347.16 1421.79 Q2345.82 1420.36 2345.82 1418.5 Q2345.82 1416.64 2347.16 1415.3 Q2348.5 1413.92 2350.53 1413.92 Q2352.47 1413.92 2353.77 1415.22 Q2355.11 1416.47 2355.11 1418.55 Q2355.11 1420.58 2353.69 1421.92 Q2352.3 1423.22 2350.53 1423.22 Q2348.5 1423.22 2347.16 1421.79 Z" fill="#000000" fill-rule="evenodd" fill-opacity="1"></path><path clip-path="url(#clip620)" d="M2366.35 1394.9 Q2366.35 1381.89 2369.64 1374.8 Q2374.22 1364.25 2385.03 1364.25 Q2387.32 1364.25 2389.7 1364.9 Q2392.12 1365.5 2395.14 1367.88 Q2398.21 1370.26 2400.07 1374.15 Q2403.62 1381.67 2403.62 1394.9 Q2403.62 1407.83 2400.33 1414.87 Q2395.53 1425.16 2384.94 1425.16 Q2380.96 1425.16 2376.9 1423.13 Q2372.88 1421.1 2370.33 1416.21 Q2366.35 1408.91 2366.35 1394.9 M2373.7 1393.82 Q2373.7 1407.18 2374.65 1412.49 Q2375.73 1418.24 2378.67 1420.75 Q2381.66 1423.22 2384.94 1423.22 Q2388.49 1423.22 2391.43 1420.58 Q2394.41 1417.9 2395.32 1412.15 Q2396.31 1406.49 2396.27 1393.82 Q2396.27 1381.5 2395.4 1376.57 Q2394.24 1370.82 2391.12 1368.53 Q2388.05 1366.19 2384.94 1366.19 Q2383.77 1366.19 2382.52 1366.54 Q2381.31 1366.89 2379.54 1367.88 Q2377.76 1368.87 2376.38 1371.34 Q2375.04 1373.8 2374.39 1377.52 Q2373.7 1382.32 2373.7 1393.82 Z" fill="#000000" fill-rule="evenodd" fill-opacity="1"></path><path clip-path="url(#clip620)" d="M1339.68 1479.09 Q1339.68 1480.08 1338.84 1480.87 Q1338.04 1481.67 1337.06 1481.67 Q1336.5 1481.67 1335.14 1480.73 Q1331.25 1478.02 1326.33 1478.02 Q1321.93 1478.02 1317.85 1479.09 Q1313.78 1480.17 1311.01 1482.37 Q1308.3 1484.53 1308.3 1487.34 Q1308.3 1490.85 1312.14 1492.91 Q1316.12 1491.09 1321.04 1491.09 Q1322.63 1491.09 1323.71 1491.18 Q1324.83 1491.27 1325.91 1491.51 Q1326.99 1491.74 1327.5 1492.3 Q1328.06 1492.82 1328.06 1493.66 Q1328.06 1496.66 1320.29 1496.66 Q1315.23 1496.66 1312.04 1495.3 Q1307.97 1497.32 1305.72 1500.55 Q1303.47 1503.78 1303.47 1506.54 Q1303.47 1508.93 1304.78 1510.67 Q1306.14 1512.4 1308.34 1513.24 Q1310.59 1514.09 1312.79 1514.46 Q1315.04 1514.79 1317.52 1514.79 Q1321.6 1514.79 1324.46 1514.27 Q1327.36 1513.71 1328.95 1512.68 Q1330.59 1511.65 1331.25 1510.95 Q1331.95 1510.2 1332.66 1509.03 Q1333.08 1508.37 1333.64 1508.37 Q1334.06 1508.37 1334.34 1508.65 Q1334.67 1508.89 1334.67 1509.31 Q1334.67 1509.82 1334.01 1510.9 Q1333.4 1511.98 1331.91 1513.43 Q1330.45 1514.84 1328.44 1516.15 Q1326.47 1517.41 1323.33 1518.3 Q1320.19 1519.19 1316.63 1519.19 Q1309.37 1519.19 1305.16 1515.63 Q1300.99 1512.07 1300.99 1507.11 Q1300.99 1503.64 1303.28 1500.08 Q1305.63 1496.47 1309.75 1494.18 Q1305.91 1491.32 1305.91 1487.34 Q1305.91 1483.78 1308.9 1480.59 Q1311.95 1477.41 1316.87 1475.53 Q1321.83 1473.61 1327.27 1473.61 Q1330.31 1473.61 1333.31 1474.64 Q1336.31 1475.63 1338 1476.89 Q1339.68 1478.16 1339.68 1479.09 M1325.58 1493.76 Q1323.52 1493.19 1321.04 1493.19 Q1317.66 1493.19 1315.18 1494.04 Q1317.2 1494.55 1320.29 1494.55 Q1322.86 1494.55 1323.61 1494.41 Q1324.41 1494.27 1325.58 1493.76 Z" fill="#000000" fill-rule="evenodd" fill-opacity="1"></path><polyline clip-path="url(#clip620)" style="stroke:#000000; stroke-linecap:round; stroke-linejoin:round; stroke-width:4; stroke-opacity:1; fill:none" points="293.481,1328.42 293.481,47.2441 "></polyline>
<polyline clip-path="url(#clip620)" style="stroke:#000000; stroke-linecap:round; stroke-linejoin:round; stroke-width:4; stroke-opacity:1; fill:none" points="2352.76,1328.42 2352.76,47.2441 "></polyline>
<polyline clip-path="url(#clip620)" style="stroke:#000000; stroke-linecap:round; stroke-linejoin:round; stroke-width:4; stroke-opacity:1; fill:none" points="293.481,1270.18 312.378,1270.18 "></polyline>
<polyline clip-path="url(#clip620)" style="stroke:#000000; stroke-linecap:round; stroke-linejoin:round; stroke-width:4; stroke-opacity:1; fill:none" points="293.481,979.005 312.378,979.005 "></polyline>
<polyline clip-path="url(#clip620)" style="stroke:#000000; stroke-linecap:round; stroke-linejoin:round; stroke-width:4; stroke-opacity:1; fill:none" points="293.481,687.83 312.378,687.83 "></polyline>
<polyline clip-path="url(#clip620)" style="stroke:#000000; stroke-linecap:round; stroke-linejoin:round; stroke-width:4; stroke-opacity:1; fill:none" points="293.481,396.655 312.378,396.655 "></polyline>
<polyline clip-path="url(#clip620)" style="stroke:#000000; stroke-linecap:round; stroke-linejoin:round; stroke-width:4; stroke-opacity:1; fill:none" points="293.481,105.479 312.378,105.479 "></polyline>
<path clip-path="url(#clip620)" d="M155.758 1249.88 L155.758 1247.12 Q166.393 1247.12 171.883 1241.45 Q173.397 1241.45 173.656 1241.8 Q173.915 1242.15 173.915 1243.74 L173.915 1293.42 Q173.915 1296.05 175.212 1296.88 Q176.509 1297.7 182.172 1297.7 L184.982 1297.7 L184.982 1300.42 Q181.87 1300.16 170.63 1300.16 Q159.39 1300.16 156.32 1300.42 L156.32 1297.7 L159.13 1297.7 Q164.707 1297.7 166.047 1296.92 Q167.387 1296.1 167.387 1293.42 L167.387 1247.55 Q162.762 1249.88 155.758 1249.88 Z" fill="#000000" fill-rule="evenodd" fill-opacity="1"></path><path clip-path="url(#clip620)" d="M201.021 1298.99 Q199.681 1297.57 199.681 1295.71 Q199.681 1293.85 201.021 1292.51 Q202.361 1291.13 204.393 1291.13 Q206.338 1291.13 207.635 1292.42 Q208.976 1293.68 208.976 1295.75 Q208.976 1297.78 207.549 1299.12 Q206.166 1300.42 204.393 1300.42 Q202.361 1300.42 201.021 1298.99 Z" fill="#000000" fill-rule="evenodd" fill-opacity="1"></path><path clip-path="url(#clip620)" d="M220.216 1272.1 Q220.216 1259.09 223.501 1252 Q228.084 1241.45 238.891 1241.45 Q241.183 1241.45 243.56 1242.1 Q245.981 1242.71 249.007 1245.09 Q252.077 1247.46 253.936 1251.35 Q257.481 1258.88 257.481 1272.1 Q257.481 1285.03 254.195 1292.08 Q249.396 1302.37 238.805 1302.37 Q234.828 1302.37 230.764 1300.33 Q226.743 1298.3 224.193 1293.42 Q220.216 1286.11 220.216 1272.1 M227.565 1271.02 Q227.565 1284.38 228.516 1289.7 Q229.597 1295.45 232.536 1297.96 Q235.519 1300.42 238.805 1300.42 Q242.35 1300.42 245.29 1297.78 Q248.272 1295.1 249.18 1289.35 Q250.175 1283.69 250.131 1271.02 Q250.131 1258.7 249.267 1253.77 Q248.1 1248.02 244.987 1245.73 Q241.917 1243.4 238.805 1243.4 Q237.638 1243.4 236.384 1243.74 Q235.173 1244.09 233.401 1245.09 Q231.629 1246.08 230.245 1248.54 Q228.905 1251.01 228.257 1254.73 Q227.565 1259.52 227.565 1271.02 Z" fill="#000000" fill-rule="evenodd" fill-opacity="1"></path><path clip-path="url(#clip620)" d="M156.709 958.708 L156.709 955.942 Q167.344 955.942 172.835 950.278 Q174.348 950.278 174.607 950.624 Q174.866 950.97 174.866 952.57 L174.866 1002.24 Q174.866 1004.88 176.163 1005.7 Q177.46 1006.52 183.123 1006.52 L185.934 1006.52 L185.934 1009.25 Q182.821 1008.99 171.581 1008.99 Q160.341 1008.99 157.271 1009.25 L157.271 1006.52 L160.081 1006.52 Q165.658 1006.52 166.998 1005.74 Q168.339 1004.92 168.339 1002.24 L168.339 956.374 Q163.713 958.708 156.709 958.708 Z" fill="#000000" fill-rule="evenodd" fill-opacity="1"></path><path clip-path="url(#clip620)" d="M201.972 1007.82 Q200.632 1006.39 200.632 1004.53 Q200.632 1002.67 201.972 1001.33 Q203.312 999.951 205.344 999.951 Q207.29 999.951 208.586 1001.25 Q209.927 1002.5 209.927 1004.58 Q209.927 1006.61 208.5 1007.95 Q207.117 1009.25 205.344 1009.25 Q203.312 1009.25 201.972 1007.82 Z" fill="#000000" fill-rule="evenodd" fill-opacity="1"></path><path clip-path="url(#clip620)" d="M222.118 994.979 Q222.118 992.342 223.544 991.348 Q224.971 990.31 226.484 990.31 Q228.516 990.31 229.683 991.607 Q230.894 992.861 230.894 994.633 Q230.894 996.406 229.683 997.703 Q228.516 998.956 226.484 998.956 Q225.49 998.956 224.971 998.783 Q226.138 1002.85 229.683 1005.79 Q233.271 1008.73 237.983 1008.73 Q243.906 1008.73 247.451 1002.98 Q249.569 999.259 249.569 990.829 Q249.569 983.393 247.97 979.675 Q245.506 974.012 240.448 974.012 Q233.271 974.012 229.035 980.194 Q228.516 980.972 227.911 981.016 Q227.046 981.016 226.83 980.54 Q226.657 980.021 226.657 978.681 L226.657 952.483 Q226.657 950.365 227.522 950.365 Q227.867 950.365 228.602 950.624 Q234.179 953.088 240.361 953.132 Q246.716 953.132 252.423 950.538 Q252.855 950.278 253.114 950.278 Q253.979 950.278 254.022 951.273 Q254.022 951.619 253.287 952.656 Q252.596 953.65 251.082 954.991 Q249.569 956.287 247.624 957.541 Q245.679 958.795 242.825 959.659 Q240.015 960.481 236.903 960.481 Q233.185 960.481 229.381 959.314 L229.381 976.563 Q233.963 972.067 240.621 972.067 Q247.71 972.067 252.596 977.773 Q257.481 983.48 257.481 991.434 Q257.481 999.778 251.688 1005.48 Q245.938 1011.19 238.156 1011.19 Q231.067 1011.19 226.571 1006.13 Q222.118 1001.07 222.118 994.979 Z" fill="#000000" fill-rule="evenodd" fill-opacity="1"></path><path clip-path="url(#clip620)" d="M152.3 718.07 Q152.3 716.47 152.43 715.995 Q152.602 715.519 153.294 714.784 L170.284 695.849 Q179.579 685.387 179.579 676.266 Q179.579 670.343 176.466 666.106 Q173.397 661.87 167.733 661.87 Q163.843 661.87 160.557 664.247 Q157.271 666.625 155.758 670.862 Q156.018 670.775 156.926 670.775 Q159.13 670.775 160.341 672.159 Q161.595 673.542 161.595 675.401 Q161.595 677.779 160.038 678.946 Q158.525 680.07 157.012 680.07 Q156.407 680.07 155.585 679.94 Q154.807 679.811 153.554 678.6 Q152.3 677.346 152.3 675.142 Q152.3 668.96 156.969 664.031 Q161.681 659.103 168.857 659.103 Q176.985 659.103 182.302 663.945 Q187.663 668.743 187.663 676.266 Q187.663 678.903 186.841 681.324 Q186.063 683.701 184.982 685.56 Q183.945 687.419 181.092 690.402 Q178.238 693.385 175.947 695.503 Q173.656 697.622 168.511 702.118 L159.13 711.239 L175.083 711.239 Q182.864 711.239 183.469 710.548 Q184.334 709.294 185.415 702.68 L187.663 702.68 L185.155 718.07 L152.3 718.07 Z" fill="#000000" fill-rule="evenodd" fill-opacity="1"></path><path clip-path="url(#clip620)" d="M201.021 716.643 Q199.681 715.217 199.681 713.358 Q199.681 711.499 201.021 710.159 Q202.361 708.775 204.393 708.775 Q206.338 708.775 207.635 710.072 Q208.976 711.326 208.976 713.401 Q208.976 715.433 207.549 716.773 Q206.166 718.07 204.393 718.07 Q202.361 718.07 201.021 716.643 Z" fill="#000000" fill-rule="evenodd" fill-opacity="1"></path><path clip-path="url(#clip620)" d="M220.216 689.754 Q220.216 676.741 223.501 669.651 Q228.084 659.103 238.891 659.103 Q241.183 659.103 243.56 659.751 Q245.981 660.357 249.007 662.734 Q252.077 665.112 253.936 669.003 Q257.481 676.525 257.481 689.754 Q257.481 702.68 254.195 709.726 Q249.396 720.015 238.805 720.015 Q234.828 720.015 230.764 717.983 Q226.743 715.952 224.193 711.067 Q220.216 703.761 220.216 689.754 M227.565 688.673 Q227.565 702.031 228.516 707.349 Q229.597 713.098 232.536 715.606 Q235.519 718.07 238.805 718.07 Q242.35 718.07 245.29 715.433 Q248.272 712.753 249.18 707.003 Q250.175 701.34 250.131 688.673 Q250.131 676.352 249.267 671.424 Q248.1 665.674 244.987 663.383 Q241.917 661.048 238.805 661.048 Q237.638 661.048 236.384 661.394 Q235.173 661.74 233.401 662.734 Q231.629 663.729 230.245 666.193 Q228.905 668.657 228.257 672.375 Q227.565 677.174 227.565 688.673 Z" fill="#000000" fill-rule="evenodd" fill-opacity="1"></path><path clip-path="url(#clip620)" d="M153.251 426.895 Q153.251 425.295 153.381 424.819 Q153.554 424.344 154.245 423.609 L171.235 404.674 Q180.53 394.212 180.53 385.09 Q180.53 379.168 177.417 374.931 Q174.348 370.694 168.684 370.694 Q164.794 370.694 161.508 373.072 Q158.223 375.45 156.709 379.686 Q156.969 379.6 157.877 379.6 Q160.081 379.6 161.292 380.983 Q162.546 382.367 162.546 384.226 Q162.546 386.603 160.989 387.771 Q159.476 388.895 157.963 388.895 Q157.358 388.895 156.537 388.765 Q155.758 388.635 154.505 387.425 Q153.251 386.171 153.251 383.966 Q153.251 377.784 157.92 372.856 Q162.632 367.928 169.808 367.928 Q177.936 367.928 183.253 372.769 Q188.614 377.568 188.614 385.09 Q188.614 387.727 187.792 390.148 Q187.014 392.526 185.934 394.385 Q184.896 396.244 182.043 399.227 Q179.189 402.21 176.898 404.328 Q174.607 406.446 169.463 410.942 L160.081 420.064 L176.034 420.064 Q183.815 420.064 184.42 419.372 Q185.285 418.119 186.366 411.504 L188.614 411.504 L186.106 426.895 L153.251 426.895 Z" fill="#000000" fill-rule="evenodd" fill-opacity="1"></path><path clip-path="url(#clip620)" d="M201.972 425.468 Q200.632 424.041 200.632 422.182 Q200.632 420.323 201.972 418.983 Q203.312 417.6 205.344 417.6 Q207.29 417.6 208.586 418.897 Q209.927 420.151 209.927 422.226 Q209.927 424.257 208.5 425.598 Q207.117 426.895 205.344 426.895 Q203.312 426.895 201.972 425.468 Z" fill="#000000" fill-rule="evenodd" fill-opacity="1"></path><path clip-path="url(#clip620)" d="M222.118 412.628 Q222.118 409.991 223.544 408.997 Q224.971 407.959 226.484 407.959 Q228.516 407.959 229.683 409.256 Q230.894 410.51 230.894 412.283 Q230.894 414.055 229.683 415.352 Q228.516 416.606 226.484 416.606 Q225.49 416.606 224.971 416.433 Q226.138 420.496 229.683 423.436 Q233.271 426.376 237.983 426.376 Q243.906 426.376 247.451 420.626 Q249.569 416.908 249.569 408.478 Q249.569 401.042 247.97 397.325 Q245.506 391.661 240.448 391.661 Q233.271 391.661 229.035 397.843 Q228.516 398.622 227.911 398.665 Q227.046 398.665 226.83 398.189 Q226.657 397.67 226.657 396.33 L226.657 370.132 Q226.657 368.014 227.522 368.014 Q227.867 368.014 228.602 368.273 Q234.179 370.738 240.361 370.781 Q246.716 370.781 252.423 368.187 Q252.855 367.928 253.114 367.928 Q253.979 367.928 254.022 368.922 Q254.022 369.268 253.287 370.305 Q252.596 371.3 251.082 372.64 Q249.569 373.937 247.624 375.19 Q245.679 376.444 242.825 377.309 Q240.015 378.13 236.903 378.13 Q233.185 378.13 229.381 376.963 L229.381 394.212 Q233.963 389.716 240.621 389.716 Q247.71 389.716 252.596 395.422 Q257.481 401.129 257.481 409.083 Q257.481 417.427 251.688 423.133 Q245.938 428.84 238.156 428.84 Q231.067 428.84 226.571 423.782 Q222.118 418.724 222.118 412.628 Z" fill="#000000" fill-rule="evenodd" fill-opacity="1"></path><path clip-path="url(#clip620)" d="M151.608 123.787 Q151.608 121.15 153.121 119.897 Q154.634 118.643 156.58 118.643 Q158.612 118.643 160.038 119.983 Q161.508 121.28 161.508 123.571 Q161.508 126.035 159.779 127.419 Q158.093 128.802 155.672 128.456 Q157.79 132.001 161.681 133.601 Q165.615 135.2 169.246 135.2 Q173.051 135.2 176.12 131.915 Q179.233 128.629 179.233 120.588 Q179.233 113.758 176.552 109.824 Q173.915 105.89 168.684 105.89 L164.794 105.89 Q163.453 105.89 163.064 105.76 Q162.675 105.63 162.675 104.896 Q162.675 104.031 164.015 103.858 Q165.356 103.858 167.474 103.599 Q172.618 103.426 175.342 98.9729 Q177.806 94.8228 177.806 88.9001 Q177.806 83.4963 175.212 81.2483 Q172.662 78.957 169.333 78.957 Q166.22 78.957 162.805 80.254 Q159.39 81.5509 157.531 84.4473 Q163.021 84.4473 163.021 88.9001 Q163.021 90.8455 161.767 92.1424 Q160.557 93.3961 158.525 93.3961 Q156.58 93.3961 155.283 92.1857 Q153.986 90.932 153.986 88.8137 Q153.986 83.7557 158.482 80.254 Q163.021 76.7523 169.679 76.7523 Q176.25 76.7523 181.092 80.2107 Q185.977 83.6692 185.977 88.9866 Q185.977 94.2175 182.518 98.4974 Q179.06 102.777 173.569 104.55 Q180.313 105.89 184.334 110.472 Q188.354 115.012 188.354 120.588 Q188.354 127.505 182.907 132.607 Q177.46 137.665 169.506 137.665 Q162.157 137.665 156.882 133.687 Q151.608 129.71 151.608 123.787 Z" fill="#000000" fill-rule="evenodd" fill-opacity="1"></path><path clip-path="url(#clip620)" d="M201.021 134.293 Q199.681 132.866 199.681 131.007 Q199.681 129.148 201.021 127.808 Q202.361 126.425 204.393 126.425 Q206.338 126.425 207.635 127.721 Q208.976 128.975 208.976 131.05 Q208.976 133.082 207.549 134.422 Q206.166 135.719 204.393 135.719 Q202.361 135.719 201.021 134.293 Z" fill="#000000" fill-rule="evenodd" fill-opacity="1"></path><path clip-path="url(#clip620)" d="M220.216 107.403 Q220.216 94.3904 223.501 87.3006 Q228.084 76.7523 238.891 76.7523 Q241.183 76.7523 243.56 77.4007 Q245.981 78.0059 249.007 80.3836 Q252.077 82.7613 253.936 86.6521 Q257.481 94.1743 257.481 107.403 Q257.481 120.329 254.195 127.376 Q249.396 137.665 238.805 137.665 Q234.828 137.665 230.764 135.633 Q226.743 133.601 224.193 128.716 Q220.216 121.41 220.216 107.403 M227.565 106.322 Q227.565 119.681 228.516 124.998 Q229.597 130.748 232.536 133.255 Q235.519 135.719 238.805 135.719 Q242.35 135.719 245.29 133.082 Q248.272 130.402 249.18 124.652 Q250.175 118.989 250.131 106.322 Q250.131 94.0014 249.267 89.0731 Q248.1 83.3233 244.987 81.0321 Q241.917 78.6976 238.805 78.6976 Q237.638 78.6976 236.384 79.0435 Q235.173 79.3893 233.401 80.3836 Q231.629 81.378 230.245 83.8421 Q228.905 86.3063 228.257 90.0241 Q227.565 94.8228 227.565 106.322 Z" fill="#000000" fill-rule="evenodd" fill-opacity="1"></path><path clip-path="url(#clip620)" d="M49.7127 701.341 Q54.0693 701.341 62.5014 703.543 Q66.1553 704.433 69.4813 705.651 Q72.7604 706.822 75.9459 708.555 Q79.1313 710.288 81.4267 712.303 Q83.6753 714.317 85.0806 716.94 Q86.486 719.564 86.486 722.468 Q86.486 727.059 83.769 729.776 Q81.0051 732.446 76.2738 733.289 Q86.486 739.566 86.486 747.952 Q86.486 753.151 82.7852 755.587 Q79.0376 758.023 72.7604 758.023 Q67.4669 758.023 61.9861 756.618 Q51.5865 753.948 44.3256 748.748 Q43.4824 748.045 43.4824 747.015 Q43.4824 746.406 43.6697 746.125 Q44.185 745.282 45.0282 745.282 Q45.6372 745.282 46.2462 745.75 Q50.7902 749.029 54.6783 751.184 Q58.5664 753.339 62.5014 754.323 Q65.8742 755.072 68.7318 755.072 Q73.5568 755.072 76.5548 753.011 Q79.5529 750.903 79.5529 746.734 Q79.5529 742.892 77.1638 739.52 Q74.7279 736.147 70.6524 733.664 Q66.2021 733.523 61.9861 732.446 Q57.489 731.462 57.489 729.167 Q57.489 727.34 59.9718 727.34 Q60.815 727.34 62.5014 727.715 Q66.9516 728.745 70.9335 730.619 Q74.8216 729.963 77.2107 727.527 Q79.5529 725.091 79.5529 721.203 Q79.5529 717.596 76.9296 714.411 Q74.3063 711.178 70.465 709.117 Q66.5769 707.009 61.9861 705.838 Q60.4402 705.463 58.4727 705.463 Q53.2261 705.463 49.9938 709.117 Q48.9632 710.148 47.6047 710.148 Q46.012 710.148 44.5598 708.836 Q43.0139 707.29 43.0139 705.463 Q43.0139 704.105 43.8571 703.262 Q45.5435 701.341 49.7127 701.341 Z" fill="#000000" fill-rule="evenodd" fill-opacity="1"></path><path clip-path="url(#clip620)" d="M51.2586 663.642 Q53.8819 663.642 55.2873 664.954 Q56.6458 666.266 56.6458 668.046 Q56.6458 669.498 55.8026 670.294 Q54.9594 671.044 53.8351 671.044 Q52.1955 671.044 50.8838 669.732 Q49.5722 668.374 49.5253 666.406 Q47.7921 667.062 46.7615 668.795 Q45.6841 670.529 45.403 672.074 Q45.1219 673.573 45.1219 675.072 Q45.1219 678.024 46.0588 680.272 Q46.9957 682.521 48.4479 683.645 Q49.8533 684.769 51.2118 685.285 Q52.5703 685.8 53.7414 685.8 Q54.772 685.8 55.6152 685.566 Q56.4115 685.285 57.0205 684.629 Q57.5827 683.973 57.9574 683.505 Q58.3322 682.989 58.6601 681.865 Q58.988 680.741 59.1285 680.272 Q59.2222 679.804 59.5033 678.492 Q60.0654 675.775 60.3934 674.557 Q60.6744 673.339 61.4708 671.746 Q62.2672 670.107 63.532 668.889 Q66.4832 665.938 70.5587 665.938 Q72.0577 665.938 73.8847 666.453 Q75.7116 666.921 78.007 668.28 Q80.3024 669.638 82.1294 671.7 Q83.9563 673.761 85.2212 677.321 Q86.486 680.834 86.486 685.238 Q86.486 691.374 83.9095 695.169 Q81.2862 698.963 77.1638 698.963 Q74.1658 698.963 72.5262 697.324 Q70.8398 695.684 70.8398 693.576 Q70.8398 691.983 71.7298 691 Q72.573 690.016 74.1658 690.016 Q76.3206 690.016 77.9602 691.749 Q79.5998 693.483 79.2719 696.059 Q84.3311 693.857 84.3311 685.144 Q84.3311 681.865 83.4879 679.335 Q82.5978 676.759 81.3799 675.354 Q80.1151 673.901 78.5692 672.964 Q77.0233 672.028 75.8522 671.746 Q74.6811 671.419 73.791 671.419 Q72.2451 671.419 71.074 672.028 Q69.9029 672.637 69.247 673.48 Q68.5444 674.276 67.9822 675.822 Q67.3733 677.321 67.139 678.398 Q66.9048 679.476 66.53 681.397 Q66.3427 682.287 66.249 682.849 Q66.1084 683.411 65.7337 684.582 Q65.3121 685.706 64.8905 686.503 Q64.4689 687.252 63.7193 688.236 Q62.9698 689.22 62.0798 689.829 Q61.1897 690.438 59.8781 690.859 Q58.5664 691.281 57.0205 691.281 Q55.6152 691.281 53.9288 690.859 Q52.2424 690.391 50.2749 689.22 Q48.3074 688.002 46.7147 686.268 Q45.1219 684.535 44.0913 681.631 Q43.0139 678.68 43.0139 675.072 Q43.0139 669.826 45.4498 666.734 Q47.8389 663.642 51.2586 663.642 Z" fill="#000000" fill-rule="evenodd" fill-opacity="1"></path><path clip-path="url(#clip620)" d="M96.3329 627.882 Q96.628 627.62 96.9231 627.62 Q97.2183 627.62 98.0708 628.276 Q98.9234 628.899 100.071 630.243 Q101.219 631.588 102.301 633.326 Q103.383 635.063 104.104 637.621 Q104.859 640.179 104.859 642.868 Q104.859 647.885 101.547 650.836 Q98.2348 653.755 93.48 653.755 Q88.8565 653.755 84.4296 651.164 Q79.97 648.574 77.2155 644.376 Q74.4282 640.179 74.4282 635.752 Q74.4282 632.243 76.0678 630.046 Q77.7074 627.849 80.1995 627.849 Q82.1342 627.849 83.3147 628.964 Q84.4952 630.079 84.4952 631.588 Q84.4952 632.637 83.905 633.358 Q83.2819 634.08 82.1342 634.08 Q80.6586 634.08 79.5109 632.866 Q79.0518 632.407 78.8551 631.883 Q78.6255 631.325 78.6255 630.997 Q78.5927 630.669 78.5927 629.915 Q77.3139 630.604 76.6253 632.243 Q75.9038 633.85 75.9038 635.687 Q75.9038 638.408 77.8057 640.999 Q79.6749 643.589 82.6261 645.163 Q85.5117 646.737 89.6107 647.754 Q93.6768 648.77 96.0378 648.77 Q99.2841 648.77 101.317 647.262 Q103.35 645.754 103.35 642.737 Q103.35 642.146 103.317 641.523 Q103.285 640.868 102.924 639.228 Q102.563 637.556 101.94 636.08 Q101.317 634.604 99.9728 632.735 Q98.5955 630.833 96.7264 629.325 Q96.0378 628.8 96.0378 628.44 Q96.0378 628.145 96.3329 627.882 Z" fill="#000000" fill-rule="evenodd" fill-opacity="1"></path><polyline clip-path="url(#clip623)" style="stroke:#e31a1c; stroke-linecap:round; stroke-linejoin:round; stroke-width:16; stroke-opacity:1; fill:none" points="295.54,-563.554 297.551,-366.006 299.562,-249.869 301.573,-167.405 303.584,-103.468 305.595,-51.274 307.606,-7.1933 309.617,30.9445 311.628,64.5414 313.639,94.5556 315.65,121.671 317.66,146.393 319.671,169.105 321.682,190.105 323.693,209.631 325.704,227.872 327.715,244.986 329.726,261.101 331.737,276.326 333.748,290.752 335.759,304.457 337.77,317.509 339.781,329.966 341.792,341.879 343.803,353.292 345.814,364.245 347.825,374.773 349.836,384.906 351.847,394.673 353.858,404.098 355.869,413.205 357.88,422.013 359.891,430.541 361.902,438.805 363.913,446.822 365.924,454.604 367.935,462.166 369.946,469.518 371.957,476.673 373.967,483.639 375.978,490.426 377.989,497.044 380,503.499 382.011,509.8 384.022,515.954 386.033,521.966 388.044,527.844 390.055,533.592 392.066,539.217 394.077,544.723 396.088,550.115 398.099,555.398 400.11,560.575 402.121,565.651 404.132,570.629 406.143,575.514 408.154,580.308 410.165,585.014 412.176,589.636 414.187,594.176 416.198,598.637 418.209,603.022 420.22,607.334 422.231,611.573 424.242,615.744 426.253,619.848 428.264,623.886 430.274,627.862 432.285,631.776 434.296,635.631 436.307,639.428 438.318,643.169 440.329,646.855 442.34,650.489 444.351,654.07 446.362,657.602 448.373,661.085 450.384,664.52 452.395,667.909 454.406,671.252 456.417,674.552 458.428,677.808 460.439,681.023 462.45,684.197 464.461,687.331 466.472,690.426 468.483,693.482 470.494,696.502 472.505,699.486 474.516,702.434 476.527,705.347 478.538,708.226 480.549,711.072 482.56,713.886 484.57,716.668 486.581,719.419 488.592,722.14 490.603,724.83 492.614,727.492 494.625,730.125 496.636,732.729 498.647,735.307 500.658,737.858 502.669,740.382 504.68,742.88 506.691,745.353 508.702,747.801 510.713,750.225 512.724,752.625 514.735,755.001 516.746,757.354 518.757,759.685 520.768,761.993 522.779,764.279 524.79,766.544 526.801,768.788 528.812,771.011 530.823,773.214 532.834,775.397 534.845,777.56 536.856,779.704 538.867,781.829 540.877,783.935 542.888,786.023 544.899,788.093 546.91,790.145 548.921,792.18 550.932,794.197 552.943,796.197 554.954,798.181 556.965,800.148 558.976,802.099 560.987,804.034 562.998,805.954 565.009,807.858 567.02,809.747 569.031,811.621 571.042,813.48 573.053,815.325 575.064,817.155 577.075,818.971 579.086,820.773 581.097,822.562 583.108,824.337 585.119,826.099 587.13,827.847 589.141,829.583 591.152,831.306 593.163,833.016 595.174,834.714 597.184,836.4 599.195,838.073 601.206,839.735 603.217,841.385 605.228,843.023 607.239,844.65 609.25,846.265 611.261,847.87 613.272,849.463 615.283,851.045 617.294,852.617 619.305,854.178 621.316,855.729 623.327,857.269 625.338,858.799 627.349,860.319 629.36,861.829 631.371,863.329 633.382,864.82 635.393,866.301 637.404,867.772 639.415,869.234 641.426,870.687 643.437,872.13 645.448,873.565 647.459,874.99 649.47,876.407 651.48,877.815 653.491,879.215 655.502,880.605 657.513,881.988 659.524,883.362 661.535,884.728 663.546,886.085 665.557,887.435 667.568,888.777 669.579,890.111 671.59,891.436 673.601,892.755 675.612,894.065 677.623,895.368 679.634,896.664 681.645,897.952 683.656,899.233 685.667,900.507 687.678,901.773 689.689,903.033 691.7,904.285 693.711,905.53 695.722,906.769 697.733,908.001 699.744,909.226 701.755,910.444 703.766,911.656 705.777,912.861 707.787,914.06 709.798,915.253 711.809,916.439 713.82,917.619 715.831,918.792 717.842,919.96 719.853,921.121 721.864,922.277 723.875,923.426 725.886,924.569 727.897,925.707 729.908,926.839 731.919,927.965 733.93,929.085 735.941,930.2 737.952,931.309 739.963,932.413 741.974,933.511 743.985,934.604 745.996,935.691 748.007,936.773 750.018,937.85 752.029,938.921 754.04,939.988 756.051,941.049 758.062,942.105 760.073,943.156 762.084,944.202 764.094,945.243 766.105,946.279 768.116,947.31 770.127,948.337 772.138,949.358 774.149,950.375 776.16,951.387 778.171,952.395 780.182,953.397 782.193,954.396 784.204,955.389 786.215,956.379 788.226,957.363 790.237,958.344 792.248,959.319 794.259,960.291 796.27,961.258 798.281,962.221 800.292,963.18 802.303,964.134 804.314,965.084 806.325,966.03 808.336,966.972 810.347,967.91 812.358,968.844 814.369,969.774 816.38,970.699 818.39,971.621 820.401,972.539 822.412,973.453 824.423,974.363 826.434,975.27 828.445,976.172 830.456,977.071 832.467,977.966 834.478,978.857 836.489,979.745 838.5,980.629 840.511,981.509 842.522,982.386 844.533,983.259 846.544,984.128 848.555,984.994 850.566,985.857 852.577,986.716 854.588,987.571 856.599,988.424 858.61,989.272 860.621,990.118 862.632,990.96 864.643,991.798 866.654,992.634 868.665,993.466 870.676,994.295 872.687,995.121 874.697,995.943 876.708,996.762 878.719,997.579 880.73,998.392 882.741,999.202 884.752,1000.01 886.763,1000.81 888.774,1001.61 890.785,1002.41 892.796,1003.21 894.807,1004 896.818,1004.79 898.829,1005.57 900.84,1006.35 902.851,1007.13 904.862,1007.91 906.873,1008.69 908.884,1009.46 910.895,1010.22 912.906,1010.99 914.917,1011.75 916.928,1012.51 918.939,1013.27 920.95,1014.03 922.961,1014.78 924.972,1015.53 926.983,1016.27 928.994,1017.02 931.004,1017.76 933.015,1018.5 935.026,1019.23 937.037,1019.97 939.048,1020.7 941.059,1021.43 943.07,1022.15 945.081,1022.87 947.092,1023.6 949.103,1024.31 951.114,1025.03 953.125,1025.74 955.136,1026.45 957.147,1027.16 959.158,1027.87 961.169,1028.57 963.18,1029.27 965.191,1029.97 967.202,1030.67 969.213,1031.36 971.224,1032.05 973.235,1032.74 975.246,1033.43 977.257,1034.12 979.268,1034.8 981.279,1035.48 983.29,1036.16 985.3,1036.83 987.311,1037.51 989.322,1038.18 991.333,1038.85 993.344,1039.51 995.355,1040.18 997.366,1040.84 999.377,1041.5 1001.39,1042.16 1003.4,1042.82 1005.41,1043.47 1007.42,1044.12 1009.43,1044.77 1011.44,1045.42 1013.45,1046.07 1015.46,1046.71 1017.48,1047.35 1019.49,1047.99 1021.5,1048.63 1023.51,1049.27 1025.52,1049.9 1027.53,1050.53 1029.54,1051.16 1031.55,1051.79 1033.56,1052.42 1035.57,1053.04 1037.59,1053.67 1039.6,1054.29 1041.61,1054.9 1043.62,1055.52 1045.63,1056.14 1047.64,1056.75 1049.65,1057.36 1051.66,1057.97 1053.67,1058.58 1055.68,1059.18 1057.7,1059.79 1059.71,1060.39 1061.72,1060.99 1063.73,1061.59 1065.74,1062.18 1067.75,1062.78 1069.76,1063.37 1071.77,1063.96 1073.78,1064.55 1075.79,1065.14 1077.8,1065.73 1079.82,1066.31 1081.83,1066.89 1083.84,1067.47 1085.85,1068.05 1087.86,1068.63 1089.87,1069.21 1091.88,1069.78 1093.89,1070.35 1095.9,1070.93 1097.91,1071.5 1099.93,1072.06 1101.94,1072.63 1103.95,1073.19 1105.96,1073.76 1107.97,1074.32 1109.98,1074.88 1111.99,1075.44 1114,1075.99 1116.01,1076.55 1118.02,1077.1 1120.04,1077.65 1122.05,1078.21 1124.06,1078.75 1126.07,1079.3 1128.08,1079.85 1130.09,1080.39 1132.1,1080.94 1134.11,1081.48 1136.12,1082.02 1138.13,1082.56 1140.14,1083.09 1142.16,1083.63 1144.17,1084.16 1146.18,1084.7 1148.19,1085.23 1150.2,1085.76 1152.21,1086.29 1154.22,1086.81 1156.23,1087.34 1158.24,1087.86 1160.25,1088.39 1162.27,1088.91 1164.28,1089.43 1166.29,1089.95 1168.3,1090.46 1170.31,1090.98 1172.32,1091.5 1174.33,1092.01 1176.34,1092.52 1178.35,1093.03 1180.36,1093.54 1182.37,1094.05 1184.39,1094.56 1186.4,1095.06 1188.41,1095.57 1190.42,1096.07 1192.43,1096.57 1194.44,1097.07 1196.45,1097.57 1198.46,1098.07 1200.47,1098.56 1202.48,1099.06 1204.5,1099.55 1206.51,1100.05 1208.52,1100.54 1210.53,1101.03 1212.54,1101.52 1214.55,1102 1216.56,1102.49 1218.57,1102.98 1220.58,1103.46 1222.59,1103.94 1224.61,1104.42 1226.62,1104.9 1228.63,1105.38 1230.64,1105.86 1232.65,1106.34 1234.66,1106.81 1236.67,1107.29 1238.68,1107.76 1240.69,1108.24 1242.7,1108.71 1244.71,1109.18 1246.73,1109.65 1248.74,1110.11 1250.75,1110.58 1252.76,1111.05 1254.77,1111.51 1256.78,1111.97 1258.79,1112.44 1260.8,1112.9 1262.81,1113.36 1264.82,1113.82 1266.84,1114.27 1268.85,1114.73 1270.86,1115.19 1272.87,1115.64 1274.88,1116.09 1276.89,1116.55 1278.9,1117 1280.91,1117.45 1282.92,1117.9 1284.93,1118.34 1286.95,1118.79 1288.96,1119.24 1290.97,1119.68 1292.98,1120.13 1294.99,1120.57 1297,1121.01 1299.01,1121.45 1301.02,1121.89 1303.03,1122.33 1305.04,1122.77 1307.05,1123.21 1309.07,1123.64 1311.08,1124.08 1313.09,1124.51 1315.1,1124.94 1317.11,1125.38 1319.12,1125.81 1321.13,1126.24 1323.14,1126.67 1325.15,1127.09 1327.16,1127.52 1329.18,1127.95 1331.19,1128.37 1333.2,1128.8 1335.21,1129.22 1337.22,1129.64 1339.23,1130.06 1341.24,1130.48 1343.25,1130.9 1345.26,1131.32 1347.27,1131.74 1349.28,1132.16 1351.3,1132.57 1353.31,1132.99 1355.32,1133.4 1357.33,1133.81 1359.34,1134.23 1361.35,1134.64 1363.36,1135.05 1365.37,1135.46 1367.38,1135.87 1369.39,1136.27 1371.41,1136.68 1373.42,1137.09 1375.43,1137.49 1377.44,1137.9 1379.45,1138.3 1381.46,1138.7 1383.47,1139.1 1385.48,1139.5 1387.49,1139.9 1389.5,1140.3 1391.52,1140.7 1393.53,1141.1 1395.54,1141.5 1397.55,1141.89 1399.56,1142.29 1401.57,1142.68 1403.58,1143.07 1405.59,1143.47 1407.6,1143.86 1409.61,1144.25 1411.62,1144.64 1413.64,1145.03 1415.65,1145.42 1417.66,1145.8 1419.67,1146.19 1421.68,1146.58 1423.69,1146.96 1425.7,1147.35 1427.71,1147.73 1429.72,1148.11 1431.73,1148.49 1433.75,1148.87 1435.76,1149.25 1437.77,1149.63 1439.78,1150.01 1441.79,1150.39 1443.8,1150.77 1445.81,1151.15 1447.82,1151.52 1449.83,1151.9 1451.84,1152.27 1453.86,1152.64 1455.87,1153.02 1457.88,1153.39 1459.89,1153.76 1461.9,1154.13 1463.91,1154.5 1465.92,1154.87 1467.93,1155.24 1469.94,1155.61 1471.95,1155.97 1473.96,1156.34 1475.98,1156.7 1477.99,1157.07 1480,1157.43 1482.01,1157.8 1484.02,1158.16 1486.03,1158.52 1488.04,1158.88 1490.05,1159.24 1492.06,1159.6 1494.07,1159.96 1496.09,1160.32 1498.1,1160.68 1500.11,1161.03 1502.12,1161.39 1504.13,1161.74 1506.14,1162.1 1508.15,1162.45 1510.16,1162.81 1512.17,1163.16 1514.18,1163.51 1516.19,1163.86 1518.21,1164.21 1520.22,1164.56 1522.23,1164.91 1524.24,1165.26 1526.25,1165.61 1528.26,1165.96 1530.27,1166.3 1532.28,1166.65 1534.29,1167 1536.3,1167.34 1538.32,1167.69 1540.33,1168.03 1542.34,1168.37 1544.35,1168.71 1546.36,1169.06 1548.37,1169.4 1550.38,1169.74 1552.39,1170.08 1554.4,1170.42 1556.41,1170.75 1558.43,1171.09 1560.44,1171.43 1562.45,1171.77 1564.46,1172.1 1566.47,1172.44 1568.48,1172.77 1570.49,1173.11 1572.5,1173.44 1574.51,1173.77 1576.52,1174.1 1578.53,1174.44 1580.55,1174.77 1582.56,1175.1 1584.57,1175.43 1586.58,1175.76 1588.59,1176.08 1590.6,1176.41 1592.61,1176.74 1594.62,1177.07 1596.63,1177.39 1598.64,1177.72 1600.66,1178.04 1602.67,1178.37 1604.68,1178.69 1606.69,1179.02 1608.7,1179.34 1610.71,1179.66 1612.72,1179.98 1614.73,1180.3 1616.74,1180.62 1618.75,1180.94 1620.77,1181.26 1622.78,1181.58 1624.79,1181.9 1626.8,1182.22 1628.81,1182.53 1630.82,1182.85 1632.83,1183.17 1634.84,1183.48 1636.85,1183.8 1638.86,1184.11 1640.87,1184.42 1642.89,1184.74 1644.9,1185.05 1646.91,1185.36 1648.92,1185.67 1650.93,1185.99 1652.94,1186.3 1654.95,1186.61 1656.96,1186.92 1658.97,1187.22 1660.98,1187.53 1663,1187.84 1665.01,1188.15 1667.02,1188.45 1669.03,1188.76 1671.04,1189.07 1673.05,1189.37 1675.06,1189.68 1677.07,1189.98 1679.08,1190.28 1681.09,1190.59 1683.1,1190.89 1685.12,1191.19 1687.13,1191.49 1689.14,1191.79 1691.15,1192.09 1693.16,1192.39 1695.17,1192.69 1697.18,1192.99 1699.19,1193.29 1701.2,1193.59 1703.21,1193.89 1705.23,1194.18 1707.24,1194.48 1709.25,1194.78 1711.26,1195.07 1713.27,1195.37 1715.28,1195.66 1717.29,1195.96 1719.3,1196.25 1721.31,1196.54 1723.32,1196.83 1725.34,1197.13 1727.35,1197.42 1729.36,1197.71 1731.37,1198 1733.38,1198.29 1735.39,1198.58 1737.4,1198.87 1739.41,1199.16 1741.42,1199.45 1743.43,1199.73 1745.44,1200.02 1747.46,1200.31 1749.47,1200.59 1751.48,1200.88 1753.49,1201.17 1755.5,1201.45 1757.51,1201.74 1759.52,1202.02 1761.53,1202.3 1763.54,1202.59 1765.55,1202.87 1767.57,1203.15 1769.58,1203.43 1771.59,1203.72 1773.6,1204 1775.61,1204.28 1777.62,1204.56 1779.63,1204.84 1781.64,1205.12 1783.65,1205.39 1785.66,1205.67 1787.68,1205.95 1789.69,1206.23 1791.7,1206.5 1793.71,1206.78 1795.72,1207.06 1797.73,1207.33 1799.74,1207.61 1801.75,1207.88 1803.76,1208.16 1805.77,1208.43 1807.78,1208.7 1809.8,1208.98 1811.81,1209.25 1813.82,1209.52 1815.83,1209.79 1817.84,1210.06 1819.85,1210.34 1821.86,1210.61 1823.87,1210.88 1825.88,1211.15 1827.89,1211.42 1829.91,1211.68 1831.92,1211.95 1833.93,1212.22 1835.94,1212.49 1837.95,1212.76 1839.96,1213.02 1841.97,1213.29 1843.98,1213.55 1845.99,1213.82 1848,1214.09 1850.01,1214.35 1852.03,1214.61 1854.04,1214.88 1856.05,1215.14 1858.06,1215.4 1860.07,1215.67 1862.08,1215.93 1864.09,1216.19 1866.1,1216.45 1868.11,1216.71 1870.12,1216.97 1872.14,1217.24 1874.15,1217.5 1876.16,1217.75 1878.17,1218.01 1880.18,1218.27 1882.19,1218.53 1884.2,1218.79 1886.21,1219.05 1888.22,1219.3 1890.23,1219.56 1892.25,1219.82 1894.26,1220.07 1896.27,1220.33 1898.28,1220.58 1900.29,1220.84 1902.3,1221.09 1904.31,1221.35 1906.32,1221.6 1908.33,1221.86 1910.34,1222.11 1912.35,1222.36 1914.37,1222.61 1916.38,1222.87 1918.39,1223.12 1920.4,1223.37 1922.41,1223.62 1924.42,1223.87 1926.43,1224.12 1928.44,1224.37 1930.45,1224.62 1932.46,1224.87 1934.48,1225.12 1936.49,1225.37 1938.5,1225.61 1940.51,1225.86 1942.52,1226.11 1944.53,1226.35 1946.54,1226.6 1948.55,1226.85 1950.56,1227.09 1952.57,1227.34 1954.59,1227.58 1956.6,1227.83 1958.61,1228.07 1960.62,1228.32 1962.63,1228.56 1964.64,1228.8 1966.65,1229.05 1968.66,1229.29 1970.67,1229.53 1972.68,1229.77 1974.69,1230.02 1976.71,1230.26 1978.72,1230.5 1980.73,1230.74 1982.74,1230.98 1984.75,1231.22 1986.76,1231.46 1988.77,1231.7 1990.78,1231.94 1992.79,1232.18 1994.8,1232.41 1996.82,1232.65 1998.83,1232.89 2000.84,1233.13 2002.85,1233.36 2004.86,1233.6 2006.87,1233.84 2008.88,1234.07 2010.89,1234.31 2012.9,1234.54 2014.91,1234.78 2016.92,1235.01 2018.94,1235.25 2020.95,1235.48 2022.96,1235.71 2024.97,1235.95 2026.98,1236.18 2028.99,1236.41 2031,1236.65 2033.01,1236.88 2035.02,1237.11 2037.03,1237.34 2039.05,1237.57 2041.06,1237.8 2043.07,1238.03 2045.08,1238.26 2047.09,1238.49 2049.1,1238.72 2051.11,1238.95 2053.12,1239.18 2055.13,1239.41 2057.14,1239.64 2059.16,1239.87 2061.17,1240.09 2063.18,1240.32 2065.19,1240.55 2067.2,1240.77 2069.21,1241 2071.22,1241.23 2073.23,1241.45 2075.24,1241.68 2077.25,1241.9 2079.26,1242.13 2081.28,1242.35 2083.29,1242.58 2085.3,1242.8 2087.31,1243.02 2089.32,1243.25 2091.33,1243.47 2093.34,1243.69 2095.35,1243.92 2097.36,1244.14 2099.37,1244.36 2101.39,1244.58 2103.4,1244.8 2105.41,1245.02 2107.42,1245.25 2109.43,1245.47 2111.44,1245.69 2113.45,1245.91 2115.46,1246.13 2117.47,1246.35 2119.48,1246.56 2121.5,1246.78 2123.51,1247 2125.52,1247.22 2127.53,1247.44 2129.54,1247.65 2131.55,1247.87 2133.56,1248.09 2135.57,1248.31 2137.58,1248.52 2139.59,1248.74 2141.6,1248.95 2143.62,1249.17 2145.63,1249.39 2147.64,1249.6 2149.65,1249.82 2151.66,1250.03 2153.67,1250.24 2155.68,1250.46 2157.69,1250.67 2159.7,1250.89 2161.71,1251.1 2163.73,1251.31 2165.74,1251.52 2167.75,1251.74 2169.76,1251.95 2171.77,1252.16 2173.78,1252.37 2175.79,1252.58 2177.8,1252.79 2179.81,1253 2181.82,1253.21 2183.83,1253.42 2185.85,1253.63 2187.86,1253.84 2189.87,1254.05 2191.88,1254.26 2193.89,1254.47 2195.9,1254.68 2197.91,1254.89 2199.92,1255.1 2201.93,1255.3 2203.94,1255.51 2205.96,1255.72 2207.97,1255.93 2209.98,1256.13 2211.99,1256.34 2214,1256.55 2216.01,1256.75 2218.02,1256.96 2220.03,1257.16 2222.04,1257.37 2224.05,1257.57 2226.07,1257.78 2228.08,1257.98 2230.09,1258.19 2232.1,1258.39 2234.11,1258.59 2236.12,1258.8 2238.13,1259 2240.14,1259.2 2242.15,1259.41 2244.16,1259.61 2246.17,1259.81 2248.19,1260.01 2250.2,1260.21 2252.21,1260.41 2254.22,1260.62 2256.23,1260.82 2258.24,1261.02 2260.25,1261.22 2262.26,1261.42 2264.27,1261.62 2266.28,1261.82 2268.3,1262.02 2270.31,1262.22 2272.32,1262.42 2274.33,1262.61 2276.34,1262.81 2278.35,1263.01 2280.36,1263.21 2282.37,1263.41 2284.38,1263.6 2286.39,1263.8 2288.41,1264 2290.42,1264.2 2292.43,1264.39 2294.44,1264.59 2296.45,1264.78 2298.46,1264.98 2300.47,1265.18 2302.48,1265.37 2304.49,1265.57 2306.5,1265.76 2308.51,1265.96 2310.53,1266.15 2312.54,1266.34 2314.55,1266.54 2316.56,1266.73 2318.57,1266.93 2320.58,1267.12 2322.59,1267.31 2324.6,1267.5 2326.61,1267.7 2328.62,1267.89 2330.64,1268.08 2332.65,1268.27 2334.66,1268.47 2336.67,1268.66 2338.68,1268.85 2340.69,1269.04 2342.7,1269.23 2344.71,1269.42 2346.72,1269.61 2348.73,1269.8 2350.74,1269.99 "></polyline>
</svg>