<svg xmlns="http://www.w3.org/2000/svg" xmlns:xlink="http://www.w3.org/1999/xlink" width="354" height="250" viewBox="0 0 1416 1000">
<defs>
  <clipPath id="clip020">
    <rect x="0" y="0" width="1416" height="1000"></rect>
  </clipPath>
</defs>
<path clip-path="url(#clip020)" d="M0 1000 L1416 1000 L1416 -1.13687e-13 L0 -1.13687e-13  Z" fill="#ffffff" fill-rule="evenodd" fill-opacity="1"></path>
<defs>
  <clipPath id="clip021">
    <rect x="283" y="0" width="992" height="992"></rect>
  </clipPath>
</defs>
<defs>
  <clipPath id="clip022">
    <rect x="190" y="47" width="1179" height="792"></rect>
  </clipPath>
</defs>
<path clip-path="url(#clip020)" d="M190.883 838.04 L1368.76 838.04 L1368.76 47.2441 L190.883 47.2441  Z" fill="#ffffff" fill-rule="evenodd" fill-opacity="1"></path>
<polyline clip-path="url(#clip022)" style="stroke:#000000; stroke-linecap:round; stroke-linejoin:round; stroke-width:2; stroke-opacity:0.1; fill:none" points="377.488,838.04 377.488,47.2441 "></polyline>
<polyline clip-path="url(#clip022)" style="stroke:#000000; stroke-linecap:round; stroke-linejoin:round; stroke-width:2; stroke-opacity:0.1; fill:none" points="569.074,838.04 569.074,47.2441 "></polyline>
<polyline clip-path="url(#clip022)" style="stroke:#000000; stroke-linecap:round; stroke-linejoin:round; stroke-width:2; stroke-opacity:0.1; fill:none" points="760.661,838.04 760.661,47.2441 "></polyline>
<polyline clip-path="url(#clip022)" style="stroke:#000000; stroke-linecap:round; stroke-linejoin:round; stroke-width:2; stroke-opacity:0.1; fill:none" points="952.247,838.04 952.247,47.2441 "></polyline>
<polyline clip-path="url(#clip022)" style="stroke:#000000; stroke-linecap:round; stroke-linejoin:round; stroke-width:2; stroke-opacity:0.1; fill:none" points="1143.83,838.04 1143.83,47.2441 "></polyline>
<polyline clip-path="url(#clip022)" style="stroke:#000000; stroke-linecap:round; stroke-linejoin:round; stroke-width:2; stroke-opacity:0.1; fill:none" points="1335.42,838.04 1335.42,47.2441 "></polyline>
<polyline clip-path="url(#clip020)" style="stroke:#000000; stroke-linecap:round; stroke-linejoin:round; stroke-width:4; stroke-opacity:1; fill:none" points="190.883,838.04 1368.76,838.04 "></polyline>
<polyline clip-path="url(#clip020)" style="stroke:#000000; stroke-linecap:round; stroke-linejoin:round; stroke-width:4; stroke-opacity:1; fill:none" points="377.488,838.04 377.488,819.142 "></polyline>
<polyline clip-path="url(#clip020)" style="stroke:#000000; stroke-linecap:round; stroke-linejoin:round; stroke-width:4; stroke-opacity:1; fill:none" points="569.074,838.04 569.074,819.142 "></polyline>
<polyline clip-path="url(#clip020)" style="stroke:#000000; stroke-linecap:round; stroke-linejoin:round; stroke-width:4; stroke-opacity:1; fill:none" points="760.661,838.04 760.661,819.142 "></polyline>
<polyline clip-path="url(#clip020)" style="stroke:#000000; stroke-linecap:round; stroke-linejoin:round; stroke-width:4; stroke-opacity:1; fill:none" points="952.247,838.04 952.247,819.142 "></polyline>
<polyline clip-path="url(#clip020)" style="stroke:#000000; stroke-linecap:round; stroke-linejoin:round; stroke-width:4; stroke-opacity:1; fill:none" points="1143.83,838.04 1143.83,819.142 "></polyline>
<polyline clip-path="url(#clip020)" style="stroke:#000000; stroke-linecap:round; stroke-linejoin:round; stroke-width:4; stroke-opacity:1; fill:none" points="1335.42,838.04 1335.42,819.142 "></polyline>
<path clip-path="url(#clip020)" d="M347.436 876.387 Q347.436 868.951 349.314 864.9 Q351.932 858.872 358.108 858.872 Q359.417 858.872 360.776 859.243 Q362.159 859.589 363.889 860.947 Q365.643 862.306 366.705 864.529 Q368.731 868.828 368.731 876.387 Q368.731 883.773 366.853 887.8 Q364.111 893.679 358.059 893.679 Q355.786 893.679 353.464 892.518 Q351.166 891.357 349.709 888.566 Q347.436 884.391 347.436 876.387 M351.636 875.769 Q351.636 883.403 352.179 886.441 Q352.797 889.727 354.477 891.159 Q356.181 892.568 358.059 892.568 Q360.084 892.568 361.764 891.061 Q363.469 889.529 363.988 886.243 Q364.556 883.007 364.531 875.769 Q364.531 868.729 364.037 865.913 Q363.37 862.627 361.591 861.318 Q359.837 859.984 358.059 859.984 Q357.392 859.984 356.675 860.181 Q355.984 860.379 354.971 860.947 Q353.958 861.515 353.167 862.923 Q352.402 864.332 352.031 866.456 Q351.636 869.198 351.636 875.769 Z" fill="#000000" fill-rule="evenodd" fill-opacity="1"></path><path clip-path="url(#clip020)" d="M375.82 891.752 Q375.055 890.937 375.055 889.875 Q375.055 888.813 375.82 888.047 Q376.586 887.256 377.747 887.256 Q378.859 887.256 379.6 887.997 Q380.366 888.714 380.366 889.9 Q380.366 891.061 379.551 891.826 Q378.76 892.568 377.747 892.568 Q376.586 892.568 375.82 891.752 Z" fill="#000000" fill-rule="evenodd" fill-opacity="1"></path><path clip-path="url(#clip020)" d="M387.332 884.415 Q387.332 882.908 388.147 882.34 Q388.963 881.747 389.827 881.747 Q390.988 881.747 391.655 882.489 Q392.347 883.205 392.347 884.218 Q392.347 885.231 391.655 885.972 Q390.988 886.688 389.827 886.688 Q389.259 886.688 388.963 886.589 Q389.63 888.911 391.655 890.591 Q393.706 892.271 396.398 892.271 Q399.783 892.271 401.808 888.986 Q403.019 886.861 403.019 882.044 Q403.019 877.795 402.105 875.67 Q400.697 872.434 397.806 872.434 Q393.706 872.434 391.285 875.967 Q390.988 876.412 390.642 876.436 Q390.148 876.436 390.025 876.164 Q389.926 875.868 389.926 875.102 L389.926 860.132 Q389.926 858.922 390.42 858.922 Q390.618 858.922 391.038 859.07 Q394.224 860.478 397.757 860.503 Q401.388 860.503 404.649 859.02 Q404.896 858.872 405.044 858.872 Q405.539 858.872 405.563 859.44 Q405.563 859.638 405.143 860.231 Q404.748 860.799 403.883 861.565 Q403.019 862.306 401.907 863.022 Q400.796 863.739 399.165 864.233 Q397.559 864.702 395.781 864.702 Q393.656 864.702 391.482 864.035 L391.482 873.892 Q394.101 871.323 397.905 871.323 Q401.957 871.323 404.748 874.583 Q407.54 877.844 407.54 882.39 Q407.54 887.157 404.229 890.418 Q400.944 893.679 396.497 893.679 Q392.446 893.679 389.877 890.789 Q387.332 887.899 387.332 884.415 Z" fill="#000000" fill-rule="evenodd" fill-opacity="1"></path><path clip-path="url(#clip020)" d="M540.011 863.689 L540.011 862.108 Q546.088 862.108 549.225 858.872 Q550.09 858.872 550.238 859.07 Q550.386 859.267 550.386 860.181 L550.386 888.566 Q550.386 890.072 551.127 890.542 Q551.868 891.011 555.105 891.011 L556.71 891.011 L556.71 892.568 Q554.932 892.419 548.509 892.419 Q542.086 892.419 540.332 892.568 L540.332 891.011 L541.938 891.011 Q545.124 891.011 545.89 890.567 Q546.656 890.097 546.656 888.566 L546.656 862.355 Q544.013 863.689 540.011 863.689 Z" fill="#000000" fill-rule="evenodd" fill-opacity="1"></path><path clip-path="url(#clip020)" d="M565.875 891.752 Q565.109 890.937 565.109 889.875 Q565.109 888.813 565.875 888.047 Q566.641 887.256 567.802 887.256 Q568.914 887.256 569.655 887.997 Q570.421 888.714 570.421 889.9 Q570.421 891.061 569.605 891.826 Q568.815 892.568 567.802 892.568 Q566.641 892.568 565.875 891.752 Z" fill="#000000" fill-rule="evenodd" fill-opacity="1"></path><path clip-path="url(#clip020)" d="M576.843 876.387 Q576.843 868.951 578.721 864.9 Q581.34 858.872 587.515 858.872 Q588.825 858.872 590.183 859.243 Q591.567 859.589 593.296 860.947 Q595.05 862.306 596.112 864.529 Q598.138 868.828 598.138 876.387 Q598.138 883.773 596.26 887.8 Q593.518 893.679 587.466 893.679 Q585.193 893.679 582.871 892.518 Q580.574 891.357 579.116 888.566 Q576.843 884.391 576.843 876.387 M581.043 875.769 Q581.043 883.403 581.587 886.441 Q582.204 889.727 583.884 891.159 Q585.588 892.568 587.466 892.568 Q589.492 892.568 591.171 891.061 Q592.876 889.529 593.395 886.243 Q593.963 883.007 593.938 875.769 Q593.938 868.729 593.444 865.913 Q592.777 862.627 590.999 861.318 Q589.245 859.984 587.466 859.984 Q586.799 859.984 586.083 860.181 Q585.391 860.379 584.378 860.947 Q583.365 861.515 582.575 862.923 Q581.809 864.332 581.438 866.456 Q581.043 869.198 581.043 875.769 Z" fill="#000000" fill-rule="evenodd" fill-opacity="1"></path><path clip-path="url(#clip020)" d="M731.869 863.689 L731.869 862.108 Q737.946 862.108 741.083 858.872 Q741.948 858.872 742.096 859.07 Q742.244 859.267 742.244 860.181 L742.244 888.566 Q742.244 890.072 742.985 890.542 Q743.727 891.011 746.963 891.011 L748.568 891.011 L748.568 892.568 Q746.79 892.419 740.367 892.419 Q733.944 892.419 732.19 892.568 L732.19 891.011 L733.796 891.011 Q736.983 891.011 737.748 890.567 Q738.514 890.097 738.514 888.566 L738.514 862.355 Q735.871 863.689 731.869 863.689 Z" fill="#000000" fill-rule="evenodd" fill-opacity="1"></path><path clip-path="url(#clip020)" d="M757.733 891.752 Q756.968 890.937 756.968 889.875 Q756.968 888.813 757.733 888.047 Q758.499 887.256 759.66 887.256 Q760.772 887.256 761.513 887.997 Q762.279 888.714 762.279 889.9 Q762.279 891.061 761.464 891.826 Q760.673 892.568 759.66 892.568 Q758.499 892.568 757.733 891.752 Z" fill="#000000" fill-rule="evenodd" fill-opacity="1"></path><path clip-path="url(#clip020)" d="M769.245 884.415 Q769.245 882.908 770.06 882.34 Q770.876 881.747 771.74 881.747 Q772.901 881.747 773.568 882.489 Q774.26 883.205 774.26 884.218 Q774.26 885.231 773.568 885.972 Q772.901 886.688 771.74 886.688 Q771.172 886.688 770.876 886.589 Q771.543 888.911 773.568 890.591 Q775.619 892.271 778.311 892.271 Q781.696 892.271 783.721 888.986 Q784.932 886.861 784.932 882.044 Q784.932 877.795 784.018 875.67 Q782.61 872.434 779.719 872.434 Q775.619 872.434 773.198 875.967 Q772.901 876.412 772.555 876.436 Q772.061 876.436 771.938 876.164 Q771.839 875.868 771.839 875.102 L771.839 860.132 Q771.839 858.922 772.333 858.922 Q772.531 858.922 772.951 859.07 Q776.137 860.478 779.67 860.503 Q783.301 860.503 786.562 859.02 Q786.809 858.872 786.957 858.872 Q787.451 858.872 787.476 859.44 Q787.476 859.638 787.056 860.231 Q786.661 860.799 785.796 861.565 Q784.932 862.306 783.82 863.022 Q782.708 863.739 781.078 864.233 Q779.472 864.702 777.694 864.702 Q775.569 864.702 773.395 864.035 L773.395 873.892 Q776.014 871.323 779.818 871.323 Q783.869 871.323 786.661 874.583 Q789.452 877.844 789.452 882.39 Q789.452 887.157 786.142 890.418 Q782.857 893.679 778.41 893.679 Q774.359 893.679 771.79 890.789 Q769.245 887.899 769.245 884.415 Z" fill="#000000" fill-rule="evenodd" fill-opacity="1"></path><path clip-path="url(#clip020)" d="M922.195 892.568 Q922.195 891.653 922.27 891.382 Q922.368 891.11 922.764 890.69 L932.472 879.87 Q937.783 873.892 937.783 868.679 Q937.783 865.295 936.005 862.874 Q934.251 860.453 931.015 860.453 Q928.791 860.453 926.914 861.812 Q925.036 863.171 924.172 865.591 Q924.32 865.542 924.839 865.542 Q926.099 865.542 926.79 866.333 Q927.507 867.123 927.507 868.185 Q927.507 869.544 926.617 870.211 Q925.753 870.853 924.888 870.853 Q924.542 870.853 924.073 870.779 Q923.628 870.705 922.912 870.013 Q922.195 869.297 922.195 868.037 Q922.195 864.504 924.863 861.688 Q927.556 858.872 931.657 858.872 Q936.301 858.872 939.34 861.639 Q942.403 864.381 942.403 868.679 Q942.403 870.186 941.933 871.57 Q941.489 872.928 940.871 873.991 Q940.278 875.053 938.648 876.757 Q937.017 878.462 935.708 879.672 Q934.399 880.883 931.459 883.452 L926.099 888.664 L935.214 888.664 Q939.661 888.664 940.007 888.269 Q940.501 887.553 941.118 883.773 L942.403 883.773 L940.97 892.568 L922.195 892.568 Z" fill="#000000" fill-rule="evenodd" fill-opacity="1"></path><path clip-path="url(#clip020)" d="M950.036 891.752 Q949.27 890.937 949.27 889.875 Q949.27 888.813 950.036 888.047 Q950.802 887.256 951.963 887.256 Q953.075 887.256 953.816 887.997 Q954.582 888.714 954.582 889.9 Q954.582 891.061 953.766 891.826 Q952.976 892.568 951.963 892.568 Q950.802 892.568 950.036 891.752 Z" fill="#000000" fill-rule="evenodd" fill-opacity="1"></path><path clip-path="url(#clip020)" d="M961.004 876.387 Q961.004 868.951 962.882 864.9 Q965.5 858.872 971.676 858.872 Q972.986 858.872 974.344 859.243 Q975.728 859.589 977.457 860.947 Q979.211 862.306 980.273 864.529 Q982.299 868.828 982.299 876.387 Q982.299 883.773 980.421 887.8 Q977.679 893.679 971.627 893.679 Q969.354 893.679 967.032 892.518 Q964.735 891.357 963.277 888.566 Q961.004 884.391 961.004 876.387 M965.204 875.769 Q965.204 883.403 965.747 886.441 Q966.365 889.727 968.045 891.159 Q969.749 892.568 971.627 892.568 Q973.653 892.568 975.332 891.061 Q977.037 889.529 977.556 886.243 Q978.124 883.007 978.099 875.769 Q978.099 868.729 977.605 865.913 Q976.938 862.627 975.159 861.318 Q973.406 859.984 971.627 859.984 Q970.96 859.984 970.243 860.181 Q969.552 860.379 968.539 860.947 Q967.526 861.515 966.736 862.923 Q965.97 864.332 965.599 866.456 Q965.204 869.198 965.204 875.769 Z" fill="#000000" fill-rule="evenodd" fill-opacity="1"></path><path clip-path="url(#clip020)" d="M1114.05 892.568 Q1114.05 891.653 1114.13 891.382 Q1114.23 891.11 1114.62 890.69 L1124.33 879.87 Q1129.64 873.892 1129.64 868.679 Q1129.64 865.295 1127.86 862.874 Q1126.11 860.453 1122.87 860.453 Q1120.65 860.453 1118.77 861.812 Q1116.89 863.171 1116.03 865.591 Q1116.18 865.542 1116.7 865.542 Q1117.96 865.542 1118.65 866.333 Q1119.36 867.123 1119.36 868.185 Q1119.36 869.544 1118.48 870.211 Q1117.61 870.853 1116.75 870.853 Q1116.4 870.853 1115.93 870.779 Q1115.49 870.705 1114.77 870.013 Q1114.05 869.297 1114.05 868.037 Q1114.05 864.504 1116.72 861.688 Q1119.41 858.872 1123.51 858.872 Q1128.16 858.872 1131.2 861.639 Q1134.26 864.381 1134.26 868.679 Q1134.26 870.186 1133.79 871.57 Q1133.35 872.928 1132.73 873.991 Q1132.14 875.053 1130.51 876.757 Q1128.88 878.462 1127.57 879.672 Q1126.26 880.883 1123.32 883.452 L1117.96 888.664 L1127.07 888.664 Q1131.52 888.664 1131.86 888.269 Q1132.36 887.553 1132.98 883.773 L1134.26 883.773 L1132.83 892.568 L1114.05 892.568 Z" fill="#000000" fill-rule="evenodd" fill-opacity="1"></path><path clip-path="url(#clip020)" d="M1141.89 891.752 Q1141.13 890.937 1141.13 889.875 Q1141.13 888.813 1141.89 888.047 Q1142.66 887.256 1143.82 887.256 Q1144.93 887.256 1145.67 887.997 Q1146.44 888.714 1146.44 889.9 Q1146.44 891.061 1145.62 891.826 Q1144.83 892.568 1143.82 892.568 Q1142.66 892.568 1141.89 891.752 Z" fill="#000000" fill-rule="evenodd" fill-opacity="1"></path><path clip-path="url(#clip020)" d="M1153.41 884.415 Q1153.41 882.908 1154.22 882.34 Q1155.04 881.747 1155.9 881.747 Q1157.06 881.747 1157.73 882.489 Q1158.42 883.205 1158.42 884.218 Q1158.42 885.231 1157.73 885.972 Q1157.06 886.688 1155.9 886.688 Q1155.33 886.688 1155.04 886.589 Q1155.7 888.911 1157.73 890.591 Q1159.78 892.271 1162.47 892.271 Q1165.86 892.271 1167.88 888.986 Q1169.09 886.861 1169.09 882.044 Q1169.09 877.795 1168.18 875.67 Q1166.77 872.434 1163.88 872.434 Q1159.78 872.434 1157.36 875.967 Q1157.06 876.412 1156.72 876.436 Q1156.22 876.436 1156.1 876.164 Q1156 875.868 1156 875.102 L1156 860.132 Q1156 858.922 1156.49 858.922 Q1156.69 858.922 1157.11 859.07 Q1160.3 860.478 1163.83 860.503 Q1167.46 860.503 1170.72 859.02 Q1170.97 858.872 1171.12 858.872 Q1171.61 858.872 1171.64 859.44 Q1171.64 859.638 1171.22 860.231 Q1170.82 860.799 1169.96 861.565 Q1169.09 862.306 1167.98 863.022 Q1166.87 863.739 1165.24 864.233 Q1163.63 864.702 1161.85 864.702 Q1159.73 864.702 1157.56 864.035 L1157.56 873.892 Q1160.17 871.323 1163.98 871.323 Q1168.03 871.323 1170.82 874.583 Q1173.61 877.844 1173.61 882.39 Q1173.61 887.157 1170.3 890.418 Q1167.02 893.679 1162.57 893.679 Q1158.52 893.679 1155.95 890.789 Q1153.41 887.899 1153.41 884.415 Z" fill="#000000" fill-rule="evenodd" fill-opacity="1"></path><path clip-path="url(#clip020)" d="M1305.17 885.749 Q1305.17 884.242 1306.04 883.526 Q1306.9 882.81 1308.01 882.81 Q1309.17 882.81 1309.99 883.575 Q1310.83 884.317 1310.83 885.626 Q1310.83 887.034 1309.84 887.824 Q1308.88 888.615 1307.49 888.417 Q1308.7 890.443 1310.93 891.357 Q1313.17 892.271 1315.25 892.271 Q1317.42 892.271 1319.18 890.394 Q1320.96 888.516 1320.96 883.921 Q1320.96 880.018 1319.42 877.77 Q1317.92 875.522 1314.93 875.522 L1312.71 875.522 Q1311.94 875.522 1311.72 875.448 Q1311.49 875.374 1311.49 874.954 Q1311.49 874.46 1312.26 874.361 Q1313.03 874.361 1314.24 874.213 Q1317.18 874.114 1318.73 871.57 Q1320.14 869.198 1320.14 865.814 Q1320.14 862.726 1318.66 861.441 Q1317.2 860.132 1315.3 860.132 Q1313.52 860.132 1311.57 860.873 Q1309.62 861.614 1308.55 863.269 Q1311.69 863.269 1311.69 865.814 Q1311.69 866.925 1310.98 867.667 Q1310.28 868.383 1309.12 868.383 Q1308.01 868.383 1307.27 867.691 Q1306.53 866.975 1306.53 865.764 Q1306.53 862.874 1309.1 860.873 Q1311.69 858.872 1315.5 858.872 Q1319.25 858.872 1322.02 860.848 Q1324.81 862.825 1324.81 865.863 Q1324.81 868.852 1322.83 871.298 Q1320.86 873.744 1317.72 874.756 Q1321.57 875.522 1323.87 878.141 Q1326.17 880.735 1326.17 883.921 Q1326.17 887.874 1323.06 890.789 Q1319.94 893.679 1315.4 893.679 Q1311.2 893.679 1308.18 891.406 Q1305.17 889.134 1305.17 885.749 Z" fill="#000000" fill-rule="evenodd" fill-opacity="1"></path><path clip-path="url(#clip020)" d="M1333.41 891.752 Q1332.64 890.937 1332.64 889.875 Q1332.64 888.813 1333.41 888.047 Q1334.17 887.256 1335.33 887.256 Q1336.45 887.256 1337.19 887.997 Q1337.95 888.714 1337.95 889.9 Q1337.95 891.061 1337.14 891.826 Q1336.35 892.568 1335.33 892.568 Q1334.17 892.568 1333.41 891.752 Z" fill="#000000" fill-rule="evenodd" fill-opacity="1"></path><path clip-path="url(#clip020)" d="M1344.37 876.387 Q1344.37 868.951 1346.25 864.9 Q1348.87 858.872 1355.05 858.872 Q1356.36 858.872 1357.71 859.243 Q1359.1 859.589 1360.83 860.947 Q1362.58 862.306 1363.64 864.529 Q1365.67 868.828 1365.67 876.387 Q1365.67 883.773 1363.79 887.8 Q1361.05 893.679 1355 893.679 Q1352.72 893.679 1350.4 892.518 Q1348.11 891.357 1346.65 888.566 Q1344.37 884.391 1344.37 876.387 M1348.57 875.769 Q1348.57 883.403 1349.12 886.441 Q1349.74 889.727 1351.42 891.159 Q1353.12 892.568 1355 892.568 Q1357.02 892.568 1358.7 891.061 Q1360.41 889.529 1360.93 886.243 Q1361.49 883.007 1361.47 875.769 Q1361.47 868.729 1360.98 865.913 Q1360.31 862.627 1358.53 861.318 Q1356.78 859.984 1355 859.984 Q1354.33 859.984 1353.61 860.181 Q1352.92 860.379 1351.91 860.947 Q1350.9 861.515 1350.11 862.923 Q1349.34 864.332 1348.97 866.456 Q1348.57 869.198 1348.57 875.769 Z" fill="#000000" fill-rule="evenodd" fill-opacity="1"></path><path clip-path="url(#clip020)" d="M780.434 930.491 Q780.434 932.669 779.333 936.885 Q778.888 938.712 778.279 940.375 Q777.693 942.015 776.827 943.607 Q775.96 945.2 774.953 946.348 Q773.946 947.472 772.634 948.175 Q771.322 948.877 769.87 948.877 Q767.575 948.877 766.216 947.519 Q764.881 946.137 764.46 943.771 Q761.321 948.877 757.128 948.877 Q754.529 948.877 753.311 947.027 Q752.093 945.153 752.093 942.015 Q752.093 939.368 752.795 936.627 Q754.13 931.428 756.73 927.797 Q757.082 927.376 757.597 927.376 Q757.901 927.376 758.042 927.469 Q758.464 927.727 758.464 928.148 Q758.464 928.453 758.229 928.757 Q756.59 931.029 755.512 932.974 Q754.435 934.918 753.943 936.885 Q753.568 938.571 753.568 940 Q753.568 942.413 754.599 943.912 Q755.653 945.411 757.737 945.411 Q759.658 945.411 761.344 944.216 Q763.031 942.998 764.272 940.961 Q764.343 938.735 764.881 936.627 Q765.373 934.379 766.521 934.379 Q767.434 934.379 767.434 935.62 Q767.434 936.042 767.247 936.885 Q766.732 939.11 765.795 941.101 Q766.123 943.045 767.341 944.24 Q768.559 945.411 770.503 945.411 Q772.306 945.411 773.899 944.099 Q775.515 942.788 776.546 940.867 Q777.6 938.923 778.185 936.627 Q778.373 935.854 778.373 934.871 Q778.373 932.247 776.546 930.631 Q776.03 930.116 776.03 929.437 Q776.03 928.64 776.686 927.914 Q777.459 927.141 778.373 927.141 Q779.052 927.141 779.473 927.563 Q780.434 928.406 780.434 930.491 Z" fill="#000000" fill-rule="evenodd" fill-opacity="1"></path><path clip-path="url(#clip020)" d="M805.089 924.354 Q805.089 928.289 803.825 932.716 Q802.583 937.119 800.616 940.679 Q798.648 944.216 796.072 946.559 Q793.495 948.877 791.036 948.877 Q789.467 948.877 788.296 948.011 Q787.148 947.121 786.515 945.645 Q785.883 944.146 785.579 942.506 Q785.274 940.843 785.274 939.04 Q785.274 936.346 785.86 933.419 Q786.445 930.467 787.429 927.797 Q788.413 925.104 789.795 922.668 Q791.177 920.208 792.699 918.428 Q794.245 916.625 795.978 915.571 Q797.711 914.517 799.328 914.517 Q800.499 914.517 801.436 915.032 Q802.396 915.524 803.005 916.39 Q803.614 917.234 804.035 918.241 Q804.481 919.248 804.691 920.419 Q804.902 921.567 804.996 922.527 Q805.089 923.464 805.089 924.354 M801.927 921.379 Q801.927 920.185 801.834 919.295 Q801.74 918.381 801.482 917.468 Q801.225 916.554 800.663 916.062 Q800.124 915.571 799.281 915.571 Q796.821 915.571 794.058 920.606 Q793.167 922.176 792.371 924.307 Q791.575 926.439 791.294 927.446 Q791.013 928.453 790.357 930.936 L800.382 930.936 Q801.927 924.541 801.927 921.379 M799.96 932.458 L789.982 932.458 Q788.436 938.314 788.436 941.968 Q788.436 945.153 789.092 946.488 Q789.771 947.8 791.036 947.8 Q792.488 947.8 793.847 946.348 Q795.205 944.872 796.587 942.202 Q798.414 938.735 799.96 932.458 Z" fill="#000000" fill-rule="evenodd" fill-opacity="1"></path><polyline clip-path="url(#clip022)" style="stroke:#000000; stroke-linecap:round; stroke-linejoin:round; stroke-width:2; stroke-opacity:0.1; fill:none" points="190.883,726.984 1368.76,726.984 "></polyline>
<polyline clip-path="url(#clip022)" style="stroke:#000000; stroke-linecap:round; stroke-linejoin:round; stroke-width:2; stroke-opacity:0.1; fill:none" points="190.883,223.59 1368.76,223.59 "></polyline>
<polyline clip-path="url(#clip020)" style="stroke:#000000; stroke-linecap:round; stroke-linejoin:round; stroke-width:4; stroke-opacity:1; fill:none" points="190.883,838.04 190.883,47.2441 "></polyline>
<polyline clip-path="url(#clip020)" style="stroke:#000000; stroke-linecap:round; stroke-linejoin:round; stroke-width:4; stroke-opacity:1; fill:none" points="190.883,726.984 209.78,726.984 "></polyline>
<polyline clip-path="url(#clip020)" style="stroke:#000000; stroke-linecap:round; stroke-linejoin:round; stroke-width:4; stroke-opacity:1; fill:none" points="190.883,223.59 209.78,223.59 "></polyline>
<path clip-path="url(#clip020)" d="M108.27 721.833 L108.27 720.252 Q114.347 720.252 117.485 717.016 Q118.349 717.016 118.498 717.214 Q118.646 717.412 118.646 718.326 L118.646 746.71 Q118.646 748.217 119.387 748.686 Q120.128 749.155 123.364 749.155 L124.97 749.155 L124.97 750.712 Q123.191 750.563 116.768 750.563 Q110.345 750.563 108.591 750.712 L108.591 749.155 L110.197 749.155 Q113.384 749.155 114.15 748.711 Q114.916 748.241 114.916 746.71 L114.916 720.499 Q112.272 721.833 108.27 721.833 Z" fill="#000000" fill-rule="evenodd" fill-opacity="1"></path><path clip-path="url(#clip020)" d="M131.047 734.531 Q131.047 727.095 132.924 723.044 Q135.543 717.016 141.719 717.016 Q143.028 717.016 144.387 717.387 Q145.77 717.733 147.499 719.091 Q149.253 720.45 150.315 722.673 Q152.341 726.972 152.341 734.531 Q152.341 741.917 150.464 745.944 Q147.722 751.823 141.669 751.823 Q139.397 751.823 137.074 750.662 Q134.777 749.501 133.32 746.71 Q131.047 742.535 131.047 734.531 M135.246 733.913 Q135.246 741.547 135.79 744.585 Q136.407 747.871 138.087 749.304 Q139.792 750.712 141.669 750.712 Q143.695 750.712 145.375 749.205 Q147.079 747.673 147.598 744.388 Q148.166 741.151 148.142 733.913 Q148.142 726.873 147.647 724.057 Q146.98 720.771 145.202 719.462 Q143.448 718.128 141.669 718.128 Q141.002 718.128 140.286 718.326 Q139.594 718.523 138.581 719.091 Q137.569 719.66 136.778 721.068 Q136.012 722.476 135.642 724.6 Q135.246 727.342 135.246 733.913 Z" fill="#000000" fill-rule="evenodd" fill-opacity="1"></path><path clip-path="url(#clip020)" d="M152.341 710.154 Q152.341 704.113 153.867 700.821 Q155.994 695.924 161.012 695.924 Q162.076 695.924 163.18 696.225 Q164.304 696.506 165.709 697.61 Q167.134 698.714 167.997 700.52 Q169.643 704.013 169.643 710.154 Q169.643 716.156 168.117 719.427 Q165.889 724.204 160.972 724.204 Q159.125 724.204 157.239 723.261 Q155.372 722.318 154.188 720.05 Q152.341 716.658 152.341 710.154 M155.753 709.653 Q155.753 715.855 156.195 718.324 Q156.697 720.993 158.061 722.157 Q159.446 723.301 160.972 723.301 Q162.618 723.301 163.983 722.077 Q165.368 720.832 165.789 718.163 Q166.251 715.534 166.231 709.653 Q166.231 703.932 165.829 701.644 Q165.287 698.975 163.842 697.911 Q162.417 696.827 160.972 696.827 Q160.43 696.827 159.848 696.988 Q159.286 697.148 158.463 697.61 Q157.64 698.071 156.998 699.215 Q156.375 700.36 156.074 702.086 Q155.753 704.314 155.753 709.653 Z" fill="#000000" fill-rule="evenodd" fill-opacity="1"></path><path clip-path="url(#clip020)" d="M112.004 218.439 L112.004 216.858 Q118.081 216.858 121.218 213.622 Q122.083 213.622 122.231 213.82 Q122.379 214.017 122.379 214.931 L122.379 243.315 Q122.379 244.822 123.12 245.292 Q123.861 245.761 127.097 245.761 L128.703 245.761 L128.703 247.317 Q126.924 247.169 120.502 247.169 Q114.079 247.169 112.325 247.317 L112.325 245.761 L113.93 245.761 Q117.117 245.761 117.883 245.316 Q118.649 244.847 118.649 243.315 L118.649 217.105 Q116.006 218.439 112.004 218.439 Z" fill="#000000" fill-rule="evenodd" fill-opacity="1"></path><path clip-path="url(#clip020)" d="M134.78 231.137 Q134.78 223.701 136.658 219.65 Q139.276 213.622 145.452 213.622 Q146.761 213.622 148.12 213.992 Q149.503 214.338 151.233 215.697 Q152.986 217.056 154.049 219.279 Q156.074 223.577 156.074 231.137 Q156.074 238.523 154.197 242.55 Q151.455 248.429 145.403 248.429 Q143.13 248.429 140.808 247.268 Q138.51 246.107 137.053 243.315 Q134.78 239.14 134.78 231.137 M138.98 230.519 Q138.98 238.152 139.523 241.191 Q140.141 244.476 141.821 245.909 Q143.525 247.317 145.403 247.317 Q147.428 247.317 149.108 245.81 Q150.813 244.279 151.331 240.993 Q151.9 237.757 151.875 230.519 Q151.875 223.479 151.381 220.662 Q150.714 217.377 148.935 216.068 Q147.181 214.734 145.403 214.734 Q144.736 214.734 144.019 214.931 Q143.327 215.129 142.315 215.697 Q141.302 216.265 140.511 217.673 Q139.745 219.081 139.375 221.206 Q138.98 223.948 138.98 230.519 Z" fill="#000000" fill-rule="evenodd" fill-opacity="1"></path><path clip-path="url(#clip020)" d="M156.074 196.443 L156.074 195.159 Q161.012 195.159 163.561 192.529 Q164.264 192.529 164.384 192.69 Q164.504 192.851 164.504 193.593 L164.504 216.655 Q164.504 217.88 165.107 218.261 Q165.709 218.642 168.338 218.642 L169.643 218.642 L169.643 219.907 Q168.198 219.786 162.979 219.786 Q157.76 219.786 156.335 219.907 L156.335 218.642 L157.64 218.642 Q160.229 218.642 160.851 218.281 Q161.474 217.9 161.474 216.655 L161.474 195.359 Q159.326 196.443 156.074 196.443 Z" fill="#000000" fill-rule="evenodd" fill-opacity="1"></path><path clip-path="url(#clip020)" d="M45.9434 465.944 Q46.9037 465.944 46.9037 466.74 Q46.9506 468.145 47.2316 469.106 Q47.4893 470.066 48.0046 470.628 Q48.5199 471.167 49.082 471.471 Q49.6207 471.752 50.4405 471.94 L67.4686 476.203 Q72.2702 477.421 75.7602 481.356 Q79.2267 485.29 79.2267 489.764 Q79.2267 492.317 78.1727 494.449 Q77.1187 496.557 74.9872 497.868 Q72.8558 499.18 70.0217 499.18 Q68.6632 499.18 67.2344 498.829 L55.3826 495.924 L51.1666 494.847 Q48.0514 494.05 47.7704 494.05 Q47.3253 494.05 47.2082 494.332 Q47.0677 494.589 46.9974 495.339 L46.9037 497.166 Q46.9037 497.728 46.8803 497.962 Q46.8569 498.173 46.7398 498.337 Q46.6227 498.501 46.365 498.501 Q46.0371 498.501 45.8263 498.43 Q45.5921 498.337 45.5218 498.173 Q45.4515 498.009 45.4281 497.892 Q45.4047 497.775 45.4047 497.587 L45.5452 491.404 L45.4047 485.267 Q45.4047 484.588 45.9434 484.588 Q46.6227 484.588 46.7632 484.892 Q46.9037 485.197 46.9037 486.227 Q46.9037 487.984 47.1379 488.78 Q47.3487 489.553 47.7235 489.788 Q48.0748 489.998 49.1054 490.256 L67.7731 494.917 Q68.71 495.151 69.6469 495.292 Q70.5604 495.409 71.0288 495.409 L71.4973 495.432 Q74.4719 495.432 76.1115 493.793 Q77.7511 492.13 77.7511 489.577 Q77.7511 485.829 74.7764 482.339 Q71.8018 478.826 67.1407 477.631 L50.0189 473.322 Q49.5973 473.181 49.0117 473.181 Q48.0748 473.181 47.5127 473.884 Q46.9271 474.563 46.9037 476.437 Q46.9037 477.303 46.365 477.303 Q45.92 477.303 45.7092 477.139 Q45.475 476.952 45.4515 476.812 Q45.4047 476.648 45.4047 476.437 Q45.4047 475.64 45.475 473.954 Q45.5452 472.268 45.5452 471.448 Q45.5452 470.628 45.475 468.988 Q45.4047 467.349 45.4047 466.553 Q45.4047 466.271 45.5452 466.131 Q45.6623 465.967 45.8029 465.944 L45.9434 465.944 Z" fill="#000000" fill-rule="evenodd" fill-opacity="1"></path><path clip-path="url(#clip020)" d="M89.4857 466.747 Q89.2515 466.747 88.7362 466.559 L43.484 449.625 Q43.4372 449.625 43.1796 449.508 Q42.9219 449.39 42.758 449.32 Q42.5706 449.25 42.43 449.109 Q42.2895 448.945 42.2895 448.758 Q42.2895 448.29 42.8751 448.29 Q42.9219 448.29 43.484 448.43 L88.7831 465.411 Q89.6028 465.693 89.8371 465.88 Q90.0713 466.044 90.0713 466.325 Q90.0713 466.747 89.4857 466.747 Z" fill="#000000" fill-rule="evenodd" fill-opacity="1"></path><path clip-path="url(#clip020)" d="M71.3099 419.45 Q71.4973 419.45 72.2234 419.661 Q72.9495 419.872 74.0738 420.387 Q75.198 420.879 76.2286 421.558 Q77.2358 422.238 77.9853 423.362 Q78.7114 424.463 78.7114 425.727 Q78.7114 427.414 77.5871 428.538 Q76.4628 429.662 74.7764 429.662 Q74.5422 429.662 74.308 429.639 Q74.0738 429.616 73.9332 429.592 Q73.7693 429.569 73.5116 429.498 Q73.2306 429.405 73.1134 429.381 Q72.9963 429.335 72.645 429.217 Q72.2702 429.077 72.1297 429.03 Q64.5408 426.055 61.3788 426.055 Q58.0294 426.055 58.0294 428.655 Q58.0294 430.974 59.7158 433.269 Q60.559 434.323 62.058 435.331 Q63.5571 436.338 64.1192 436.525 Q65.3372 436.736 66.2741 437.04 Q66.9299 437.181 69.483 437.86 L73.8161 438.914 L77.4466 439.828 Q77.9619 440.015 78.3366 440.53 Q78.7114 441.046 78.7114 441.608 Q78.7114 442.076 78.3835 442.545 Q78.079 442.99 77.3529 442.99 Q76.9781 442.99 76.2989 442.802 L56.6709 437.86 L58.9897 441.608 Q59.0834 441.795 59.0834 441.936 Q59.0834 442.147 58.9194 442.334 Q58.7321 442.521 58.4978 442.521 Q58.2168 442.521 58.0294 442.24 L55.1016 437.486 L48.6604 435.846 L47.7235 435.705 Q47.4424 435.705 47.3019 435.823 Q47.1379 435.916 47.0208 436.478 Q46.9037 437.017 46.9037 438.095 Q46.9037 438.54 46.8803 438.75 Q46.8569 438.938 46.7398 439.102 Q46.5992 439.266 46.3182 439.266 Q45.92 439.266 45.7092 439.102 Q45.475 438.914 45.4281 438.774 Q45.3813 438.633 45.3578 438.352 Q45.3344 437.954 45.2173 436.619 Q45.0768 435.284 44.9831 434.136 Q44.8894 432.988 44.8894 432.497 Q44.8894 432.215 45.0299 432.075 Q45.147 431.911 45.2876 431.888 L45.4047 431.864 L52.8062 433.691 L48.4262 426.5 Q48.3325 426.407 48.3325 426.219 Q48.3325 426.009 48.5199 425.821 Q48.6838 425.634 48.9181 425.634 Q49.246 425.634 49.3865 425.915 L54.3755 434.066 L60.6527 435.612 Q56.9754 432.637 56.9754 428.515 Q56.9754 425.845 58.3573 424.416 Q59.7158 422.987 62.1049 422.987 Q64.8453 422.987 72.645 425.915 Q74.8233 426.781 76.0647 426.781 Q76.8845 426.781 77.2592 426.524 Q77.634 426.243 77.634 425.634 Q77.634 424.697 77.0953 423.877 Q76.5331 423.034 75.6196 422.448 Q74.6827 421.863 73.7458 421.465 Q72.7855 421.043 71.7081 420.738 Q71.1225 420.551 70.982 420.457 Q70.8415 420.34 70.8415 420.012 Q70.8415 419.45 71.3099 419.45 Z" fill="#000000" fill-rule="evenodd" fill-opacity="1"></path><path clip-path="url(#clip020)" d="M60.3248 387.296 Q62.5031 387.296 66.7191 388.397 Q68.5461 388.842 70.2091 389.451 Q71.8486 390.036 73.4414 390.903 Q75.0341 391.77 76.1818 392.777 Q77.3061 393.784 78.0087 395.096 Q78.7114 396.407 78.7114 397.859 Q78.7114 400.155 77.3529 401.513 Q75.971 402.848 73.6053 403.27 Q78.7114 406.409 78.7114 410.601 Q78.7114 413.201 76.861 414.419 Q74.9872 415.637 71.8486 415.637 Q69.2019 415.637 66.4615 414.934 Q61.2617 413.599 57.6312 410.999 Q57.2096 410.648 57.2096 410.133 Q57.2096 409.828 57.3033 409.688 Q57.5609 409.266 57.9825 409.266 Q58.287 409.266 58.5915 409.5 Q60.8635 411.14 62.8076 412.217 Q64.7516 413.295 66.7191 413.787 Q68.4055 414.161 69.8343 414.161 Q72.2468 414.161 73.7458 413.131 Q75.2449 412.077 75.2449 409.992 Q75.2449 408.072 74.0503 406.385 Q72.8324 404.699 70.7946 403.457 Q68.5695 403.387 66.4615 402.848 Q64.2129 402.357 64.2129 401.209 Q64.2129 400.295 65.4543 400.295 Q65.8759 400.295 66.7191 400.483 Q68.9442 400.998 70.9352 401.935 Q72.8792 401.607 74.0738 400.389 Q75.2449 399.171 75.2449 397.227 Q75.2449 395.424 73.9332 393.831 Q72.6216 392.215 70.7009 391.184 Q68.7569 390.13 66.4615 389.544 Q65.6885 389.357 64.7048 389.357 Q62.0815 389.357 60.4653 391.184 Q59.95 391.699 59.2708 391.699 Q58.4744 391.699 57.7483 391.044 Q56.9754 390.271 56.9754 389.357 Q56.9754 388.678 57.397 388.256 Q58.2402 387.296 60.3248 387.296 Z" fill="#000000" fill-rule="evenodd" fill-opacity="1"></path><polyline clip-path="url(#clip022)" style="stroke:#e31a1c; stroke-linecap:round; stroke-linejoin:round; stroke-width:12; stroke-opacity:1; fill:none" points="224.219,256.794 241.857,276.047 259.495,296.305 277.133,317.046 294.771,337.758 312.409,358.001 330.047,377.442 347.686,395.871 365.324,413.179 382.962,429.34 400.6,444.382 418.238,458.364 435.876,471.361 453.514,483.452 471.152,494.715 488.79,505.221 506.429,515.035 524.067,524.216 541.705,532.814 559.343,540.875 576.981,548.441 594.619,555.548 612.257,562.229 629.895,568.513 647.533,574.428 665.172,579.998 682.81,585.245 700.448,590.191 718.086,594.853 735.724,599.251 753.362,603.4 771,607.314 788.638,611.009 806.276,614.498 823.915,617.792 841.553,620.903 859.191,623.841 876.829,626.618 894.467,629.241 912.105,631.72 929.743,634.062 947.381,636.277 965.02,638.37 982.658,640.349 1000.3,642.22 1017.93,643.989 1035.57,645.662 1053.21,647.244 1070.85,648.74 1088.49,650.155 1106.12,651.494 1123.76,652.759 1141.4,653.957 1159.04,655.09 1176.68,656.161 1194.31,657.175 1211.95,658.134 1229.59,659.041 1247.23,659.9 1264.87,660.712 1282.51,661.481 1300.14,662.208 1317.78,662.896 1335.42,663.547 "></polyline>
<polyline clip-path="url(#clip022)" style="stroke:#377db8; stroke-linecap:round; stroke-linejoin:round; stroke-width:12; stroke-opacity:1; fill:none" stroke-dasharray="6, 12" points="224.219,77.5277 241.857,168.922 259.495,215.205 277.133,261.839 294.771,300.377 312.409,333.187 330.047,361.721 347.686,386.944 365.324,409.568 382.962,430.063 400.6,451.294 418.238,467.941 435.876,483.472 453.514,498.029 471.152,511.716 488.79,524.629 506.429,536.853 524.067,548.452 541.705,559.48 559.343,569.977 576.981,580.019 594.619,589.625 612.257,598.835 629.895,607.706 647.533,616.213 665.172,624.402 682.81,632.266 700.448,639.891 718.086,647.26 735.724,654.408 753.362,661.305 771,667.996 788.638,674.489 806.276,680.795 823.915,686.925 841.553,692.885 859.191,698.688 876.829,704.34 894.467,709.85 912.105,715.224 929.743,720.477 947.381,725.6 965.02,730.605 982.658,735.499 1000.3,740.288 1017.93,744.973 1035.57,749.56 1053.21,754.061 1070.85,758.641 1088.49,762.934 1106.12,767.146 1123.76,771.279 1141.4,775.337 1159.04,779.319 1176.68,783.234 1194.31,787.082 1211.95,790.863 1229.59,794.58 1247.23,798.236 1264.87,801.832 1282.51,805.371 1300.14,808.853 1317.78,812.282 1335.42,815.659 "></polyline>
<path clip-path="url(#clip022)" d="M224.219 57.6251 L212.219 69.6251 L224.219 81.6251 L236.219 69.6251 L224.219 57.6251 Z" fill="#4dae49" fill-rule="evenodd" fill-opacity="1" stroke="#000000" stroke-opacity="1" stroke-width="0"></path>
<path clip-path="url(#clip022)" d="M298.299 291.498 L286.299 303.498 L298.299 315.498 L310.299 303.498 L298.299 291.498 Z" fill="#4dae49" fill-rule="evenodd" fill-opacity="1" stroke="#000000" stroke-opacity="1" stroke-width="0"></path>
<path clip-path="url(#clip022)" d="M372.379 397.3 L360.379 409.3 L372.379 421.3 L384.379 409.3 L372.379 397.3 Z" fill="#4dae49" fill-rule="evenodd" fill-opacity="1" stroke="#000000" stroke-opacity="1" stroke-width="0"></path>
<path clip-path="url(#clip022)" d="M446.459 464.157 L434.459 476.157 L446.459 488.157 L458.459 476.157 L446.459 464.157 Z" fill="#4dae49" fill-rule="evenodd" fill-opacity="1" stroke="#000000" stroke-opacity="1" stroke-width="0"></path>
<path clip-path="url(#clip022)" d="M520.539 509.291 L508.539 521.291 L520.539 533.291 L532.539 521.291 L520.539 509.291 Z" fill="#4dae49" fill-rule="evenodd" fill-opacity="1" stroke="#000000" stroke-opacity="1" stroke-width="0"></path>
<path clip-path="url(#clip022)" d="M594.619 543.37 L582.619 555.37 L594.619 567.37 L606.619 555.37 L594.619 543.37 Z" fill="#4dae49" fill-rule="evenodd" fill-opacity="1" stroke="#000000" stroke-opacity="1" stroke-width="0"></path>
<path clip-path="url(#clip022)" d="M668.699 571.474 L656.699 583.474 L668.699 595.474 L680.699 583.474 L668.699 571.474 Z" fill="#4dae49" fill-rule="evenodd" fill-opacity="1" stroke="#000000" stroke-opacity="1" stroke-width="0"></path>
<path clip-path="url(#clip022)" d="M742.779 592.996 L730.779 604.996 L742.779 616.996 L754.779 604.996 L742.779 592.996 Z" fill="#4dae49" fill-rule="evenodd" fill-opacity="1" stroke="#000000" stroke-opacity="1" stroke-width="0"></path>
<path clip-path="url(#clip022)" d="M816.859 610.797 L804.859 622.797 L816.859 634.797 L828.859 622.797 L816.859 610.797 Z" fill="#4dae49" fill-rule="evenodd" fill-opacity="1" stroke="#000000" stroke-opacity="1" stroke-width="0"></path>
<path clip-path="url(#clip022)" d="M890.939 627.185 L878.939 639.185 L890.939 651.185 L902.939 639.185 L890.939 627.185 Z" fill="#4dae49" fill-rule="evenodd" fill-opacity="1" stroke="#000000" stroke-opacity="1" stroke-width="0"></path>
<path clip-path="url(#clip022)" d="M965.02 638.076 L953.02 650.076 L965.02 662.076 L977.02 650.076 L965.02 638.076 Z" fill="#4dae49" fill-rule="evenodd" fill-opacity="1" stroke="#000000" stroke-opacity="1" stroke-width="0"></path>
<path clip-path="url(#clip022)" d="M1039.1 650.391 L1027.1 662.391 L1039.1 674.391 L1051.1 662.391 L1039.1 650.391 Z" fill="#4dae49" fill-rule="evenodd" fill-opacity="1" stroke="#000000" stroke-opacity="1" stroke-width="0"></path>
<path clip-path="url(#clip022)" d="M1113.18 655.78 L1101.18 667.78 L1113.18 679.78 L1125.18 667.78 L1113.18 655.78 Z" fill="#4dae49" fill-rule="evenodd" fill-opacity="1" stroke="#000000" stroke-opacity="1" stroke-width="0"></path>
<path clip-path="url(#clip022)" d="M1187.26 665.935 L1175.26 677.935 L1187.26 689.935 L1199.26 677.935 L1187.26 665.935 Z" fill="#4dae49" fill-rule="evenodd" fill-opacity="1" stroke="#000000" stroke-opacity="1" stroke-width="0"></path>
<path clip-path="url(#clip022)" d="M1261.34 672.316 L1249.34 684.316 L1261.34 696.316 L1273.34 684.316 L1261.34 672.316 Z" fill="#4dae49" fill-rule="evenodd" fill-opacity="1" stroke="#000000" stroke-opacity="1" stroke-width="0"></path>
<path clip-path="url(#clip022)" d="M1335.42 673.009 L1323.42 685.009 L1335.42 697.009 L1347.42 685.009 L1335.42 673.009 Z" fill="#4dae49" fill-rule="evenodd" fill-opacity="1" stroke="#000000" stroke-opacity="1" stroke-width="0"></path>
<path clip-path="url(#clip020)" d="M1187.9 131.112 Q1187.14 134.889 1186.11 137.056 Q1184.47 140.364 1181.66 140.364 Q1179.67 140.364 1178.15 139.164 Q1176.66 137.963 1176.28 135.973 Q1175.51 136.88 1174.96 137.407 Q1174.43 137.934 1173.38 138.754 Q1172.35 139.544 1171.06 139.954 Q1169.78 140.364 1168.31 140.364 Q1164.74 140.364 1162.49 138.49 Q1159.44 150.758 1159.18 151.373 Q1158.33 152.632 1157.1 152.632 Q1156.34 152.632 1155.87 152.163 Q1155.4 151.724 1155.4 151.021 Q1155.43 150.787 1155.61 150.055 L1164.21 115.361 Q1164.45 114.424 1165.03 113.897 Q1165.65 113.341 1166 113.282 Q1166.35 113.194 1166.61 113.194 Q1167.4 113.194 1167.87 113.633 Q1168.37 114.043 1168.37 114.804 Q1168.37 114.922 1168.2 115.595 Q1168.05 116.239 1167.81 117.235 Q1167.58 118.201 1167.46 118.64 L1164.95 128.712 Q1164.1 132.166 1164.1 133.806 Q1164.1 136.295 1165.21 137.671 Q1166.35 139.017 1168.55 139.017 Q1169.92 139.017 1171.21 138.461 Q1172.5 137.876 1173.38 137.085 Q1174.26 136.295 1174.96 135.446 Q1175.66 134.567 1175.98 134.011 Q1176.31 133.425 1176.33 133.279 L1177.89 127.16 L1180.73 115.946 Q1180.9 115.244 1181.22 114.775 Q1181.58 114.277 1181.99 114.102 Q1182.39 113.926 1182.63 113.897 Q1182.86 113.838 1183.07 113.838 Q1183.8 113.838 1184.3 114.277 Q1184.8 114.717 1184.8 115.478 Q1184.8 115.624 1184.62 116.327 Q1184.47 117 1184.24 117.996 Q1184.01 118.962 1183.89 119.489 Q1182.95 123.178 1182.86 123.559 L1181.19 130.029 Q1181.11 130.41 1180.81 131.639 Q1180.55 132.869 1180.4 133.513 Q1180.26 134.128 1180.11 134.977 Q1179.99 135.797 1179.99 136.265 Q1179.99 139.017 1181.81 139.017 Q1182.51 139.017 1183.13 138.608 Q1183.74 138.168 1184.15 137.554 Q1184.59 136.939 1185 135.885 Q1185.44 134.801 1185.7 133.923 Q1185.97 133.015 1186.35 131.61 Q1186.49 130.937 1186.64 130.732 Q1186.79 130.527 1187.2 130.527 Q1187.9 130.527 1187.9 131.112 Z" fill="#000000" fill-rule="evenodd" fill-opacity="1"></path><path clip-path="url(#clip020)" d="M1207.82 130.585 Q1207.88 129.853 1209.02 129.853 L1245.76 129.853 Q1247.49 129.853 1247.52 130.527 Q1247.52 131.259 1245.88 131.229 L1209.43 131.229 Q1207.82 131.259 1207.82 130.585 M1207.82 118.874 Q1207.82 118.142 1209.08 118.171 L1245.71 118.171 Q1247.49 118.171 1247.52 118.874 Q1247.52 119.548 1246 119.548 L1209.02 119.548 Q1207.82 119.548 1207.82 118.874 Z" fill="#000000" fill-rule="evenodd" fill-opacity="1"></path><path clip-path="url(#clip020)" d="M1270.65 120.514 Q1270.65 111.701 1272.87 106.899 Q1275.98 99.7556 1283.3 99.7556 Q1284.85 99.7556 1286.46 100.195 Q1288.1 100.605 1290.15 102.215 Q1292.23 103.825 1293.49 106.46 Q1295.89 111.555 1295.89 120.514 Q1295.89 129.268 1293.66 134.04 Q1290.41 141.008 1283.24 141.008 Q1280.55 141.008 1277.79 139.632 Q1275.07 138.256 1273.34 134.948 Q1270.65 130 1270.65 120.514 M1275.63 119.782 Q1275.63 128.829 1276.27 132.43 Q1277 136.324 1278.99 138.022 Q1281.01 139.691 1283.24 139.691 Q1285.64 139.691 1287.63 137.905 Q1289.65 136.09 1290.27 132.196 Q1290.94 128.36 1290.91 119.782 Q1290.91 111.437 1290.32 108.1 Q1289.53 104.206 1287.43 102.654 Q1285.35 101.073 1283.24 101.073 Q1282.45 101.073 1281.6 101.307 Q1280.78 101.542 1279.58 102.215 Q1278.38 102.888 1277.44 104.557 Q1276.53 106.226 1276.1 108.744 Q1275.63 111.994 1275.63 119.782 Z" fill="#000000" fill-rule="evenodd" fill-opacity="1"></path><path clip-path="url(#clip020)" d="M1301.25 138.725 Q1300.34 137.758 1300.34 136.5 Q1300.34 135.241 1301.25 134.333 Q1302.16 133.396 1303.53 133.396 Q1304.85 133.396 1305.73 134.274 Q1306.64 135.123 1306.64 136.529 Q1306.64 137.905 1305.67 138.812 Q1304.74 139.691 1303.53 139.691 Q1302.16 139.691 1301.25 138.725 Z" fill="#000000" fill-rule="evenodd" fill-opacity="1"></path><path clip-path="url(#clip020)" d="M1316.84 130.029 Q1316.84 128.243 1317.81 127.57 Q1318.78 126.867 1319.8 126.867 Q1321.18 126.867 1321.97 127.745 Q1322.79 128.594 1322.79 129.795 Q1322.79 130.995 1321.97 131.874 Q1321.18 132.723 1319.8 132.723 Q1319.13 132.723 1318.78 132.606 Q1319.57 135.358 1321.97 137.349 Q1324.4 139.339 1327.59 139.339 Q1331.6 139.339 1334 135.446 Q1335.43 132.928 1335.43 127.218 Q1335.43 122.183 1334.35 119.665 Q1332.68 115.829 1329.26 115.829 Q1324.4 115.829 1321.53 120.016 Q1321.18 120.543 1320.77 120.572 Q1320.18 120.572 1320.03 120.25 Q1319.92 119.899 1319.92 118.991 L1319.92 101.249 Q1319.92 99.8141 1320.5 99.8141 Q1320.74 99.8141 1321.23 99.9898 Q1325.01 101.659 1329.2 101.688 Q1333.5 101.688 1337.37 99.9312 Q1337.66 99.7556 1337.84 99.7556 Q1338.42 99.7556 1338.45 100.429 Q1338.45 100.663 1337.95 101.366 Q1337.48 102.039 1336.46 102.947 Q1335.43 103.825 1334.12 104.674 Q1332.8 105.523 1330.87 106.109 Q1328.96 106.665 1326.86 106.665 Q1324.34 106.665 1321.76 105.875 L1321.76 117.557 Q1324.87 114.512 1329.37 114.512 Q1334.18 114.512 1337.48 118.376 Q1340.79 122.241 1340.79 127.628 Q1340.79 133.279 1336.87 137.144 Q1332.98 141.008 1327.71 141.008 Q1322.9 141.008 1319.86 137.583 Q1316.84 134.157 1316.84 130.029 Z" fill="#000000" fill-rule="evenodd" fill-opacity="1"></path></svg>