<svg xmlns="http://www.w3.org/2000/svg" xmlns:xlink="http://www.w3.org/1999/xlink" width="600" height="400" viewBox="0 0 2400 1600">
<defs>
  <clipPath id="clip580">
    <rect x="0" y="0" width="2400" height="1600"></rect>
  </clipPath>
</defs>
<path clip-path="url(#clip580)" d="M0 1600 L2400 1600 L2400 0 L0 0  Z" fill="#ffffff" fill-rule="evenodd" fill-opacity="1"></path>
<defs>
  <clipPath id="clip581">
    <rect x="480" y="0" width="1681" height="1600"></rect>
  </clipPath>
</defs>
<defs>
  <clipPath id="clip582">
    <rect x="365" y="47" width="1988" height="1329"></rect>
  </clipPath>
</defs>
<path clip-path="url(#clip580)" d="M365.717 1375.66 L2352.76 1375.66 L2352.76 47.2441 L365.717 47.2441  Z" fill="#ffffff" fill-rule="evenodd" fill-opacity="1"></path>
<polyline clip-path="url(#clip580)" style="stroke:#000000; stroke-linecap:round; stroke-linejoin:round; stroke-width:4; stroke-opacity:1; fill:none" points="365.717,1375.66 2352.76,1375.66 "></polyline>
<polyline clip-path="url(#clip580)" style="stroke:#000000; stroke-linecap:round; stroke-linejoin:round; stroke-width:4; stroke-opacity:1; fill:none" points="365.717,47.2441 2352.76,47.2441 "></polyline>
<polyline clip-path="url(#clip580)" style="stroke:#000000; stroke-linecap:round; stroke-linejoin:round; stroke-width:4; stroke-opacity:1; fill:none" points="734.382,1375.66 734.382,1356.76 "></polyline>
<polyline clip-path="url(#clip580)" style="stroke:#000000; stroke-linecap:round; stroke-linejoin:round; stroke-width:4; stroke-opacity:1; fill:none" points="1124.92,1375.66 1124.92,1356.76 "></polyline>
<polyline clip-path="url(#clip580)" style="stroke:#000000; stroke-linecap:round; stroke-linejoin:round; stroke-width:4; stroke-opacity:1; fill:none" points="1515.45,1375.66 1515.45,1356.76 "></polyline>
<polyline clip-path="url(#clip580)" style="stroke:#000000; stroke-linecap:round; stroke-linejoin:round; stroke-width:4; stroke-opacity:1; fill:none" points="1905.98,1375.66 1905.98,1356.76 "></polyline>
<polyline clip-path="url(#clip580)" style="stroke:#000000; stroke-linecap:round; stroke-linejoin:round; stroke-width:4; stroke-opacity:1; fill:none" points="2296.52,1375.66 2296.52,1356.76 "></polyline>
<path clip-path="url(#clip580)" d="M715.749 1442.14 Q715.749 1429.13 719.035 1422.04 Q723.617 1411.49 734.425 1411.49 Q736.716 1411.49 739.094 1412.14 Q741.515 1412.75 744.541 1415.12 Q747.61 1417.5 749.469 1421.39 Q753.014 1428.91 753.014 1442.14 Q753.014 1455.07 749.729 1462.12 Q744.93 1472.41 734.338 1472.41 Q730.361 1472.41 726.298 1470.37 Q722.277 1468.34 719.726 1463.46 Q715.749 1456.15 715.749 1442.14 M723.098 1441.06 Q723.098 1454.42 724.05 1459.74 Q725.13 1465.49 728.07 1468 Q731.053 1470.46 734.338 1470.46 Q737.883 1470.46 740.823 1467.82 Q743.806 1465.14 744.714 1459.39 Q745.708 1453.73 745.665 1441.06 Q745.665 1428.74 744.8 1423.81 Q743.633 1418.06 740.52 1415.77 Q737.451 1413.44 734.338 1413.44 Q733.171 1413.44 731.918 1413.78 Q730.707 1414.13 728.935 1415.12 Q727.162 1416.12 725.779 1418.58 Q724.439 1421.05 723.79 1424.76 Q723.098 1429.56 723.098 1441.06 Z" fill="#000000" fill-rule="evenodd" fill-opacity="1"></path><path clip-path="url(#clip580)" d="M1110.3 1419.92 L1110.3 1417.16 Q1120.94 1417.16 1126.43 1411.49 Q1127.94 1411.49 1128.2 1411.84 Q1128.46 1412.18 1128.46 1413.78 L1128.46 1463.46 Q1128.46 1466.09 1129.76 1466.91 Q1131.05 1467.74 1136.72 1467.74 L1139.53 1467.74 L1139.53 1470.46 Q1136.42 1470.2 1125.18 1470.2 Q1113.94 1470.2 1110.87 1470.46 L1110.87 1467.74 L1113.68 1467.74 Q1119.25 1467.74 1120.59 1466.96 Q1121.93 1466.14 1121.93 1463.46 L1121.93 1417.59 Q1117.31 1419.92 1110.3 1419.92 Z" fill="#000000" fill-rule="evenodd" fill-opacity="1"></path><path clip-path="url(#clip580)" d="M1497.77 1470.46 Q1497.77 1468.86 1497.9 1468.38 Q1498.07 1467.91 1498.76 1467.17 L1515.75 1448.24 Q1525.05 1437.78 1525.05 1428.66 Q1525.05 1422.73 1521.93 1418.5 Q1518.87 1414.26 1513.2 1414.26 Q1509.31 1414.26 1506.03 1416.64 Q1502.74 1419.02 1501.23 1423.25 Q1501.49 1423.17 1502.39 1423.17 Q1504.6 1423.17 1505.81 1424.55 Q1507.06 1425.93 1507.06 1427.79 Q1507.06 1430.17 1505.51 1431.34 Q1503.99 1432.46 1502.48 1432.46 Q1501.88 1432.46 1501.05 1432.33 Q1500.28 1432.2 1499.02 1430.99 Q1497.77 1429.74 1497.77 1427.53 Q1497.77 1421.35 1502.44 1416.42 Q1507.15 1411.49 1514.33 1411.49 Q1522.45 1411.49 1527.77 1416.33 Q1533.13 1421.13 1533.13 1428.66 Q1533.13 1431.29 1532.31 1433.71 Q1531.53 1436.09 1530.45 1437.95 Q1529.41 1439.81 1526.56 1442.79 Q1523.71 1445.78 1521.42 1447.89 Q1519.12 1450.01 1513.98 1454.51 L1504.6 1463.63 L1520.55 1463.63 Q1528.33 1463.63 1528.94 1462.94 Q1529.8 1461.68 1530.88 1455.07 L1533.13 1455.07 L1530.62 1470.46 L1497.77 1470.46 Z" fill="#000000" fill-rule="evenodd" fill-opacity="1"></path><path clip-path="url(#clip580)" d="M1887.61 1458.53 Q1887.61 1455.89 1889.12 1454.64 Q1890.64 1453.38 1892.58 1453.38 Q1894.61 1453.38 1896.04 1454.72 Q1897.51 1456.02 1897.51 1458.31 Q1897.51 1460.78 1895.78 1462.16 Q1894.1 1463.54 1891.68 1463.2 Q1893.79 1466.74 1897.68 1468.34 Q1901.62 1469.94 1905.25 1469.94 Q1909.05 1469.94 1912.12 1466.66 Q1915.24 1463.37 1915.24 1455.33 Q1915.24 1448.5 1912.56 1444.56 Q1909.92 1440.63 1904.69 1440.63 L1900.8 1440.63 Q1899.46 1440.63 1899.07 1440.5 Q1898.68 1440.37 1898.68 1439.64 Q1898.68 1438.77 1900.02 1438.6 Q1901.36 1438.6 1903.48 1438.34 Q1908.62 1438.17 1911.35 1433.71 Q1913.81 1429.56 1913.81 1423.64 Q1913.81 1418.24 1911.22 1415.99 Q1908.66 1413.7 1905.34 1413.7 Q1902.22 1413.7 1898.81 1414.99 Q1895.39 1416.29 1893.53 1419.19 Q1899.02 1419.19 1899.02 1423.64 Q1899.02 1425.59 1897.77 1426.88 Q1896.56 1428.14 1894.53 1428.14 Q1892.58 1428.14 1891.29 1426.93 Q1889.99 1425.67 1889.99 1423.55 Q1889.99 1418.5 1894.49 1414.99 Q1899.02 1411.49 1905.68 1411.49 Q1912.25 1411.49 1917.09 1414.95 Q1921.98 1418.41 1921.98 1423.73 Q1921.98 1428.96 1918.52 1433.24 Q1915.06 1437.52 1909.57 1439.29 Q1916.32 1440.63 1920.34 1445.21 Q1924.36 1449.75 1924.36 1455.33 Q1924.36 1462.25 1918.91 1467.35 Q1913.46 1472.41 1905.51 1472.41 Q1898.16 1472.41 1892.89 1468.43 Q1887.61 1464.45 1887.61 1458.53 Z" fill="#000000" fill-rule="evenodd" fill-opacity="1"></path><path clip-path="url(#clip580)" d="M2276.89 1455.85 L2276.89 1453.12 L2304.08 1411.58 Q2304.78 1410.5 2305.86 1410.54 Q2306.85 1410.54 2307.07 1410.93 Q2307.28 1411.32 2307.28 1412.83 L2307.28 1453.12 L2316.15 1453.12 L2316.15 1455.85 L2307.28 1455.85 L2307.28 1463.54 Q2307.28 1466.09 2308.32 1466.91 Q2309.4 1467.74 2313.98 1467.74 L2315.84 1467.74 L2315.84 1470.46 Q2312.21 1470.2 2303.82 1470.2 Q2295.48 1470.2 2291.85 1470.46 L2291.85 1467.74 L2293.71 1467.74 Q2298.29 1467.74 2299.37 1466.96 Q2300.45 1466.14 2300.45 1463.54 L2300.45 1455.85 L2276.89 1455.85 M2279.4 1453.12 L2300.97 1453.12 L2300.97 1420.1 L2279.4 1453.12 Z" fill="#000000" fill-rule="evenodd" fill-opacity="1"></path><path clip-path="url(#clip580)" d="M1214.84 1553.88 Q1213.58 1559.93 1211.94 1563.39 Q1209.31 1568.69 1204.86 1568.69 Q1201.49 1568.69 1199.1 1566.63 Q1196.71 1564.56 1196.15 1561.47 Q1190.01 1568.69 1183.64 1568.69 Q1178.02 1568.69 1174.46 1564.42 Q1170.9 1560.11 1170.9 1553.32 Q1170.9 1546.48 1174.27 1539.92 Q1177.69 1533.37 1183.08 1529.29 Q1188.47 1525.22 1193.99 1525.22 Q1199.85 1525.22 1202.85 1531.35 Q1203.08 1529.67 1204.16 1528.4 Q1205.24 1527.14 1206.88 1527.14 Q1208.14 1527.14 1208.89 1527.84 Q1209.64 1528.49 1209.64 1529.71 Q1209.64 1530.32 1208.99 1532.99 L1205.52 1546.39 L1203.41 1555.06 Q1202.61 1558.24 1202.38 1559.41 Q1202.19 1560.58 1202.19 1562.13 Q1202.19 1566.53 1205.05 1566.53 Q1206.46 1566.53 1207.58 1565.64 Q1208.7 1564.75 1209.59 1562.88 Q1210.48 1561 1211.05 1559.27 Q1211.61 1557.49 1212.36 1554.68 Q1212.59 1553.56 1212.78 1553.28 Q1213.01 1552.95 1213.67 1552.95 Q1214.84 1552.95 1214.84 1553.88 M1201.68 1535.76 Q1201.68 1535.33 1201.35 1534.16 Q1201.02 1532.99 1200.27 1531.35 Q1199.52 1529.71 1197.88 1528.54 Q1196.29 1527.32 1194.14 1527.32 Q1191.23 1527.32 1188.19 1529.81 Q1185.19 1532.29 1182.99 1536.5 Q1181.3 1539.88 1179.47 1546.95 Q1177.69 1554.02 1177.69 1557.54 Q1177.69 1559.69 1178.16 1561.61 Q1178.68 1563.49 1180.13 1565.03 Q1181.58 1566.53 1183.83 1566.53 Q1189.31 1566.53 1194.7 1559.74 Q1195.73 1558.57 1195.96 1558.1 Q1196.24 1557.58 1196.62 1556.18 L1201.4 1537.39 Q1201.68 1535.99 1201.68 1535.76 Z" fill="#000000" fill-rule="evenodd" fill-opacity="1"></path><path clip-path="url(#clip580)" d="M1226.52 1543.63 Q1226.52 1527.42 1232.56 1514.35 Q1235.14 1508.87 1238.75 1504.28 Q1242.35 1499.68 1244.74 1497.67 Q1247.13 1495.66 1247.79 1495.66 Q1248.73 1495.66 1248.77 1496.59 Q1248.77 1497.06 1247.51 1498.23 Q1232.05 1513.97 1232.1 1543.63 Q1232.1 1573.37 1247.13 1588.5 Q1248.77 1590.14 1248.77 1590.66 Q1248.77 1591.59 1247.79 1591.59 Q1247.13 1591.59 1244.84 1589.67 Q1242.54 1587.75 1238.98 1583.35 Q1235.42 1578.95 1232.85 1573.56 Q1226.52 1560.49 1226.52 1543.63 Z" fill="#000000" fill-rule="evenodd" fill-opacity="1"></path><path clip-path="url(#clip580)" d="M1295.13 1531.45 Q1295.13 1533.93 1293.49 1535.52 Q1291.9 1537.11 1289.84 1537.11 Q1288.06 1537.11 1287.12 1536.08 Q1286.18 1535.05 1286.18 1533.74 Q1286.18 1531.87 1287.64 1530.32 Q1289.09 1528.78 1291.2 1528.45 Q1289.65 1527.32 1287.17 1527.32 Q1283.09 1527.32 1279.48 1530.46 Q1277.89 1531.91 1276.16 1534.58 Q1274.43 1537.21 1274.1 1538.33 L1271.05 1550.84 Q1270.77 1552.24 1269.04 1558.99 Q1267.35 1565.69 1267.21 1565.97 Q1266.74 1567.28 1265.71 1567.98 Q1264.68 1568.69 1263.65 1568.69 Q1262.48 1568.69 1261.68 1567.98 Q1260.89 1567.28 1260.89 1566.06 Q1260.89 1565.88 1261.03 1565.17 Q1261.17 1564.47 1261.4 1563.49 Q1261.64 1562.5 1261.73 1561.94 L1267.31 1539.78 Q1268.34 1535.76 1268.57 1534.49 Q1268.85 1533.18 1268.85 1531.73 Q1268.85 1529.2 1268.05 1528.26 Q1267.26 1527.32 1265.85 1527.32 Q1263.42 1527.32 1261.82 1530.23 Q1260.23 1533.13 1258.87 1538.75 Q1258.45 1540.3 1258.17 1540.63 Q1257.94 1540.95 1257.23 1540.95 Q1256.06 1540.91 1256.06 1539.97 Q1256.06 1539.74 1256.44 1538.24 Q1256.81 1536.69 1257.51 1534.44 Q1258.26 1532.15 1259.06 1530.7 Q1259.53 1529.71 1259.95 1529.06 Q1260.37 1528.4 1261.22 1527.37 Q1262.06 1526.34 1263.32 1525.78 Q1264.59 1525.22 1266.13 1525.22 Q1269.51 1525.22 1271.9 1527.28 Q1274.33 1529.34 1274.89 1532.57 Q1276.07 1530.88 1277.52 1529.43 Q1278.97 1527.93 1281.64 1526.57 Q1284.31 1525.22 1287.17 1525.22 Q1290.73 1525.22 1292.93 1527.04 Q1295.13 1528.82 1295.13 1531.45 Z" fill="#000000" fill-rule="evenodd" fill-opacity="1"></path><path clip-path="url(#clip580)" d="M1388.83 1542.27 Q1389.39 1542.83 1389.39 1543.63 Q1389.39 1544.42 1388.83 1544.98 Q1388.27 1545.55 1387.47 1545.55 L1327.42 1545.55 Q1326.62 1545.55 1326.06 1544.98 Q1325.5 1544.42 1325.5 1543.63 Q1325.5 1542.83 1326.06 1542.27 Q1326.62 1541.7 1327.42 1541.7 L1387.47 1541.7 Q1388.27 1541.7 1388.83 1542.27 Z" fill="#000000" fill-rule="evenodd" fill-opacity="1"></path><path clip-path="url(#clip580)" d="M1465.09 1531.45 Q1465.09 1533.93 1463.45 1535.52 Q1461.85 1537.11 1459.79 1537.11 Q1458.01 1537.11 1457.08 1536.08 Q1456.14 1535.05 1456.14 1533.74 Q1456.14 1531.87 1457.59 1530.32 Q1459.04 1528.78 1461.15 1528.45 Q1459.61 1527.32 1457.12 1527.32 Q1453.05 1527.32 1449.44 1530.46 Q1447.85 1531.91 1446.11 1534.58 Q1444.38 1537.21 1444.05 1538.33 L1441.01 1550.84 Q1440.73 1552.24 1438.99 1558.99 Q1437.31 1565.69 1437.17 1565.97 Q1436.7 1567.28 1435.67 1567.98 Q1434.64 1568.69 1433.61 1568.69 Q1432.44 1568.69 1431.64 1567.98 Q1430.84 1567.28 1430.84 1566.06 Q1430.84 1565.88 1430.98 1565.17 Q1431.12 1564.47 1431.36 1563.49 Q1431.59 1562.5 1431.69 1561.94 L1437.26 1539.78 Q1438.29 1535.76 1438.53 1534.49 Q1438.81 1533.18 1438.81 1531.73 Q1438.81 1529.2 1438.01 1528.26 Q1437.21 1527.32 1435.81 1527.32 Q1433.37 1527.32 1431.78 1530.23 Q1430.19 1533.13 1428.83 1538.75 Q1428.41 1540.3 1428.13 1540.63 Q1427.89 1540.95 1427.19 1540.95 Q1426.02 1540.91 1426.02 1539.97 Q1426.02 1539.74 1426.39 1538.24 Q1426.77 1536.69 1427.47 1534.44 Q1428.22 1532.15 1429.02 1530.7 Q1429.48 1529.71 1429.91 1529.06 Q1430.33 1528.4 1431.17 1527.37 Q1432.01 1526.34 1433.28 1525.78 Q1434.54 1525.22 1436.09 1525.22 Q1439.46 1525.22 1441.85 1527.28 Q1444.29 1529.34 1444.85 1532.57 Q1446.02 1530.88 1447.47 1529.43 Q1448.93 1527.93 1451.6 1526.57 Q1454.27 1525.22 1457.12 1525.22 Q1460.68 1525.22 1462.89 1527.04 Q1465.09 1528.82 1465.09 1531.45 Z" fill="#000000" fill-rule="evenodd" fill-opacity="1"></path><path clip-path="url(#clip580)" d="M1500.49 1578.53 Q1500.75 1578.83 1500.75 1579.12 Q1500.75 1579.42 1500.1 1580.27 Q1499.47 1581.12 1498.13 1582.27 Q1496.79 1583.42 1495.05 1584.5 Q1493.31 1585.58 1490.75 1586.31 Q1488.19 1587.06 1485.5 1587.06 Q1480.68 1587.06 1477.8 1583.62 Q1474.95 1580.17 1474.95 1574.89 Q1474.95 1571.52 1476.06 1568.53 Q1477.18 1565.52 1478.98 1563.38 Q1480.82 1561.25 1483.11 1559.71 Q1485.44 1558.14 1487.87 1557.38 Q1490.29 1556.63 1492.55 1556.63 Q1495.87 1556.63 1497.8 1558.3 Q1499.74 1559.97 1499.74 1562.34 Q1499.74 1562.89 1499.57 1563.58 Q1499.44 1564.27 1498.98 1565.35 Q1498.56 1566.43 1497.44 1567.52 Q1496.33 1568.57 1494.69 1569.25 Q1491.05 1570.8 1484.42 1570.8 L1480.85 1570.8 Q1479.8 1575.03 1479.8 1577.78 Q1479.8 1578.86 1480 1579.98 Q1480.19 1581.06 1480.72 1582.44 Q1481.27 1583.81 1482.52 1584.7 Q1483.8 1585.55 1485.64 1585.55 Q1486.23 1585.55 1486.85 1585.52 Q1487.51 1585.49 1489.14 1585.13 Q1490.82 1584.76 1492.29 1584.14 Q1493.77 1583.52 1495.64 1582.17 Q1497.54 1580.8 1499.05 1578.93 Q1499.57 1578.24 1499.93 1578.24 Q1500.23 1578.24 1500.49 1578.53 M1497.51 1562.34 Q1497.51 1560.53 1496.16 1559.32 Q1494.85 1558.1 1492.55 1558.1 Q1491.83 1558.1 1490.95 1558.27 Q1490.06 1558.43 1488.59 1559.12 Q1487.14 1559.81 1485.87 1560.96 Q1484.59 1562.07 1483.31 1564.27 Q1482.03 1566.43 1481.27 1569.32 L1484.03 1569.32 Q1484.98 1569.32 1485.67 1569.32 Q1486.36 1569.29 1487.87 1569.16 Q1489.41 1569.02 1490.52 1568.79 Q1491.64 1568.53 1493.05 1568.01 Q1494.46 1567.48 1495.34 1566.79 Q1496.26 1566.07 1496.88 1564.93 Q1497.51 1563.78 1497.51 1562.34 Z" fill="#000000" fill-rule="evenodd" fill-opacity="1"></path><path clip-path="url(#clip580)" d="M1510.74 1590.66 Q1510.74 1590.19 1511.95 1589.02 Q1527.41 1573.28 1527.41 1543.63 Q1527.41 1513.88 1512.56 1498.84 Q1510.74 1497.11 1510.74 1496.59 Q1510.74 1495.66 1511.67 1495.66 Q1512.33 1495.66 1514.62 1497.58 Q1516.97 1499.5 1520.48 1503.9 Q1524.04 1508.3 1526.66 1513.69 Q1532.99 1526.76 1532.99 1543.63 Q1532.99 1559.83 1526.94 1572.9 Q1524.37 1578.38 1520.76 1582.97 Q1517.15 1587.57 1514.76 1589.58 Q1512.38 1591.59 1511.67 1591.59 Q1510.74 1591.59 1510.74 1590.66 Z" fill="#000000" fill-rule="evenodd" fill-opacity="1"></path><polyline clip-path="url(#clip580)" style="stroke:#000000; stroke-linecap:round; stroke-linejoin:round; stroke-width:4; stroke-opacity:1; fill:none" points="365.717,1375.66 365.717,47.2441 "></polyline>
<polyline clip-path="url(#clip580)" style="stroke:#000000; stroke-linecap:round; stroke-linejoin:round; stroke-width:4; stroke-opacity:1; fill:none" points="2352.76,1375.66 2352.76,47.2441 "></polyline>
<polyline clip-path="url(#clip580)" style="stroke:#000000; stroke-linecap:round; stroke-linejoin:round; stroke-width:4; stroke-opacity:1; fill:none" points="365.717,1338.07 384.615,1338.07 "></polyline>
<polyline clip-path="url(#clip580)" style="stroke:#000000; stroke-linecap:round; stroke-linejoin:round; stroke-width:4; stroke-opacity:1; fill:none" points="365.717,920.868 384.615,920.868 "></polyline>
<polyline clip-path="url(#clip580)" style="stroke:#000000; stroke-linecap:round; stroke-linejoin:round; stroke-width:4; stroke-opacity:1; fill:none" points="365.717,503.668 384.615,503.668 "></polyline>
<polyline clip-path="url(#clip580)" style="stroke:#000000; stroke-linecap:round; stroke-linejoin:round; stroke-width:4; stroke-opacity:1; fill:none" points="365.717,86.4683 384.615,86.4683 "></polyline>
<path clip-path="url(#clip580)" d="M288.147 1337.99 Q288.147 1325.66 291.262 1318.93 Q295.607 1308.93 305.854 1308.93 Q308.027 1308.93 310.281 1309.55 Q312.577 1310.12 315.446 1312.37 Q318.356 1314.63 320.119 1318.32 Q323.48 1325.45 323.48 1337.99 Q323.48 1350.25 320.365 1356.93 Q315.815 1366.69 305.772 1366.69 Q302.001 1366.69 298.148 1364.76 Q294.336 1362.83 291.918 1358.2 Q288.147 1351.27 288.147 1337.99 M295.115 1336.97 Q295.115 1349.63 296.017 1354.68 Q297.042 1360.13 299.829 1362.5 Q302.657 1364.84 305.772 1364.84 Q309.134 1364.84 311.921 1362.34 Q314.749 1359.8 315.61 1354.35 Q316.553 1348.98 316.512 1336.97 Q316.512 1325.29 315.692 1320.61 Q314.585 1315.16 311.634 1312.99 Q308.724 1310.78 305.772 1310.78 Q304.666 1310.78 303.477 1311.1 Q302.329 1311.43 300.649 1312.37 Q298.968 1313.32 297.657 1315.65 Q296.386 1317.99 295.771 1321.52 Q295.115 1326.07 295.115 1336.97 Z" fill="#000000" fill-rule="evenodd" fill-opacity="1"></path><path clip-path="url(#clip580)" d="M241.915 905.538 Q241.915 912.301 239.004 918.941 Q236.135 925.54 231.462 930.541 Q226.831 935.501 220.559 938.575 Q214.288 941.649 207.894 941.649 L180.103 941.649 Q179.119 941.649 178.709 941.608 Q178.34 941.567 178.053 941.362 Q177.766 941.116 177.766 940.624 Q177.766 939.846 178.094 939.518 Q178.422 939.149 178.791 939.108 Q179.16 939.067 180.103 939.067 Q182.152 939.067 183.382 938.944 Q184.612 938.821 185.39 938.657 Q186.21 938.452 186.62 937.878 Q187.071 937.304 187.276 936.812 Q187.481 936.28 187.768 935.091 L198.999 890.003 Q199.327 888.65 199.327 888.445 Q199.327 887.748 198.917 887.502 Q198.548 887.215 197.482 887.092 Q195.433 886.929 193.875 886.929 Q192.851 886.929 192.441 886.888 Q192.072 886.847 191.744 886.642 Q191.457 886.396 191.457 885.904 Q191.457 885.125 191.785 884.797 Q192.154 884.428 192.564 884.387 Q192.973 884.305 193.957 884.305 L222.158 884.305 Q228.265 884.305 232.815 887.174 Q237.365 890.003 239.619 894.798 Q241.915 899.553 241.915 905.538 M234.578 902.463 Q234.578 894.634 230.315 890.781 Q226.093 886.929 219.412 886.929 L210.435 886.929 Q207.771 886.929 207.115 887.42 Q206.459 887.871 205.885 890.126 L194.367 936.198 Q193.957 937.714 193.957 938.124 Q193.957 938.575 194.162 938.739 Q194.408 938.862 195.064 938.944 Q195.802 939.067 196.908 939.067 L206.377 939.067 Q210.025 939.067 213.345 938.083 Q216.706 937.058 219.125 935.46 Q221.543 933.82 223.101 932.427 Q224.658 930.992 225.765 929.557 Q228.265 926.319 230.11 922.097 Q231.995 917.875 232.856 914.022 Q233.758 910.128 234.168 907.259 Q234.578 904.349 234.578 902.463 Z" fill="#000000" fill-rule="evenodd" fill-opacity="1"></path><path clip-path="url(#clip580)" d="M246.577 961.447 Q246.577 961.037 246.905 960.135 L276.54 880.944 Q276.54 880.862 276.745 880.411 Q276.95 879.96 277.073 879.673 Q277.196 879.345 277.442 879.1 Q277.729 878.854 278.056 878.854 Q278.876 878.854 278.876 879.878 Q278.876 879.96 278.63 880.944 L248.913 960.217 Q248.421 961.652 248.093 962.062 Q247.806 962.472 247.315 962.472 Q246.577 962.472 246.577 961.447 Z" fill="#000000" fill-rule="evenodd" fill-opacity="1"></path><path clip-path="url(#clip580)" d="M288.147 941.649 Q288.147 940.133 288.27 939.682 Q288.434 939.231 289.09 938.534 L305.199 920.581 Q314.011 910.661 314.011 902.013 Q314.011 896.397 311.06 892.38 Q308.15 888.363 302.78 888.363 Q299.091 888.363 295.976 890.618 Q292.861 892.872 291.426 896.889 Q291.672 896.807 292.533 896.807 Q294.623 896.807 295.771 898.119 Q296.96 899.43 296.96 901.193 Q296.96 903.447 295.484 904.554 Q294.049 905.62 292.615 905.62 Q292.041 905.62 291.262 905.497 Q290.524 905.374 289.336 904.226 Q288.147 903.037 288.147 900.947 Q288.147 895.085 292.574 890.413 Q297.042 885.74 303.846 885.74 Q311.552 885.74 316.594 890.331 Q321.676 894.88 321.676 902.013 Q321.676 904.513 320.897 906.808 Q320.16 909.063 319.135 910.825 Q318.151 912.588 315.446 915.416 Q312.741 918.244 310.568 920.253 Q308.396 922.261 303.518 926.524 L294.623 935.173 L309.748 935.173 Q317.126 935.173 317.7 934.517 Q318.52 933.328 319.545 927.057 L321.676 927.057 L319.299 941.649 L288.147 941.649 Z" fill="#000000" fill-rule="evenodd" fill-opacity="1"></path><path clip-path="url(#clip580)" d="M325.055 495.955 Q325.055 502.718 322.145 509.359 Q319.276 515.958 314.603 520.958 Q309.971 525.918 303.7 528.992 Q297.429 532.067 291.034 532.067 L263.243 532.067 Q262.26 532.067 261.85 532.026 Q261.481 531.985 261.194 531.78 Q260.907 531.534 260.907 531.042 Q260.907 530.263 261.235 529.935 Q261.563 529.566 261.932 529.525 Q262.301 529.484 263.243 529.484 Q265.293 529.484 266.523 529.361 Q267.752 529.238 268.531 529.074 Q269.351 528.869 269.761 528.296 Q270.212 527.722 270.417 527.23 Q270.622 526.697 270.908 525.508 L282.14 480.42 Q282.467 479.067 282.467 478.862 Q282.467 478.166 282.058 477.92 Q281.689 477.633 280.623 477.51 Q278.573 477.346 277.016 477.346 Q275.991 477.346 275.581 477.305 Q275.212 477.264 274.884 477.059 Q274.598 476.813 274.598 476.321 Q274.598 475.542 274.925 475.214 Q275.294 474.846 275.704 474.805 Q276.114 474.723 277.098 474.723 L305.298 474.723 Q311.406 474.723 315.956 477.592 Q320.506 480.42 322.76 485.216 Q325.055 489.971 325.055 495.955 M317.718 492.881 Q317.718 485.052 313.455 481.199 Q309.233 477.346 302.552 477.346 L293.576 477.346 Q290.911 477.346 290.255 477.838 Q289.6 478.289 289.026 480.543 L277.508 526.615 Q277.098 528.132 277.098 528.541 Q277.098 528.992 277.303 529.156 Q277.549 529.279 278.205 529.361 Q278.942 529.484 280.049 529.484 L289.518 529.484 Q293.166 529.484 296.486 528.501 Q299.847 527.476 302.265 525.877 Q304.684 524.238 306.241 522.844 Q307.799 521.409 308.906 519.975 Q311.406 516.737 313.25 512.515 Q315.136 508.293 315.997 504.44 Q316.898 500.546 317.308 497.677 Q317.718 494.766 317.718 492.881 Z" fill="#000000" fill-rule="evenodd" fill-opacity="1"></path><path clip-path="url(#clip580)" d="M135.86 95.9365 Q135.86 93.4362 137.295 92.2475 Q138.729 91.0588 140.574 91.0588 Q142.5 91.0588 143.853 92.3295 Q145.247 93.5592 145.247 95.7316 Q145.247 98.068 143.607 99.3796 Q142.009 100.691 139.713 100.363 Q141.722 103.724 145.411 105.241 Q149.141 106.758 152.584 106.758 Q156.191 106.758 159.101 103.643 Q162.052 100.527 162.052 92.9033 Q162.052 86.427 159.511 82.697 Q157.011 78.967 152.051 78.967 L148.362 78.967 Q147.091 78.967 146.722 78.844 Q146.353 78.721 146.353 78.0242 Q146.353 77.2044 147.624 77.0405 Q148.895 77.0405 150.903 76.7945 Q155.781 76.6306 158.363 72.4087 Q160.7 68.4737 160.7 62.8582 Q160.7 57.7345 158.24 55.6031 Q155.822 53.4306 152.666 53.4306 Q149.715 53.4306 146.476 54.6603 Q143.238 55.89 141.476 58.6363 Q146.681 58.6363 146.681 62.8582 Q146.681 64.7027 145.493 65.9324 Q144.345 67.1211 142.418 67.1211 Q140.574 67.1211 139.344 65.9734 Q138.115 64.7847 138.115 62.7762 Q138.115 57.9805 142.377 54.6603 Q146.681 51.3402 152.994 51.3402 Q159.224 51.3402 163.815 54.6193 Q168.447 57.8985 168.447 62.9402 Q168.447 67.8999 165.167 71.9578 Q161.888 76.0157 156.683 77.6963 Q163.077 78.967 166.889 83.3118 Q170.701 87.6157 170.701 92.9033 Q170.701 99.4616 165.536 104.298 Q160.372 109.094 152.83 109.094 Q145.862 109.094 140.861 105.323 Q135.86 101.552 135.86 95.9365 Z" fill="#000000" fill-rule="evenodd" fill-opacity="1"></path><path clip-path="url(#clip580)" d="M241.915 71.138 Q241.915 77.9012 239.004 84.5415 Q236.135 91.1408 231.462 96.1415 Q226.831 101.101 220.559 104.175 Q214.288 107.25 207.894 107.25 L180.103 107.25 Q179.119 107.25 178.709 107.209 Q178.34 107.168 178.053 106.963 Q177.766 106.717 177.766 106.225 Q177.766 105.446 178.094 105.118 Q178.422 104.749 178.791 104.708 Q179.16 104.667 180.103 104.667 Q182.152 104.667 183.382 104.544 Q184.612 104.421 185.39 104.257 Q186.21 104.052 186.62 103.479 Q187.071 102.905 187.276 102.413 Q187.481 101.88 187.768 100.691 L198.999 55.6031 Q199.327 54.2504 199.327 54.0455 Q199.327 53.3487 198.917 53.1027 Q198.548 52.8158 197.482 52.6928 Q195.433 52.5289 193.875 52.5289 Q192.851 52.5289 192.441 52.4879 Q192.072 52.4469 191.744 52.242 Q191.457 51.996 191.457 51.5042 Q191.457 50.7254 191.785 50.3974 Q192.154 50.0285 192.564 49.9875 Q192.973 49.9056 193.957 49.9056 L222.158 49.9056 Q228.265 49.9056 232.815 52.7748 Q237.365 55.6031 239.619 60.3988 Q241.915 65.1536 241.915 71.138 M234.578 68.0638 Q234.578 60.2349 230.315 56.3819 Q226.093 52.5289 219.412 52.5289 L210.435 52.5289 Q207.771 52.5289 207.115 53.0208 Q206.459 53.4716 205.885 55.726 L194.367 101.798 Q193.957 103.315 193.957 103.724 Q193.957 104.175 194.162 104.339 Q194.408 104.462 195.064 104.544 Q195.802 104.667 196.908 104.667 L206.377 104.667 Q210.025 104.667 213.345 103.684 Q216.706 102.659 219.125 101.06 Q221.543 99.4206 223.101 98.027 Q224.658 96.5924 225.765 95.1577 Q228.265 91.9196 230.11 87.6977 Q231.995 83.4758 232.856 79.6228 Q233.758 75.7288 234.168 72.8596 Q234.578 69.9493 234.578 68.0638 Z" fill="#000000" fill-rule="evenodd" fill-opacity="1"></path><path clip-path="url(#clip580)" d="M246.577 127.047 Q246.577 126.637 246.905 125.736 L276.54 46.5444 Q276.54 46.4625 276.745 46.0116 Q276.95 45.5607 277.073 45.2738 Q277.196 44.9459 277.442 44.6999 Q277.729 44.454 278.056 44.454 Q278.876 44.454 278.876 45.4787 Q278.876 45.5607 278.63 46.5444 L248.913 125.818 Q248.421 127.252 248.093 127.662 Q247.806 128.072 247.315 128.072 Q246.577 128.072 246.577 127.047 Z" fill="#000000" fill-rule="evenodd" fill-opacity="1"></path><path clip-path="url(#clip580)" d="M288.147 107.25 Q288.147 105.733 288.27 105.282 Q288.434 104.831 289.09 104.134 L305.199 86.1811 Q314.011 76.2617 314.011 67.6129 Q314.011 61.9974 311.06 57.9805 Q308.15 53.9635 302.78 53.9635 Q299.091 53.9635 295.976 56.2179 Q292.861 58.4723 291.426 62.4893 Q291.672 62.4073 292.533 62.4073 Q294.623 62.4073 295.771 63.719 Q296.96 65.0306 296.96 66.7932 Q296.96 69.0476 295.484 70.1543 Q294.049 71.22 292.615 71.22 Q292.041 71.22 291.262 71.097 Q290.524 70.9741 289.336 69.8264 Q288.147 68.6377 288.147 66.5472 Q288.147 60.6857 292.574 56.013 Q297.042 51.3402 303.846 51.3402 Q311.552 51.3402 316.594 55.931 Q321.676 60.4808 321.676 67.6129 Q321.676 70.1133 320.897 72.4087 Q320.16 74.6631 319.135 76.4256 Q318.151 78.1882 315.446 81.0164 Q312.741 83.8447 310.568 85.8532 Q308.396 87.8616 303.518 92.1245 L294.623 100.773 L309.748 100.773 Q317.126 100.773 317.7 100.117 Q318.52 98.9287 319.545 92.6574 L321.676 92.6574 L319.299 107.25 L288.147 107.25 Z" fill="#000000" fill-rule="evenodd" fill-opacity="1"></path><path clip-path="url(#clip580)" d="M25.4295 670.733 Q27.1628 670.826 27.2565 671.997 Q27.3502 673.778 27.5844 674.855 Q27.7718 675.932 28.4744 677.619 Q29.1771 679.305 30.8635 680.945 Q32.55 682.584 35.2201 684.271 L90.1692 718.796 Q91.1998 719.404 91.5277 719.92 Q91.9024 720.388 91.9024 721.466 Q91.9024 722.449 91.4808 722.824 Q91.1061 723.199 89.7007 723.386 L30.4888 730.975 Q29.4113 731.116 28.9429 731.256 Q28.4744 731.397 28.006 731.959 Q27.5375 732.474 27.397 733.598 Q27.2565 734.723 27.2565 736.737 Q27.2565 737.674 27.2096 738.096 Q27.1628 738.47 26.9286 738.798 Q26.6475 739.126 26.0854 739.126 Q25.2422 739.126 24.8205 738.798 Q24.3521 738.424 24.3053 738.142 Q24.2584 737.815 24.2584 737.299 Q24.2584 736.503 24.3521 734.77 Q24.4458 733.036 24.4458 732.146 Q24.4458 731.303 24.4926 729.523 Q24.5395 727.743 24.5395 726.853 Q24.5395 724.885 24.3989 720.904 Q24.2584 716.875 24.2584 714.954 Q24.2584 713.643 25.3358 713.643 Q26.6475 713.643 26.9754 714.205 Q27.2565 714.767 27.2565 716.032 Q27.2565 719.217 28.0528 720.95 Q28.8492 722.637 30.114 722.637 L80.8939 716.125 L34.049 686.66 Q31.8473 685.208 30.3951 685.208 Q27.5844 685.208 27.2565 689.658 Q27.2565 691.157 26.0854 691.157 Q25.2422 691.157 24.8205 690.782 Q24.3521 690.408 24.3053 690.126 Q24.2584 689.799 24.2584 689.33 Q24.2584 687.784 24.3989 684.646 Q24.5395 681.46 24.5395 679.867 Q24.5395 678.556 24.3989 675.886 Q24.2584 673.215 24.2584 671.997 Q24.2584 670.733 25.4295 670.733 Z" fill="#000000" fill-rule="evenodd" fill-opacity="1"></path><polyline clip-path="url(#clip582)" style="stroke:#e31a1c; stroke-linecap:round; stroke-linejoin:round; stroke-width:16; stroke-opacity:1; fill:none" points="421.954,84.8408 423.787,106.057 425.619,126.994 427.452,147.654 429.284,168.042 431.116,188.159 432.949,208.009 434.781,227.594 436.614,246.918 438.446,265.983 440.278,284.791 442.111,303.346 443.943,321.651 445.776,339.708 447.608,357.52 449.441,375.089 451.273,392.418 453.105,409.509 454.938,426.366 456.77,442.991 458.603,459.386 460.435,475.554 462.267,491.497 464.1,507.217 465.932,522.718 467.765,538.001 469.597,553.069 471.43,567.925 473.262,582.57 475.094,597.006 476.927,611.237 478.759,625.265 480.592,639.09 482.424,652.717 484.257,666.147 486.089,679.382 487.921,692.424 489.754,705.276 491.586,717.939 493.419,730.416 495.251,742.708 497.083,754.819 498.916,766.749 500.748,778.5 502.581,790.076 504.413,801.477 506.246,812.706 508.078,823.764 509.91,834.654 511.743,845.377 513.575,855.935 515.408,866.331 517.24,876.565 519.072,886.639 520.905,896.557 522.737,906.318 524.57,915.925 526.402,925.38 528.235,934.685 530.067,943.84 531.899,952.849 533.732,961.711 535.564,970.43 537.397,979.007 539.229,987.443 541.062,995.74 542.894,1003.9 544.726,1011.92 546.559,1019.81 548.391,1027.57 550.224,1035.19 552.056,1042.69 553.888,1050.05 555.721,1057.29 557.553,1064.41 559.386,1071.4 561.218,1078.27 563.051,1085.01 564.883,1091.64 566.715,1098.15 568.548,1104.54 570.38,1110.82 572.213,1116.98 574.045,1123.03 575.877,1128.97 577.71,1134.79 579.542,1140.51 581.375,1146.12 583.207,1151.63 585.04,1157.02 586.872,1162.32 588.704,1167.51 590.537,1172.6 592.369,1177.59 594.202,1182.48 596.034,1187.27 597.866,1191.97 599.699,1196.57 601.531,1201.07 603.364,1205.49 605.196,1209.8 607.029,1214.03 608.861,1218.17 610.693,1222.22 612.526,1226.18 614.358,1230.05 616.191,1233.84 618.023,1237.55 619.856,1241.17 621.688,1244.7 623.52,1248.16 625.353,1251.53 627.185,1254.82 629.018,1258.04 630.85,1261.18 632.682,1264.24 634.515,1267.22 636.347,1270.13 638.18,1272.96 640.012,1275.73 641.845,1278.42 643.677,1281.03 645.509,1283.58 647.342,1286.06 649.174,1288.47 651.007,1290.81 652.839,1293.08 654.671,1295.29 656.504,1297.43 658.336,1299.51 660.169,1301.52 662.001,1303.47 663.834,1305.36 665.666,1307.19 667.498,1308.95 669.331,1310.66 671.163,1312.3 672.996,1313.89 674.828,1315.42 676.661,1316.9 678.493,1318.32 680.325,1319.68 682.158,1320.99 683.99,1322.24 685.823,1323.44 687.655,1324.59 689.487,1325.68 691.32,1326.73 693.152,1327.72 694.985,1328.67 696.817,1329.56 698.65,1330.41 700.482,1331.21 702.314,1331.96 704.147,1332.66 705.979,1333.32 707.812,1333.93 709.644,1334.5 711.476,1335.02 713.309,1335.5 715.141,1335.94 716.974,1336.33 718.806,1336.69 720.639,1337 722.471,1337.27 724.303,1337.5 726.136,1337.69 727.968,1337.84 729.801,1337.95 731.633,1338.03 733.466,1338.06 735.298,1338.06 737.13,1338.03 738.963,1337.95 740.795,1337.85 742.628,1337.7 744.46,1337.53 746.292,1337.31 748.125,1337.07 749.957,1336.79 751.79,1336.48 753.622,1336.14 755.455,1335.77 757.287,1335.36 759.119,1334.92 760.952,1334.46 762.784,1333.96 764.617,1333.44 766.449,1332.88 768.281,1332.3 770.114,1331.69 771.946,1331.05 773.779,1330.38 775.611,1329.69 777.444,1328.97 779.276,1328.23 781.108,1327.46 782.941,1326.66 784.773,1325.84 786.606,1325 788.438,1324.13 790.27,1323.23 792.103,1322.32 793.935,1321.38 795.768,1320.41 797.6,1319.43 799.433,1318.42 801.265,1317.4 803.097,1316.35 804.93,1315.28 806.762,1314.19 808.595,1313.08 810.427,1311.95 812.26,1310.8 814.092,1309.63 815.924,1308.44 817.757,1307.23 819.589,1306.01 821.422,1304.76 823.254,1303.5 825.086,1302.23 826.919,1300.93 828.751,1299.62 830.584,1298.29 832.416,1296.95 834.249,1295.59 836.081,1294.21 837.913,1292.82 839.746,1291.41 841.578,1289.99 843.411,1288.56 845.243,1287.11 847.075,1285.64 848.908,1284.16 850.74,1282.67 852.573,1281.17 854.405,1279.65 856.238,1278.12 858.07,1276.58 859.902,1275.02 861.735,1273.46 863.567,1271.88 865.4,1270.29 867.232,1268.69 869.065,1267.08 870.897,1265.45 872.729,1263.82 874.562,1262.18 876.394,1260.52 878.227,1258.86 880.059,1257.18 881.891,1255.5 883.724,1253.81 885.556,1252.1 887.389,1250.39 889.221,1248.67 891.054,1246.94 892.886,1245.21 894.718,1243.46 896.551,1241.71 898.383,1239.95 900.216,1238.18 902.048,1236.41 903.88,1234.62 905.713,1232.83 907.545,1231.04 909.378,1229.23 911.21,1227.42 913.043,1225.61 914.875,1223.79 916.707,1221.96 918.54,1220.12 920.372,1218.28 922.205,1216.44 924.037,1214.59 925.87,1212.73 927.702,1210.87 929.534,1209 931.367,1207.13 933.199,1205.26 935.032,1203.38 936.864,1201.49 938.696,1199.61 940.529,1197.71 942.361,1195.82 944.194,1193.92 946.026,1192.01 947.859,1190.11 949.691,1188.2 951.523,1186.28 953.356,1184.37 955.188,1182.45 957.021,1180.52 958.853,1178.6 960.685,1176.67 962.518,1174.74 964.35,1172.81 966.183,1170.87 968.015,1168.94 969.848,1167 971.68,1165.06 973.512,1163.11 975.345,1161.17 977.177,1159.22 979.01,1157.27 980.842,1155.33 982.674,1153.38 984.507,1151.42 986.339,1149.47 988.172,1147.52 990.004,1145.56 991.837,1143.61 993.669,1141.65 995.501,1139.7 997.334,1137.74 999.166,1135.78 1001,1133.83 1002.83,1131.87 1004.66,1129.91 1006.5,1127.95 1008.33,1126 1010.16,1124.04 1011.99,1122.08 1013.83,1120.13 1015.66,1118.17 1017.49,1116.21 1019.32,1114.26 1021.16,1112.3 1022.99,1110.35 1024.82,1108.4 1026.65,1106.44 1028.48,1104.49 1030.32,1102.54 1032.15,1100.59 1033.98,1098.64 1035.81,1096.7 1037.65,1094.75 1039.48,1092.81 1041.31,1090.87 1043.14,1088.92 1044.98,1086.98 1046.81,1085.05 1048.64,1083.11 1050.47,1081.17 1052.31,1079.24 1054.14,1077.31 1055.97,1075.38 1057.8,1073.45 1059.64,1071.53 1061.47,1069.6 1063.3,1067.68 1065.13,1065.76 1066.97,1063.85 1068.8,1061.93 1070.63,1060.02 1072.46,1058.11 1074.3,1056.21 1076.13,1054.3 1077.96,1052.4 1079.79,1050.5 1081.63,1048.6 1083.46,1046.71 1085.29,1044.82 1087.12,1042.93 1088.95,1041.04 1090.79,1039.16 1092.62,1037.28 1094.45,1035.4 1096.28,1033.53 1098.12,1031.66 1099.95,1029.79 1101.78,1027.92 1103.61,1026.06 1105.45,1024.2 1107.28,1022.35 1109.11,1020.5 1110.94,1018.65 1112.78,1016.8 1114.61,1014.96 1116.44,1013.12 1118.27,1011.29 1120.11,1009.45 1121.94,1007.62 1123.77,1005.8 1125.6,1003.98 1127.44,1002.16 1129.27,1000.35 1131.1,998.537 1132.93,996.73 1134.77,994.927 1136.6,993.127 1138.43,991.332 1140.26,989.54 1142.09,987.752 1143.93,985.968 1145.76,984.187 1147.59,982.411 1149.42,980.638 1151.26,978.869 1153.09,977.105 1154.92,975.344 1156.75,973.587 1158.59,971.834 1160.42,970.086 1162.25,968.341 1164.08,966.6 1165.92,964.864 1167.75,963.131 1169.58,961.403 1171.41,959.679 1173.25,957.959 1175.08,956.243 1176.91,954.532 1178.74,952.824 1180.58,951.121 1182.41,949.422 1184.24,947.727 1186.07,946.037 1187.91,944.351 1189.74,942.669 1191.57,940.992 1193.4,939.318 1195.24,937.65 1197.07,935.985 1198.9,934.325 1200.73,932.669 1202.56,931.018 1204.4,929.371 1206.23,927.728 1208.06,926.09 1209.89,924.457 1211.73,922.827 1213.56,921.202 1215.39,919.582 1217.22,917.966 1219.06,916.355 1220.89,914.748 1222.72,913.145 1224.55,911.547 1226.39,909.954 1228.22,908.365 1230.05,906.781 1231.88,905.201 1233.72,903.625 1235.55,902.054 1237.38,900.488 1239.21,898.926 1241.05,897.369 1242.88,895.816 1244.71,894.268 1246.54,892.725 1248.38,891.186 1250.21,889.651 1252.04,888.121 1253.87,886.596 1255.7,885.075 1257.54,883.559 1259.37,882.048 1261.2,880.541 1263.03,879.038 1264.87,877.541 1266.7,876.048 1268.53,874.559 1270.36,873.075 1272.2,871.595 1274.03,870.121 1275.86,868.65 1277.69,867.185 1279.53,865.724 1281.36,864.267 1283.19,862.815 1285.02,861.368 1286.86,859.925 1288.69,858.487 1290.52,857.054 1292.35,855.625 1294.19,854.201 1296.02,852.781 1297.85,851.366 1299.68,849.955 1301.52,848.549 1303.35,847.148 1305.18,845.751 1307.01,844.358 1308.85,842.971 1310.68,841.587 1312.51,840.209 1314.34,838.835 1316.17,837.465 1318.01,836.1 1319.84,834.74 1321.67,833.384 1323.5,832.033 1325.34,830.686 1327.17,829.344 1329,828.006 1330.83,826.672 1332.67,825.344 1334.5,824.02 1336.33,822.7 1338.16,821.385 1340,820.074 1341.83,818.768 1343.66,817.466 1345.49,816.169 1347.33,814.876 1349.16,813.587 1350.99,812.303 1352.82,811.024 1354.66,809.749 1356.49,808.478 1358.32,807.212 1360.15,805.951 1361.99,804.693 1363.82,803.44 1365.65,802.192 1367.48,800.948 1369.31,799.708 1371.15,798.473 1372.98,797.242 1374.81,796.015 1376.64,794.793 1378.48,793.575 1380.31,792.362 1382.14,791.153 1383.97,789.948 1385.81,788.748 1387.64,787.551 1389.47,786.359 1391.3,785.172 1393.14,783.989 1394.97,782.81 1396.8,781.635 1398.63,780.464 1400.47,779.298 1402.3,778.136 1404.13,776.979 1405.96,775.825 1407.8,774.676 1409.63,773.531 1411.46,772.39 1413.29,771.253 1415.13,770.121 1416.96,768.993 1418.79,767.869 1420.62,766.749 1422.46,765.633 1424.29,764.521 1426.12,763.414 1427.95,762.31 1429.78,761.211 1431.62,760.116 1433.45,759.025 1435.28,757.938 1437.11,756.855 1438.95,755.776 1440.78,754.701 1442.61,753.631 1444.44,752.564 1446.28,751.501 1448.11,750.443 1449.94,749.388 1451.77,748.337 1453.61,747.291 1455.44,746.248 1457.27,745.209 1459.1,744.174 1460.94,743.144 1462.77,742.117 1464.6,741.094 1466.43,740.075 1468.27,739.06 1470.1,738.048 1471.93,737.041 1473.76,736.038 1475.6,735.038 1477.43,734.042 1479.26,733.05 1481.09,732.062 1482.92,731.078 1484.76,730.098 1486.59,729.121 1488.42,728.148 1490.25,727.179 1492.09,726.214 1493.92,725.252 1495.75,724.295 1497.58,723.341 1499.42,722.39 1501.25,721.444 1503.08,720.501 1504.91,719.562 1506.75,718.626 1508.58,717.695 1510.41,716.767 1512.24,715.842 1514.08,714.921 1515.91,714.004 1517.74,713.09 1519.57,712.181 1521.41,711.274 1523.24,710.371 1525.07,709.472 1526.9,708.577 1528.74,707.685 1530.57,706.796 1532.4,705.911 1534.23,705.03 1536.07,704.152 1537.9,703.277 1539.73,702.406 1541.56,701.539 1543.39,700.675 1545.23,699.815 1547.06,698.957 1548.89,698.104 1550.72,697.254 1552.56,696.407 1554.39,695.564 1556.22,694.724 1558.05,693.887 1559.89,693.054 1561.72,692.224 1563.55,691.398 1565.38,690.575 1567.22,689.755 1569.05,688.938 1570.88,688.125 1572.71,687.315 1574.55,686.509 1576.38,685.705 1578.21,684.905 1580.04,684.109 1581.88,683.315 1583.71,682.525 1585.54,681.738 1587.37,680.954 1589.21,680.173 1591.04,679.396 1592.87,678.622 1594.7,677.851 1596.53,677.083 1598.37,676.318 1600.2,675.556 1602.03,674.798 1603.86,674.042 1605.7,673.29 1607.53,672.541 1609.36,671.795 1611.19,671.052 1613.03,670.312 1614.86,669.575 1616.69,668.841 1618.52,668.111 1620.36,667.383 1622.19,666.658 1624.02,665.936 1625.85,665.217 1627.69,664.502 1629.52,663.789 1631.35,663.079 1633.18,662.372 1635.02,661.668 1636.85,660.967 1638.68,660.269 1640.51,659.574 1642.35,658.882 1644.18,658.192 1646.01,657.506 1647.84,656.822 1649.68,656.141 1651.51,655.463 1653.34,654.788 1655.17,654.116 1657,653.447 1658.84,652.78 1660.67,652.116 1662.5,651.455 1664.33,650.797 1666.17,650.141 1668,649.489 1669.83,648.839 1671.66,648.191 1673.5,647.547 1675.33,646.905 1677.16,646.266 1678.99,645.629 1680.83,644.996 1682.66,644.365 1684.49,643.736 1686.32,643.111 1688.16,642.488 1689.99,641.867 1691.82,641.249 1693.65,640.634 1695.49,640.022 1697.32,639.412 1699.15,638.804 1700.98,638.199 1702.82,637.597 1704.65,636.998 1706.48,636.4 1708.31,635.806 1710.14,635.214 1711.98,634.624 1713.81,634.037 1715.64,633.453 1717.47,632.871 1719.31,632.291 1721.14,631.714 1722.97,631.14 1724.8,630.568 1726.64,629.998 1728.47,629.431 1730.3,628.866 1732.13,628.304 1733.97,627.744 1735.8,627.186 1737.63,626.631 1739.46,626.078 1741.3,625.528 1743.13,624.98 1744.96,624.434 1746.79,623.891 1748.63,623.35 1750.46,622.811 1752.29,622.275 1754.12,621.741 1755.96,621.209 1757.79,620.68 1759.62,620.152 1761.45,619.627 1763.29,619.105 1765.12,618.585 1766.95,618.066 1768.78,617.551 1770.61,617.037 1772.45,616.525 1774.28,616.016 1776.11,615.509 1777.94,615.004 1779.78,614.502 1781.61,614.001 1783.44,613.503 1785.27,613.007 1787.11,612.513 1788.94,612.021 1790.77,611.532 1792.6,611.044 1794.44,610.559 1796.27,610.075 1798.1,609.594 1799.93,609.115 1801.77,608.638 1803.6,608.163 1805.43,607.69 1807.26,607.219 1809.1,606.751 1810.93,606.284 1812.76,605.819 1814.59,605.357 1816.43,604.896 1818.26,604.437 1820.09,603.981 1821.92,603.526 1823.75,603.074 1825.59,602.623 1827.42,602.174 1829.25,601.728 1831.08,601.283 1832.92,600.84 1834.75,600.399 1836.58,599.96 1838.41,599.523 1840.25,599.088 1842.08,598.655 1843.91,598.224 1845.74,597.794 1847.58,597.367 1849.41,596.941 1851.24,596.517 1853.07,596.096 1854.91,595.676 1856.74,595.257 1858.57,594.841 1860.4,594.427 1862.24,594.014 1864.07,593.603 1865.9,593.194 1867.73,592.787 1869.57,592.381 1871.4,591.978 1873.23,591.576 1875.06,591.176 1876.89,590.777 1878.73,590.381 1880.56,589.986 1882.39,589.593 1884.22,589.201 1886.06,588.812 1887.89,588.424 1889.72,588.038 1891.55,587.653 1893.39,587.27 1895.22,586.889 1897.05,586.51 1898.88,586.132 1900.72,585.756 1902.55,585.382 1904.38,585.009 1906.21,584.638 1908.05,584.269 1909.88,583.901 1911.71,583.535 1913.54,583.17 1915.38,582.808 1917.21,582.446 1919.04,582.087 1920.87,581.728 1922.71,581.372 1924.54,581.017 1926.37,580.664 1928.2,580.312 1930.04,579.962 1931.87,579.613 1933.7,579.266 1935.53,578.921 1937.36,578.577 1939.2,578.234 1941.03,577.893 1942.86,577.554 1944.69,577.216 1946.53,576.88 1948.36,576.545 1950.19,576.211 1952.02,575.879 1953.86,575.549 1955.69,575.22 1957.52,574.893 1959.35,574.567 1961.19,574.242 1963.02,573.919 1964.85,573.597 1966.68,573.277 1968.52,572.958 1970.35,572.641 1972.18,572.325 1974.01,572.011 1975.85,571.697 1977.68,571.386 1979.51,571.075 1981.34,570.766 1983.18,570.459 1985.01,570.153 1986.84,569.848 1988.67,569.545 1990.5,569.242 1992.34,568.942 1994.17,568.642 1996,568.344 1997.83,568.048 1999.67,567.752 2001.5,567.458 2003.33,567.166 2005.16,566.874 2007,566.584 2008.83,566.295 2010.66,566.008 2012.49,565.722 2014.33,565.437 2016.16,565.153 2017.99,564.871 2019.82,564.59 2021.66,564.31 2023.49,564.032 2025.32,563.754 2027.15,563.478 2028.99,563.203 2030.82,562.93 2032.65,562.658 2034.48,562.386 2036.32,562.117 2038.15,561.848 2039.98,561.58 2041.81,561.314 2043.65,561.049 2045.48,560.785 2047.31,560.523 2049.14,560.261 2050.97,560.001 2052.81,559.742 2054.64,559.484 2056.47,559.227 2058.3,558.971 2060.14,558.717 2061.97,558.464 2063.8,558.211 2065.63,557.96 2067.47,557.711 2069.3,557.462 2071.13,557.214 2072.96,556.968 2074.8,556.722 2076.63,556.478 2078.46,556.235 2080.29,555.993 2082.13,555.752 2083.96,555.512 2085.79,555.273 2087.62,555.035 2089.46,554.799 2091.29,554.563 2093.12,554.329 2094.95,554.095 2096.79,553.863 2098.62,553.631 2100.45,553.401 2102.28,553.172 2104.11,552.944 2105.95,552.716 2107.78,552.49 2109.61,552.265 2111.44,552.041 2113.28,551.818 2115.11,551.596 2116.94,551.375 2118.77,551.155 2120.61,550.936 2122.44,550.718 2124.27,550.501 2126.1,550.285 2127.94,550.07 2129.77,549.855 2131.6,549.642 2133.43,549.43 2135.27,549.219 2137.1,549.009 2138.93,548.799 2140.76,548.591 2142.6,548.384 2144.43,548.177 2146.26,547.972 2148.09,547.767 2149.93,547.563 2151.76,547.361 2153.59,547.159 2155.42,546.958 2157.26,546.758 2159.09,546.559 2160.92,546.361 2162.75,546.164 2164.58,545.967 2166.42,545.772 2168.25,545.577 2170.08,545.384 2171.91,545.191 2173.75,544.999 2175.58,544.808 2177.41,544.618 2179.24,544.429 2181.08,544.24 2182.91,544.053 2184.74,543.866 2186.57,543.68 2188.41,543.495 2190.24,543.311 2192.07,543.127 2193.9,542.945 2195.74,542.763 2197.57,542.582 2199.4,542.402 2201.23,542.223 2203.07,542.045 2204.9,541.867 2206.73,541.691 2208.56,541.515 2210.4,541.34 2212.23,541.165 2214.06,540.992 2215.89,540.819 2217.72,540.647 2219.56,540.476 2221.39,540.306 2223.22,540.136 2225.05,539.967 2226.89,539.799 2228.72,539.632 2230.55,539.465 2232.38,539.3 2234.22,539.135 2236.05,538.97 2237.88,538.807 2239.71,538.644 2241.55,538.482 2243.38,538.321 2245.21,538.161 2247.04,538.001 2248.88,537.842 2250.71,537.683 2252.54,537.526 2254.37,537.369 2256.21,537.213 2258.04,537.057 2259.87,536.903 2261.7,536.749 2263.54,536.595 2265.37,536.443 2267.2,536.291 2269.03,536.14 2270.87,535.989 2272.7,535.839 2274.53,535.69 2276.36,535.542 2278.19,535.394 2280.03,535.247 2281.86,535.101 2283.69,534.955 2285.52,534.81 2287.36,534.665 2289.19,534.522 2291.02,534.379 2292.85,534.236 2294.69,534.094 2296.52,533.953 "></polyline>
</svg>